<?xml version="1.0" encoding="UTF-8"?>
<svg xmlns="http://www.w3.org/2000/svg" xmlns:xlink="http://www.w3.org/1999/xlink" width="384.612pt" height="132.038pt" viewBox="0 0 384.612 132.038">
<defs>
<g>
<g id="glyph-0-0">
<path d="M 5.859375 -1.984375 C 5.859375 -2.171875 5.6875 -2.171875 5.578125 -2.171875 L 1 -2.171875 C 0.890625 -2.171875 0.703125 -2.171875 0.703125 -1.984375 C 0.703125 -1.8125 0.890625 -1.8125 1 -1.8125 L 5.578125 -1.8125 C 5.6875 -1.8125 5.859375 -1.8125 5.859375 -1.984375 Z M 5.859375 -1.984375 "/>
</g>
<g id="glyph-1-0">
<path d="M 3.984375 -1.3125 L 3.984375 -1.5625 L 3.140625 -1.5625 L 3.140625 -5.15625 C 3.140625 -5.3125 3.140625 -5.375 2.96875 -5.375 C 2.875 -5.375 2.859375 -5.375 2.78125 -5.265625 L 0.234375 -1.5625 L 0.234375 -1.3125 L 2.484375 -1.3125 L 2.484375 -0.640625 C 2.484375 -0.34375 2.46875 -0.265625 1.84375 -0.265625 L 1.671875 -0.265625 L 1.671875 0 L 2.8125 -0.03125 L 3.953125 0 L 3.953125 -0.265625 L 3.78125 -0.265625 C 3.15625 -0.265625 3.140625 -0.34375 3.140625 -0.640625 L 3.140625 -1.3125 Z M 2.546875 -1.5625 L 0.515625 -1.5625 L 2.546875 -4.515625 Z M 2.546875 -1.5625 "/>
</g>
<g id="glyph-1-1">
<path d="M 3.796875 -1.421875 L 3.546875 -1.421875 C 3.53125 -1.265625 3.46875 -0.875 3.375 -0.71875 C 3.328125 -0.65625 2.71875 -0.65625 2.59375 -0.65625 L 1.171875 -0.65625 L 2.25 -1.625 C 2.375 -1.75 2.703125 -2.015625 2.84375 -2.125 C 3.328125 -2.578125 3.796875 -3.015625 3.796875 -3.734375 C 3.796875 -4.6875 3 -5.296875 2.015625 -5.296875 C 1.046875 -5.296875 0.421875 -4.578125 0.421875 -3.859375 C 0.421875 -3.46875 0.734375 -3.421875 0.84375 -3.421875 C 1.015625 -3.421875 1.265625 -3.53125 1.265625 -3.84375 C 1.265625 -4.25 0.859375 -4.25 0.765625 -4.25 C 1 -4.84375 1.53125 -5.03125 1.921875 -5.03125 C 2.65625 -5.03125 3.046875 -4.40625 3.046875 -3.734375 C 3.046875 -2.90625 2.46875 -2.296875 1.515625 -1.34375 L 0.515625 -0.296875 C 0.421875 -0.21875 0.421875 -0.203125 0.421875 0 L 3.5625 0 Z M 3.796875 -1.421875 "/>
</g>
<g id="glyph-1-2">
<path d="M 3.890625 -2.546875 C 3.890625 -3.390625 3.8125 -3.90625 3.546875 -4.421875 C 3.203125 -5.125 2.546875 -5.296875 2.109375 -5.296875 C 1.109375 -5.296875 0.734375 -4.546875 0.625 -4.328125 C 0.34375 -3.75 0.328125 -2.953125 0.328125 -2.546875 C 0.328125 -2.015625 0.34375 -1.21875 0.734375 -0.578125 C 1.09375 0.015625 1.6875 0.171875 2.109375 0.171875 C 2.5 0.171875 3.171875 0.046875 3.578125 -0.734375 C 3.875 -1.3125 3.890625 -2.03125 3.890625 -2.546875 Z M 3.1875 -2.640625 C 3.1875 -2.171875 3.1875 -1.453125 3.09375 -1 C 2.921875 -0.171875 2.375 -0.0625 2.109375 -0.0625 C 1.84375 -0.0625 1.296875 -0.1875 1.125 -1.015625 C 1.03125 -1.46875 1.03125 -2.21875 1.03125 -2.640625 C 1.03125 -3.1875 1.03125 -3.75 1.125 -4.1875 C 1.296875 -5 1.90625 -5.078125 2.109375 -5.078125 C 2.375 -5.078125 2.9375 -4.9375 3.09375 -4.21875 C 3.1875 -3.78125 3.1875 -3.171875 3.1875 -2.640625 Z M 3.1875 -2.640625 "/>
</g>
<g id="glyph-1-3">
<path d="M 3.875 -1.625 C 3.875 -2.65625 3.078125 -3.390625 2.203125 -3.390625 C 1.625 -3.390625 1.28125 -3.03125 1.09375 -2.640625 C 1.09375 -3.296875 1.15625 -3.875 1.4375 -4.359375 C 1.6875 -4.765625 2.09375 -5.09375 2.59375 -5.09375 C 2.75 -5.09375 3.109375 -5.0625 3.296875 -4.796875 C 2.9375 -4.765625 2.90625 -4.5 2.90625 -4.421875 C 2.90625 -4.171875 3.09375 -4.046875 3.28125 -4.046875 C 3.421875 -4.046875 3.65625 -4.125 3.65625 -4.4375 C 3.65625 -4.90625 3.296875 -5.296875 2.578125 -5.296875 C 1.46875 -5.296875 0.34375 -4.25 0.34375 -2.53125 C 0.34375 -0.359375 1.359375 0.171875 2.125 0.171875 C 2.515625 0.171875 2.921875 0.0625 3.28125 -0.28125 C 3.609375 -0.59375 3.875 -0.921875 3.875 -1.625 Z M 3.125 -1.625 C 3.125 -1.21875 3.125 -0.875 2.96875 -0.578125 C 2.75 -0.21875 2.484375 -0.078125 2.125 -0.078125 C 1.703125 -0.078125 1.4375 -0.359375 1.328125 -0.59375 C 1.140625 -0.953125 1.125 -1.484375 1.125 -1.796875 C 1.125 -2.578125 1.546875 -3.171875 2.171875 -3.171875 C 2.5625 -3.171875 2.8125 -2.96875 2.953125 -2.6875 C 3.125 -2.390625 3.125 -2.03125 3.125 -1.625 Z M 3.125 -1.625 "/>
</g>
<g id="glyph-1-4">
<path d="M 3.328125 -4.21875 L 2.125 -5.5 L 0.90625 -4.21875 L 1.015625 -4.109375 L 2.125 -4.96875 L 3.234375 -4.109375 Z M 3.328125 -4.21875 "/>
</g>
<g id="glyph-2-0">
<path d="M 1.625 -0.4375 C 1.625 -0.703125 1.390625 -0.890625 1.171875 -0.890625 C 0.921875 -0.890625 0.734375 -0.671875 0.734375 -0.453125 C 0.734375 -0.171875 0.953125 0 1.171875 0 C 1.421875 0 1.625 -0.203125 1.625 -0.4375 Z M 1.625 -0.4375 "/>
</g>
<g id="glyph-2-1">
<path d="M 3.6875 -1.15625 C 3.6875 -1.234375 3.640625 -1.265625 3.5625 -1.265625 C 3.484375 -1.265625 3.46875 -1.21875 3.4375 -1.125 C 3.28125 -0.734375 2.84375 -0.515625 2.453125 -0.515625 C 2.296875 -0.515625 2.125 -0.5625 1.875 -0.625 C 1.546875 -0.703125 1.46875 -0.703125 1.34375 -0.703125 C 1.265625 -0.703125 1.21875 -0.703125 1.15625 -0.6875 C 1.4375 -0.984375 1.53125 -1.078125 2.234375 -1.65625 C 2.3125 -1.734375 2.875 -2.1875 3.09375 -2.40625 C 3.59375 -2.890625 3.90625 -3.328125 3.90625 -3.421875 C 3.90625 -3.484375 3.84375 -3.515625 3.78125 -3.515625 C 3.703125 -3.515625 3.703125 -3.5 3.625 -3.375 C 3.375 -3.015625 3.203125 -2.953125 3.046875 -2.953125 C 2.90625 -2.953125 2.8125 -3.015625 2.640625 -3.171875 C 2.4375 -3.375 2.28125 -3.515625 2.03125 -3.515625 C 1.390625 -3.515625 0.984375 -2.796875 0.984375 -2.578125 C 0.984375 -2.578125 0.984375 -2.484375 1.109375 -2.484375 C 1.1875 -2.484375 1.21875 -2.515625 1.25 -2.609375 C 1.34375 -2.84375 1.6875 -2.921875 1.921875 -2.921875 C 2.109375 -2.921875 2.296875 -2.875 2.5 -2.8125 C 2.828125 -2.71875 2.90625 -2.71875 3.078125 -2.71875 C 2.921875 -2.546875 2.6875 -2.328125 2.078125 -1.828125 C 1.75 -1.546875 1.40625 -1.28125 1.1875 -1.0625 C 0.609375 -0.484375 0.34375 -0.09375 0.34375 -0.015625 C 0.34375 0.0625 0.40625 0.078125 0.46875 0.078125 C 0.546875 0.078125 0.5625 0.0625 0.609375 0 C 0.765625 -0.234375 1.015625 -0.484375 1.3125 -0.484375 C 1.5 -0.484375 1.578125 -0.421875 1.734375 -0.265625 C 1.984375 -0.015625 2.125 0.078125 2.359375 0.078125 C 3.1875 0.078125 3.6875 -0.90625 3.6875 -1.15625 Z M 3.6875 -1.15625 "/>
</g>
<g id="glyph-2-2">
<path d="M 3.09375 -0.671875 C 3.09375 -0.71875 3.0625 -0.8125 2.984375 -0.8125 C 2.9375 -0.8125 2.921875 -0.78125 2.859375 -0.71875 C 2.53125 -0.4375 2.140625 -0.125 1.78125 -0.125 C 1.34375 -0.125 1.265625 -0.6875 1.265625 -1.1875 C 1.265625 -1.25 1.265625 -1.390625 1.28125 -1.546875 L 1.3125 -1.578125 C 1.390625 -1.65625 1.46875 -1.734375 1.53125 -1.8125 C 2.09375 -2.375 2.46875 -2.890625 2.671875 -3.171875 C 3.0625 -3.8125 3.296875 -4.46875 3.296875 -4.953125 C 3.296875 -5.328125 3.140625 -5.609375 2.78125 -5.609375 C 1.8125 -5.609375 0.75 -3.0625 0.75 -1.5625 C 0.75 -1.484375 0.75 -1.46875 0.765625 -1.390625 L 0.21875 -0.890625 C 0.078125 -0.75 0.078125 -0.734375 0.078125 -0.703125 C 0.078125 -0.65625 0.125 -0.578125 0.1875 -0.578125 C 0.21875 -0.578125 0.234375 -0.578125 0.34375 -0.6875 L 0.78125 -1.078125 C 0.875 -0.609375 1.09375 0.09375 1.765625 0.09375 C 2.0625 0.09375 2.359375 -0.0625 2.578125 -0.203125 C 2.703125 -0.28125 3.09375 -0.578125 3.09375 -0.671875 Z M 3.046875 -4.96875 C 3.046875 -4.875 3.046875 -4.21875 2.421875 -3.265625 C 2 -2.609375 1.390625 -2.015625 1.34375 -1.96875 C 1.421875 -2.421875 1.703125 -3.5625 1.953125 -4.21875 C 2.046875 -4.46875 2.40625 -5.390625 2.78125 -5.390625 C 2.96875 -5.390625 3.046875 -5.234375 3.046875 -4.96875 Z M 3.046875 -4.96875 "/>
</g>
<g id="glyph-3-0">
<path d="M 4.421875 -1.71875 C 4.421875 -2.71875 3.609375 -3.515625 2.640625 -3.515625 C 2.328125 -3.515625 1.875 -3.4375 1.46875 -3.015625 L 1.46875 -3.515625 L 0.28125 -3.421875 L 0.28125 -3.15625 C 0.84375 -3.15625 0.890625 -3.109375 0.890625 -2.78125 L 0.890625 0.921875 C 0.890625 1.28125 0.78125 1.28125 0.28125 1.28125 L 0.28125 1.546875 C 0.625 1.515625 0.96875 1.515625 1.1875 1.515625 C 1.421875 1.515625 1.75 1.515625 2.09375 1.546875 L 2.09375 1.28125 C 1.578125 1.28125 1.484375 1.28125 1.484375 0.921875 L 1.484375 -0.390625 C 1.859375 0.015625 2.265625 0.078125 2.53125 0.078125 C 3.53125 0.078125 4.421875 -0.703125 4.421875 -1.71875 Z M 3.703125 -1.71875 C 3.703125 -0.8125 3.125 -0.140625 2.484375 -0.140625 C 2.203125 -0.140625 1.84375 -0.265625 1.578125 -0.65625 C 1.484375 -0.796875 1.484375 -0.8125 1.484375 -0.953125 L 1.484375 -2.65625 C 1.671875 -2.96875 2.078125 -3.265625 2.578125 -3.265625 C 3.1875 -3.265625 3.703125 -2.59375 3.703125 -1.71875 Z M 3.703125 -1.71875 "/>
</g>
<g id="glyph-3-1">
<path d="M 3.0625 -3.015625 C 3.0625 -3.296875 2.8125 -3.515625 2.453125 -3.515625 C 1.9375 -3.515625 1.578125 -3.125 1.421875 -2.671875 L 1.40625 -2.671875 L 1.40625 -3.515625 L 0.28125 -3.421875 L 0.28125 -3.15625 C 0.828125 -3.15625 0.890625 -3.109375 0.890625 -2.71875 L 0.890625 -0.625 C 0.890625 -0.265625 0.78125 -0.265625 0.28125 -0.265625 L 0.28125 0 C 0.59375 -0.03125 1.03125 -0.03125 1.21875 -0.03125 C 1.6875 -0.03125 1.703125 -0.03125 2.21875 0 L 2.21875 -0.265625 L 2.0625 -0.265625 C 1.484375 -0.265625 1.46875 -0.34375 1.46875 -0.640625 L 1.46875 -1.8125 C 1.46875 -2.421875 1.71875 -3.28125 2.484375 -3.296875 C 2.4375 -3.265625 2.34375 -3.203125 2.34375 -3.015625 C 2.34375 -2.765625 2.546875 -2.65625 2.703125 -2.65625 C 2.890625 -2.65625 3.0625 -2.78125 3.0625 -3.015625 Z M 3.0625 -3.015625 "/>
</g>
<g id="glyph-3-2">
<path d="M 3.515625 -0.953125 C 3.515625 -0.984375 3.484375 -1.0625 3.390625 -1.0625 C 3.296875 -1.0625 3.28125 -1.015625 3.265625 -0.96875 C 2.984375 -0.1875 2.296875 -0.171875 2.15625 -0.171875 C 1.796875 -0.171875 1.421875 -0.328125 1.1875 -0.703125 C 0.953125 -1.0625 0.953125 -1.578125 0.953125 -1.8125 L 3.296875 -1.8125 C 3.46875 -1.8125 3.515625 -1.8125 3.515625 -2 C 3.515625 -2.703125 3.125 -3.546875 2 -3.546875 C 1.015625 -3.546875 0.234375 -2.734375 0.234375 -1.75 C 0.234375 -0.71875 1.09375 0.078125 2.109375 0.078125 C 3.109375 0.078125 3.515625 -0.765625 3.515625 -0.953125 Z M 2.96875 -2.03125 L 0.953125 -2.03125 C 1.03125 -3.140625 1.703125 -3.328125 2 -3.328125 C 2.9375 -3.328125 2.96875 -2.203125 2.96875 -2.03125 Z M 2.96875 -2.03125 "/>
</g>
<g id="glyph-3-3">
<path d="M 2.34375 -1.453125 L 2.34375 -1.96875 L 0.09375 -1.96875 L 0.09375 -1.453125 Z M 2.34375 -1.453125 "/>
</g>
<g id="glyph-3-4">
<path d="M 4.09375 -0.71875 L 4.09375 -1.15625 L 3.84375 -1.15625 L 3.84375 -0.71875 C 3.84375 -0.390625 3.734375 -0.265625 3.5625 -0.265625 C 3.265625 -0.265625 3.265625 -0.625 3.265625 -0.71875 L 3.265625 -2.375 C 3.265625 -3.15625 2.515625 -3.546875 1.78125 -3.546875 C 1.125 -3.546875 0.53125 -3.296875 0.53125 -2.765625 C 0.53125 -2.53125 0.703125 -2.390625 0.90625 -2.390625 C 1.125 -2.390625 1.28125 -2.546875 1.28125 -2.765625 C 1.28125 -2.953125 1.15625 -3.09375 0.984375 -3.125 C 1.28125 -3.328125 1.71875 -3.328125 1.765625 -3.328125 C 2.21875 -3.328125 2.65625 -3.015625 2.65625 -2.359375 L 2.65625 -2.125 C 2.203125 -2.09375 1.671875 -2.078125 1.109375 -1.84375 C 0.40625 -1.53125 0.265625 -1.078125 0.265625 -0.8125 C 0.265625 -0.125 1.078125 0.078125 1.625 0.078125 C 2.203125 0.078125 2.5625 -0.25 2.734375 -0.5625 C 2.78125 -0.265625 2.984375 0.046875 3.34375 0.046875 C 3.421875 0.046875 4.09375 0.015625 4.09375 -0.71875 Z M 2.65625 -1.125 C 2.65625 -0.34375 2.015625 -0.140625 1.6875 -0.140625 C 1.28125 -0.140625 0.921875 -0.421875 0.921875 -0.8125 C 0.921875 -1.328125 1.421875 -1.875 2.65625 -1.90625 Z M 2.65625 -1.125 "/>
</g>
<g id="glyph-3-5">
<path d="M 3.515625 -0.953125 C 3.515625 -1.046875 3.40625 -1.046875 3.390625 -1.046875 C 3.328125 -1.046875 3.296875 -1.046875 3.265625 -0.96875 C 3.21875 -0.796875 2.984375 -0.171875 2.1875 -0.171875 C 1.703125 -0.171875 0.984375 -0.546875 0.984375 -1.734375 C 0.984375 -2.875 1.578125 -3.3125 2.15625 -3.3125 C 2.234375 -3.3125 2.65625 -3.3125 2.9375 -3.15625 C 2.703125 -3.09375 2.671875 -2.90625 2.671875 -2.8125 C 2.671875 -2.59375 2.828125 -2.4375 3.046875 -2.4375 C 3.265625 -2.4375 3.421875 -2.578125 3.421875 -2.828125 C 3.421875 -3.3125 2.890625 -3.546875 2.140625 -3.546875 C 1.03125 -3.546875 0.28125 -2.671875 0.28125 -1.71875 C 0.28125 -0.703125 1.109375 0.078125 2.109375 0.078125 C 3.234375 0.078125 3.515625 -0.859375 3.515625 -0.953125 Z M 3.515625 -0.953125 "/>
</g>
<g id="glyph-3-6">
<path d="M 2.8125 -1 L 2.8125 -1.4375 L 2.5625 -1.4375 L 2.5625 -1.015625 C 2.5625 -0.46875 2.3125 -0.171875 2.015625 -0.171875 C 1.484375 -0.171875 1.484375 -0.859375 1.484375 -0.984375 L 1.484375 -3.171875 L 2.671875 -3.171875 L 2.671875 -3.4375 L 1.484375 -3.4375 L 1.484375 -4.90625 L 1.234375 -4.90625 C 1.234375 -4.171875 0.90625 -3.421875 0.15625 -3.390625 L 0.15625 -3.171875 L 0.875 -3.171875 L 0.875 -1 C 0.875 -0.0625 1.59375 0.078125 1.953125 0.078125 C 2.5 0.078125 2.8125 -0.390625 2.8125 -1 Z M 2.8125 -1 "/>
</g>
<g id="glyph-3-7">
<path d="M 2.078125 0 L 2.078125 -0.265625 C 1.546875 -0.265625 1.515625 -0.296875 1.515625 -0.609375 L 1.515625 -3.515625 L 0.359375 -3.421875 L 0.359375 -3.15625 C 0.875 -3.15625 0.9375 -3.109375 0.9375 -2.71875 L 0.9375 -0.625 C 0.9375 -0.265625 0.84375 -0.265625 0.328125 -0.265625 L 0.328125 0 C 0.640625 -0.03125 1.09375 -0.03125 1.21875 -0.03125 C 1.3125 -0.03125 1.796875 -0.03125 2.078125 0 Z M 1.625 -4.796875 C 1.625 -5.0625 1.40625 -5.25 1.171875 -5.25 C 0.953125 -5.25 0.734375 -5.0625 0.734375 -4.796875 C 0.734375 -4.5625 0.921875 -4.359375 1.171875 -4.359375 C 1.421875 -4.359375 1.625 -4.5625 1.625 -4.796875 Z M 1.625 -4.796875 "/>
</g>
<g id="glyph-3-8">
<path d="M 4.28125 -3.171875 L 4.28125 -3.4375 C 4.015625 -3.40625 4 -3.40625 3.671875 -3.40625 C 3.59375 -3.40625 3.21875 -3.40625 2.96875 -3.4375 L 2.96875 -3.171875 C 3.25 -3.15625 3.328125 -2.984375 3.328125 -2.84375 C 3.328125 -2.765625 3.3125 -2.71875 3.28125 -2.65625 L 2.421875 -0.640625 L 1.46875 -2.8125 C 1.421875 -2.90625 1.421875 -2.96875 1.421875 -2.96875 C 1.421875 -3.171875 1.71875 -3.171875 1.84375 -3.171875 L 1.84375 -3.4375 C 1.5 -3.40625 1.125 -3.40625 0.984375 -3.40625 C 0.8125 -3.40625 0.4375 -3.40625 0.171875 -3.4375 L 0.171875 -3.171875 C 0.65625 -3.171875 0.703125 -3.125 0.828125 -2.859375 L 2.015625 -0.09375 C 2.078125 0.03125 2.125 0.078125 2.234375 0.078125 C 2.34375 0.078125 2.40625 0.015625 2.4375 -0.078125 L 3.53125 -2.609375 C 3.71875 -3.0625 4 -3.15625 4.28125 -3.171875 Z M 4.28125 -3.171875 "/>
</g>
<g id="glyph-3-9">
<path d="M 3.984375 -1.703125 C 3.984375 -2.6875 3.15625 -3.546875 2.109375 -3.546875 C 1.0625 -3.546875 0.234375 -2.6875 0.234375 -1.703125 C 0.234375 -0.703125 1.09375 0.078125 2.109375 0.078125 C 3.140625 0.078125 3.984375 -0.703125 3.984375 -1.703125 Z M 3.28125 -1.765625 C 3.28125 -1.40625 3.265625 -0.96875 3.03125 -0.625 C 2.828125 -0.3125 2.46875 -0.171875 2.109375 -0.171875 C 1.6875 -0.171875 1.34375 -0.375 1.171875 -0.65625 C 0.96875 -0.984375 0.953125 -1.375 0.953125 -1.765625 C 0.953125 -2.078125 0.953125 -2.546875 1.1875 -2.890625 C 1.40625 -3.171875 1.734375 -3.328125 2.109375 -3.328125 C 2.53125 -3.328125 2.875 -3.125 3.046875 -2.859375 C 3.265625 -2.515625 3.28125 -2.09375 3.28125 -1.765625 Z M 3.28125 -1.765625 "/>
</g>
<g id="glyph-3-10">
<path d="M 4.484375 0 L 4.484375 -0.265625 C 3.96875 -0.265625 3.875 -0.265625 3.875 -0.625 L 3.875 -2.421875 C 3.875 -3.078125 3.5625 -3.515625 2.734375 -3.515625 C 1.9375 -3.515625 1.578125 -2.9375 1.484375 -2.75 L 1.484375 -3.515625 L 0.328125 -3.421875 L 0.328125 -3.15625 C 0.875 -3.15625 0.9375 -3.109375 0.9375 -2.71875 L 0.9375 -0.625 C 0.9375 -0.265625 0.84375 -0.265625 0.328125 -0.265625 L 0.328125 0 C 0.671875 -0.03125 1.015625 -0.03125 1.234375 -0.03125 C 1.46875 -0.03125 1.796875 -0.03125 2.140625 0 L 2.140625 -0.265625 C 1.640625 -0.265625 1.53125 -0.265625 1.53125 -0.625 L 1.53125 -2.0625 C 1.53125 -2.90625 2.171875 -3.296875 2.65625 -3.296875 C 3.140625 -3.296875 3.265625 -2.953125 3.265625 -2.453125 L 3.265625 -0.625 C 3.265625 -0.265625 3.171875 -0.265625 2.65625 -0.265625 L 2.65625 0 C 3 -0.03125 3.359375 -0.03125 3.5625 -0.03125 C 3.796875 -0.03125 4.140625 -0.03125 4.484375 0 Z M 4.484375 0 "/>
</g>
<g id="glyph-3-11">
<path d="M 4.484375 0 L 4.484375 -0.265625 C 3.96875 -0.265625 3.875 -0.265625 3.875 -0.625 L 3.875 -2.421875 C 3.875 -3.078125 3.5625 -3.515625 2.734375 -3.515625 C 2.03125 -3.515625 1.671875 -3.0625 1.515625 -2.8125 L 1.515625 -5.53125 L 0.328125 -5.4375 L 0.328125 -5.171875 C 0.875 -5.171875 0.9375 -5.125 0.9375 -4.734375 L 0.9375 -0.625 C 0.9375 -0.265625 0.84375 -0.265625 0.328125 -0.265625 L 0.328125 0 C 0.671875 -0.03125 1.015625 -0.03125 1.234375 -0.03125 C 1.46875 -0.03125 1.796875 -0.03125 2.140625 0 L 2.140625 -0.265625 C 1.640625 -0.265625 1.53125 -0.265625 1.53125 -0.625 L 1.53125 -2.0625 C 1.53125 -2.90625 2.171875 -3.296875 2.65625 -3.296875 C 3.140625 -3.296875 3.265625 -2.953125 3.265625 -2.453125 L 3.265625 -0.625 C 3.265625 -0.265625 3.171875 -0.265625 2.65625 -0.265625 L 2.65625 0 C 3 -0.03125 3.359375 -0.03125 3.5625 -0.03125 C 3.796875 -0.03125 4.140625 -0.03125 4.484375 0 Z M 4.484375 0 "/>
</g>
<g id="glyph-3-12">
<path d="M 4.421875 0 L 4.421875 -0.265625 C 3.875 -0.265625 3.8125 -0.3125 3.8125 -0.703125 L 3.8125 -5.53125 L 2.625 -5.4375 L 2.625 -5.171875 C 3.15625 -5.171875 3.234375 -5.125 3.234375 -4.734375 L 3.234375 -3.046875 C 2.953125 -3.359375 2.578125 -3.515625 2.15625 -3.515625 C 1.15625 -3.515625 0.28125 -2.734375 0.28125 -1.71875 C 0.28125 -0.734375 1.078125 0.078125 2.078125 0.078125 C 2.546875 0.078125 2.9375 -0.140625 3.203125 -0.421875 L 3.203125 0.078125 Z M 3.203125 -0.984375 C 3.203125 -0.84375 3.203125 -0.8125 3.078125 -0.65625 C 2.859375 -0.328125 2.5 -0.140625 2.125 -0.140625 C 1.75 -0.140625 1.4375 -0.328125 1.25 -0.625 C 1.03125 -0.9375 0.984375 -1.328125 0.984375 -1.703125 C 0.984375 -2.171875 1.0625 -2.5 1.25 -2.765625 C 1.4375 -3.0625 1.796875 -3.296875 2.203125 -3.296875 C 2.578125 -3.296875 2.96875 -3.09375 3.203125 -2.6875 Z M 3.203125 -0.984375 "/>
</g>
<g id="glyph-3-13">
<path d="M 2.125 0 L 2.125 -0.265625 C 1.625 -0.265625 1.515625 -0.265625 1.515625 -0.625 L 1.515625 -5.53125 L 0.328125 -5.4375 L 0.328125 -5.171875 C 0.875 -5.171875 0.9375 -5.125 0.9375 -4.734375 L 0.9375 -0.625 C 0.9375 -0.265625 0.84375 -0.265625 0.328125 -0.265625 L 0.328125 0 C 0.640625 -0.03125 1.09375 -0.03125 1.234375 -0.03125 C 1.390625 -0.03125 1.8125 -0.03125 2.125 0 Z M 2.125 0 "/>
</g>
<g id="glyph-3-14">
<path d="M 4.28125 -3.171875 L 4.28125 -3.4375 C 4.015625 -3.40625 4 -3.40625 3.65625 -3.40625 C 3.625 -3.40625 3.203125 -3.40625 2.96875 -3.4375 L 2.96875 -3.171875 C 3.203125 -3.15625 3.3125 -3.03125 3.3125 -2.84375 C 3.3125 -2.796875 3.3125 -2.734375 3.265625 -2.640625 L 2.421875 -0.71875 L 1.484375 -2.8125 C 1.4375 -2.921875 1.4375 -2.9375 1.4375 -2.96875 C 1.4375 -3.15625 1.6875 -3.171875 1.859375 -3.171875 L 1.859375 -3.4375 C 1.5 -3.40625 1.15625 -3.40625 0.984375 -3.40625 C 0.8125 -3.40625 0.4375 -3.40625 0.171875 -3.4375 L 0.171875 -3.171875 C 0.59375 -3.171875 0.703125 -3.15625 0.84375 -2.859375 L 2.09375 0 C 1.734375 0.84375 1.5 1.40625 0.9375 1.40625 C 0.734375 1.40625 0.609375 1.3125 0.609375 1.3125 C 0.671875 1.296875 0.859375 1.203125 0.859375 0.96875 C 0.859375 0.75 0.6875 0.625 0.515625 0.625 C 0.34375 0.625 0.171875 0.734375 0.171875 0.984375 C 0.171875 1.328125 0.515625 1.625 0.9375 1.625 C 1.65625 1.625 2.03125 0.765625 2.0625 0.6875 L 3.53125 -2.625 C 3.734375 -3.078125 4.03125 -3.15625 4.28125 -3.171875 Z M 4.28125 -3.171875 "/>
</g>
<g id="glyph-3-15">
<path d="M 3.046875 -1.03125 C 3.046875 -1.40625 2.828125 -1.96875 1.875 -2.140625 C 1.8125 -2.15625 1.359375 -2.234375 1.328125 -2.234375 C 1.078125 -2.296875 0.703125 -2.46875 0.703125 -2.78125 C 0.703125 -3.015625 0.890625 -3.359375 1.640625 -3.359375 C 2.53125 -3.359375 2.578125 -2.703125 2.59375 -2.484375 C 2.59375 -2.421875 2.65625 -2.390625 2.703125 -2.390625 C 2.84375 -2.390625 2.84375 -2.453125 2.84375 -2.59375 L 2.84375 -3.34375 C 2.84375 -3.46875 2.84375 -3.546875 2.734375 -3.546875 C 2.6875 -3.546875 2.671875 -3.546875 2.546875 -3.421875 C 2.53125 -3.421875 2.453125 -3.34375 2.4375 -3.34375 C 2.4375 -3.34375 2.40625 -3.34375 2.359375 -3.375 C 2.234375 -3.46875 2 -3.546875 1.640625 -3.546875 C 0.53125 -3.546875 0.28125 -2.953125 0.28125 -2.5625 C 0.28125 -2.171875 0.578125 -1.9375 0.59375 -1.90625 C 0.921875 -1.671875 1.09375 -1.640625 1.640625 -1.546875 C 2.015625 -1.46875 2.625 -1.359375 2.625 -0.828125 C 2.625 -0.515625 2.421875 -0.140625 1.6875 -0.140625 C 0.875 -0.140625 0.640625 -0.765625 0.546875 -1.1875 C 0.515625 -1.296875 0.5 -1.328125 0.40625 -1.328125 C 0.28125 -1.328125 0.28125 -1.265625 0.28125 -1.109375 L 0.28125 -0.125 C 0.28125 0 0.28125 0.078125 0.375 0.078125 C 0.4375 0.078125 0.4375 0.078125 0.578125 -0.078125 C 0.625 -0.125 0.703125 -0.21875 0.75 -0.265625 C 1.109375 0.0625 1.484375 0.078125 1.6875 0.078125 C 2.703125 0.078125 3.046875 -0.5 3.046875 -1.03125 Z M 3.046875 -1.03125 "/>
</g>
<g id="glyph-3-16">
<path d="M 3.796875 -1.59375 C 3.796875 -2.515625 3.125 -3.34375 2.1875 -3.34375 C 1.796875 -3.34375 1.421875 -3.21875 1.109375 -2.9375 L 1.109375 -4.484375 C 1.21875 -4.453125 1.53125 -4.359375 1.875 -4.359375 C 2.875 -4.359375 3.46875 -5.0625 3.46875 -5.1875 C 3.46875 -5.28125 3.421875 -5.296875 3.375 -5.296875 C 3.375 -5.296875 3.34375 -5.296875 3.28125 -5.265625 C 2.96875 -5.140625 2.59375 -5.046875 2.171875 -5.046875 C 1.703125 -5.046875 1.3125 -5.15625 1.0625 -5.265625 C 0.984375 -5.296875 0.953125 -5.296875 0.953125 -5.296875 C 0.859375 -5.296875 0.859375 -5.21875 0.859375 -5.0625 L 0.859375 -2.734375 C 0.859375 -2.59375 0.859375 -2.5 0.984375 -2.5 C 1.046875 -2.5 1.0625 -2.53125 1.109375 -2.59375 C 1.203125 -2.703125 1.5 -3.109375 2.1875 -3.109375 C 2.625 -3.109375 2.84375 -2.75 2.921875 -2.59375 C 3.046875 -2.3125 3.0625 -1.9375 3.0625 -1.640625 C 3.0625 -1.34375 3.0625 -0.90625 2.84375 -0.5625 C 2.6875 -0.3125 2.359375 -0.078125 1.9375 -0.078125 C 1.421875 -0.078125 0.921875 -0.390625 0.734375 -0.921875 C 0.75 -0.90625 0.8125 -0.90625 0.8125 -0.90625 C 1.03125 -0.90625 1.21875 -1.046875 1.21875 -1.296875 C 1.21875 -1.59375 0.984375 -1.703125 0.828125 -1.703125 C 0.671875 -1.703125 0.421875 -1.625 0.421875 -1.28125 C 0.421875 -0.5625 1.046875 0.171875 1.953125 0.171875 C 2.953125 0.171875 3.796875 -0.609375 3.796875 -1.59375 Z M 3.796875 -1.59375 "/>
</g>
<g id="glyph-3-17">
<path d="M 3.890625 -2.546875 C 3.890625 -3.390625 3.8125 -3.90625 3.546875 -4.421875 C 3.203125 -5.125 2.546875 -5.296875 2.109375 -5.296875 C 1.109375 -5.296875 0.734375 -4.546875 0.625 -4.328125 C 0.34375 -3.75 0.328125 -2.953125 0.328125 -2.546875 C 0.328125 -2.015625 0.34375 -1.21875 0.734375 -0.578125 C 1.09375 0.015625 1.6875 0.171875 2.109375 0.171875 C 2.5 0.171875 3.171875 0.046875 3.578125 -0.734375 C 3.875 -1.3125 3.890625 -2.03125 3.890625 -2.546875 Z M 3.1875 -2.640625 C 3.1875 -2.171875 3.1875 -1.453125 3.09375 -1 C 2.921875 -0.171875 2.375 -0.0625 2.109375 -0.0625 C 1.84375 -0.0625 1.296875 -0.1875 1.125 -1.015625 C 1.03125 -1.46875 1.03125 -2.21875 1.03125 -2.640625 C 1.03125 -3.1875 1.03125 -3.75 1.125 -4.1875 C 1.296875 -5 1.90625 -5.078125 2.109375 -5.078125 C 2.375 -5.078125 2.9375 -4.9375 3.09375 -4.21875 C 3.1875 -3.78125 3.1875 -3.171875 3.1875 -2.640625 Z M 3.1875 -2.640625 "/>
</g>
<g id="glyph-3-18">
<path d="M 6.828125 0 L 6.828125 -0.265625 C 6.3125 -0.265625 6.21875 -0.265625 6.21875 -0.625 L 6.21875 -2.421875 C 6.21875 -3.0625 5.9375 -3.515625 5.078125 -3.515625 C 4.34375 -3.515625 3.96875 -3.015625 3.84375 -2.78125 C 3.703125 -3.359375 3.25 -3.515625 2.734375 -3.515625 C 1.953125 -3.515625 1.59375 -2.96875 1.484375 -2.75 L 1.484375 -3.515625 L 0.328125 -3.421875 L 0.328125 -3.15625 C 0.875 -3.15625 0.9375 -3.109375 0.9375 -2.71875 L 0.9375 -0.625 C 0.9375 -0.265625 0.84375 -0.265625 0.328125 -0.265625 L 0.328125 0 C 0.671875 -0.03125 1.015625 -0.03125 1.234375 -0.03125 C 1.46875 -0.03125 1.796875 -0.03125 2.140625 0 L 2.140625 -0.265625 C 1.640625 -0.265625 1.53125 -0.265625 1.53125 -0.625 L 1.53125 -2.0625 C 1.53125 -2.90625 2.171875 -3.296875 2.671875 -3.296875 C 3.1875 -3.296875 3.28125 -2.890625 3.28125 -2.453125 L 3.28125 -0.625 C 3.28125 -0.265625 3.171875 -0.265625 2.671875 -0.265625 L 2.671875 0 C 3.015625 -0.03125 3.359375 -0.03125 3.578125 -0.03125 C 3.8125 -0.03125 4.140625 -0.03125 4.484375 0 L 4.484375 -0.265625 C 3.96875 -0.265625 3.875 -0.265625 3.875 -0.625 L 3.875 -2.0625 C 3.875 -2.90625 4.515625 -3.296875 5.015625 -3.296875 C 5.53125 -3.296875 5.625 -2.890625 5.625 -2.453125 L 5.625 -0.625 C 5.625 -0.265625 5.515625 -0.265625 5.015625 -0.265625 L 5.015625 0 C 5.359375 -0.03125 5.703125 -0.03125 5.921875 -0.03125 C 6.15625 -0.03125 6.484375 -0.03125 6.828125 0 Z M 6.828125 0 "/>
</g>
<g id="glyph-3-19">
<path d="M 3.40625 -1.53125 L 3.15625 -1.53125 C 3.078125 -0.609375 2.921875 -0.25 1.9375 -0.25 L 1 -0.25 L 3.3125 -3.15625 C 3.359375 -3.234375 3.375 -3.25 3.375 -3.3125 C 3.375 -3.4375 3.28125 -3.4375 3.15625 -3.4375 L 0.453125 -3.4375 L 0.34375 -2.109375 L 0.59375 -2.109375 C 0.640625 -2.9375 0.828125 -3.21875 1.71875 -3.21875 L 2.625 -3.21875 L 0.3125 -0.296875 C 0.25 -0.21875 0.234375 -0.203125 0.234375 -0.140625 C 0.234375 0 0.328125 0 0.46875 0 L 3.265625 0 Z M 3.40625 -1.53125 "/>
</g>
<g id="glyph-4-0">
<path d="M 0 -4.421875 L -0.265625 -4.421875 C -0.265625 -3.875 -0.3125 -3.8125 -0.703125 -3.8125 L -5.53125 -3.8125 L -5.4375 -2.625 L -5.171875 -2.625 C -5.171875 -3.15625 -5.125 -3.234375 -4.734375 -3.234375 L -3.046875 -3.234375 C -3.359375 -2.953125 -3.515625 -2.578125 -3.515625 -2.15625 C -3.515625 -1.15625 -2.734375 -0.28125 -1.71875 -0.28125 C -0.734375 -0.28125 0.078125 -1.078125 0.078125 -2.078125 C 0.078125 -2.546875 -0.140625 -2.9375 -0.421875 -3.203125 L 0.078125 -3.203125 Z M -0.984375 -3.203125 C -0.84375 -3.203125 -0.8125 -3.203125 -0.65625 -3.078125 C -0.328125 -2.859375 -0.140625 -2.5 -0.140625 -2.125 C -0.140625 -1.75 -0.328125 -1.4375 -0.625 -1.25 C -0.9375 -1.03125 -1.328125 -0.984375 -1.703125 -0.984375 C -2.171875 -0.984375 -2.5 -1.0625 -2.765625 -1.25 C -3.0625 -1.4375 -3.296875 -1.796875 -3.296875 -2.203125 C -3.296875 -2.578125 -3.09375 -2.96875 -2.6875 -3.203125 Z M -0.984375 -3.203125 "/>
</g>
<g id="glyph-4-1">
<path d="M -0.953125 -3.515625 C -0.984375 -3.515625 -1.0625 -3.484375 -1.0625 -3.390625 C -1.0625 -3.296875 -1.015625 -3.28125 -0.96875 -3.265625 C -0.1875 -2.984375 -0.171875 -2.296875 -0.171875 -2.15625 C -0.171875 -1.796875 -0.328125 -1.421875 -0.703125 -1.1875 C -1.0625 -0.953125 -1.578125 -0.953125 -1.8125 -0.953125 L -1.8125 -3.296875 C -1.8125 -3.46875 -1.8125 -3.515625 -2 -3.515625 C -2.703125 -3.515625 -3.546875 -3.125 -3.546875 -2 C -3.546875 -1.015625 -2.734375 -0.234375 -1.75 -0.234375 C -0.71875 -0.234375 0.078125 -1.09375 0.078125 -2.109375 C 0.078125 -3.109375 -0.765625 -3.515625 -0.953125 -3.515625 Z M -2.03125 -2.96875 L -2.03125 -0.953125 C -3.140625 -1.03125 -3.328125 -1.703125 -3.328125 -2 C -3.328125 -2.9375 -2.203125 -2.96875 -2.03125 -2.96875 Z M -2.03125 -2.96875 "/>
</g>
<g id="glyph-4-2">
<path d="M 0 -4.484375 L -0.265625 -4.484375 C -0.265625 -3.96875 -0.265625 -3.875 -0.625 -3.875 L -2.421875 -3.875 C -3.078125 -3.875 -3.515625 -3.5625 -3.515625 -2.734375 C -3.515625 -1.9375 -2.9375 -1.578125 -2.75 -1.484375 L -3.515625 -1.484375 L -3.421875 -0.328125 L -3.15625 -0.328125 C -3.15625 -0.875 -3.109375 -0.9375 -2.71875 -0.9375 L -0.625 -0.9375 C -0.265625 -0.9375 -0.265625 -0.84375 -0.265625 -0.328125 L 0 -0.328125 C -0.03125 -0.671875 -0.03125 -1.015625 -0.03125 -1.234375 C -0.03125 -1.46875 -0.03125 -1.796875 0 -2.140625 L -0.265625 -2.140625 C -0.265625 -1.640625 -0.265625 -1.53125 -0.625 -1.53125 L -2.0625 -1.53125 C -2.90625 -1.53125 -3.296875 -2.171875 -3.296875 -2.65625 C -3.296875 -3.140625 -2.953125 -3.265625 -2.453125 -3.265625 L -0.625 -3.265625 C -0.265625 -3.265625 -0.265625 -3.171875 -0.265625 -2.65625 L 0 -2.65625 C -0.03125 -3 -0.03125 -3.359375 -0.03125 -3.5625 C -0.03125 -3.796875 -0.03125 -4.140625 0 -4.484375 Z M 0 -4.484375 "/>
</g>
<g id="glyph-4-3">
<path d="M -1.03125 -3.046875 C -1.40625 -3.046875 -1.96875 -2.828125 -2.140625 -1.875 C -2.15625 -1.8125 -2.234375 -1.359375 -2.234375 -1.328125 C -2.296875 -1.078125 -2.46875 -0.703125 -2.78125 -0.703125 C -3.015625 -0.703125 -3.359375 -0.890625 -3.359375 -1.640625 C -3.359375 -2.53125 -2.703125 -2.578125 -2.484375 -2.59375 C -2.421875 -2.59375 -2.390625 -2.65625 -2.390625 -2.703125 C -2.390625 -2.84375 -2.453125 -2.84375 -2.59375 -2.84375 L -3.34375 -2.84375 C -3.46875 -2.84375 -3.546875 -2.84375 -3.546875 -2.734375 C -3.546875 -2.6875 -3.546875 -2.671875 -3.421875 -2.546875 C -3.421875 -2.53125 -3.34375 -2.453125 -3.34375 -2.4375 C -3.34375 -2.4375 -3.34375 -2.40625 -3.375 -2.359375 C -3.46875 -2.234375 -3.546875 -2 -3.546875 -1.640625 C -3.546875 -0.53125 -2.953125 -0.28125 -2.5625 -0.28125 C -2.171875 -0.28125 -1.9375 -0.578125 -1.90625 -0.59375 C -1.671875 -0.921875 -1.640625 -1.09375 -1.546875 -1.640625 C -1.46875 -2.015625 -1.359375 -2.625 -0.828125 -2.625 C -0.515625 -2.625 -0.140625 -2.421875 -0.140625 -1.6875 C -0.140625 -0.875 -0.765625 -0.640625 -1.1875 -0.546875 C -1.296875 -0.515625 -1.328125 -0.5 -1.328125 -0.40625 C -1.328125 -0.28125 -1.265625 -0.28125 -1.109375 -0.28125 L -0.125 -0.28125 C 0 -0.28125 0.078125 -0.28125 0.078125 -0.375 C 0.078125 -0.4375 0.078125 -0.4375 -0.078125 -0.578125 C -0.125 -0.625 -0.21875 -0.703125 -0.265625 -0.75 C 0.0625 -1.109375 0.078125 -1.484375 0.078125 -1.6875 C 0.078125 -2.703125 -0.5 -3.046875 -1.03125 -3.046875 Z M -1.03125 -3.046875 "/>
</g>
<g id="glyph-4-4">
<path d="M 0 -2.078125 L -0.265625 -2.078125 C -0.265625 -1.546875 -0.296875 -1.515625 -0.609375 -1.515625 L -3.515625 -1.515625 L -3.421875 -0.359375 L -3.15625 -0.359375 C -3.15625 -0.875 -3.109375 -0.9375 -2.71875 -0.9375 L -0.625 -0.9375 C -0.265625 -0.9375 -0.265625 -0.84375 -0.265625 -0.328125 L 0 -0.328125 C -0.03125 -0.640625 -0.03125 -1.09375 -0.03125 -1.21875 C -0.03125 -1.3125 -0.03125 -1.796875 0 -2.078125 Z M -4.796875 -1.625 C -5.0625 -1.625 -5.25 -1.40625 -5.25 -1.171875 C -5.25 -0.953125 -5.0625 -0.734375 -4.796875 -0.734375 C -4.5625 -0.734375 -4.359375 -0.921875 -4.359375 -1.171875 C -4.359375 -1.421875 -4.5625 -1.625 -4.796875 -1.625 Z M -4.796875 -1.625 "/>
</g>
<g id="glyph-4-5">
<path d="M -1 -2.8125 L -1.4375 -2.8125 L -1.4375 -2.5625 L -1.015625 -2.5625 C -0.46875 -2.5625 -0.171875 -2.3125 -0.171875 -2.015625 C -0.171875 -1.484375 -0.859375 -1.484375 -0.984375 -1.484375 L -3.171875 -1.484375 L -3.171875 -2.671875 L -3.4375 -2.671875 L -3.4375 -1.484375 L -4.90625 -1.484375 L -4.90625 -1.234375 C -4.171875 -1.234375 -3.421875 -0.90625 -3.390625 -0.15625 L -3.171875 -0.15625 L -3.171875 -0.875 L -1 -0.875 C -0.0625 -0.875 0.078125 -1.59375 0.078125 -1.953125 C 0.078125 -2.5 -0.390625 -2.8125 -1 -2.8125 Z M -1 -2.8125 "/>
</g>
<g id="glyph-4-6">
<path d="M -3.171875 -4.28125 L -3.4375 -4.28125 C -3.40625 -4.015625 -3.40625 -4 -3.40625 -3.65625 C -3.40625 -3.625 -3.40625 -3.203125 -3.4375 -2.96875 L -3.171875 -2.96875 C -3.15625 -3.203125 -3.03125 -3.3125 -2.84375 -3.3125 C -2.796875 -3.3125 -2.734375 -3.3125 -2.640625 -3.265625 L -0.71875 -2.421875 L -2.8125 -1.484375 C -2.921875 -1.4375 -2.9375 -1.4375 -2.96875 -1.4375 C -3.15625 -1.4375 -3.171875 -1.6875 -3.171875 -1.859375 L -3.4375 -1.859375 C -3.40625 -1.5 -3.40625 -1.15625 -3.40625 -0.984375 C -3.40625 -0.8125 -3.40625 -0.4375 -3.4375 -0.171875 L -3.171875 -0.171875 C -3.171875 -0.59375 -3.15625 -0.703125 -2.859375 -0.84375 L 0 -2.09375 C 0.84375 -1.734375 1.40625 -1.5 1.40625 -0.9375 C 1.40625 -0.734375 1.3125 -0.609375 1.3125 -0.609375 C 1.296875 -0.671875 1.203125 -0.859375 0.96875 -0.859375 C 0.75 -0.859375 0.625 -0.6875 0.625 -0.515625 C 0.625 -0.34375 0.734375 -0.171875 0.984375 -0.171875 C 1.328125 -0.171875 1.625 -0.515625 1.625 -0.9375 C 1.625 -1.65625 0.765625 -2.03125 0.6875 -2.0625 L -2.625 -3.53125 C -3.078125 -3.734375 -3.15625 -4.03125 -3.171875 -4.28125 Z M -3.171875 -4.28125 "/>
</g>
<g id="glyph-5-0">
<path d="M 9.296875 -5.84375 L 9.296875 -6.125 C 9.015625 -6.09375 8.734375 -6.09375 8.453125 -6.09375 L 7.390625 -6.125 L 7.390625 -5.84375 C 7.953125 -5.84375 8.15625 -5.5625 8.15625 -5.359375 C 8.15625 -5.3125 8.140625 -5.28125 8.125 -5.21875 L 6.734375 -1.03125 L 5.25 -5.4375 C 5.25 -5.46875 5.21875 -5.53125 5.21875 -5.5625 C 5.21875 -5.84375 5.734375 -5.84375 5.96875 -5.84375 L 5.96875 -6.125 C 5.5625 -6.09375 5.125 -6.09375 4.71875 -6.09375 C 4.21875 -6.09375 4.15625 -6.09375 3.609375 -6.125 L 3.609375 -5.84375 C 4.0625 -5.84375 4.234375 -5.828125 4.328125 -5.671875 C 4.40625 -5.5625 4.59375 -4.953125 4.59375 -4.953125 C 4.59375 -4.953125 4.5625 -4.859375 4.5625 -4.828125 L 3.296875 -1.03125 L 1.828125 -5.40625 C 1.78125 -5.53125 1.78125 -5.546875 1.78125 -5.5625 C 1.78125 -5.84375 2.296875 -5.84375 2.53125 -5.84375 L 2.53125 -6.125 C 2.140625 -6.09375 1.6875 -6.09375 1.28125 -6.09375 C 0.796875 -6.09375 0.71875 -6.09375 0.171875 -6.125 L 0.171875 -5.84375 C 0.6875 -5.84375 0.859375 -5.84375 0.984375 -5.5 L 2.8125 0.015625 C 2.859375 0.140625 2.90625 0.203125 3.015625 0.203125 C 3.078125 0.203125 3.15625 0.171875 3.203125 0.015625 L 4.734375 -4.5625 L 6.25 -0.015625 C 6.3125 0.140625 6.328125 0.203125 6.453125 0.203125 C 6.5625 0.203125 6.59375 0.140625 6.640625 0.015625 L 8.390625 -5.203125 C 8.515625 -5.609375 8.765625 -5.84375 9.296875 -5.84375 Z M 9.296875 -5.84375 "/>
</g>
<g id="glyph-5-1">
<path d="M 2.265625 0 L 2.265625 -0.28125 C 1.6875 -0.28125 1.65625 -0.328125 1.65625 -0.671875 L 1.65625 -3.96875 L 0.359375 -3.859375 L 0.359375 -3.59375 C 0.9375 -3.59375 1.015625 -3.53125 1.015625 -3.09375 L 1.015625 -0.6875 C 1.015625 -0.28125 0.921875 -0.28125 0.328125 -0.28125 L 0.328125 0 C 0.71875 -0.015625 0.921875 -0.03125 1.3125 -0.03125 C 1.453125 -0.03125 1.828125 -0.03125 2.265625 0 Z M 1.765625 -5.40625 C 1.765625 -5.671875 1.546875 -5.890625 1.28125 -5.890625 C 1.015625 -5.890625 0.796875 -5.671875 0.796875 -5.40625 C 0.796875 -5.140625 1.015625 -4.921875 1.28125 -4.921875 C 1.546875 -4.921875 1.765625 -5.140625 1.765625 -5.40625 Z M 1.765625 -5.40625 "/>
</g>
<g id="glyph-5-2">
<path d="M 3.0625 -1.109375 L 3.0625 -1.625 L 2.8125 -1.625 L 2.8125 -1.140625 C 2.8125 -0.46875 2.53125 -0.15625 2.21875 -0.15625 C 1.609375 -0.15625 1.609375 -0.9375 1.609375 -1.109375 L 1.609375 -3.59375 L 2.921875 -3.59375 L 2.921875 -3.859375 L 1.609375 -3.859375 L 1.609375 -5.515625 L 1.359375 -5.515625 C 1.359375 -4.765625 1.046875 -3.84375 0.171875 -3.8125 L 0.171875 -3.59375 L 0.953125 -3.59375 L 0.953125 -1.109375 C 0.953125 -0.109375 1.671875 0.09375 2.15625 0.09375 C 2.75 0.09375 3.0625 -0.46875 3.0625 -1.109375 Z M 3.0625 -1.109375 "/>
</g>
<g id="glyph-5-3">
<path d="M 4.90625 0 L 4.90625 -0.28125 C 4.453125 -0.28125 4.21875 -0.28125 4.21875 -0.5625 L 4.21875 -2.28125 C 4.21875 -3.015625 4.21875 -3.28125 3.96875 -3.59375 C 3.765625 -3.84375 3.421875 -3.96875 2.96875 -3.96875 C 2.375 -3.96875 1.921875 -3.65625 1.65625 -3.140625 L 1.640625 -3.140625 L 1.640625 -6.21875 L 0.3125 -6.125 L 0.3125 -5.84375 C 0.921875 -5.84375 1 -5.78125 1 -5.34375 L 1 -0.6875 C 1 -0.28125 0.90625 -0.28125 0.3125 -0.28125 L 0.3125 0 C 0.734375 -0.015625 0.90625 -0.03125 1.34375 -0.03125 C 1.765625 -0.03125 1.890625 -0.015625 2.359375 0 L 2.359375 -0.28125 C 1.765625 -0.28125 1.671875 -0.28125 1.671875 -0.6875 L 1.671875 -2.328125 C 1.671875 -3.28125 2.34375 -3.734375 2.90625 -3.734375 C 3.4375 -3.734375 3.546875 -3.296875 3.546875 -2.765625 L 3.546875 -0.6875 C 3.546875 -0.28125 3.453125 -0.28125 2.859375 -0.28125 L 2.859375 0 C 3.28125 -0.015625 3.453125 -0.03125 3.890625 -0.03125 C 4.3125 -0.03125 4.4375 -0.015625 4.90625 0 Z M 4.90625 0 "/>
</g>
<g id="glyph-5-4">
<path d="M 4.34375 -1.90625 C 4.34375 -3.078125 3.40625 -4.015625 2.3125 -4.015625 C 1.171875 -4.015625 0.265625 -3.0625 0.265625 -1.90625 C 0.265625 -0.796875 1.1875 0.09375 2.296875 0.09375 C 3.4375 0.09375 4.34375 -0.8125 4.34375 -1.90625 Z M 3.5625 -1.984375 C 3.5625 -1.65625 3.5625 -1.140625 3.34375 -0.75 C 3.09375 -0.328125 2.6875 -0.15625 2.3125 -0.15625 C 1.859375 -0.15625 1.484375 -0.375 1.28125 -0.71875 C 1.046875 -1.109375 1.03125 -1.578125 1.03125 -1.984375 C 1.03125 -2.328125 1.03125 -2.828125 1.25 -3.203125 C 1.53125 -3.65625 1.96875 -3.796875 2.296875 -3.796875 C 2.8125 -3.796875 3.171875 -3.5 3.359375 -3.203125 C 3.5625 -2.828125 3.5625 -2.375 3.5625 -1.984375 Z M 3.5625 -1.984375 "/>
</g>
<g id="glyph-5-5">
<path d="M 4.90625 0 L 4.90625 -0.28125 C 4.296875 -0.28125 4.21875 -0.34375 4.21875 -0.78125 L 4.21875 -3.96875 L 2.859375 -3.859375 L 2.859375 -3.59375 C 3.46875 -3.59375 3.546875 -3.53125 3.546875 -3.078125 L 3.546875 -1.5 C 3.546875 -0.703125 3.109375 -0.125 2.453125 -0.125 C 1.71875 -0.125 1.671875 -0.515625 1.671875 -1 L 1.671875 -3.96875 L 0.3125 -3.859375 L 0.3125 -3.59375 C 1 -3.59375 1 -3.5625 1 -2.765625 L 1 -1.421875 C 1 -0.828125 1 -0.453125 1.421875 -0.140625 C 1.671875 0.03125 2.046875 0.09375 2.40625 0.09375 C 2.875 0.09375 3.3125 -0.109375 3.5625 -0.640625 L 3.578125 -0.640625 L 3.578125 0.09375 Z M 4.90625 0 "/>
</g>
<g id="glyph-5-6">
<path d="M 6.015625 -1.625 C 6.015625 -2.4375 5.234375 -3.09375 4.234375 -3.203125 C 5.125 -3.375 5.75 -3.953125 5.75 -4.609375 C 5.75 -5.40625 4.890625 -6.125 3.703125 -6.125 L 0.375 -6.125 L 0.375 -5.84375 L 0.578125 -5.84375 C 1.265625 -5.84375 1.28125 -5.75 1.28125 -5.421875 L 1.28125 -0.703125 C 1.28125 -0.375 1.265625 -0.28125 0.578125 -0.28125 L 0.375 -0.28125 L 0.375 0 L 3.953125 0 C 5.171875 0 6.015625 -0.796875 6.015625 -1.625 Z M 4.890625 -4.609375 C 4.890625 -3.921875 4.28125 -3.296875 3.4375 -3.296875 L 2.03125 -3.296875 L 2.03125 -5.484375 C 2.03125 -5.78125 2.046875 -5.84375 2.46875 -5.84375 L 3.640625 -5.84375 C 4.515625 -5.84375 4.890625 -5.140625 4.890625 -4.609375 Z M 5.125 -1.65625 C 5.125 -0.953125 4.578125 -0.28125 3.65625 -0.28125 L 2.46875 -0.28125 C 2.046875 -0.28125 2.03125 -0.34375 2.03125 -0.640625 L 2.03125 -3.078125 L 3.734375 -3.078125 C 4.765625 -3.078125 5.125 -2.203125 5.125 -1.65625 Z M 5.125 -1.65625 "/>
</g>
<g id="glyph-5-7">
<path d="M 4.453125 -0.796875 L 4.453125 -1.296875 L 4.203125 -1.296875 L 4.203125 -0.8125 C 4.203125 -0.703125 4.203125 -0.265625 3.890625 -0.265625 C 3.5625 -0.265625 3.5625 -0.6875 3.5625 -0.828125 L 3.5625 -2.40625 C 3.5625 -2.921875 3.5625 -3.21875 3.15625 -3.59375 C 2.828125 -3.890625 2.390625 -4.015625 1.953125 -4.015625 C 1.1875 -4.015625 0.5625 -3.640625 0.5625 -3.0625 C 0.5625 -2.796875 0.75 -2.640625 0.984375 -2.640625 C 1.234375 -2.640625 1.40625 -2.8125 1.40625 -3.046875 C 1.40625 -3.4375 1 -3.484375 1 -3.484375 C 1.234375 -3.71875 1.671875 -3.796875 1.921875 -3.796875 C 2.390625 -3.796875 2.890625 -3.453125 2.890625 -2.65625 L 2.890625 -2.375 C 2.40625 -2.34375 1.734375 -2.3125 1.140625 -2.015625 C 0.5 -1.703125 0.296875 -1.234375 0.296875 -0.875 C 0.296875 -0.140625 1.171875 0.09375 1.765625 0.09375 C 2.515625 0.09375 2.859375 -0.390625 2.984375 -0.640625 C 3.015625 -0.265625 3.28125 0.046875 3.671875 0.046875 C 3.890625 0.046875 4.453125 -0.078125 4.453125 -0.796875 Z M 2.890625 -1.265625 C 2.890625 -0.390625 2.21875 -0.125 1.828125 -0.125 C 1.40625 -0.125 1.015625 -0.4375 1.015625 -0.875 C 1.015625 -1.46875 1.53125 -2.09375 2.890625 -2.15625 Z M 2.890625 -1.265625 "/>
</g>
<g id="glyph-5-8">
<path d="M 3.828125 -1.0625 C 3.828125 -1.171875 3.734375 -1.171875 3.703125 -1.171875 C 3.609375 -1.171875 3.609375 -1.15625 3.546875 -1 C 3.34375 -0.390625 2.84375 -0.15625 2.390625 -0.15625 C 1.8125 -0.15625 1.078125 -0.625 1.078125 -1.953125 C 1.078125 -3.34375 1.796875 -3.765625 2.328125 -3.765625 C 2.453125 -3.765625 2.9375 -3.75 3.265625 -3.53125 C 3.078125 -3.484375 2.890625 -3.359375 2.890625 -3.109375 C 2.890625 -2.875 3.078125 -2.6875 3.3125 -2.6875 C 3.546875 -2.6875 3.734375 -2.84375 3.734375 -3.125 C 3.734375 -3.671875 3.109375 -4.015625 2.3125 -4.015625 C 1.171875 -4.015625 0.3125 -3.0625 0.3125 -1.9375 C 0.3125 -0.78125 1.234375 0.09375 2.296875 0.09375 C 3.546875 0.09375 3.828125 -0.984375 3.828125 -1.0625 Z M 3.828125 -1.0625 "/>
</g>
<g id="glyph-5-9">
<path d="M 6.5625 -5.84375 L 6.5625 -6.125 C 6.078125 -6.109375 5.953125 -6.09375 5.515625 -6.09375 C 5.078125 -6.09375 4.953125 -6.109375 4.453125 -6.125 L 4.453125 -5.84375 C 5.375 -5.84375 5.375 -5.421875 5.375 -5.171875 L 5.375 -1.34375 L 2.109375 -6.015625 C 2.046875 -6.125 2.015625 -6.125 1.84375 -6.125 L 0.34375 -6.125 L 0.34375 -5.84375 L 0.59375 -5.84375 C 1.015625 -5.84375 1.25 -5.78125 1.25 -5.78125 L 1.25 -0.953125 C 1.25 -0.703125 1.25 -0.28125 0.34375 -0.28125 L 0.34375 0 C 0.828125 -0.015625 0.953125 -0.03125 1.40625 -0.03125 C 1.828125 -0.03125 1.96875 -0.015625 2.453125 0 L 2.453125 -0.28125 C 1.53125 -0.28125 1.53125 -0.703125 1.53125 -0.953125 L 1.53125 -5.578125 L 5.34375 -0.109375 C 5.421875 0 5.46875 0 5.5 0 C 5.65625 0 5.65625 -0.078125 5.65625 -0.234375 L 5.65625 -5.171875 C 5.65625 -5.421875 5.65625 -5.84375 6.5625 -5.84375 Z M 6.5625 -5.84375 "/>
</g>
<g id="glyph-5-10">
<path d="M 3.34375 -3.40625 C 3.34375 -3.6875 3.078125 -3.96875 2.671875 -3.96875 C 2.140625 -3.96875 1.765625 -3.59375 1.546875 -3.03125 L 1.546875 -3.96875 L 0.265625 -3.859375 L 0.265625 -3.59375 C 0.875 -3.59375 0.953125 -3.53125 0.953125 -3.078125 L 0.953125 -0.6875 C 0.953125 -0.28125 0.859375 -0.28125 0.265625 -0.28125 L 0.265625 0 C 0.75 -0.015625 0.859375 -0.03125 1.3125 -0.03125 L 2.453125 0 L 2.453125 -0.28125 L 2.28125 -0.28125 C 1.625 -0.28125 1.59375 -0.375 1.59375 -0.703125 L 1.59375 -2.046875 C 1.59375 -2.421875 1.6875 -3.734375 2.71875 -3.734375 C 2.703125 -3.71875 2.5625 -3.609375 2.5625 -3.40625 C 2.5625 -3.15625 2.75 -3 2.953125 -3 C 3.140625 -3 3.34375 -3.140625 3.34375 -3.40625 Z M 3.34375 -3.40625 "/>
</g>
<g id="glyph-5-11">
<path d="M 7.46875 0 L 7.46875 -0.28125 C 7.015625 -0.28125 6.796875 -0.28125 6.78125 -0.5625 L 6.78125 -2.28125 C 6.78125 -3.0625 6.78125 -3.3125 6.484375 -3.640625 C 6.296875 -3.859375 5.9375 -3.96875 5.53125 -3.96875 C 4.875 -3.96875 4.4375 -3.59375 4.1875 -3.109375 C 4.078125 -3.640625 3.71875 -3.96875 2.96875 -3.96875 C 2.25 -3.96875 1.8125 -3.5 1.625 -3.078125 L 1.609375 -3.078125 L 1.609375 -3.96875 L 0.3125 -3.859375 L 0.3125 -3.59375 C 0.921875 -3.59375 1 -3.53125 1 -3.078125 L 1 -0.6875 C 1 -0.28125 0.90625 -0.28125 0.3125 -0.28125 L 0.3125 0 C 0.734375 -0.015625 0.90625 -0.03125 1.34375 -0.03125 C 1.765625 -0.03125 1.890625 -0.015625 2.359375 0 L 2.359375 -0.28125 C 1.765625 -0.28125 1.671875 -0.28125 1.671875 -0.6875 L 1.671875 -2.328125 C 1.671875 -3.296875 2.375 -3.734375 2.90625 -3.734375 C 3.40625 -3.734375 3.5625 -3.390625 3.5625 -2.765625 L 3.5625 -0.6875 C 3.5625 -0.28125 3.46875 -0.28125 2.875 -0.28125 L 2.875 0 C 3.296875 -0.015625 3.46875 -0.03125 3.890625 -0.03125 C 4.328125 -0.03125 4.4375 -0.015625 4.921875 0 L 4.921875 -0.28125 C 4.328125 -0.28125 4.21875 -0.28125 4.21875 -0.6875 L 4.21875 -2.328125 C 4.21875 -3.296875 4.921875 -3.734375 5.46875 -3.734375 C 5.953125 -3.734375 6.109375 -3.390625 6.109375 -2.765625 L 6.109375 -0.6875 C 6.109375 -0.28125 6.015625 -0.28125 5.421875 -0.28125 L 5.421875 0 C 5.84375 -0.015625 6.015625 -0.03125 6.453125 -0.03125 C 6.875 -0.03125 7 -0.015625 7.46875 0 Z M 7.46875 0 "/>
</g>
</g>
<clipPath id="clip-0">
<path clip-rule="nonzero" d="M 38.648438 23.976562 L 192.25 23.976562 L 192.25 98.199219 L 38.648438 98.199219 Z M 38.648438 23.976562 "/>
</clipPath>
<clipPath id="clip-1">
<path clip-rule="nonzero" d="M 38.648438 41 L 192.25 41 L 192.25 98.199219 L 38.648438 98.199219 Z M 38.648438 41 "/>
</clipPath>
<clipPath id="clip-2">
<path clip-rule="nonzero" d="M 38.648438 51 L 192.25 51 L 192.25 98.199219 L 38.648438 98.199219 Z M 38.648438 51 "/>
</clipPath>
<clipPath id="clip-3">
<path clip-rule="nonzero" d="M 220.59375 41 L 374.195312 41 L 374.195312 98.199219 L 220.59375 98.199219 Z M 220.59375 41 "/>
</clipPath>
</defs>
<path fill="none" stroke-width="0.19925" stroke-linecap="butt" stroke-linejoin="miter" stroke="rgb(50%, 50%, 50%)" stroke-opacity="1" stroke-miterlimit="10" d="M -0.0005625 -2.125219 L -0.0005625 2.124781 M 30.722094 -2.125219 L 30.722094 2.124781 M 61.440844 -2.125219 L 61.440844 2.124781 M 92.159594 -2.125219 L 92.159594 2.124781 M 122.88225 -2.125219 L 122.88225 2.124781 M 153.601 -2.125219 L 153.601 2.124781 " transform="matrix(1, 0, 0, -1, 38.649, 98.199)"/>
<path fill="none" stroke-width="0.19925" stroke-linecap="butt" stroke-linejoin="miter" stroke="rgb(50%, 50%, 50%)" stroke-opacity="1" stroke-miterlimit="10" d="M -2.125563 -0.00021875 L 2.124437 -0.00021875 M -2.125563 19.79275 L 2.124437 19.79275 M -2.125563 39.585719 L 2.124437 39.585719 M -2.125563 59.378688 L 2.124437 59.378688 " transform="matrix(1, 0, 0, -1, 38.649, 98.199)"/>
<path fill="none" stroke-width="0.3985" stroke-linecap="butt" stroke-linejoin="miter" stroke="rgb(0%, 0%, 0%)" stroke-opacity="1" stroke-miterlimit="10" d="M -0.0005625 -0.00021875 L 151.608812 -0.00021875 " transform="matrix(1, 0, 0, -1, 38.649, 98.199)"/>
<path fill-rule="nonzero" fill="rgb(0%, 0%, 0%)" fill-opacity="1" d="M 192.25 98.199219 L 189.0625 96.605469 L 190.257812 98.199219 L 189.0625 99.792969 "/>
<path fill="none" stroke-width="0.3985" stroke-linecap="butt" stroke-linejoin="miter" stroke="rgb(0%, 0%, 0%)" stroke-opacity="1" stroke-miterlimit="10" d="M -0.0005625 -0.00021875 L -0.0005625 72.23025 " transform="matrix(1, 0, 0, -1, 38.649, 98.199)"/>
<path fill-rule="nonzero" fill="rgb(0%, 0%, 0%)" fill-opacity="1" d="M 38.648438 23.976562 L 37.054688 27.164062 L 38.648438 25.96875 L 40.242188 27.164062 "/>
<g fill="rgb(0%, 0%, 0%)" fill-opacity="1">
<use xlink:href="#glyph-0-0" x="33.238" y="108.981"/>
</g>
<g fill="rgb(0%, 0%, 0%)" fill-opacity="1">
<use xlink:href="#glyph-1-0" x="39.824491" y="108.981"/>
</g>
<g fill="rgb(0%, 0%, 0%)" fill-opacity="1">
<use xlink:href="#glyph-0-0" x="63.958" y="108.981"/>
</g>
<g fill="rgb(0%, 0%, 0%)" fill-opacity="1">
<use xlink:href="#glyph-1-1" x="70.544491" y="108.981"/>
</g>
<g fill="rgb(0%, 0%, 0%)" fill-opacity="1">
<use xlink:href="#glyph-1-2" x="97.971" y="108.981"/>
</g>
<g fill="rgb(0%, 0%, 0%)" fill-opacity="1">
<use xlink:href="#glyph-1-1" x="128.691" y="108.981"/>
</g>
<g fill="rgb(0%, 0%, 0%)" fill-opacity="1">
<use xlink:href="#glyph-1-0" x="159.411" y="108.981"/>
</g>
<g fill="rgb(0%, 0%, 0%)" fill-opacity="1">
<use xlink:href="#glyph-1-3" x="190.13" y="108.981"/>
</g>
<g fill="rgb(0%, 0%, 0%)" fill-opacity="1">
<use xlink:href="#glyph-1-2" x="28.769" y="100.767"/>
</g>
<g fill="rgb(0%, 0%, 0%)" fill-opacity="1">
<use xlink:href="#glyph-1-2" x="22.182" y="80.974"/>
</g>
<g fill="rgb(0%, 0%, 0%)" fill-opacity="1">
<use xlink:href="#glyph-2-0" x="26.416514" y="80.974"/>
</g>
<g fill="rgb(0%, 0%, 0%)" fill-opacity="1">
<use xlink:href="#glyph-1-1" x="28.768491" y="80.974"/>
</g>
<g fill="rgb(0%, 0%, 0%)" fill-opacity="1">
<use xlink:href="#glyph-1-2" x="22.182" y="61.182"/>
</g>
<g fill="rgb(0%, 0%, 0%)" fill-opacity="1">
<use xlink:href="#glyph-2-0" x="26.416514" y="61.182"/>
</g>
<g fill="rgb(0%, 0%, 0%)" fill-opacity="1">
<use xlink:href="#glyph-1-0" x="28.768491" y="61.182"/>
</g>
<g fill="rgb(0%, 0%, 0%)" fill-opacity="1">
<use xlink:href="#glyph-1-2" x="22.182" y="41.389"/>
</g>
<g fill="rgb(0%, 0%, 0%)" fill-opacity="1">
<use xlink:href="#glyph-2-0" x="26.416514" y="41.389"/>
</g>
<g fill="rgb(0%, 0%, 0%)" fill-opacity="1">
<use xlink:href="#glyph-1-3" x="28.768491" y="41.389"/>
</g>
<g clip-path="url(#clip-0)">
<path fill="none" stroke-width="1.19553" stroke-linecap="butt" stroke-linejoin="miter" stroke="rgb(27.450562%, 50.979614%, 70.588684%)" stroke-opacity="1" stroke-miterlimit="10" d="M -0.0005625 -0.00021875 L 1.292406 -0.00021875 L 2.581469 0.0036875 L 3.870531 0.0036875 L 5.1635 0.00759375 L 6.452562 0.0154063 L 7.745531 0.027125 L 9.034594 0.04275 L 10.327562 0.0700938 L 11.616625 0.116969 L 12.905687 0.183375 L 14.198656 0.284938 L 15.487719 0.437281 L 16.780687 0.659938 L 18.06975 0.976344 L 19.362719 1.421656 L 20.651781 2.031031 L 21.940844 2.851344 L 23.233812 3.929469 L 24.522875 5.324 L 25.815844 7.085719 L 27.104906 9.265406 L 28.397875 11.906031 L 29.686937 15.034938 L 30.979906 18.644313 L 32.268969 22.726344 L 33.558031 27.210719 L 34.851 32.007594 L 36.140062 36.995875 L 37.433031 42.0115 L 38.722094 46.866969 L 40.015062 51.374781 L 41.304125 55.327906 L 42.593187 58.54275 L 43.886156 60.866969 L 45.175219 62.163844 L 46.468187 62.390406 L 47.75725 61.515406 L 49.050219 59.585719 L 50.339281 56.714625 L 51.628344 53.034938 L 52.921312 48.726344 L 54.210375 43.988063 L 55.503344 39.0115 L 56.792406 33.991969 L 58.085375 29.101344 L 59.374437 24.476344 L 60.6635 20.23025 L 61.956469 16.421656 L 63.245531 13.097438 L 64.5385 10.273219 L 65.827562 7.906031 L 67.120531 5.984156 L 68.409594 4.449 L 69.698656 3.245875 L 70.991625 2.331813 L 72.280687 1.644313 L 73.573656 1.1365 L 74.862719 0.773219 L 76.155687 0.519313 L 77.44475 0.339625 L 78.737719 0.218531 L 80.026781 0.140406 L 81.315844 0.0857188 L 82.608812 0.0544688 L 83.897875 0.0310313 L 85.190844 0.0193125 L 86.479906 0.0115 L 87.772875 0.00759375 L 89.061937 0.0036875 L 90.351 0.0036875 L 91.643969 -0.00021875 L 153.601 -0.00021875 " transform="matrix(1, 0, 0, -1, 38.649, 98.199)"/>
</g>
<g clip-path="url(#clip-1)">
<path fill="none" stroke-width="1.19553" stroke-linecap="butt" stroke-linejoin="miter" stroke="rgb(90.194702%, 62.353516%, 0%)" stroke-opacity="1" stroke-miterlimit="10" d="M -0.0005625 -0.00021875 L 7.745531 -0.00021875 L 9.034594 0.0036875 L 11.616625 0.0036875 L 12.905687 0.00759375 L 14.198656 0.0115 L 15.487719 0.0154063 L 16.780687 0.0193125 L 18.06975 0.027125 L 19.362719 0.0349375 L 21.940844 0.0661875 L 23.233812 0.089625 L 24.522875 0.120875 L 25.815844 0.159938 L 27.104906 0.210719 L 28.397875 0.277125 L 29.686937 0.359156 L 30.979906 0.460719 L 32.268969 0.589625 L 33.558031 0.749781 L 34.851 0.949 L 36.140062 1.187281 L 37.433031 1.48025 L 38.722094 1.827906 L 40.015062 2.241969 L 41.304125 2.734156 L 42.593187 3.308375 L 43.886156 3.972438 L 45.175219 4.741969 L 46.468187 5.616969 L 47.75725 6.60525 L 49.050219 7.722438 L 50.339281 8.952906 L 51.628344 10.312281 L 52.921312 11.79275 L 54.210375 13.390406 L 55.503344 15.101344 L 56.792406 16.906031 L 58.085375 18.79275 L 59.374437 20.749781 L 60.6635 22.741969 L 61.956469 24.757594 L 63.245531 26.757594 L 64.5385 28.714625 L 65.827562 30.597438 L 67.120531 32.374781 L 68.409594 34.019313 L 69.698656 35.488063 L 70.991625 36.765406 L 72.280687 37.816188 L 73.573656 38.628688 L 74.862719 39.175563 L 76.155687 39.456813 L 77.44475 39.456813 L 78.737719 39.175563 L 80.026781 38.628688 L 81.315844 37.816188 L 82.608812 36.765406 L 83.897875 35.491969 L 85.190844 34.019313 L 86.479906 32.378688 L 87.772875 30.597438 L 89.061937 28.714625 L 90.351 26.757594 L 91.643969 24.757594 L 92.933031 22.745875 L 94.226 20.753688 L 95.515062 18.796656 L 96.808031 16.906031 L 98.097094 15.101344 L 99.386156 13.390406 L 100.679125 11.796656 L 101.968187 10.316188 L 103.261156 8.956813 L 104.550219 7.722438 L 105.843187 6.609156 L 107.13225 5.620875 L 108.421312 4.741969 L 109.714281 3.972438 L 111.003344 3.308375 L 112.296312 2.734156 L 113.585375 2.241969 L 114.878344 1.827906 L 116.167406 1.48025 L 117.456469 1.187281 L 118.749437 0.949 L 120.0385 0.749781 L 121.331469 0.589625 L 122.620531 0.460719 L 123.9135 0.359156 L 125.202562 0.277125 L 126.495531 0.210719 L 127.784594 0.159938 L 129.073656 0.120875 L 130.366625 0.089625 L 131.655687 0.0661875 L 132.948656 0.0505625 L 134.237719 0.0349375 L 135.530687 0.027125 L 136.81975 0.0193125 L 138.108812 0.0154063 L 139.401781 0.0115 L 140.690844 0.00759375 L 141.983812 0.0036875 L 144.565844 0.0036875 L 145.854906 -0.00021875 L 153.601 -0.00021875 " transform="matrix(1, 0, 0, -1, 38.649, 98.199)"/>
</g>
<g clip-path="url(#clip-2)">
<path fill="none" stroke-width="1.19553" stroke-linecap="butt" stroke-linejoin="miter" stroke="rgb(54.508972%, 0%, 0%)" stroke-opacity="1" stroke-miterlimit="10" d="M -0.0005625 -0.00021875 L 15.487719 -0.00021875 L 16.780687 0.0036875 L 21.940844 0.0036875 L 23.233812 0.00759375 L 24.522875 0.00759375 L 25.815844 0.0115 L 27.104906 0.0154063 L 28.397875 0.0193125 L 29.686937 0.0232188 L 30.979906 0.0310313 L 33.558031 0.0466563 L 34.851 0.058375 L 36.140062 0.074 L 37.433031 0.089625 L 38.722094 0.113063 L 40.015062 0.1365 L 41.304125 0.16775 L 42.593187 0.206813 L 43.886156 0.249781 L 45.175219 0.304469 L 46.468187 0.366969 L 47.75725 0.437281 L 49.050219 0.527125 L 50.339281 0.624781 L 51.628344 0.741969 L 52.921312 0.878688 L 54.210375 1.034938 L 55.503344 1.218531 L 56.792406 1.421656 L 58.085375 1.656031 L 59.374437 1.921656 L 60.6635 2.218531 L 61.956469 2.554469 L 63.245531 2.925563 L 64.5385 3.339625 L 65.827562 3.800563 L 67.120531 4.304469 L 68.409594 4.859156 L 69.698656 5.464625 L 70.991625 6.116969 L 72.280687 6.820094 L 73.573656 7.577906 L 74.862719 8.3865 L 76.155687 9.241969 L 77.44475 10.144313 L 78.737719 11.097438 L 80.026781 12.085719 L 81.315844 13.113063 L 82.608812 14.171656 L 83.897875 15.257594 L 85.190844 16.363063 L 86.479906 17.476344 L 87.772875 18.593531 L 89.061937 19.706813 L 90.351 20.804469 L 91.643969 21.874781 L 92.933031 22.909938 L 94.226 23.902125 L 95.515062 24.839625 L 96.808031 25.714625 L 98.097094 26.5115 L 99.386156 27.23025 L 100.679125 27.85525 L 101.968187 28.382594 L 103.261156 28.808375 L 104.550219 29.128688 L 105.843187 29.335719 L 107.13225 29.429469 L 108.421312 29.406031 L 109.714281 29.265406 L 111.003344 29.015406 L 112.296312 28.652125 L 113.585375 28.187281 L 114.878344 27.616969 L 116.167406 26.952906 L 117.456469 26.202906 L 118.749437 25.370875 L 120.0385 24.476344 L 121.331469 23.515406 L 122.620531 22.503688 L 123.9135 21.452906 L 125.202562 20.366969 L 126.495531 19.265406 L 127.784594 18.148219 L 129.073656 17.034938 L 130.366625 15.921656 L 131.655687 14.824 L 132.948656 13.749781 L 134.237719 12.699 L 135.530687 11.687281 L 136.81975 10.710719 L 138.108812 9.781031 L 139.401781 8.894313 L 140.690844 8.054469 L 141.983812 7.269313 L 143.272875 6.534938 L 144.565844 5.847438 L 145.854906 5.214625 L 147.143969 4.632594 L 148.436937 4.101344 L 149.726 3.613063 L 151.018969 3.16775 L 152.308031 2.773219 L 153.601 2.41775 " transform="matrix(1, 0, 0, -1, 38.649, 98.199)"/>
</g>
<g fill="rgb(0%, 0%, 0%)" fill-opacity="1">
<use xlink:href="#glyph-3-0" x="53.941" y="122.186"/>
<use xlink:href="#glyph-3-1" x="58.64575" y="122.186"/>
<use xlink:href="#glyph-3-2" x="61.946168" y="122.186"/>
<use xlink:href="#glyph-3-3" x="65.70965" y="122.186"/>
<use xlink:href="#glyph-3-4" x="68.532659" y="122.186"/>
<use xlink:href="#glyph-3-5" x="72.767173" y="122.186"/>
<use xlink:href="#glyph-3-6" x="76.530654" y="122.186"/>
<use xlink:href="#glyph-3-7" x="79.8239" y="122.186"/>
<use xlink:href="#glyph-3-8" x="82.175876" y="122.186"/>
</g>
<g fill="rgb(0%, 0%, 0%)" fill-opacity="1">
<use xlink:href="#glyph-3-4" x="86.174475" y="122.186"/>
<use xlink:href="#glyph-3-6" x="90.40899" y="122.186"/>
<use xlink:href="#glyph-3-7" x="93.702235" y="122.186"/>
<use xlink:href="#glyph-3-9" x="96.054211" y="122.186"/>
<use xlink:href="#glyph-3-10" x="100.288726" y="122.186"/>
</g>
<g fill="rgb(0%, 0%, 0%)" fill-opacity="1">
<use xlink:href="#glyph-2-1" x="107.814891" y="122.186"/>
</g>
<g fill="rgb(0%, 0%, 0%)" fill-opacity="1">
<use xlink:href="#glyph-3-4" x="114.917844" y="122.186"/>
<use xlink:href="#glyph-3-6" x="119.152358" y="122.186"/>
</g>
<g fill="rgb(0%, 0%, 0%)" fill-opacity="1">
<use xlink:href="#glyph-3-11" x="125.267019" y="122.186"/>
<use xlink:href="#glyph-3-7" x="129.971769" y="122.186"/>
<use xlink:href="#glyph-3-12" x="132.323745" y="122.186"/>
<use xlink:href="#glyph-3-12" x="137.028495" y="122.186"/>
<use xlink:href="#glyph-3-2" x="141.733246" y="122.186"/>
<use xlink:href="#glyph-3-10" x="145.496727" y="122.186"/>
</g>
<g fill="rgb(0%, 0%, 0%)" fill-opacity="1">
<use xlink:href="#glyph-3-13" x="153.022892" y="122.186"/>
<use xlink:href="#glyph-3-4" x="155.374869" y="122.186"/>
</g>
<g fill="rgb(0%, 0%, 0%)" fill-opacity="1">
<use xlink:href="#glyph-3-14" x="159.37028" y="122.186"/>
</g>
<g fill="rgb(0%, 0%, 0%)" fill-opacity="1">
<use xlink:href="#glyph-3-2" x="163.607982" y="122.186"/>
<use xlink:href="#glyph-3-1" x="167.371463" y="122.186"/>
</g>
<g fill="rgb(0%, 0%, 0%)" fill-opacity="1">
<use xlink:href="#glyph-2-2" x="173.493297" y="122.186"/>
</g>
<g fill="rgb(0%, 0%, 0%)" fill-opacity="1">
<use xlink:href="#glyph-4-0" x="13.792" y="74.284"/>
<use xlink:href="#glyph-4-1" x="13.792" y="69.57925"/>
<use xlink:href="#glyph-4-2" x="13.792" y="65.815769"/>
<use xlink:href="#glyph-4-3" x="13.792" y="61.111019"/>
<use xlink:href="#glyph-4-4" x="13.792" y="57.77075"/>
<use xlink:href="#glyph-4-5" x="13.792" y="55.418773"/>
</g>
<g fill="rgb(0%, 0%, 0%)" fill-opacity="1">
<use xlink:href="#glyph-4-6" x="13.792" y="52.356661"/>
</g>
<g fill="rgb(0%, 0%, 0%)" fill-opacity="1">
<use xlink:href="#glyph-5-0" x="73.651" y="14.479"/>
<use xlink:href="#glyph-5-1" x="83.120415" y="14.479"/>
<use xlink:href="#glyph-5-2" x="85.680322" y="14.479"/>
<use xlink:href="#glyph-5-3" x="89.264192" y="14.479"/>
<use xlink:href="#glyph-5-4" x="94.384007" y="14.479"/>
<use xlink:href="#glyph-5-5" x="98.99184" y="14.479"/>
<use xlink:href="#glyph-5-2" x="104.111654" y="14.479"/>
</g>
<g fill="rgb(0%, 0%, 0%)" fill-opacity="1">
<use xlink:href="#glyph-5-6" x="110.762033" y="14.479"/>
</g>
<g fill="rgb(0%, 0%, 0%)" fill-opacity="1">
<use xlink:href="#glyph-5-7" x="117.297642" y="14.479"/>
</g>
<g fill="rgb(0%, 0%, 0%)" fill-opacity="1">
<use xlink:href="#glyph-5-2" x="121.896508" y="14.479"/>
<use xlink:href="#glyph-5-8" x="125.480379" y="14.479"/>
</g>
<g fill="rgb(0%, 0%, 0%)" fill-opacity="1">
<use xlink:href="#glyph-5-3" x="129.325171" y="14.479"/>
<use xlink:href="#glyph-5-9" x="134.444985" y="14.479"/>
<use xlink:href="#glyph-5-4" x="141.35539" y="14.479"/>
<use xlink:href="#glyph-5-10" x="145.963223" y="14.479"/>
<use xlink:href="#glyph-5-11" x="149.567716" y="14.479"/>
</g>
<path fill-rule="nonzero" fill="rgb(100%, 100%, 100%)" fill-opacity="0.85" d="M 125.949219 59.5 L 188.976562 59.5 L 188.976562 25.660156 L 125.949219 25.660156 Z M 125.949219 59.5 "/>
<path fill="none" stroke-width="1.19553" stroke-linecap="butt" stroke-linejoin="miter" stroke="rgb(27.450562%, 50.979614%, 70.588684%)" stroke-opacity="1" stroke-miterlimit="10" d="M 0.00115625 0.0000625 L 17.008969 0.0000625 " transform="matrix(1, 0, 0, -1, 129.534, 32.961)"/>
<g fill="rgb(0%, 0%, 0%)" fill-opacity="0.85">
<use xlink:href="#glyph-3-15" x="153.367" y="34.782"/>
<use xlink:href="#glyph-3-6" x="156.707269" y="34.782"/>
<use xlink:href="#glyph-3-2" x="160.000514" y="34.782"/>
<use xlink:href="#glyph-3-0" x="163.763995" y="34.782"/>
</g>
<g fill="rgb(0%, 0%, 0%)" fill-opacity="0.85">
<use xlink:href="#glyph-3-16" x="171.290161" y="34.782"/>
<use xlink:href="#glyph-3-17" x="175.524675" y="34.782"/>
</g>
<path fill="none" stroke-width="1.19553" stroke-linecap="butt" stroke-linejoin="miter" stroke="rgb(90.194702%, 62.353516%, 0%)" stroke-opacity="1" stroke-miterlimit="10" d="M 0.00115625 0.001875 L 17.008969 0.001875 " transform="matrix(1, 0, 0, -1, 129.534, 42.58)"/>
<g fill="rgb(0%, 0%, 0%)" fill-opacity="0.85">
<use xlink:href="#glyph-3-15" x="151.25" y="44.401"/>
<use xlink:href="#glyph-3-6" x="154.590269" y="44.401"/>
<use xlink:href="#glyph-3-2" x="157.883514" y="44.401"/>
<use xlink:href="#glyph-3-0" x="161.646995" y="44.401"/>
</g>
<g fill="rgb(0%, 0%, 0%)" fill-opacity="0.85">
<use xlink:href="#glyph-3-16" x="169.173161" y="44.401"/>
<use xlink:href="#glyph-3-17" x="173.407675" y="44.401"/>
<use xlink:href="#glyph-3-17" x="177.642189" y="44.401"/>
</g>
<path fill="none" stroke-width="1.19553" stroke-linecap="butt" stroke-linejoin="miter" stroke="rgb(54.508972%, 0%, 0%)" stroke-opacity="1" stroke-miterlimit="10" d="M 0.00115625 -0.00021875 L 17.008969 -0.00021875 " transform="matrix(1, 0, 0, -1, 129.534, 52.199)"/>
<g fill="rgb(0%, 0%, 0%)" fill-opacity="0.85">
<use xlink:href="#glyph-3-15" x="149.132" y="54.02"/>
<use xlink:href="#glyph-3-6" x="152.472269" y="54.02"/>
<use xlink:href="#glyph-3-2" x="155.765514" y="54.02"/>
<use xlink:href="#glyph-3-0" x="159.528995" y="54.02"/>
</g>
<g fill="rgb(0%, 0%, 0%)" fill-opacity="0.85">
<use xlink:href="#glyph-3-16" x="167.055161" y="54.02"/>
<use xlink:href="#glyph-3-17" x="171.289675" y="54.02"/>
<use xlink:href="#glyph-3-17" x="175.524189" y="54.02"/>
<use xlink:href="#glyph-3-17" x="179.758703" y="54.02"/>
</g>
<path fill="none" stroke-width="0.19925" stroke-linecap="butt" stroke-linejoin="miter" stroke="rgb(50%, 50%, 50%)" stroke-opacity="1" stroke-miterlimit="10" d="M -0.00125 -2.125219 L -0.00125 2.124781 M 30.721406 -2.125219 L 30.721406 2.124781 M 61.440156 -2.125219 L 61.440156 2.124781 M 92.158906 -2.125219 L 92.158906 2.124781 M 122.881563 -2.125219 L 122.881563 2.124781 M 153.600313 -2.125219 L 153.600313 2.124781 " transform="matrix(1, 0, 0, -1, 220.595, 98.199)"/>
<path fill="none" stroke-width="0.19925" stroke-linecap="butt" stroke-linejoin="miter" stroke="rgb(50%, 50%, 50%)" stroke-opacity="1" stroke-miterlimit="10" d="M -2.12625 -0.00021875 L 2.127656 -0.00021875 M -2.12625 19.79275 L 2.127656 19.79275 M -2.12625 39.585719 L 2.127656 39.585719 M -2.12625 59.378688 L 2.127656 59.378688 " transform="matrix(1, 0, 0, -1, 220.595, 98.199)"/>
<path fill="none" stroke-width="0.3985" stroke-linecap="butt" stroke-linejoin="miter" stroke="rgb(0%, 0%, 0%)" stroke-opacity="1" stroke-miterlimit="10" d="M -0.00125 -0.00021875 L 151.608125 -0.00021875 " transform="matrix(1, 0, 0, -1, 220.595, 98.199)"/>
<path fill-rule="nonzero" fill="rgb(0%, 0%, 0%)" fill-opacity="1" d="M 374.195312 98.199219 L 371.007812 96.605469 L 372.203125 98.199219 L 371.007812 99.792969 "/>
<path fill="none" stroke-width="0.3985" stroke-linecap="butt" stroke-linejoin="miter" stroke="rgb(0%, 0%, 0%)" stroke-opacity="1" stroke-miterlimit="10" d="M -0.00125 -0.00021875 L -0.00125 72.23025 " transform="matrix(1, 0, 0, -1, 220.595, 98.199)"/>
<path fill-rule="nonzero" fill="rgb(0%, 0%, 0%)" fill-opacity="1" d="M 220.59375 23.976562 L 219 27.164062 L 220.59375 25.96875 L 222.1875 27.164062 "/>
<g fill="rgb(0%, 0%, 0%)" fill-opacity="1">
<use xlink:href="#glyph-0-0" x="215.184" y="108.981"/>
</g>
<g fill="rgb(0%, 0%, 0%)" fill-opacity="1">
<use xlink:href="#glyph-1-0" x="221.770491" y="108.981"/>
</g>
<g fill="rgb(0%, 0%, 0%)" fill-opacity="1">
<use xlink:href="#glyph-0-0" x="245.904" y="108.981"/>
</g>
<g fill="rgb(0%, 0%, 0%)" fill-opacity="1">
<use xlink:href="#glyph-1-1" x="252.490491" y="108.981"/>
</g>
<g fill="rgb(0%, 0%, 0%)" fill-opacity="1">
<use xlink:href="#glyph-1-2" x="279.917" y="108.981"/>
</g>
<g fill="rgb(0%, 0%, 0%)" fill-opacity="1">
<use xlink:href="#glyph-1-1" x="310.637" y="108.981"/>
</g>
<g fill="rgb(0%, 0%, 0%)" fill-opacity="1">
<use xlink:href="#glyph-1-0" x="341.357" y="108.981"/>
</g>
<g fill="rgb(0%, 0%, 0%)" fill-opacity="1">
<use xlink:href="#glyph-1-3" x="372.077" y="108.981"/>
</g>
<g fill="rgb(0%, 0%, 0%)" fill-opacity="1">
<use xlink:href="#glyph-1-2" x="210.715" y="100.767"/>
</g>
<g fill="rgb(0%, 0%, 0%)" fill-opacity="1">
<use xlink:href="#glyph-1-2" x="204.128" y="80.974"/>
</g>
<g fill="rgb(0%, 0%, 0%)" fill-opacity="1">
<use xlink:href="#glyph-2-0" x="208.362514" y="80.974"/>
</g>
<g fill="rgb(0%, 0%, 0%)" fill-opacity="1">
<use xlink:href="#glyph-1-1" x="210.714491" y="80.974"/>
</g>
<g fill="rgb(0%, 0%, 0%)" fill-opacity="1">
<use xlink:href="#glyph-1-2" x="204.128" y="61.182"/>
</g>
<g fill="rgb(0%, 0%, 0%)" fill-opacity="1">
<use xlink:href="#glyph-2-0" x="208.362514" y="61.182"/>
</g>
<g fill="rgb(0%, 0%, 0%)" fill-opacity="1">
<use xlink:href="#glyph-1-0" x="210.714491" y="61.182"/>
</g>
<g fill="rgb(0%, 0%, 0%)" fill-opacity="1">
<use xlink:href="#glyph-1-2" x="204.128" y="41.389"/>
</g>
<g fill="rgb(0%, 0%, 0%)" fill-opacity="1">
<use xlink:href="#glyph-2-0" x="208.362514" y="41.389"/>
</g>
<g fill="rgb(0%, 0%, 0%)" fill-opacity="1">
<use xlink:href="#glyph-1-3" x="210.714491" y="41.389"/>
</g>
<g clip-path="url(#clip-3)">
<path fill="none" stroke-width="1.19553" stroke-linecap="butt" stroke-linejoin="miter" stroke="rgb(0%, 61.959839%, 45.095825%)" stroke-opacity="1" stroke-miterlimit="10" d="M -0.00125 0.0115 L 1.291719 0.0193125 L 2.580781 0.027125 L 3.87375 0.0349375 L 5.162813 0.0466563 L 6.451875 0.0661875 L 7.744844 0.0857188 L 9.033906 0.116969 L 10.326875 0.156031 L 11.615938 0.206813 L 12.908906 0.269313 L 14.197969 0.347438 L 15.490938 0.449 L 16.78 0.577906 L 18.069063 0.734156 L 19.362031 0.925563 L 20.651094 1.163844 L 21.944063 1.449 L 23.233125 1.788844 L 24.526094 2.199 L 25.815156 2.679469 L 27.104219 3.245875 L 28.397188 3.902125 L 29.68625 4.659938 L 30.979219 5.523219 L 32.268281 6.503688 L 33.56125 7.601344 L 34.850313 8.827906 L 36.139375 10.16775 L 37.432344 11.6365 L 38.721406 13.226344 L 40.014375 14.925563 L 41.303438 16.722438 L 42.596406 18.60525 L 43.885469 20.550563 L 45.174531 22.546656 L 46.4675 24.558375 L 47.756563 26.558375 L 49.049531 28.523219 L 50.338594 30.413844 L 51.631563 32.206813 L 52.920625 33.859156 L 54.209688 35.351344 L 55.502656 36.648219 L 56.791719 37.722438 L 58.084688 38.558375 L 59.37375 39.1365 L 60.666719 39.441188 L 61.955781 39.468531 L 63.24875 39.218531 L 64.537813 38.695094 L 65.826875 37.913844 L 67.119844 36.882594 L 68.408906 35.628688 L 69.701875 34.171656 L 70.990938 32.550563 L 72.283906 30.784938 L 73.572969 28.909938 L 74.862031 26.956813 L 76.155 24.960719 L 77.444063 22.949 L 78.737031 20.949 L 80.026094 18.991969 L 81.319063 17.093531 L 82.608125 15.281031 L 83.897188 13.558375 L 85.190156 11.949 L 86.479219 10.456813 L 87.772188 9.081813 L 89.06125 7.839625 L 90.354219 6.714625 L 91.643281 5.710719 L 92.932344 4.824 L 94.225313 4.046656 L 95.514375 3.370875 L 96.807344 2.788844 L 98.096406 2.288844 L 99.389375 1.866969 L 100.678438 1.5115 L 101.9675 1.214625 L 103.260469 0.968531 L 104.549531 0.769313 L 105.8425 0.60525 L 107.131563 0.472438 L 108.424531 0.366969 L 109.713594 0.281031 L 111.006563 0.214625 L 112.295625 0.163844 L 113.584688 0.124781 L 114.877656 0.0935313 L 116.166719 0.0700938 L 117.459688 0.0505625 L 118.74875 0.0388438 L 120.041719 0.027125 L 121.330781 0.0193125 L 122.619844 0.0154063 L 123.912813 0.0115 L 125.201875 0.00759375 L 126.494844 0.0036875 L 129.076875 0.0036875 L 130.365938 -0.00021875 L 153.600313 -0.00021875 " transform="matrix(1, 0, 0, -1, 220.595, 98.199)"/>
</g>
<g fill="rgb(0%, 61.959839%, 45.095825%)" fill-opacity="1">
<use xlink:href="#glyph-3-4" x="293.044" y="45.739"/>
<use xlink:href="#glyph-3-13" x="297.278514" y="45.739"/>
<use xlink:href="#glyph-3-13" x="299.630491" y="45.739"/>
</g>
<g fill="rgb(0%, 61.959839%, 45.095825%)" fill-opacity="1">
<use xlink:href="#glyph-3-15" x="304.803883" y="45.739"/>
<use xlink:href="#glyph-3-6" x="308.144151" y="45.739"/>
<use xlink:href="#glyph-3-2" x="311.437397" y="45.739"/>
<use xlink:href="#glyph-3-0" x="315.200878" y="45.739"/>
<use xlink:href="#glyph-3-15" x="319.905628" y="45.739"/>
</g>
<g fill="rgb(0%, 0%, 0%)" fill-opacity="1">
<use xlink:href="#glyph-3-10" x="246.674" y="122.142"/>
<use xlink:href="#glyph-3-9" x="251.37875" y="122.142"/>
<use xlink:href="#glyph-3-1" x="255.613264" y="122.142"/>
<use xlink:href="#glyph-3-18" x="258.913683" y="122.142"/>
<use xlink:href="#glyph-3-4" x="265.970409" y="122.142"/>
<use xlink:href="#glyph-3-13" x="270.204923" y="122.142"/>
<use xlink:href="#glyph-3-7" x="272.5569" y="122.142"/>
<use xlink:href="#glyph-3-19" x="274.908876" y="122.142"/>
<use xlink:href="#glyph-3-2" x="278.672357" y="122.142"/>
<use xlink:href="#glyph-3-12" x="282.435839" y="122.142"/>
</g>
<g fill="rgb(0%, 0%, 0%)" fill-opacity="1">
<use xlink:href="#glyph-3-0" x="289.962004" y="122.142"/>
<use xlink:href="#glyph-3-1" x="294.666754" y="122.142"/>
<use xlink:href="#glyph-3-2" x="297.967173" y="122.142"/>
<use xlink:href="#glyph-3-3" x="301.730654" y="122.142"/>
<use xlink:href="#glyph-3-4" x="304.553663" y="122.142"/>
<use xlink:href="#glyph-3-5" x="308.788177" y="122.142"/>
<use xlink:href="#glyph-3-6" x="312.551659" y="122.142"/>
<use xlink:href="#glyph-3-7" x="315.844904" y="122.142"/>
<use xlink:href="#glyph-3-8" x="318.19688" y="122.142"/>
</g>
<g fill="rgb(0%, 0%, 0%)" fill-opacity="1">
<use xlink:href="#glyph-3-4" x="322.19548" y="122.142"/>
<use xlink:href="#glyph-3-6" x="326.429994" y="122.142"/>
<use xlink:href="#glyph-3-7" x="329.723239" y="122.142"/>
<use xlink:href="#glyph-3-9" x="332.075216" y="122.142"/>
<use xlink:href="#glyph-3-10" x="336.30973" y="122.142"/>
</g>
<g fill="rgb(0%, 0%, 0%)" fill-opacity="1">
<use xlink:href="#glyph-1-4" x="344.330041" y="122.142"/>
</g>
<g fill="rgb(0%, 0%, 0%)" fill-opacity="1">
<use xlink:href="#glyph-2-1" x="343.838286" y="122.142"/>
</g>
<g fill="rgb(0%, 0%, 0%)" fill-opacity="1">
<use xlink:href="#glyph-4-0" x="195.739" y="74.284"/>
<use xlink:href="#glyph-4-1" x="195.739" y="69.57925"/>
<use xlink:href="#glyph-4-2" x="195.739" y="65.815769"/>
<use xlink:href="#glyph-4-3" x="195.739" y="61.111019"/>
<use xlink:href="#glyph-4-4" x="195.739" y="57.77075"/>
<use xlink:href="#glyph-4-5" x="195.739" y="55.418773"/>
</g>
<g fill="rgb(0%, 0%, 0%)" fill-opacity="1">
<use xlink:href="#glyph-4-6" x="195.739" y="52.356661"/>
</g>
<g fill="rgb(0%, 0%, 0%)" fill-opacity="1">
<use xlink:href="#glyph-5-0" x="262.252" y="14.479"/>
<use xlink:href="#glyph-5-1" x="271.721415" y="14.479"/>
<use xlink:href="#glyph-5-2" x="274.281322" y="14.479"/>
<use xlink:href="#glyph-5-3" x="277.865192" y="14.479"/>
</g>
<g fill="rgb(0%, 0%, 0%)" fill-opacity="1">
<use xlink:href="#glyph-5-6" x="286.060482" y="14.479"/>
<use xlink:href="#glyph-5-7" x="292.587124" y="14.479"/>
<use xlink:href="#glyph-5-2" x="297.194957" y="14.479"/>
<use xlink:href="#glyph-5-8" x="300.778828" y="14.479"/>
</g>
<g fill="rgb(0%, 0%, 0%)" fill-opacity="1">
<use xlink:href="#glyph-5-3" x="304.614653" y="14.479"/>
<use xlink:href="#glyph-5-9" x="309.734468" y="14.479"/>
<use xlink:href="#glyph-5-4" x="316.644872" y="14.479"/>
<use xlink:href="#glyph-5-10" x="321.252705" y="14.479"/>
<use xlink:href="#glyph-5-11" x="324.857198" y="14.479"/>
</g>
</svg>
