<?xml version="1.0" encoding="UTF-8"?>
<svg xmlns="http://www.w3.org/2000/svg" xmlns:xlink="http://www.w3.org/1999/xlink" width="454.433pt" height="153.023pt" viewBox="0 0 454.433 153.023">
<defs>
<g>
<g id="glyph-0-0">
<path d="M 3.984375 -1 C 3.984375 -1.09375 3.890625 -1.09375 3.875 -1.09375 C 3.765625 -1.09375 3.765625 -1.0625 3.71875 -0.875 C 3.625 -0.53125 3.5 -0.125 3.203125 -0.125 C 3.03125 -0.125 2.96875 -0.28125 2.96875 -0.46875 C 2.96875 -0.59375 2.984375 -0.65625 3.015625 -0.75 L 3.984375 -4.625 C 3.984375 -4.640625 4 -4.734375 4 -4.734375 C 4 -4.78125 3.984375 -4.84375 3.890625 -4.84375 C 3.75 -4.84375 3.171875 -4.78125 3 -4.765625 C 2.953125 -4.765625 2.84375 -4.75 2.84375 -4.609375 C 2.84375 -4.515625 2.953125 -4.515625 3.03125 -4.515625 C 3.359375 -4.515625 3.359375 -4.453125 3.359375 -4.40625 C 3.359375 -4.359375 3.359375 -4.3125 3.34375 -4.25 L 2.9375 -2.65625 C 2.796875 -2.890625 2.5625 -3.078125 2.21875 -3.078125 C 1.328125 -3.078125 0.421875 -2.09375 0.421875 -1.09375 C 0.421875 -0.40625 0.875 0.0625 1.484375 0.0625 C 1.859375 0.0625 2.1875 -0.140625 2.46875 -0.421875 C 2.59375 0 3 0.0625 3.1875 0.0625 C 3.4375 0.0625 3.609375 -0.078125 3.734375 -0.296875 C 3.890625 -0.578125 3.984375 -0.96875 3.984375 -1 Z M 2.828125 -2.171875 L 2.5 -0.875 C 2.453125 -0.671875 2.296875 -0.53125 2.140625 -0.40625 C 2.078125 -0.34375 1.796875 -0.125 1.5 -0.125 C 1.234375 -0.125 0.984375 -0.3125 0.984375 -0.796875 C 0.984375 -1.171875 1.1875 -1.9375 1.359375 -2.21875 C 1.671875 -2.78125 2.03125 -2.875 2.21875 -2.875 C 2.703125 -2.875 2.84375 -2.34375 2.84375 -2.265625 C 2.84375 -2.25 2.828125 -2.1875 2.828125 -2.171875 Z M 2.828125 -2.171875 "/>
</g>
<g id="glyph-0-1">
<path d="M 1.578125 -0.390625 C 1.578125 -0.640625 1.375 -0.796875 1.1875 -0.796875 C 0.953125 -0.796875 0.78125 -0.609375 0.78125 -0.40625 C 0.78125 -0.15625 0.984375 0 1.171875 0 C 1.40625 0 1.578125 -0.1875 1.578125 -0.390625 Z M 1.578125 -0.390625 "/>
</g>
<g id="glyph-1-0">
<path d="M 5.609375 -2.515625 C 5.609375 -2.6875 5.453125 -2.6875 5.359375 -2.6875 L 0.75 -2.6875 C 0.65625 -2.6875 0.484375 -2.6875 0.484375 -2.515625 C 0.484375 -2.34375 0.640625 -2.34375 0.75 -2.34375 L 5.359375 -2.34375 C 5.453125 -2.34375 5.609375 -2.34375 5.609375 -2.515625 Z M 5.609375 -0.96875 C 5.609375 -1.15625 5.453125 -1.15625 5.359375 -1.15625 L 0.75 -1.15625 C 0.640625 -1.15625 0.484375 -1.15625 0.484375 -0.96875 C 0.484375 -0.8125 0.65625 -0.8125 0.75 -0.8125 L 5.359375 -0.8125 C 5.453125 -0.8125 5.609375 -0.8125 5.609375 -0.96875 Z M 5.609375 -0.96875 "/>
</g>
<g id="glyph-1-1">
<path d="M 3.515625 -1.265625 L 3.28125 -1.265625 C 3.265625 -1.109375 3.1875 -0.703125 3.09375 -0.640625 C 3.046875 -0.59375 2.515625 -0.59375 2.40625 -0.59375 L 1.125 -0.59375 C 1.859375 -1.234375 2.109375 -1.4375 2.515625 -1.765625 C 3.03125 -2.171875 3.515625 -2.609375 3.515625 -3.265625 C 3.515625 -4.109375 2.78125 -4.625 1.890625 -4.625 C 1.03125 -4.625 0.4375 -4.015625 0.4375 -3.375 C 0.4375 -3.03125 0.734375 -2.984375 0.8125 -2.984375 C 0.96875 -2.984375 1.171875 -3.109375 1.171875 -3.359375 C 1.171875 -3.484375 1.125 -3.734375 0.765625 -3.734375 C 0.984375 -4.21875 1.453125 -4.375 1.78125 -4.375 C 2.484375 -4.375 2.84375 -3.828125 2.84375 -3.265625 C 2.84375 -2.65625 2.40625 -2.1875 2.1875 -1.9375 L 0.515625 -0.265625 C 0.4375 -0.203125 0.4375 -0.1875 0.4375 0 L 3.3125 0 Z M 3.515625 -1.265625 "/>
</g>
<g id="glyph-1-2">
<path d="M 3.296875 0 L 3.296875 -0.25 L 3.03125 -0.25 C 2.328125 -0.25 2.328125 -0.34375 2.328125 -0.578125 L 2.328125 -4.4375 C 2.328125 -4.625 2.328125 -4.625 2.125 -4.625 C 1.671875 -4.1875 1.046875 -4.1875 0.765625 -4.1875 L 0.765625 -3.9375 C 0.921875 -3.9375 1.390625 -3.9375 1.765625 -4.125 L 1.765625 -0.578125 C 1.765625 -0.34375 1.765625 -0.25 1.078125 -0.25 L 0.8125 -0.25 L 0.8125 0 L 2.046875 -0.03125 Z M 3.296875 0 "/>
</g>
<g id="glyph-1-3">
<path d="M 3.59375 -2.21875 C 3.59375 -2.984375 3.5 -3.546875 3.1875 -4.03125 C 2.96875 -4.34375 2.53125 -4.625 1.984375 -4.625 C 0.359375 -4.625 0.359375 -2.71875 0.359375 -2.21875 C 0.359375 -1.71875 0.359375 0.140625 1.984375 0.140625 C 3.59375 0.140625 3.59375 -1.71875 3.59375 -2.21875 Z M 2.96875 -2.3125 C 2.96875 -1.796875 2.96875 -1.28125 2.875 -0.84375 C 2.734375 -0.203125 2.265625 -0.0625 1.984375 -0.0625 C 1.65625 -0.0625 1.234375 -0.25 1.09375 -0.8125 C 1 -1.21875 1 -1.796875 1 -2.3125 C 1 -2.828125 1 -3.359375 1.09375 -3.734375 C 1.25 -4.28125 1.6875 -4.4375 1.984375 -4.4375 C 2.359375 -4.4375 2.71875 -4.203125 2.84375 -3.796875 C 2.953125 -3.421875 2.96875 -2.921875 2.96875 -2.3125 Z M 2.96875 -2.3125 "/>
</g>
<g id="glyph-1-4">
<path d="M 3.515625 -1.40625 C 3.515625 -2.1875 2.921875 -2.90625 2.0625 -2.90625 C 1.75 -2.90625 1.390625 -2.84375 1.078125 -2.578125 L 1.078125 -3.890625 C 1.4375 -3.796875 1.640625 -3.796875 1.75 -3.796875 C 2.671875 -3.796875 3.21875 -4.421875 3.21875 -4.53125 C 3.21875 -4.609375 3.171875 -4.625 3.140625 -4.625 C 3.140625 -4.625 3.109375 -4.625 3.078125 -4.609375 C 2.90625 -4.546875 2.546875 -4.40625 2.03125 -4.40625 C 1.828125 -4.40625 1.46875 -4.421875 1.015625 -4.59375 C 0.9375 -4.625 0.921875 -4.625 0.921875 -4.625 C 0.828125 -4.625 0.828125 -4.546875 0.828125 -4.4375 L 0.828125 -2.390625 C 0.828125 -2.265625 0.828125 -2.1875 0.9375 -2.1875 C 1 -2.1875 1.015625 -2.1875 1.078125 -2.28125 C 1.375 -2.65625 1.8125 -2.71875 2.046875 -2.71875 C 2.46875 -2.71875 2.65625 -2.390625 2.6875 -2.328125 C 2.8125 -2.09375 2.859375 -1.828125 2.859375 -1.421875 C 2.859375 -1.21875 2.859375 -0.8125 2.640625 -0.5 C 2.46875 -0.25 2.171875 -0.078125 1.828125 -0.078125 C 1.375 -0.078125 0.90625 -0.328125 0.734375 -0.796875 C 1 -0.78125 1.140625 -0.953125 1.140625 -1.140625 C 1.140625 -1.4375 0.875 -1.484375 0.78125 -1.484375 C 0.78125 -1.484375 0.4375 -1.484375 0.4375 -1.109375 C 0.4375 -0.484375 1.015625 0.140625 1.84375 0.140625 C 2.734375 0.140625 3.515625 -0.515625 3.515625 -1.40625 Z M 3.515625 -1.40625 "/>
</g>
<g id="glyph-1-5">
<path d="M 3.6875 -1.140625 L 3.6875 -1.390625 L 2.90625 -1.390625 L 2.90625 -4.5 C 2.90625 -4.640625 2.90625 -4.703125 2.765625 -4.703125 C 2.671875 -4.703125 2.640625 -4.703125 2.578125 -4.59375 L 0.265625 -1.390625 L 0.265625 -1.140625 L 2.328125 -1.140625 L 2.328125 -0.578125 C 2.328125 -0.328125 2.328125 -0.25 1.75 -0.25 L 1.5625 -0.25 L 1.5625 0 L 2.609375 -0.03125 L 3.671875 0 L 3.671875 -0.25 L 3.484375 -0.25 C 2.90625 -0.25 2.90625 -0.328125 2.90625 -0.578125 L 2.90625 -1.140625 Z M 2.375 -1.390625 L 0.53125 -1.390625 L 2.375 -3.9375 Z M 2.375 -1.390625 "/>
</g>
<g id="glyph-1-6">
<path d="M 3.578125 -1.421875 C 3.578125 -2.3125 2.875 -2.96875 2.0625 -2.96875 C 1.5 -2.96875 1.203125 -2.59375 1.046875 -2.28125 C 1.046875 -2.84375 1.09375 -3.359375 1.359375 -3.796875 C 1.59375 -4.171875 1.96875 -4.421875 2.421875 -4.421875 C 2.625 -4.421875 2.90625 -4.375 3.046875 -4.1875 C 2.875 -4.171875 2.71875 -4.046875 2.71875 -3.84375 C 2.71875 -3.671875 2.84375 -3.515625 3.046875 -3.515625 C 3.265625 -3.515625 3.390625 -3.65625 3.390625 -3.859375 C 3.390625 -4.265625 3.09375 -4.625 2.40625 -4.625 C 1.40625 -4.625 0.375 -3.703125 0.375 -2.203125 C 0.375 -0.40625 1.21875 0.140625 2 0.140625 C 2.84375 0.140625 3.578125 -0.515625 3.578125 -1.421875 Z M 2.90625 -1.421875 C 2.90625 -1.03125 2.90625 -0.734375 2.71875 -0.453125 C 2.5625 -0.21875 2.328125 -0.078125 2 -0.078125 C 1.640625 -0.078125 1.375 -0.28125 1.21875 -0.59375 C 1.125 -0.796875 1.0625 -1.15625 1.0625 -1.5625 C 1.0625 -2.25 1.46875 -2.765625 2.03125 -2.765625 C 2.34375 -2.765625 2.5625 -2.640625 2.734375 -2.390625 C 2.90625 -2.125 2.90625 -1.828125 2.90625 -1.421875 Z M 2.90625 -1.421875 "/>
</g>
<g id="glyph-1-7">
<path d="M 3.578125 -1.171875 C 3.578125 -1.640625 3.3125 -2.03125 2.90625 -2.265625 L 2.46875 -2.515625 C 3.015625 -2.78125 3.359375 -3.109375 3.359375 -3.59375 C 3.359375 -4.265625 2.65625 -4.625 1.984375 -4.625 C 1.21875 -4.625 0.59375 -4.125 0.59375 -3.46875 C 0.59375 -3.140625 0.75 -2.90625 0.875 -2.765625 C 1 -2.609375 1.046875 -2.578125 1.453125 -2.34375 C 1.0625 -2.171875 0.375 -1.796875 0.375 -1.0625 C 0.375 -0.296875 1.171875 0.140625 1.96875 0.140625 C 2.859375 0.140625 3.578125 -0.421875 3.578125 -1.171875 Z M 3 -3.59375 C 3 -2.96875 2.265625 -2.65625 2.265625 -2.65625 C 2.265625 -2.65625 2.234375 -2.65625 2.1875 -2.6875 L 1.34375 -3.171875 C 1.15625 -3.28125 0.96875 -3.46875 0.96875 -3.734375 C 0.96875 -4.171875 1.46875 -4.421875 1.96875 -4.421875 C 2.515625 -4.421875 3 -4.078125 3 -3.59375 Z M 3.15625 -0.9375 C 3.15625 -0.40625 2.578125 -0.078125 1.984375 -0.078125 C 1.34375 -0.078125 0.796875 -0.5 0.796875 -1.0625 C 0.796875 -1.578125 1.171875 -1.984375 1.671875 -2.203125 C 2.0625 -1.984375 2.078125 -1.984375 2.640625 -1.65625 C 2.8125 -1.546875 3.15625 -1.34375 3.15625 -0.9375 Z M 3.15625 -0.9375 "/>
</g>
<g id="glyph-2-0">
<path d="M 2.765625 0 L 2.765625 -0.21875 L 2.515625 -0.21875 C 1.984375 -0.21875 1.984375 -0.28125 1.984375 -0.421875 L 1.984375 -3.171875 C 1.984375 -3.3125 1.96875 -3.3125 1.796875 -3.3125 C 1.453125 -3 0.890625 -3 0.796875 -3 L 0.71875 -3 L 0.71875 -2.78125 L 0.796875 -2.78125 C 0.90625 -2.78125 1.234375 -2.796875 1.53125 -2.921875 L 1.53125 -0.421875 C 1.53125 -0.28125 1.53125 -0.21875 1 -0.21875 L 0.75 -0.21875 L 0.75 0 C 1.015625 -0.015625 1.46875 -0.015625 1.75 -0.015625 C 2.046875 -0.015625 2.484375 -0.015625 2.765625 0 Z M 2.765625 0 "/>
</g>
<g id="glyph-2-1">
<path d="M 2.9375 -0.96875 L 2.71875 -0.96875 C 2.71875 -0.875 2.65625 -0.5625 2.578125 -0.515625 C 2.546875 -0.484375 2.125 -0.484375 2.046875 -0.484375 L 1.078125 -0.484375 C 1.40625 -0.71875 1.765625 -1 2.0625 -1.203125 C 2.515625 -1.515625 2.9375 -1.796875 2.9375 -2.328125 C 2.9375 -2.96875 2.328125 -3.3125 1.625 -3.3125 C 0.953125 -3.3125 0.453125 -2.9375 0.453125 -2.4375 C 0.453125 -2.1875 0.671875 -2.140625 0.75 -2.140625 C 0.875 -2.140625 1.03125 -2.234375 1.03125 -2.4375 C 1.03125 -2.609375 0.90625 -2.71875 0.75 -2.71875 C 0.890625 -2.953125 1.1875 -3.09375 1.515625 -3.09375 C 2 -3.09375 2.40625 -2.8125 2.40625 -2.328125 C 2.40625 -1.90625 2.109375 -1.578125 1.734375 -1.265625 L 0.515625 -0.234375 C 0.46875 -0.1875 0.453125 -0.1875 0.453125 -0.15625 L 0.453125 0 L 2.765625 0 Z M 2.9375 -0.96875 "/>
</g>
<g id="glyph-3-0">
<path d="M 2.8125 1.890625 C 2.8125 1.859375 2.8125 1.859375 2.703125 1.75 C 1.609375 0.71875 1.34375 -0.75 1.34375 -1.984375 C 1.34375 -4.28125 2.28125 -5.359375 2.6875 -5.734375 C 2.8125 -5.828125 2.8125 -5.84375 2.8125 -5.875 C 2.8125 -5.921875 2.78125 -5.96875 2.703125 -5.96875 C 2.578125 -5.96875 2.171875 -5.5625 2.109375 -5.5 C 1.046875 -4.375 0.828125 -2.953125 0.828125 -1.984375 C 0.828125 -0.203125 1.5625 1.234375 2.65625 1.984375 C 2.71875 1.984375 2.8125 1.984375 2.8125 1.890625 Z M 2.8125 1.890625 "/>
</g>
<g id="glyph-3-1">
<path d="M 4.09375 -0.71875 L 4.09375 -1.15625 L 3.84375 -1.15625 L 3.84375 -0.71875 C 3.84375 -0.390625 3.734375 -0.265625 3.5625 -0.265625 C 3.265625 -0.265625 3.265625 -0.625 3.265625 -0.71875 L 3.265625 -2.375 C 3.265625 -3.15625 2.515625 -3.546875 1.78125 -3.546875 C 1.125 -3.546875 0.53125 -3.296875 0.53125 -2.765625 C 0.53125 -2.53125 0.703125 -2.390625 0.90625 -2.390625 C 1.125 -2.390625 1.28125 -2.546875 1.28125 -2.765625 C 1.28125 -2.953125 1.15625 -3.09375 0.984375 -3.125 C 1.28125 -3.328125 1.71875 -3.328125 1.765625 -3.328125 C 2.21875 -3.328125 2.65625 -3.015625 2.65625 -2.359375 L 2.65625 -2.125 C 2.203125 -2.09375 1.671875 -2.078125 1.109375 -1.84375 C 0.40625 -1.53125 0.265625 -1.078125 0.265625 -0.8125 C 0.265625 -0.125 1.078125 0.078125 1.625 0.078125 C 2.203125 0.078125 2.5625 -0.25 2.734375 -0.5625 C 2.78125 -0.265625 2.984375 0.046875 3.34375 0.046875 C 3.421875 0.046875 4.09375 0.015625 4.09375 -0.71875 Z M 2.65625 -1.125 C 2.65625 -0.34375 2.015625 -0.140625 1.6875 -0.140625 C 1.28125 -0.140625 0.921875 -0.421875 0.921875 -0.8125 C 0.921875 -1.328125 1.421875 -1.875 2.65625 -1.90625 Z M 2.65625 -1.125 "/>
</g>
<g id="glyph-3-2">
<path d="M 2.46875 -1.984375 C 2.46875 -2.75 2.328125 -3.65625 1.84375 -4.59375 C 1.453125 -5.328125 0.71875 -5.96875 0.578125 -5.96875 C 0.5 -5.96875 0.484375 -5.921875 0.484375 -5.875 C 0.484375 -5.84375 0.484375 -5.828125 0.578125 -5.734375 C 1.6875 -4.671875 1.9375 -3.21875 1.9375 -1.984375 C 1.9375 0.296875 1 1.375 0.59375 1.75 C 0.484375 1.84375 0.484375 1.859375 0.484375 1.890625 C 0.484375 1.9375 0.5 1.984375 0.578125 1.984375 C 0.703125 1.984375 1.109375 1.578125 1.171875 1.515625 C 2.234375 0.390625 2.46875 -1.03125 2.46875 -1.984375 Z M 2.46875 -1.984375 "/>
</g>
<g id="glyph-3-3">
<path d="M 4.421875 -1.71875 C 4.421875 -2.71875 3.59375 -3.515625 2.625 -3.515625 C 1.984375 -3.515625 1.609375 -3.171875 1.46875 -3.03125 L 1.46875 -5.53125 L 0.28125 -5.4375 L 0.28125 -5.171875 C 0.828125 -5.171875 0.890625 -5.125 0.890625 -4.734375 L 0.890625 0 L 1.125 0 L 1.421875 -0.5 C 1.609375 -0.21875 1.984375 0.078125 2.53125 0.078125 C 3.53125 0.078125 4.421875 -0.703125 4.421875 -1.71875 Z M 3.703125 -1.734375 C 3.703125 -1.546875 3.703125 -0.984375 3.421875 -0.609375 C 3.125 -0.25 2.75 -0.140625 2.5 -0.140625 C 2.109375 -0.140625 1.796875 -0.34375 1.578125 -0.65625 C 1.484375 -0.8125 1.484375 -0.8125 1.484375 -0.96875 L 1.484375 -2.515625 C 1.484375 -2.671875 1.484375 -2.6875 1.609375 -2.828125 C 1.84375 -3.125 2.21875 -3.296875 2.578125 -3.296875 C 2.984375 -3.296875 3.296875 -3.046875 3.453125 -2.8125 C 3.59375 -2.59375 3.703125 -2.3125 3.703125 -1.734375 Z M 3.703125 -1.734375 "/>
</g>
<g id="glyph-3-4">
<path d="M 2.125 0 L 2.125 -0.265625 C 1.625 -0.265625 1.515625 -0.265625 1.515625 -0.625 L 1.515625 -5.53125 L 0.328125 -5.4375 L 0.328125 -5.171875 C 0.875 -5.171875 0.9375 -5.125 0.9375 -4.734375 L 0.9375 -0.625 C 0.9375 -0.265625 0.84375 -0.265625 0.328125 -0.265625 L 0.328125 0 C 0.640625 -0.03125 1.09375 -0.03125 1.234375 -0.03125 C 1.390625 -0.03125 1.8125 -0.03125 2.125 0 Z M 2.125 0 "/>
</g>
<g id="glyph-3-5">
<path d="M 4.484375 0 L 4.484375 -0.265625 C 3.9375 -0.265625 3.875 -0.3125 3.875 -0.703125 L 3.875 -3.515625 L 2.65625 -3.421875 L 2.65625 -3.15625 C 3.203125 -3.15625 3.265625 -3.109375 3.265625 -2.71875 L 3.265625 -1.328125 C 3.265625 -0.640625 2.859375 -0.140625 2.25 -0.140625 C 1.5625 -0.140625 1.53125 -0.484375 1.53125 -0.890625 L 1.53125 -3.515625 L 0.328125 -3.421875 L 0.328125 -3.15625 C 0.9375 -3.15625 0.9375 -3.140625 0.9375 -2.4375 L 0.9375 -1.234375 C 0.9375 -0.65625 0.9375 0.078125 2.203125 0.078125 C 2.953125 0.078125 3.25 -0.5 3.28125 -0.5625 L 3.296875 -0.5625 L 3.296875 0.078125 Z M 4.484375 0 "/>
</g>
<g id="glyph-3-6">
<path d="M 3.515625 -0.953125 C 3.515625 -0.984375 3.484375 -1.0625 3.390625 -1.0625 C 3.296875 -1.0625 3.28125 -1.015625 3.265625 -0.96875 C 2.984375 -0.1875 2.296875 -0.171875 2.15625 -0.171875 C 1.796875 -0.171875 1.421875 -0.328125 1.1875 -0.703125 C 0.953125 -1.0625 0.953125 -1.578125 0.953125 -1.8125 L 3.296875 -1.8125 C 3.46875 -1.8125 3.515625 -1.8125 3.515625 -2 C 3.515625 -2.703125 3.125 -3.546875 2 -3.546875 C 1.015625 -3.546875 0.234375 -2.734375 0.234375 -1.75 C 0.234375 -0.71875 1.09375 0.078125 2.109375 0.078125 C 3.109375 0.078125 3.515625 -0.765625 3.515625 -0.953125 Z M 2.96875 -2.03125 L 0.953125 -2.03125 C 1.03125 -3.140625 1.703125 -3.328125 2 -3.328125 C 2.9375 -3.328125 2.96875 -2.203125 2.96875 -2.03125 Z M 2.96875 -2.03125 "/>
</g>
<g id="glyph-3-7">
<path d="M 3.515625 -0.953125 C 3.515625 -1.046875 3.40625 -1.046875 3.390625 -1.046875 C 3.328125 -1.046875 3.296875 -1.046875 3.265625 -0.96875 C 3.21875 -0.796875 2.984375 -0.171875 2.1875 -0.171875 C 1.703125 -0.171875 0.984375 -0.546875 0.984375 -1.734375 C 0.984375 -2.875 1.578125 -3.3125 2.15625 -3.3125 C 2.234375 -3.3125 2.65625 -3.3125 2.9375 -3.15625 C 2.703125 -3.09375 2.671875 -2.90625 2.671875 -2.8125 C 2.671875 -2.59375 2.828125 -2.4375 3.046875 -2.4375 C 3.265625 -2.4375 3.421875 -2.578125 3.421875 -2.828125 C 3.421875 -3.3125 2.890625 -3.546875 2.140625 -3.546875 C 1.03125 -3.546875 0.28125 -2.671875 0.28125 -1.71875 C 0.28125 -0.703125 1.109375 0.078125 2.109375 0.078125 C 3.234375 0.078125 3.515625 -0.859375 3.515625 -0.953125 Z M 3.515625 -0.953125 "/>
</g>
<g id="glyph-3-8">
<path d="M 3.984375 -1.703125 C 3.984375 -2.6875 3.15625 -3.546875 2.109375 -3.546875 C 1.0625 -3.546875 0.234375 -2.6875 0.234375 -1.703125 C 0.234375 -0.703125 1.09375 0.078125 2.109375 0.078125 C 3.140625 0.078125 3.984375 -0.703125 3.984375 -1.703125 Z M 3.28125 -1.765625 C 3.28125 -1.40625 3.265625 -0.96875 3.03125 -0.625 C 2.828125 -0.3125 2.46875 -0.171875 2.109375 -0.171875 C 1.6875 -0.171875 1.34375 -0.375 1.171875 -0.65625 C 0.96875 -0.984375 0.953125 -1.375 0.953125 -1.765625 C 0.953125 -2.078125 0.953125 -2.546875 1.1875 -2.890625 C 1.40625 -3.171875 1.734375 -3.328125 2.109375 -3.328125 C 2.53125 -3.328125 2.875 -3.125 3.046875 -2.859375 C 3.265625 -2.515625 3.28125 -2.09375 3.28125 -1.765625 Z M 3.28125 -1.765625 "/>
</g>
<g id="glyph-3-9">
<path d="M 3.0625 -3.015625 C 3.0625 -3.296875 2.8125 -3.515625 2.453125 -3.515625 C 1.9375 -3.515625 1.578125 -3.125 1.421875 -2.671875 L 1.40625 -2.671875 L 1.40625 -3.515625 L 0.28125 -3.421875 L 0.28125 -3.15625 C 0.828125 -3.15625 0.890625 -3.109375 0.890625 -2.71875 L 0.890625 -0.625 C 0.890625 -0.265625 0.78125 -0.265625 0.28125 -0.265625 L 0.28125 0 C 0.59375 -0.03125 1.03125 -0.03125 1.21875 -0.03125 C 1.6875 -0.03125 1.703125 -0.03125 2.21875 0 L 2.21875 -0.265625 L 2.0625 -0.265625 C 1.484375 -0.265625 1.46875 -0.34375 1.46875 -0.640625 L 1.46875 -1.8125 C 1.46875 -2.421875 1.71875 -3.28125 2.484375 -3.296875 C 2.4375 -3.265625 2.34375 -3.203125 2.34375 -3.015625 C 2.34375 -2.765625 2.546875 -2.65625 2.703125 -2.65625 C 2.890625 -2.65625 3.0625 -2.78125 3.0625 -3.015625 Z M 3.0625 -3.015625 "/>
</g>
<g id="glyph-3-10">
<path d="M 4.484375 0 L 4.484375 -0.265625 C 3.96875 -0.265625 3.875 -0.265625 3.875 -0.625 L 3.875 -2.421875 C 3.875 -3.078125 3.5625 -3.515625 2.734375 -3.515625 C 1.9375 -3.515625 1.578125 -2.9375 1.484375 -2.75 L 1.484375 -3.515625 L 0.328125 -3.421875 L 0.328125 -3.15625 C 0.875 -3.15625 0.9375 -3.109375 0.9375 -2.71875 L 0.9375 -0.625 C 0.9375 -0.265625 0.84375 -0.265625 0.328125 -0.265625 L 0.328125 0 C 0.671875 -0.03125 1.015625 -0.03125 1.234375 -0.03125 C 1.46875 -0.03125 1.796875 -0.03125 2.140625 0 L 2.140625 -0.265625 C 1.640625 -0.265625 1.53125 -0.265625 1.53125 -0.625 L 1.53125 -2.0625 C 1.53125 -2.90625 2.171875 -3.296875 2.65625 -3.296875 C 3.140625 -3.296875 3.265625 -2.953125 3.265625 -2.453125 L 3.265625 -0.625 C 3.265625 -0.265625 3.171875 -0.265625 2.65625 -0.265625 L 2.65625 0 C 3 -0.03125 3.359375 -0.03125 3.5625 -0.03125 C 3.796875 -0.03125 4.140625 -0.03125 4.484375 0 Z M 4.484375 0 "/>
</g>
<g id="glyph-3-11">
<path d="M 4.421875 0 L 4.421875 -0.265625 C 3.875 -0.265625 3.8125 -0.3125 3.8125 -0.703125 L 3.8125 -5.53125 L 2.625 -5.4375 L 2.625 -5.171875 C 3.15625 -5.171875 3.234375 -5.125 3.234375 -4.734375 L 3.234375 -3.046875 C 2.953125 -3.359375 2.578125 -3.515625 2.15625 -3.515625 C 1.15625 -3.515625 0.28125 -2.734375 0.28125 -1.71875 C 0.28125 -0.734375 1.078125 0.078125 2.078125 0.078125 C 2.546875 0.078125 2.9375 -0.140625 3.203125 -0.421875 L 3.203125 0.078125 Z M 3.203125 -0.984375 C 3.203125 -0.84375 3.203125 -0.8125 3.078125 -0.65625 C 2.859375 -0.328125 2.5 -0.140625 2.125 -0.140625 C 1.75 -0.140625 1.4375 -0.328125 1.25 -0.625 C 1.03125 -0.9375 0.984375 -1.328125 0.984375 -1.703125 C 0.984375 -2.171875 1.0625 -2.5 1.25 -2.765625 C 1.4375 -3.0625 1.796875 -3.296875 2.203125 -3.296875 C 2.578125 -3.296875 2.96875 -3.09375 3.203125 -2.6875 Z M 3.203125 -0.984375 "/>
</g>
<g id="glyph-3-12">
<path d="M 3.046875 -1.03125 C 3.046875 -1.40625 2.828125 -1.96875 1.875 -2.140625 C 1.8125 -2.15625 1.359375 -2.234375 1.328125 -2.234375 C 1.078125 -2.296875 0.703125 -2.46875 0.703125 -2.78125 C 0.703125 -3.015625 0.890625 -3.359375 1.640625 -3.359375 C 2.53125 -3.359375 2.578125 -2.703125 2.59375 -2.484375 C 2.59375 -2.421875 2.65625 -2.390625 2.703125 -2.390625 C 2.84375 -2.390625 2.84375 -2.453125 2.84375 -2.59375 L 2.84375 -3.34375 C 2.84375 -3.46875 2.84375 -3.546875 2.734375 -3.546875 C 2.6875 -3.546875 2.671875 -3.546875 2.546875 -3.421875 C 2.53125 -3.421875 2.453125 -3.34375 2.4375 -3.34375 C 2.4375 -3.34375 2.40625 -3.34375 2.359375 -3.375 C 2.234375 -3.46875 2 -3.546875 1.640625 -3.546875 C 0.53125 -3.546875 0.28125 -2.953125 0.28125 -2.5625 C 0.28125 -2.171875 0.578125 -1.9375 0.59375 -1.90625 C 0.921875 -1.671875 1.09375 -1.640625 1.640625 -1.546875 C 2.015625 -1.46875 2.625 -1.359375 2.625 -0.828125 C 2.625 -0.515625 2.421875 -0.140625 1.6875 -0.140625 C 0.875 -0.140625 0.640625 -0.765625 0.546875 -1.1875 C 0.515625 -1.296875 0.5 -1.328125 0.40625 -1.328125 C 0.28125 -1.328125 0.28125 -1.265625 0.28125 -1.109375 L 0.28125 -0.125 C 0.28125 0 0.28125 0.078125 0.375 0.078125 C 0.4375 0.078125 0.4375 0.078125 0.578125 -0.078125 C 0.625 -0.125 0.703125 -0.21875 0.75 -0.265625 C 1.109375 0.0625 1.484375 0.078125 1.6875 0.078125 C 2.703125 0.078125 3.046875 -0.5 3.046875 -1.03125 Z M 3.046875 -1.03125 "/>
</g>
<g id="glyph-3-13">
<path d="M 4.484375 0 L 4.484375 -0.265625 C 3.96875 -0.265625 3.875 -0.265625 3.875 -0.625 L 3.875 -2.421875 C 3.875 -3.078125 3.5625 -3.515625 2.734375 -3.515625 C 2.03125 -3.515625 1.671875 -3.0625 1.515625 -2.8125 L 1.515625 -5.53125 L 0.328125 -5.4375 L 0.328125 -5.171875 C 0.875 -5.171875 0.9375 -5.125 0.9375 -4.734375 L 0.9375 -0.625 C 0.9375 -0.265625 0.84375 -0.265625 0.328125 -0.265625 L 0.328125 0 C 0.671875 -0.03125 1.015625 -0.03125 1.234375 -0.03125 C 1.46875 -0.03125 1.796875 -0.03125 2.140625 0 L 2.140625 -0.265625 C 1.640625 -0.265625 1.53125 -0.265625 1.53125 -0.625 L 1.53125 -2.0625 C 1.53125 -2.90625 2.171875 -3.296875 2.65625 -3.296875 C 3.140625 -3.296875 3.265625 -2.953125 3.265625 -2.453125 L 3.265625 -0.625 C 3.265625 -0.265625 3.171875 -0.265625 2.65625 -0.265625 L 2.65625 0 C 3 -0.03125 3.359375 -0.03125 3.5625 -0.03125 C 3.796875 -0.03125 4.140625 -0.03125 4.484375 0 Z M 4.484375 0 "/>
</g>
<g id="glyph-3-14">
<path d="M 3 -5.03125 C 3 -5.375 2.671875 -5.609375 2.25 -5.609375 C 1.65625 -5.609375 0.9375 -5.171875 0.9375 -4.328125 L 0.9375 -3.4375 L 0.28125 -3.4375 L 0.28125 -3.171875 L 0.9375 -3.171875 L 0.9375 -0.625 C 0.9375 -0.265625 0.84375 -0.265625 0.328125 -0.265625 L 0.328125 0 C 0.640625 -0.03125 1.078125 -0.03125 1.28125 -0.03125 C 1.75 -0.03125 1.765625 -0.03125 2.28125 0 L 2.28125 -0.265625 L 2.125 -0.265625 C 1.53125 -0.265625 1.515625 -0.34375 1.515625 -0.640625 L 1.515625 -3.171875 L 2.484375 -3.171875 L 2.484375 -3.4375 L 1.5 -3.4375 L 1.5 -4.328125 C 1.5 -5.03125 1.890625 -5.390625 2.234375 -5.390625 C 2.359375 -5.390625 2.4375 -5.359375 2.46875 -5.34375 C 2.328125 -5.28125 2.28125 -5.140625 2.28125 -5.03125 C 2.28125 -4.828125 2.4375 -4.671875 2.640625 -4.671875 C 2.859375 -4.671875 3 -4.828125 3 -5.03125 Z M 3 -5.03125 "/>
</g>
<g id="glyph-3-15">
<path d="M 2.34375 -1.453125 L 2.34375 -1.96875 L 0.09375 -1.96875 L 0.09375 -1.453125 Z M 2.34375 -1.453125 "/>
</g>
<g id="glyph-3-16">
<path d="M 1.734375 -4.671875 C 1.734375 -5.140625 1.546875 -5.53125 1.171875 -5.53125 C 0.90625 -5.53125 0.734375 -5.328125 0.734375 -5.09375 C 0.734375 -4.859375 0.90625 -4.640625 1.171875 -4.640625 C 1.390625 -4.640625 1.46875 -4.734375 1.515625 -4.78125 C 1.515625 -4 1.234375 -3.640625 0.875 -3.296875 C 0.84375 -3.265625 0.84375 -3.21875 0.84375 -3.21875 C 0.84375 -3.140625 0.90625 -3.09375 0.953125 -3.09375 C 1.0625 -3.09375 1.734375 -3.734375 1.734375 -4.671875 Z M 1.734375 -4.671875 "/>
</g>
<g id="glyph-3-17">
<path d="M 4.28125 -3.171875 L 4.28125 -3.4375 C 4.015625 -3.40625 4 -3.40625 3.671875 -3.40625 C 3.59375 -3.40625 3.21875 -3.40625 2.96875 -3.4375 L 2.96875 -3.171875 C 3.25 -3.15625 3.328125 -2.984375 3.328125 -2.84375 C 3.328125 -2.765625 3.3125 -2.71875 3.28125 -2.65625 L 2.421875 -0.640625 L 1.46875 -2.8125 C 1.421875 -2.90625 1.421875 -2.96875 1.421875 -2.96875 C 1.421875 -3.171875 1.71875 -3.171875 1.84375 -3.171875 L 1.84375 -3.4375 C 1.5 -3.40625 1.125 -3.40625 0.984375 -3.40625 C 0.8125 -3.40625 0.4375 -3.40625 0.171875 -3.4375 L 0.171875 -3.171875 C 0.65625 -3.171875 0.703125 -3.125 0.828125 -2.859375 L 2.015625 -0.09375 C 2.078125 0.03125 2.125 0.078125 2.234375 0.078125 C 2.34375 0.078125 2.40625 0.015625 2.4375 -0.078125 L 3.53125 -2.609375 C 3.71875 -3.0625 4 -3.15625 4.28125 -3.171875 Z M 4.28125 -3.171875 "/>
</g>
<g id="glyph-3-18">
<path d="M 6.828125 0 L 6.828125 -0.265625 C 6.3125 -0.265625 6.21875 -0.265625 6.21875 -0.625 L 6.21875 -2.421875 C 6.21875 -3.0625 5.9375 -3.515625 5.078125 -3.515625 C 4.34375 -3.515625 3.96875 -3.015625 3.84375 -2.78125 C 3.703125 -3.359375 3.25 -3.515625 2.734375 -3.515625 C 1.953125 -3.515625 1.59375 -2.96875 1.484375 -2.75 L 1.484375 -3.515625 L 0.328125 -3.421875 L 0.328125 -3.15625 C 0.875 -3.15625 0.9375 -3.109375 0.9375 -2.71875 L 0.9375 -0.625 C 0.9375 -0.265625 0.84375 -0.265625 0.328125 -0.265625 L 0.328125 0 C 0.671875 -0.03125 1.015625 -0.03125 1.234375 -0.03125 C 1.46875 -0.03125 1.796875 -0.03125 2.140625 0 L 2.140625 -0.265625 C 1.640625 -0.265625 1.53125 -0.265625 1.53125 -0.625 L 1.53125 -2.0625 C 1.53125 -2.90625 2.171875 -3.296875 2.671875 -3.296875 C 3.1875 -3.296875 3.28125 -2.890625 3.28125 -2.453125 L 3.28125 -0.625 C 3.28125 -0.265625 3.171875 -0.265625 2.671875 -0.265625 L 2.671875 0 C 3.015625 -0.03125 3.359375 -0.03125 3.578125 -0.03125 C 3.8125 -0.03125 4.140625 -0.03125 4.484375 0 L 4.484375 -0.265625 C 3.96875 -0.265625 3.875 -0.265625 3.875 -0.625 L 3.875 -2.0625 C 3.875 -2.90625 4.515625 -3.296875 5.015625 -3.296875 C 5.53125 -3.296875 5.625 -2.890625 5.625 -2.453125 L 5.625 -0.625 C 5.625 -0.265625 5.515625 -0.265625 5.015625 -0.265625 L 5.015625 0 C 5.359375 -0.03125 5.703125 -0.03125 5.921875 -0.03125 C 6.15625 -0.03125 6.484375 -0.03125 6.828125 0 Z M 6.828125 0 "/>
</g>
<g id="glyph-3-19">
<path d="M 1.625 -2.984375 C 1.625 -3.265625 1.40625 -3.4375 1.171875 -3.4375 C 0.90625 -3.4375 0.734375 -3.21875 0.734375 -3 C 0.734375 -2.71875 0.953125 -2.546875 1.171875 -2.546875 C 1.4375 -2.546875 1.625 -2.765625 1.625 -2.984375 Z M 1.640625 -0.046875 C 1.640625 -0.3125 1.609375 -0.890625 1.171875 -0.890625 C 0.90625 -0.890625 0.734375 -0.671875 0.734375 -0.453125 C 0.734375 -0.203125 0.90625 0 1.171875 0 C 1.3125 0 1.359375 -0.03125 1.421875 -0.0625 C 1.421875 0.453125 1.25 0.921875 0.90625 1.3125 C 0.859375 1.375 0.84375 1.390625 0.84375 1.421875 C 0.84375 1.5 0.90625 1.546875 0.953125 1.546875 C 1.046875 1.546875 1.640625 0.90625 1.640625 -0.046875 Z M 1.640625 -0.046875 "/>
</g>
<g id="glyph-3-20">
<path d="M 2.8125 -1 L 2.8125 -1.4375 L 2.5625 -1.4375 L 2.5625 -1.015625 C 2.5625 -0.46875 2.3125 -0.171875 2.015625 -0.171875 C 1.484375 -0.171875 1.484375 -0.859375 1.484375 -0.984375 L 1.484375 -3.171875 L 2.671875 -3.171875 L 2.671875 -3.4375 L 1.484375 -3.4375 L 1.484375 -4.90625 L 1.234375 -4.90625 C 1.234375 -4.171875 0.90625 -3.421875 0.15625 -3.390625 L 0.15625 -3.171875 L 0.875 -3.171875 L 0.875 -1 C 0.875 -0.0625 1.59375 0.078125 1.953125 0.078125 C 2.5 0.078125 2.8125 -0.390625 2.8125 -1 Z M 2.8125 -1 "/>
</g>
<g id="glyph-3-21">
<path d="M 2.078125 0 L 2.078125 -0.265625 C 1.546875 -0.265625 1.515625 -0.296875 1.515625 -0.609375 L 1.515625 -3.515625 L 0.359375 -3.421875 L 0.359375 -3.15625 C 0.875 -3.15625 0.9375 -3.109375 0.9375 -2.71875 L 0.9375 -0.625 C 0.9375 -0.265625 0.84375 -0.265625 0.328125 -0.265625 L 0.328125 0 C 0.640625 -0.03125 1.09375 -0.03125 1.21875 -0.03125 C 1.3125 -0.03125 1.796875 -0.03125 2.078125 0 Z M 1.625 -4.796875 C 1.625 -5.0625 1.40625 -5.25 1.171875 -5.25 C 0.953125 -5.25 0.734375 -5.0625 0.734375 -4.796875 C 0.734375 -4.5625 0.921875 -4.359375 1.171875 -4.359375 C 1.421875 -4.359375 1.625 -4.5625 1.625 -4.796875 Z M 1.625 -4.796875 "/>
</g>
<g id="glyph-3-22">
<path d="M 4.109375 -3.203125 C 4.109375 -3.328125 4 -3.609375 3.65625 -3.609375 C 3.515625 -3.609375 3.125 -3.5625 2.765625 -3.234375 C 2.5625 -3.375 2.25 -3.515625 1.875 -3.515625 C 1.09375 -3.515625 0.515625 -2.96875 0.515625 -2.34375 C 0.515625 -1.96875 0.71875 -1.6875 0.890625 -1.53125 C 0.703125 -1.328125 0.640625 -1.078125 0.640625 -0.890625 C 0.640625 -0.5625 0.8125 -0.3125 0.984375 -0.171875 C 0.5625 -0.0625 0.234375 0.25 0.234375 0.609375 C 0.234375 1.1875 1.0625 1.640625 2.109375 1.640625 C 3.109375 1.640625 3.984375 1.234375 3.984375 0.59375 C 3.984375 0.171875 3.734375 -0.171875 3.46875 -0.296875 C 3 -0.546875 2.609375 -0.546875 1.828125 -0.546875 L 1.375 -0.546875 C 1.125 -0.578125 0.9375 -0.78125 0.9375 -1.078125 C 0.9375 -1.265625 0.984375 -1.34375 1.03125 -1.40625 C 1.375 -1.21875 1.6875 -1.171875 1.875 -1.171875 C 2.65625 -1.171875 3.25 -1.71875 3.25 -2.34375 C 3.25 -2.640625 3.109375 -2.90625 2.921875 -3.109375 C 3.03125 -3.203125 3.296875 -3.375 3.6875 -3.375 C 3.65625 -3.359375 3.609375 -3.3125 3.609375 -3.1875 C 3.609375 -3.046875 3.71875 -2.9375 3.859375 -2.9375 C 3.96875 -2.9375 4.109375 -3.015625 4.109375 -3.203125 Z M 2.609375 -2.34375 C 2.609375 -2.046875 2.578125 -1.84375 2.453125 -1.6875 C 2.28125 -1.453125 2.03125 -1.40625 1.875 -1.40625 C 1.140625 -1.40625 1.140625 -2.171875 1.140625 -2.34375 C 1.140625 -2.640625 1.171875 -2.84375 1.296875 -3 C 1.4375 -3.1875 1.65625 -3.28125 1.875 -3.28125 C 2.609375 -3.28125 2.609375 -2.515625 2.609375 -2.34375 Z M 3.515625 0.609375 C 3.515625 1.03125 2.90625 1.40625 2.109375 1.40625 C 1.3125 1.40625 0.703125 1.03125 0.703125 0.609375 C 0.703125 0.4375 0.84375 -0.03125 1.484375 -0.03125 L 2.25 -0.03125 C 2.46875 -0.03125 3.515625 -0.03125 3.515625 0.609375 Z M 3.515625 0.609375 "/>
</g>
<g id="glyph-3-23">
<path d="M 5.9375 -3.171875 L 5.9375 -3.4375 C 5.671875 -3.40625 5.65625 -3.40625 5.3125 -3.40625 C 5.0625 -3.40625 4.84375 -3.40625 4.59375 -3.4375 L 4.59375 -3.171875 C 4.9375 -3.15625 5.03125 -2.953125 5.03125 -2.8125 C 5.03125 -2.703125 5 -2.65625 4.984375 -2.609375 L 4.234375 -0.625 L 3.40625 -2.796875 C 3.375 -2.90625 3.375 -2.921875 3.375 -2.953125 C 3.375 -3.15625 3.625 -3.171875 3.8125 -3.171875 L 3.8125 -3.4375 C 3.5 -3.40625 3.078125 -3.40625 3 -3.40625 C 2.828125 -3.40625 2.5 -3.40625 2.265625 -3.4375 L 2.265625 -3.171875 C 2.75 -3.171875 2.765625 -3.125 2.921875 -2.703125 L 2.1875 -0.734375 L 1.390625 -2.8125 C 1.390625 -2.84375 1.359375 -2.921875 1.359375 -2.953125 C 1.359375 -3.171875 1.65625 -3.171875 1.796875 -3.171875 L 1.796875 -3.4375 C 1.453125 -3.40625 1.09375 -3.40625 0.953125 -3.40625 C 0.8125 -3.40625 0.390625 -3.40625 0.171875 -3.4375 L 0.171875 -3.171875 C 0.5625 -3.171875 0.640625 -3.140625 0.734375 -2.921875 L 1.796875 -0.109375 C 1.84375 0.015625 1.875 0.078125 2 0.078125 C 2.140625 0.078125 2.171875 -0.015625 2.203125 -0.109375 L 3.046875 -2.34375 L 3.890625 -0.109375 C 3.9375 -0.015625 3.96875 0.078125 4.109375 0.078125 C 4.234375 0.078125 4.265625 0 4.296875 -0.09375 L 5.265625 -2.625 C 5.328125 -2.8125 5.46875 -3.15625 5.9375 -3.171875 Z M 5.9375 -3.171875 "/>
</g>
<g id="glyph-3-24">
<path d="M 5.640625 -1.859375 C 5.640625 -1.9375 5.640625 -2.015625 5.5 -2.015625 C 5.421875 -2.015625 5.390625 -1.96875 5.390625 -1.890625 C 5.328125 -0.671875 4.328125 -0.09375 3.484375 -0.09375 C 2.8125 -0.09375 1.296875 -0.515625 1.296875 -2.71875 C 1.296875 -4.875 2.734375 -5.34375 3.484375 -5.34375 C 4.234375 -5.34375 5.15625 -4.8125 5.375 -3.4375 C 5.375 -3.375 5.390625 -3.328125 5.5 -3.328125 C 5.640625 -3.328125 5.640625 -3.375 5.640625 -3.53125 L 5.640625 -5.40625 C 5.640625 -5.53125 5.640625 -5.609375 5.53125 -5.609375 C 5.46875 -5.609375 5.46875 -5.609375 5.390625 -5.5 L 4.984375 -4.90625 C 4.703125 -5.21875 4.171875 -5.609375 3.40625 -5.609375 C 1.8125 -5.609375 0.46875 -4.328125 0.46875 -2.71875 C 0.46875 -1.109375 1.796875 0.171875 3.421875 0.171875 C 4.75 0.171875 5.640625 -0.890625 5.640625 -1.859375 Z M 5.640625 -1.859375 "/>
</g>
<g id="glyph-3-25">
<path d="M 5.984375 -2.671875 C 5.984375 -4.203125 4.828125 -5.4375 3.390625 -5.4375 L 0.359375 -5.4375 L 0.359375 -5.171875 L 0.546875 -5.171875 C 1.15625 -5.171875 1.171875 -5.09375 1.171875 -4.796875 L 1.171875 -0.640625 C 1.171875 -0.34375 1.15625 -0.265625 0.546875 -0.265625 L 0.359375 -0.265625 L 0.359375 0 L 3.390625 0 C 4.828125 0 5.984375 -1.1875 5.984375 -2.671875 Z M 5.171875 -2.671875 C 5.171875 -2.265625 5.171875 -1.484375 4.671875 -0.90625 C 4.40625 -0.578125 3.890625 -0.265625 3.171875 -0.265625 L 2.265625 -0.265625 C 1.890625 -0.265625 1.875 -0.3125 1.875 -0.59375 L 1.875 -4.859375 C 1.875 -5.125 1.890625 -5.171875 2.265625 -5.171875 L 3.171875 -5.171875 C 3.796875 -5.171875 4.3125 -4.921875 4.671875 -4.53125 C 5.171875 -3.921875 5.171875 -3.0625 5.171875 -2.671875 Z M 5.171875 -2.671875 "/>
</g>
<g id="glyph-3-26">
<path d="M 5.15625 -3.609375 L 4.9375 -5.421875 L 0.34375 -5.421875 L 0.34375 -5.15625 L 0.53125 -5.15625 C 1.140625 -5.15625 1.15625 -5.0625 1.15625 -4.765625 L 1.15625 -0.640625 C 1.15625 -0.34375 1.140625 -0.265625 0.53125 -0.265625 L 0.34375 -0.265625 L 0.34375 0 L 1.578125 -0.03125 C 1.953125 -0.03125 2.53125 -0.03125 2.890625 0 L 2.890625 -0.265625 L 2.640625 -0.265625 C 1.890625 -0.265625 1.890625 -0.375 1.890625 -0.65625 L 1.890625 -2.578125 L 2.625 -2.578125 C 3.40625 -2.578125 3.5 -2.328125 3.5 -1.65625 L 3.75 -1.65625 L 3.75 -3.78125 L 3.5 -3.78125 C 3.5 -3.09375 3.40625 -2.84375 2.625 -2.84375 L 1.890625 -2.84375 L 1.890625 -4.828125 C 1.890625 -5.09375 1.90625 -5.15625 2.265625 -5.15625 L 3.328125 -5.15625 C 4.625 -5.15625 4.78125 -4.65625 4.921875 -3.609375 Z M 5.15625 -3.609375 "/>
</g>
<g id="glyph-3-27">
<path d="M 4.421875 -1.71875 C 4.421875 -2.71875 3.609375 -3.515625 2.640625 -3.515625 C 2.328125 -3.515625 1.875 -3.4375 1.46875 -3.015625 L 1.46875 -3.515625 L 0.28125 -3.421875 L 0.28125 -3.15625 C 0.84375 -3.15625 0.890625 -3.109375 0.890625 -2.78125 L 0.890625 0.921875 C 0.890625 1.28125 0.78125 1.28125 0.28125 1.28125 L 0.28125 1.546875 C 0.625 1.515625 0.96875 1.515625 1.1875 1.515625 C 1.421875 1.515625 1.75 1.515625 2.09375 1.546875 L 2.09375 1.28125 C 1.578125 1.28125 1.484375 1.28125 1.484375 0.921875 L 1.484375 -0.390625 C 1.859375 0.015625 2.265625 0.078125 2.53125 0.078125 C 3.53125 0.078125 4.421875 -0.703125 4.421875 -1.71875 Z M 3.703125 -1.71875 C 3.703125 -0.8125 3.125 -0.140625 2.484375 -0.140625 C 2.203125 -0.140625 1.84375 -0.265625 1.578125 -0.65625 C 1.484375 -0.796875 1.484375 -0.8125 1.484375 -0.953125 L 1.484375 -2.65625 C 1.671875 -2.96875 2.078125 -3.265625 2.578125 -3.265625 C 3.1875 -3.265625 3.703125 -2.59375 3.703125 -1.71875 Z M 3.703125 -1.71875 "/>
</g>
<g id="glyph-4-0">
<path d="M 4.25 -1.140625 C 4.25 -1.1875 4.21875 -1.25 4.125 -1.25 C 4.03125 -1.25 4.015625 -1.1875 3.953125 -1 C 3.84375 -0.5625 3.703125 -0.140625 3.390625 -0.140625 C 3.203125 -0.140625 3.125 -0.296875 3.125 -0.515625 C 3.125 -0.671875 3.15625 -0.75 3.171875 -0.859375 L 4.28125 -5.296875 C 4.296875 -5.3125 4.3125 -5.421875 4.3125 -5.421875 C 4.3125 -5.453125 4.28125 -5.53125 4.1875 -5.53125 C 4.15625 -5.53125 3.90625 -5.5 3.734375 -5.484375 L 3.28125 -5.453125 C 3.109375 -5.4375 3.03125 -5.4375 3.03125 -5.296875 C 3.03125 -5.171875 3.140625 -5.171875 3.234375 -5.171875 C 3.625 -5.171875 3.625 -5.125 3.625 -5.0625 C 3.625 -5.015625 3.546875 -4.75 3.515625 -4.59375 L 3.125 -3.03125 C 3.046875 -3.171875 2.828125 -3.515625 2.328125 -3.515625 C 1.390625 -3.515625 0.34375 -2.40625 0.34375 -1.234375 C 0.34375 -0.390625 0.875 0.078125 1.484375 0.078125 C 2 0.078125 2.4375 -0.328125 2.578125 -0.484375 C 2.71875 0.0625 3.265625 0.078125 3.359375 0.078125 C 3.734375 0.078125 3.90625 -0.21875 3.96875 -0.359375 C 4.140625 -0.640625 4.25 -1.109375 4.25 -1.140625 Z M 2.578125 -0.859375 C 2.1875 -0.3125 1.765625 -0.140625 1.515625 -0.140625 C 1.140625 -0.140625 0.96875 -0.484375 0.96875 -0.890625 C 0.96875 -1.265625 1.171875 -2.125 1.359375 -2.46875 C 1.578125 -2.953125 1.96875 -3.296875 2.34375 -3.296875 C 2.859375 -3.296875 3.015625 -2.703125 3.015625 -2.609375 C 3.015625 -2.578125 2.8125 -1.796875 2.765625 -1.59375 C 2.65625 -1.21875 2.65625 -1.203125 2.578125 -0.859375 Z M 2.578125 -0.859375 "/>
</g>
<g id="glyph-4-1">
<path d="M 3.6875 -2.953125 C 3.6875 -3.234375 3.4375 -3.515625 2.984375 -3.515625 C 2.4375 -3.515625 2.078125 -3.15625 1.90625 -2.9375 C 1.75 -3.515625 1.203125 -3.515625 1.125 -3.515625 C 0.84375 -3.515625 0.640625 -3.328125 0.515625 -3.078125 C 0.328125 -2.71875 0.234375 -2.3125 0.234375 -2.296875 C 0.234375 -2.21875 0.296875 -2.1875 0.359375 -2.1875 C 0.46875 -2.1875 0.46875 -2.21875 0.53125 -2.4375 C 0.625 -2.828125 0.765625 -3.296875 1.09375 -3.296875 C 1.3125 -3.296875 1.359375 -3.09375 1.359375 -2.921875 C 1.359375 -2.765625 1.3125 -2.625 1.25 -2.359375 L 1.078125 -1.71875 L 0.78125 -0.515625 C 0.75 -0.390625 0.703125 -0.203125 0.703125 -0.171875 C 0.703125 0.015625 0.859375 0.078125 0.96875 0.078125 C 1.25 0.078125 1.296875 -0.140625 1.359375 -0.421875 L 1.53125 -1.09375 L 1.796875 -2.140625 C 1.796875 -2.15625 1.859375 -2.375 1.859375 -2.421875 C 1.890625 -2.5 2.09375 -2.828125 2.296875 -3.015625 C 2.546875 -3.25 2.828125 -3.296875 2.96875 -3.296875 C 3.046875 -3.296875 3.203125 -3.28125 3.3125 -3.1875 C 2.96875 -3.109375 2.921875 -2.828125 2.921875 -2.75 C 2.921875 -2.578125 3.046875 -2.453125 3.234375 -2.453125 C 3.4375 -2.453125 3.6875 -2.625 3.6875 -2.953125 Z M 3.6875 -2.953125 "/>
</g>
<g id="glyph-5-0">
<path d="M 3.34375 -3.40625 C 3.34375 -3.6875 3.078125 -3.96875 2.671875 -3.96875 C 2.140625 -3.96875 1.765625 -3.59375 1.546875 -3.03125 L 1.546875 -3.96875 L 0.265625 -3.859375 L 0.265625 -3.59375 C 0.875 -3.59375 0.953125 -3.53125 0.953125 -3.078125 L 0.953125 -0.6875 C 0.953125 -0.28125 0.859375 -0.28125 0.265625 -0.28125 L 0.265625 0 C 0.75 -0.015625 0.859375 -0.03125 1.3125 -0.03125 L 2.453125 0 L 2.453125 -0.28125 L 2.28125 -0.28125 C 1.625 -0.28125 1.59375 -0.375 1.59375 -0.703125 L 1.59375 -2.046875 C 1.59375 -2.421875 1.6875 -3.734375 2.71875 -3.734375 C 2.703125 -3.71875 2.5625 -3.609375 2.5625 -3.40625 C 2.5625 -3.15625 2.75 -3 2.953125 -3 C 3.140625 -3 3.34375 -3.140625 3.34375 -3.40625 Z M 3.34375 -3.40625 "/>
</g>
<g id="glyph-5-1">
<path d="M 4.453125 -0.796875 L 4.453125 -1.296875 L 4.203125 -1.296875 L 4.203125 -0.8125 C 4.203125 -0.703125 4.203125 -0.265625 3.890625 -0.265625 C 3.5625 -0.265625 3.5625 -0.6875 3.5625 -0.828125 L 3.5625 -2.40625 C 3.5625 -2.921875 3.5625 -3.21875 3.15625 -3.59375 C 2.828125 -3.890625 2.390625 -4.015625 1.953125 -4.015625 C 1.1875 -4.015625 0.5625 -3.640625 0.5625 -3.0625 C 0.5625 -2.796875 0.75 -2.640625 0.984375 -2.640625 C 1.234375 -2.640625 1.40625 -2.8125 1.40625 -3.046875 C 1.40625 -3.4375 1 -3.484375 1 -3.484375 C 1.234375 -3.71875 1.671875 -3.796875 1.921875 -3.796875 C 2.390625 -3.796875 2.890625 -3.453125 2.890625 -2.65625 L 2.890625 -2.375 C 2.40625 -2.34375 1.734375 -2.3125 1.140625 -2.015625 C 0.5 -1.703125 0.296875 -1.234375 0.296875 -0.875 C 0.296875 -0.140625 1.171875 0.09375 1.765625 0.09375 C 2.515625 0.09375 2.859375 -0.390625 2.984375 -0.640625 C 3.015625 -0.265625 3.28125 0.046875 3.671875 0.046875 C 3.890625 0.046875 4.453125 -0.078125 4.453125 -0.796875 Z M 2.890625 -1.265625 C 2.890625 -0.390625 2.21875 -0.125 1.828125 -0.125 C 1.40625 -0.125 1.015625 -0.4375 1.015625 -0.875 C 1.015625 -1.46875 1.53125 -2.09375 2.890625 -2.15625 Z M 2.890625 -1.265625 "/>
</g>
<g id="glyph-5-2">
<path d="M 4.84375 0 L 4.84375 -0.28125 C 4.234375 -0.28125 4.15625 -0.34375 4.15625 -0.78125 L 4.15625 -6.21875 L 2.828125 -6.125 L 2.828125 -5.84375 C 3.4375 -5.84375 3.515625 -5.78125 3.515625 -5.34375 L 3.515625 -3.4375 C 3.46875 -3.484375 3.0625 -3.96875 2.375 -3.96875 C 1.265625 -3.96875 0.3125 -3.078125 0.3125 -1.921875 C 0.3125 -0.8125 1.203125 0.09375 2.265625 0.09375 C 2.921875 0.09375 3.328125 -0.28125 3.484375 -0.46875 L 3.484375 0.09375 Z M 3.484375 -1.078125 C 3.484375 -0.921875 3.484375 -0.890625 3.359375 -0.703125 C 3.078125 -0.296875 2.65625 -0.125 2.3125 -0.125 C 1.921875 -0.125 1.5625 -0.34375 1.328125 -0.71875 C 1.09375 -1.109375 1.078125 -1.625 1.078125 -1.921875 C 1.078125 -2.34375 1.125 -2.8125 1.359375 -3.171875 C 1.5625 -3.46875 1.921875 -3.734375 2.40625 -3.734375 C 2.78125 -3.734375 3.140625 -3.546875 3.375 -3.203125 C 3.484375 -3.0625 3.484375 -3.0625 3.484375 -2.890625 Z M 3.484375 -1.078125 "/>
</g>
<g id="glyph-5-3">
<path d="M 2.265625 0 L 2.265625 -0.28125 C 1.6875 -0.28125 1.65625 -0.328125 1.65625 -0.671875 L 1.65625 -3.96875 L 0.359375 -3.859375 L 0.359375 -3.59375 C 0.9375 -3.59375 1.015625 -3.53125 1.015625 -3.09375 L 1.015625 -0.6875 C 1.015625 -0.28125 0.921875 -0.28125 0.328125 -0.28125 L 0.328125 0 C 0.71875 -0.015625 0.921875 -0.03125 1.3125 -0.03125 C 1.453125 -0.03125 1.828125 -0.03125 2.265625 0 Z M 1.765625 -5.40625 C 1.765625 -5.671875 1.546875 -5.890625 1.28125 -5.890625 C 1.015625 -5.890625 0.796875 -5.671875 0.796875 -5.40625 C 0.796875 -5.140625 1.015625 -4.921875 1.28125 -4.921875 C 1.546875 -4.921875 1.765625 -5.140625 1.765625 -5.40625 Z M 1.765625 -5.40625 "/>
</g>
<g id="glyph-5-4">
<path d="M 4.90625 0 L 4.90625 -0.28125 C 4.296875 -0.28125 4.21875 -0.34375 4.21875 -0.78125 L 4.21875 -3.96875 L 2.859375 -3.859375 L 2.859375 -3.59375 C 3.46875 -3.59375 3.546875 -3.53125 3.546875 -3.078125 L 3.546875 -1.5 C 3.546875 -0.703125 3.109375 -0.125 2.453125 -0.125 C 1.71875 -0.125 1.671875 -0.515625 1.671875 -1 L 1.671875 -3.96875 L 0.3125 -3.859375 L 0.3125 -3.59375 C 1 -3.59375 1 -3.5625 1 -2.765625 L 1 -1.421875 C 1 -0.828125 1 -0.453125 1.421875 -0.140625 C 1.671875 0.03125 2.046875 0.09375 2.40625 0.09375 C 2.875 0.09375 3.3125 -0.109375 3.5625 -0.640625 L 3.578125 -0.640625 L 3.578125 0.09375 Z M 4.90625 0 "/>
</g>
<g id="glyph-5-5">
<path d="M 3.3125 -1.140625 C 3.3125 -1.546875 3.140625 -1.796875 2.9375 -2 C 2.640625 -2.296875 2.3125 -2.359375 1.65625 -2.484375 C 1.421875 -2.53125 0.765625 -2.640625 0.765625 -3.15625 C 0.765625 -3.4375 0.96875 -3.828125 1.78125 -3.828125 C 2.75 -3.828125 2.8125 -3.078125 2.828125 -2.859375 C 2.84375 -2.75 2.84375 -2.6875 2.953125 -2.6875 C 3.078125 -2.6875 3.078125 -2.75 3.078125 -2.921875 L 3.078125 -3.78125 C 3.078125 -3.9375 3.078125 -4.015625 2.984375 -4.015625 C 2.9375 -4.015625 2.921875 -4.015625 2.796875 -3.90625 C 2.78125 -3.890625 2.703125 -3.8125 2.640625 -3.765625 C 2.375 -3.96875 2.09375 -4.015625 1.78125 -4.015625 C 0.59375 -4.015625 0.3125 -3.359375 0.3125 -2.90625 C 0.3125 -2.625 0.4375 -2.390625 0.640625 -2.1875 C 0.9375 -1.90625 1.28125 -1.84375 1.734375 -1.765625 C 2.203125 -1.671875 2.34375 -1.65625 2.546875 -1.5 C 2.640625 -1.421875 2.859375 -1.25 2.859375 -0.921875 C 2.859375 -0.125 1.953125 -0.125 1.828125 -0.125 C 0.921875 -0.125 0.6875 -0.890625 0.578125 -1.375 C 0.546875 -1.46875 0.53125 -1.515625 0.4375 -1.515625 C 0.3125 -1.515625 0.3125 -1.4375 0.3125 -1.28125 L 0.3125 -0.140625 C 0.3125 0.015625 0.3125 0.09375 0.40625 0.09375 C 0.46875 0.09375 0.46875 0.09375 0.640625 -0.078125 C 0.671875 -0.140625 0.765625 -0.25 0.8125 -0.296875 C 1.1875 0.078125 1.609375 0.09375 1.828125 0.09375 C 2.9375 0.09375 3.3125 -0.546875 3.3125 -1.140625 Z M 3.3125 -1.140625 "/>
</g>
<g id="glyph-5-6">
<path d="M 4.34375 -1.90625 C 4.34375 -3.078125 3.40625 -4.015625 2.3125 -4.015625 C 1.171875 -4.015625 0.265625 -3.0625 0.265625 -1.90625 C 0.265625 -0.796875 1.1875 0.09375 2.296875 0.09375 C 3.4375 0.09375 4.34375 -0.8125 4.34375 -1.90625 Z M 3.5625 -1.984375 C 3.5625 -1.65625 3.5625 -1.140625 3.34375 -0.75 C 3.09375 -0.328125 2.6875 -0.15625 2.3125 -0.15625 C 1.859375 -0.15625 1.484375 -0.375 1.28125 -0.71875 C 1.046875 -1.109375 1.03125 -1.578125 1.03125 -1.984375 C 1.03125 -2.328125 1.03125 -2.828125 1.25 -3.203125 C 1.53125 -3.65625 1.96875 -3.796875 2.296875 -3.796875 C 2.8125 -3.796875 3.171875 -3.5 3.359375 -3.203125 C 3.5625 -2.828125 3.5625 -2.375 3.5625 -1.984375 Z M 3.5625 -1.984375 "/>
</g>
<g id="glyph-5-7">
<path d="M 3.28125 -5.6875 C 3.28125 -6.03125 2.9375 -6.328125 2.453125 -6.328125 C 1.75 -6.328125 1.015625 -5.796875 1.015625 -4.890625 L 1.015625 -3.859375 L 0.3125 -3.859375 L 0.3125 -3.59375 L 1.015625 -3.59375 L 1.015625 -0.6875 C 1.015625 -0.28125 0.921875 -0.28125 0.328125 -0.28125 L 0.328125 0 C 0.796875 -0.015625 0.921875 -0.03125 1.375 -0.03125 L 2.515625 0 L 2.515625 -0.28125 L 2.328125 -0.28125 C 1.671875 -0.28125 1.65625 -0.375 1.65625 -0.703125 L 1.65625 -3.59375 L 2.6875 -3.59375 L 2.6875 -3.859375 L 1.625 -3.859375 L 1.625 -4.875 C 1.625 -5.6875 2.0625 -6.09375 2.453125 -6.09375 C 2.53125 -6.09375 2.625 -6.078125 2.71875 -6.046875 C 2.625 -6.015625 2.484375 -5.90625 2.484375 -5.671875 C 2.484375 -5.4375 2.65625 -5.28125 2.875 -5.28125 C 3.125 -5.28125 3.28125 -5.453125 3.28125 -5.6875 Z M 3.28125 -5.6875 "/>
</g>
<g id="glyph-5-8">
<path d="M 4.90625 0 L 4.90625 -0.28125 C 4.453125 -0.28125 4.21875 -0.28125 4.21875 -0.5625 L 4.21875 -2.28125 C 4.21875 -3.015625 4.21875 -3.28125 3.96875 -3.59375 C 3.765625 -3.84375 3.421875 -3.96875 2.96875 -3.96875 C 2.140625 -3.96875 1.75 -3.34375 1.625 -3.09375 L 1.609375 -3.09375 L 1.609375 -3.96875 L 0.3125 -3.859375 L 0.3125 -3.59375 C 0.921875 -3.59375 1 -3.53125 1 -3.078125 L 1 -0.6875 C 1 -0.28125 0.90625 -0.28125 0.3125 -0.28125 L 0.3125 0 C 0.734375 -0.015625 0.90625 -0.03125 1.34375 -0.03125 C 1.765625 -0.03125 1.890625 -0.015625 2.359375 0 L 2.359375 -0.28125 C 1.765625 -0.28125 1.671875 -0.28125 1.671875 -0.6875 L 1.671875 -2.328125 C 1.671875 -3.28125 2.34375 -3.734375 2.90625 -3.734375 C 3.4375 -3.734375 3.546875 -3.296875 3.546875 -2.765625 L 3.546875 -0.6875 C 3.546875 -0.28125 3.453125 -0.28125 2.859375 -0.28125 L 2.859375 0 C 3.28125 -0.015625 3.453125 -0.03125 3.890625 -0.03125 C 4.3125 -0.03125 4.4375 -0.015625 4.90625 0 Z M 4.90625 0 "/>
</g>
<g id="glyph-5-9">
<path d="M 7.46875 0 L 7.46875 -0.28125 C 7.015625 -0.28125 6.796875 -0.28125 6.78125 -0.5625 L 6.78125 -2.28125 C 6.78125 -3.0625 6.78125 -3.3125 6.484375 -3.640625 C 6.296875 -3.859375 5.9375 -3.96875 5.53125 -3.96875 C 4.875 -3.96875 4.4375 -3.59375 4.1875 -3.109375 C 4.078125 -3.640625 3.71875 -3.96875 2.96875 -3.96875 C 2.25 -3.96875 1.8125 -3.5 1.625 -3.078125 L 1.609375 -3.078125 L 1.609375 -3.96875 L 0.3125 -3.859375 L 0.3125 -3.59375 C 0.921875 -3.59375 1 -3.53125 1 -3.078125 L 1 -0.6875 C 1 -0.28125 0.90625 -0.28125 0.3125 -0.28125 L 0.3125 0 C 0.734375 -0.015625 0.90625 -0.03125 1.34375 -0.03125 C 1.765625 -0.03125 1.890625 -0.015625 2.359375 0 L 2.359375 -0.28125 C 1.765625 -0.28125 1.671875 -0.28125 1.671875 -0.6875 L 1.671875 -2.328125 C 1.671875 -3.296875 2.375 -3.734375 2.90625 -3.734375 C 3.40625 -3.734375 3.5625 -3.390625 3.5625 -2.765625 L 3.5625 -0.6875 C 3.5625 -0.28125 3.46875 -0.28125 2.875 -0.28125 L 2.875 0 C 3.296875 -0.015625 3.46875 -0.03125 3.890625 -0.03125 C 4.328125 -0.03125 4.4375 -0.015625 4.921875 0 L 4.921875 -0.28125 C 4.328125 -0.28125 4.21875 -0.28125 4.21875 -0.6875 L 4.21875 -2.328125 C 4.21875 -3.296875 4.921875 -3.734375 5.46875 -3.734375 C 5.953125 -3.734375 6.109375 -3.390625 6.109375 -2.765625 L 6.109375 -0.6875 C 6.109375 -0.28125 6.015625 -0.28125 5.421875 -0.28125 L 5.421875 0 C 5.84375 -0.015625 6.015625 -0.03125 6.453125 -0.03125 C 6.875 -0.03125 7 -0.015625 7.46875 0 Z M 7.46875 0 "/>
</g>
<g id="glyph-5-10">
<path d="M 6.46875 -3.59375 L 6.46875 -3.859375 C 6.109375 -3.84375 6.09375 -3.84375 5.796875 -3.84375 C 5.453125 -3.84375 5.328125 -3.84375 4.96875 -3.859375 L 4.96875 -3.59375 C 5.359375 -3.578125 5.484375 -3.34375 5.484375 -3.15625 C 5.484375 -3.0625 5.46875 -3.015625 5.4375 -2.953125 L 4.609375 -0.703125 L 3.703125 -3.171875 C 3.65625 -3.28125 3.65625 -3.3125 3.65625 -3.34375 C 3.65625 -3.5625 3.9375 -3.59375 4.171875 -3.59375 L 4.171875 -3.859375 C 3.765625 -3.84375 3.390625 -3.84375 3.25 -3.84375 C 2.96875 -3.84375 2.703125 -3.84375 2.421875 -3.859375 L 2.421875 -3.59375 C 2.703125 -3.59375 2.890625 -3.578125 2.984375 -3.453125 C 3.0625 -3.359375 3.1875 -3 3.1875 -2.96875 L 3.140625 -2.84375 L 2.40625 -0.828125 L 1.546875 -3.15625 C 1.5 -3.296875 1.5 -3.3125 1.5 -3.34375 C 1.5 -3.59375 1.84375 -3.59375 2.015625 -3.59375 L 2.015625 -3.859375 L 1.046875 -3.84375 C 0.75 -3.84375 0.484375 -3.84375 0.171875 -3.859375 L 0.171875 -3.59375 C 0.609375 -3.59375 0.71875 -3.5625 0.828125 -3.265625 L 1.984375 -0.09375 C 2.03125 0.015625 2.0625 0.09375 2.203125 0.09375 C 2.328125 0.09375 2.375 0 2.40625 -0.09375 L 3.3125 -2.59375 L 4.25 -0.09375 C 4.28125 0 4.3125 0.09375 4.453125 0.09375 C 4.578125 0.09375 4.609375 0.015625 4.640625 -0.078125 L 5.71875 -3 C 5.90625 -3.546875 6.28125 -3.578125 6.46875 -3.59375 Z M 6.46875 -3.59375 "/>
</g>
<g id="glyph-6-0">
<path d="M 4.015625 -3.359375 C 4.015625 -3.703125 3.6875 -3.96875 3.25 -3.96875 C 2.578125 -3.96875 2.203125 -3.46875 2.078125 -3.296875 C 1.96875 -3.78125 1.5625 -3.96875 1.234375 -3.96875 C 0.90625 -3.96875 0.703125 -3.765625 0.546875 -3.453125 C 0.375 -3.125 0.265625 -2.625 0.265625 -2.578125 C 0.265625 -2.5 0.328125 -2.46875 0.390625 -2.46875 C 0.484375 -2.46875 0.5 -2.515625 0.546875 -2.703125 C 0.71875 -3.40625 0.90625 -3.734375 1.203125 -3.734375 C 1.484375 -3.734375 1.484375 -3.453125 1.484375 -3.3125 C 1.484375 -3.125 1.40625 -2.859375 1.359375 -2.625 C 1.296875 -2.390625 1.203125 -2 1.171875 -1.890625 L 0.8125 -0.421875 C 0.75 -0.203125 0.75 -0.1875 0.75 -0.15625 C 0.75 -0.046875 0.828125 0.09375 1.015625 0.09375 C 1.3125 0.09375 1.375 -0.140625 1.4375 -0.40625 C 1.546875 -0.796875 1.546875 -0.8125 1.625 -1.171875 C 1.96875 -2.515625 2.015625 -2.734375 2.03125 -2.78125 C 2.09375 -2.890625 2.5 -3.734375 3.25 -3.734375 C 3.453125 -3.734375 3.578125 -3.671875 3.625 -3.625 C 3.328125 -3.578125 3.171875 -3.328125 3.171875 -3.140625 C 3.171875 -2.96875 3.296875 -2.8125 3.53125 -2.8125 C 3.765625 -2.8125 4.015625 -3.015625 4.015625 -3.359375 Z M 4.015625 -3.359375 "/>
</g>
<g id="glyph-7-0">
<path d="M 6.640625 -3.15625 C 6.640625 -3.359375 6.453125 -3.359375 6.3125 -3.359375 L 0.84375 -3.359375 C 0.703125 -3.359375 0.515625 -3.359375 0.515625 -3.15625 C 0.515625 -2.96875 0.6875 -2.96875 0.8125 -2.96875 L 6.34375 -2.96875 C 6.46875 -2.96875 6.640625 -2.96875 6.640625 -3.15625 Z M 6.640625 -1.34375 C 6.640625 -1.53125 6.46875 -1.53125 6.34375 -1.53125 L 0.8125 -1.53125 C 0.6875 -1.53125 0.515625 -1.53125 0.515625 -1.34375 C 0.515625 -1.140625 0.703125 -1.140625 0.84375 -1.140625 L 6.3125 -1.140625 C 6.453125 -1.140625 6.640625 -1.140625 6.640625 -1.34375 Z M 6.640625 -1.34375 "/>
</g>
<g id="glyph-8-0">
<path d="M 1.578125 1.9375 L 1.578125 -6.4375 C 1.578125 -6.546875 1.578125 -6.734375 1.390625 -6.734375 C 1.1875 -6.734375 1.1875 -6.53125 1.1875 -6.390625 L 1.1875 1.90625 C 1.1875 2.03125 1.1875 2.234375 1.390625 2.234375 C 1.578125 2.234375 1.578125 2.046875 1.578125 1.9375 Z M 3.40625 1.90625 L 3.40625 -6.390625 C 3.40625 -6.53125 3.40625 -6.734375 3.203125 -6.734375 C 3.015625 -6.734375 3.015625 -6.546875 3.015625 -6.4375 L 3.015625 1.9375 C 3.015625 2.046875 3.015625 2.234375 3.203125 2.234375 C 3.40625 2.234375 3.40625 2.03125 3.40625 1.90625 Z M 3.40625 1.90625 "/>
</g>
<g id="glyph-9-0">
<path d="M 5.296875 -1.328125 C 5.296875 -1.453125 5.171875 -1.453125 5.078125 -1.453125 C 4.984375 -1.453125 4.921875 -1.453125 4.875 -1.34375 C 4.625 -0.515625 3.96875 -0.25 3.609375 -0.25 C 3.265625 -0.25 3.109375 -0.40625 3.109375 -0.703125 C 3.109375 -0.890625 3.21875 -1.359375 3.296875 -1.6875 L 3.609375 -2.921875 C 3.75 -3.453125 4.0625 -3.734375 4.375 -3.734375 C 4.421875 -3.734375 4.625 -3.734375 4.8125 -3.59375 C 4.484375 -3.5 4.328125 -3.203125 4.328125 -2.984375 C 4.328125 -2.78125 4.46875 -2.5625 4.765625 -2.5625 C 5.078125 -2.5625 5.421875 -2.828125 5.421875 -3.265625 C 5.421875 -3.734375 4.9375 -4.046875 4.390625 -4.046875 C 3.890625 -4.046875 3.546875 -3.671875 3.4375 -3.5 C 3.203125 -3.890625 2.703125 -4.046875 2.203125 -4.046875 C 1.0625 -4.046875 0.453125 -2.953125 0.453125 -2.65625 C 0.453125 -2.53125 0.59375 -2.53125 0.671875 -2.53125 C 0.78125 -2.53125 0.84375 -2.53125 0.875 -2.640625 C 1.140625 -3.46875 1.78125 -3.734375 2.15625 -3.734375 C 2.5 -3.734375 2.65625 -3.5625 2.65625 -3.28125 C 2.65625 -3.109375 2.53125 -2.625 2.453125 -2.296875 L 2.140625 -1.0625 C 2.015625 -0.515625 1.6875 -0.25 1.375 -0.25 C 1.34375 -0.25 1.125 -0.25 0.953125 -0.390625 C 1.28125 -0.46875 1.4375 -0.78125 1.4375 -1 C 1.4375 -1.203125 1.28125 -1.421875 0.984375 -1.421875 C 0.671875 -1.421875 0.34375 -1.15625 0.34375 -0.71875 C 0.34375 -0.234375 0.8125 0.078125 1.359375 0.078125 C 1.875 0.078125 2.203125 -0.3125 2.328125 -0.46875 C 2.546875 -0.09375 3.046875 0.078125 3.5625 0.078125 C 4.6875 0.078125 5.296875 -1.03125 5.296875 -1.328125 Z M 5.296875 -1.328125 "/>
</g>
<g id="glyph-10-0">
<path d="M -4.453125 -5.75 C -5.34375 -5.75 -6.125 -4.828125 -6.125 -3.578125 L -6.125 -0.359375 L -5.84375 -0.359375 L -5.84375 -0.5625 C -5.84375 -1.25 -5.75 -1.28125 -5.421875 -1.28125 L -0.703125 -1.28125 C -0.375 -1.28125 -0.28125 -1.25 -0.28125 -0.5625 L -0.28125 -0.359375 L 0 -0.359375 C -0.03125 -0.765625 -0.03125 -1.265625 -0.03125 -1.671875 C -0.03125 -2.09375 -0.03125 -2.59375 0 -3 L -0.28125 -3 L -0.28125 -2.796875 C -0.28125 -2.09375 -0.375 -2.078125 -0.703125 -2.078125 L -2.8125 -2.078125 L -2.8125 -3.578125 C -2.8125 -4.828125 -3.59375 -5.75 -4.453125 -5.75 Z M -4.453125 -4.828125 C -4.046875 -4.828125 -3.0625 -4.828125 -3.0625 -3.34375 L -3.0625 -2.046875 L -5.484375 -2.046875 C -5.78125 -2.046875 -5.84375 -2.078125 -5.84375 -2.5 L -5.84375 -3.359375 C -5.84375 -4.828125 -4.859375 -4.828125 -4.453125 -4.828125 Z M -4.453125 -4.828125 "/>
</g>
<g id="glyph-10-1">
<path d="M -3.40625 -3.34375 C -3.6875 -3.34375 -3.96875 -3.078125 -3.96875 -2.671875 C -3.96875 -2.140625 -3.59375 -1.765625 -3.03125 -1.546875 L -3.96875 -1.546875 L -3.859375 -0.265625 L -3.59375 -0.265625 C -3.59375 -0.875 -3.53125 -0.953125 -3.078125 -0.953125 L -0.6875 -0.953125 C -0.28125 -0.953125 -0.28125 -0.859375 -0.28125 -0.265625 L 0 -0.265625 C -0.015625 -0.75 -0.03125 -0.859375 -0.03125 -1.3125 L 0 -2.453125 L -0.28125 -2.453125 L -0.28125 -2.28125 C -0.28125 -1.625 -0.375 -1.59375 -0.703125 -1.59375 L -2.046875 -1.59375 C -2.421875 -1.59375 -3.734375 -1.6875 -3.734375 -2.71875 C -3.71875 -2.703125 -3.609375 -2.5625 -3.40625 -2.5625 C -3.15625 -2.5625 -3 -2.75 -3 -2.953125 C -3 -3.140625 -3.140625 -3.34375 -3.40625 -3.34375 Z M -3.40625 -3.34375 "/>
</g>
<g id="glyph-10-2">
<path d="M 2.140625 -3.0625 C 2.09375 -3.0625 2.0625 -3.03125 2 -2.984375 C 0.9375 -1.828125 -0.671875 -1.46875 -2.25 -1.46875 C -3.625 -1.46875 -5.3125 -1.734375 -6.515625 -3 C -6.5625 -3.046875 -6.578125 -3.0625 -6.625 -3.0625 C -6.6875 -3.0625 -6.734375 -3.015625 -6.734375 -2.953125 C -6.734375 -2.84375 -6.078125 -2.03125 -5.109375 -1.546875 C -4.25 -1.125 -3.3125 -0.90625 -2.25 -0.90625 C -1.609375 -0.90625 -0.578125 -0.984375 0.46875 -1.484375 C 1.578125 -2.015625 2.234375 -2.84375 2.234375 -2.953125 C 2.234375 -3.015625 2.203125 -3.0625 2.140625 -3.0625 Z M 2.140625 -3.0625 "/>
</g>
<g id="glyph-10-3">
<path d="M -2.25 -2.671875 C -2.984375 -2.671875 -3.96875 -2.5625 -4.96875 -2.09375 C -6.078125 -1.5625 -6.734375 -0.734375 -6.734375 -0.625 C -6.734375 -0.53125 -6.65625 -0.515625 -6.625 -0.515625 C -6.578125 -0.515625 -6.5625 -0.53125 -6.5 -0.59375 C -6.03125 -1.125 -4.8125 -2.109375 -2.25 -2.109375 C -0.96875 -2.109375 0.8125 -1.875 2.03125 -0.578125 C 2.046875 -0.5625 2.09375 -0.515625 2.140625 -0.515625 C 2.15625 -0.515625 2.234375 -0.53125 2.234375 -0.625 C 2.234375 -0.734375 1.59375 -1.546875 0.609375 -2.03125 C -0.25 -2.453125 -1.171875 -2.671875 -2.25 -2.671875 Z M -2.25 -2.671875 "/>
</g>
<g id="glyph-10-4">
<path d="M -3.15625 -6.640625 C -3.359375 -6.640625 -3.359375 -6.453125 -3.359375 -6.3125 L -3.359375 -0.84375 C -3.359375 -0.703125 -3.359375 -0.515625 -3.15625 -0.515625 C -2.96875 -0.515625 -2.96875 -0.6875 -2.96875 -0.8125 L -2.96875 -6.34375 C -2.96875 -6.46875 -2.96875 -6.640625 -3.15625 -6.640625 Z M -1.34375 -6.640625 C -1.53125 -6.640625 -1.53125 -6.46875 -1.53125 -6.34375 L -1.53125 -0.8125 C -1.53125 -0.6875 -1.53125 -0.515625 -1.34375 -0.515625 C -1.140625 -0.515625 -1.140625 -0.703125 -1.140625 -0.84375 L -1.140625 -6.3125 C -1.140625 -6.453125 -1.140625 -6.640625 -1.34375 -6.640625 Z M -1.34375 -6.640625 "/>
</g>
<g id="glyph-11-0">
<path d="M 1.9375 -1.578125 L -6.4375 -1.578125 C -6.546875 -1.578125 -6.734375 -1.578125 -6.734375 -1.390625 C -6.734375 -1.1875 -6.53125 -1.1875 -6.390625 -1.1875 L 1.90625 -1.1875 C 2.03125 -1.1875 2.234375 -1.1875 2.234375 -1.390625 C 2.234375 -1.578125 2.046875 -1.578125 1.9375 -1.578125 Z M 1.90625 -3.40625 L -6.390625 -3.40625 C -6.53125 -3.40625 -6.734375 -3.40625 -6.734375 -3.203125 C -6.734375 -3.015625 -6.546875 -3.015625 -6.4375 -3.015625 L 1.9375 -3.015625 C 2.046875 -3.015625 2.234375 -3.015625 2.234375 -3.203125 C 2.234375 -3.40625 2.03125 -3.40625 1.90625 -3.40625 Z M 1.90625 -3.40625 "/>
</g>
<g id="glyph-11-1">
<path d="M -0.625 -6.390625 C -0.75 -6.390625 -0.78125 -6.328125 -0.828125 -6.21875 L -3.140625 -1.40625 L -5.4375 -6.203125 C -5.484375 -6.296875 -5.53125 -6.390625 -5.65625 -6.390625 C -5.78125 -6.390625 -5.84375 -6.28125 -5.84375 -6.203125 C -5.84375 -6.15625 -5.84375 -6.140625 -5.796875 -6.046875 L -3.359375 -0.953125 C -3.28125 -0.8125 -3.234375 -0.765625 -3.140625 -0.765625 C -3.03125 -0.765625 -3 -0.84375 -2.953125 -0.9375 L -0.5 -6.03125 C -0.4375 -6.140625 -0.4375 -6.15625 -0.4375 -6.1875 C -0.4375 -6.328125 -0.546875 -6.390625 -0.625 -6.390625 Z M 1.1875 -6.390625 C 1 -6.390625 1 -6.203125 1 -6.078125 L 1 -1.078125 C 1 -0.953125 1 -0.765625 1.1875 -0.765625 C 1.375 -0.765625 1.375 -0.953125 1.375 -1.078125 L 1.375 -6.078125 C 1.375 -6.203125 1.375 -6.390625 1.1875 -6.390625 Z M 1.1875 -6.390625 "/>
</g>
<g id="glyph-12-0">
<path d="M -1.328125 -5.296875 C -1.453125 -5.296875 -1.453125 -5.171875 -1.453125 -5.078125 C -1.453125 -4.984375 -1.453125 -4.921875 -1.34375 -4.875 C -0.515625 -4.625 -0.25 -3.96875 -0.25 -3.609375 C -0.25 -3.265625 -0.40625 -3.109375 -0.703125 -3.109375 C -0.890625 -3.109375 -1.359375 -3.21875 -1.6875 -3.296875 L -2.921875 -3.609375 C -3.453125 -3.75 -3.734375 -4.0625 -3.734375 -4.375 C -3.734375 -4.421875 -3.734375 -4.625 -3.59375 -4.8125 C -3.5 -4.484375 -3.203125 -4.328125 -2.984375 -4.328125 C -2.78125 -4.328125 -2.5625 -4.46875 -2.5625 -4.765625 C -2.5625 -5.078125 -2.828125 -5.421875 -3.265625 -5.421875 C -3.734375 -5.421875 -4.046875 -4.9375 -4.046875 -4.390625 C -4.046875 -3.890625 -3.671875 -3.546875 -3.5 -3.4375 C -3.890625 -3.203125 -4.046875 -2.703125 -4.046875 -2.203125 C -4.046875 -1.0625 -2.953125 -0.453125 -2.65625 -0.453125 C -2.53125 -0.453125 -2.53125 -0.59375 -2.53125 -0.671875 C -2.53125 -0.78125 -2.53125 -0.84375 -2.640625 -0.875 C -3.46875 -1.140625 -3.734375 -1.78125 -3.734375 -2.15625 C -3.734375 -2.5 -3.5625 -2.65625 -3.28125 -2.65625 C -3.109375 -2.65625 -2.625 -2.53125 -2.296875 -2.453125 L -1.0625 -2.140625 C -0.515625 -2.015625 -0.25 -1.6875 -0.25 -1.375 C -0.25 -1.34375 -0.25 -1.125 -0.390625 -0.953125 C -0.46875 -1.28125 -0.78125 -1.4375 -1 -1.4375 C -1.203125 -1.4375 -1.421875 -1.28125 -1.421875 -0.984375 C -1.421875 -0.671875 -1.15625 -0.34375 -0.71875 -0.34375 C -0.234375 -0.34375 0.078125 -0.8125 0.078125 -1.359375 C 0.078125 -1.875 -0.3125 -2.203125 -0.46875 -2.328125 C -0.09375 -2.546875 0.078125 -3.046875 0.078125 -3.5625 C 0.078125 -4.6875 -1.03125 -5.296875 -1.328125 -5.296875 Z M -1.328125 -5.296875 "/>
</g>
<g id="glyph-13-0">
<path d="M -3.359375 -4.015625 C -3.703125 -4.015625 -3.96875 -3.6875 -3.96875 -3.25 C -3.96875 -2.578125 -3.46875 -2.203125 -3.296875 -2.078125 C -3.78125 -1.96875 -3.96875 -1.5625 -3.96875 -1.234375 C -3.96875 -0.90625 -3.765625 -0.703125 -3.453125 -0.546875 C -3.125 -0.375 -2.625 -0.265625 -2.578125 -0.265625 C -2.5 -0.265625 -2.46875 -0.328125 -2.46875 -0.390625 C -2.46875 -0.484375 -2.515625 -0.5 -2.703125 -0.546875 C -3.40625 -0.71875 -3.734375 -0.90625 -3.734375 -1.203125 C -3.734375 -1.484375 -3.453125 -1.484375 -3.3125 -1.484375 C -3.125 -1.484375 -2.859375 -1.40625 -2.625 -1.359375 C -2.390625 -1.296875 -2 -1.203125 -1.890625 -1.171875 L -0.421875 -0.8125 C -0.203125 -0.75 -0.1875 -0.75 -0.15625 -0.75 C -0.046875 -0.75 0.09375 -0.828125 0.09375 -1.015625 C 0.09375 -1.3125 -0.140625 -1.375 -0.40625 -1.4375 C -0.796875 -1.546875 -0.8125 -1.546875 -1.171875 -1.625 C -2.515625 -1.96875 -2.734375 -2.015625 -2.78125 -2.03125 C -2.890625 -2.09375 -3.734375 -2.5 -3.734375 -3.25 C -3.734375 -3.453125 -3.671875 -3.578125 -3.625 -3.625 C -3.578125 -3.328125 -3.328125 -3.171875 -3.140625 -3.171875 C -2.96875 -3.171875 -2.8125 -3.296875 -2.8125 -3.53125 C -2.8125 -3.765625 -3.015625 -4.015625 -3.359375 -4.015625 Z M -3.359375 -4.015625 "/>
</g>
<g id="glyph-14-0">
<path d="M -0.859375 -3.671875 C -0.859375 -3.671875 -0.953125 -3.65625 -0.953125 -3.546875 C -0.953125 -3.46875 -0.90625 -3.453125 -0.8125 -3.421875 C -0.4375 -3.328125 -0.140625 -3.203125 -0.140625 -2.96875 C -0.140625 -2.765625 -0.359375 -2.75 -0.4375 -2.75 C -0.515625 -2.75 -0.53125 -2.75 -0.640625 -2.78125 L -3.96875 -3.625 C -4 -3.625 -4.03125 -3.640625 -4.0625 -3.640625 C -4.15625 -3.640625 -4.15625 -3.515625 -4.140625 -3.453125 L -4.09375 -2.78125 C -4.09375 -2.671875 -4.078125 -2.59375 -3.9375 -2.59375 C -3.84375 -2.59375 -3.84375 -2.671875 -3.84375 -2.765625 C -3.84375 -2.9375 -3.84375 -2.984375 -3.8125 -3.0625 C -3.71875 -3.0625 -3.703125 -3.0625 -3.625 -3.046875 L -2.28125 -2.703125 C -2.421875 -2.609375 -2.640625 -2.40625 -2.640625 -2.046875 C -2.640625 -1.28125 -1.84375 -0.453125 -0.953125 -0.453125 C -0.3125 -0.453125 0.0625 -0.90625 0.0625 -1.40625 C 0.0625 -1.8125 -0.21875 -2.15625 -0.359375 -2.296875 C 0.015625 -2.421875 0.0625 -2.8125 0.0625 -2.953125 C 0.0625 -3.171875 -0.0625 -3.328125 -0.25 -3.4375 C -0.484375 -3.578125 -0.828125 -3.671875 -0.859375 -3.671875 Z M -0.78125 -2.328125 C -0.671875 -2.296875 -0.671875 -2.296875 -0.578125 -2.21875 C -0.203125 -1.890625 -0.140625 -1.578125 -0.140625 -1.4375 C -0.140625 -1.1875 -0.296875 -0.953125 -0.71875 -0.953125 C -0.96875 -0.953125 -1.5625 -1.078125 -1.890625 -1.28125 C -2.21875 -1.453125 -2.4375 -1.765625 -2.4375 -2.046875 C -2.4375 -2.5 -1.96875 -2.609375 -1.921875 -2.609375 L -1.84375 -2.59375 Z M -0.78125 -2.328125 "/>
</g>
<g id="glyph-15-0">
<path d="M 7.984375 -1.984375 C 7.984375 -2.046875 7.9375 -2.09375 7.890625 -2.09375 C 7 -2.359375 6.34375 -3.09375 6.171875 -4.015625 C 6.15625 -4.0625 6.109375 -4.09375 6.0625 -4.09375 L 5.921875 -4.09375 C 5.859375 -4.09375 5.8125 -4.046875 5.8125 -3.953125 C 5.9375 -3.234375 6.359375 -2.59375 6.96875 -2.171875 L 0.640625 -2.171875 C 0.53125 -2.171875 0.46875 -2.078125 0.46875 -1.984375 C 0.46875 -1.90625 0.53125 -1.8125 0.640625 -1.8125 L 6.96875 -1.8125 C 6.359375 -1.390625 5.9375 -0.75 5.8125 -0.03125 C 5.8125 0.0625 5.859375 0.109375 5.921875 0.109375 L 6.0625 0.109375 C 6.109375 0.109375 6.15625 0.078125 6.171875 0.03125 C 6.34375 -0.890625 7 -1.625 7.890625 -1.890625 C 7.9375 -1.890625 7.984375 -1.9375 7.984375 -1.984375 Z M 7.984375 -1.984375 "/>
</g>
<g id="glyph-16-0">
<path d="M 3.5625 0 L 3.5625 -0.265625 L 3.28125 -0.265625 C 2.53125 -0.265625 2.5 -0.359375 2.5 -0.65625 L 2.5 -5.078125 C 2.5 -5.296875 2.484375 -5.296875 2.265625 -5.296875 C 1.9375 -4.984375 1.515625 -4.796875 0.765625 -4.796875 L 0.765625 -4.53125 C 0.984375 -4.53125 1.40625 -4.53125 1.875 -4.734375 L 1.875 -0.65625 C 1.875 -0.359375 1.84375 -0.265625 1.09375 -0.265625 L 0.8125 -0.265625 L 0.8125 0 C 1.140625 -0.03125 1.828125 -0.03125 2.1875 -0.03125 C 2.546875 -0.03125 3.234375 -0.03125 3.5625 0 Z M 3.5625 0 "/>
</g>
</g>
<clipPath id="clip-0">
<path clip-rule="nonzero" d="M 268.070312 5.933594 L 423.519531 5.933594 L 423.519531 102.835938 L 268.070312 102.835938 Z M 268.070312 5.933594 "/>
</clipPath>
</defs>
<path fill-rule="nonzero" fill="rgb(86.352539%, 69.999695%, 69.999695%)" fill-opacity="1" d="M 53.003906 82.972656 C 53.003906 69.824219 42.339844 59.164062 29.191406 59.164062 C 16.039062 59.164062 5.378906 69.824219 5.378906 82.972656 C 5.378906 96.125 16.039062 106.785156 29.191406 106.785156 C 42.339844 106.785156 53.003906 96.125 53.003906 82.972656 Z M 53.003906 82.972656 "/>
<path fill-rule="nonzero" fill="rgb(88.392639%, 92.156982%, 95.292664%)" fill-opacity="1" d="M 46.027344 82.972656 C 46.027344 73.675781 38.488281 66.140625 29.191406 66.140625 C 19.894531 66.140625 12.355469 73.675781 12.355469 82.972656 C 12.355469 92.273438 19.894531 99.808594 29.191406 99.808594 C 38.488281 99.808594 46.027344 92.273438 46.027344 82.972656 Z M 46.027344 82.972656 "/>
<path fill="none" stroke-width="0.79701" stroke-linecap="butt" stroke-linejoin="miter" stroke="rgb(0%, 0%, 50%)" stroke-opacity="1" stroke-miterlimit="10" d="M 23.812906 0.00134375 C 23.812906 13.149781 13.148844 23.809937 0.00040625 23.809937 C -13.151938 23.809937 -23.812094 13.149781 -23.812094 0.00134375 C -23.812094 -13.151 -13.151938 -23.811156 0.00040625 -23.811156 C 13.148844 -23.811156 23.812906 -13.151 23.812906 0.00134375 Z M 23.812906 0.00134375 " transform="matrix(1, 0, 0, -1, 29.191, 82.974)"/>
<path fill="none" stroke-width="0.19925" stroke-linecap="butt" stroke-linejoin="miter" stroke="rgb(29.978943%, 0%, 0%)" stroke-opacity="1" stroke-miterlimit="10" d="M 16.836344 0.00134375 C 16.836344 9.298219 9.297281 16.833375 0.00040625 16.833375 C -9.296469 16.833375 -16.835531 9.298219 -16.835531 0.00134375 C -16.835531 -9.299438 -9.296469 -16.834594 0.00040625 -16.834594 C 9.297281 -16.834594 16.836344 -9.299438 16.836344 0.00134375 Z M 16.836344 0.00134375 " transform="matrix(1, 0, 0, -1, 29.191, 82.974)"/>
<g fill="rgb(0%, 0%, 0%)" fill-opacity="1">
<use xlink:href="#glyph-0-0" x="19.806" y="116.826"/>
</g>
<g fill="rgb(0%, 0%, 0%)" fill-opacity="1">
<use xlink:href="#glyph-1-0" x="26.219804" y="116.826"/>
</g>
<g fill="rgb(0%, 0%, 0%)" fill-opacity="1">
<use xlink:href="#glyph-1-1" x="34.602311" y="116.826"/>
</g>
<path fill-rule="nonzero" fill="rgb(86.352539%, 69.999695%, 69.999695%)" fill-opacity="1" d="M 117.292969 82.972656 C 117.292969 69.824219 106.632812 59.164062 93.480469 59.164062 C 80.332031 59.164062 69.671875 69.824219 69.671875 82.972656 C 69.671875 96.125 80.332031 106.785156 93.480469 106.785156 C 106.632812 106.785156 117.292969 96.125 117.292969 82.972656 Z M 117.292969 82.972656 "/>
<path fill-rule="nonzero" fill="rgb(88.392639%, 92.156982%, 95.292664%)" fill-opacity="1" d="M 115.695312 82.972656 C 115.695312 70.703125 105.75 60.757812 93.480469 60.757812 C 81.210938 60.757812 71.265625 70.703125 71.265625 82.972656 C 71.265625 95.242188 81.210938 105.191406 93.480469 105.191406 C 105.75 105.191406 115.695312 95.242188 115.695312 82.972656 Z M 115.695312 82.972656 "/>
<path fill="none" stroke-width="0.79701" stroke-linecap="butt" stroke-linejoin="miter" stroke="rgb(0%, 0%, 50%)" stroke-opacity="1" stroke-miterlimit="10" d="M 88.101969 0.00134375 C 88.101969 13.149781 77.441812 23.809937 64.289469 23.809937 C 51.141031 23.809937 40.480875 13.149781 40.480875 0.00134375 C 40.480875 -13.151 51.141031 -23.811156 64.289469 -23.811156 C 77.441812 -23.811156 88.101969 -13.151 88.101969 0.00134375 Z M 88.101969 0.00134375 " transform="matrix(1, 0, 0, -1, 29.191, 82.974)"/>
<path fill="none" stroke-width="0.19925" stroke-linecap="butt" stroke-linejoin="miter" stroke="rgb(29.978943%, 0%, 0%)" stroke-opacity="1" stroke-miterlimit="10" d="M 86.504312 0.00134375 C 86.504312 12.270875 76.559 22.216187 64.289469 22.216187 C 52.019937 22.216187 42.074625 12.270875 42.074625 0.00134375 C 42.074625 -12.268188 52.019937 -22.217406 64.289469 -22.217406 C 76.559 -22.217406 86.504312 -12.268188 86.504312 0.00134375 Z M 86.504312 0.00134375 " transform="matrix(1, 0, 0, -1, 29.191, 82.974)"/>
<g fill="rgb(0%, 0%, 0%)" fill-opacity="1">
<use xlink:href="#glyph-0-0" x="82.11" y="116.826"/>
</g>
<g fill="rgb(0%, 0%, 0%)" fill-opacity="1">
<use xlink:href="#glyph-1-0" x="88.523804" y="116.826"/>
</g>
<g fill="rgb(0%, 0%, 0%)" fill-opacity="1">
<use xlink:href="#glyph-1-2" x="96.906311" y="116.826"/>
<use xlink:href="#glyph-1-3" x="100.877193" y="116.826"/>
</g>
<path fill-rule="nonzero" fill="rgb(86.352539%, 69.999695%, 69.999695%)" fill-opacity="1" d="M 181.582031 82.972656 C 181.582031 69.824219 170.921875 59.164062 157.769531 59.164062 C 144.621094 59.164062 133.960938 69.824219 133.960938 82.972656 C 133.960938 96.125 144.621094 106.785156 157.769531 106.785156 C 170.921875 106.785156 181.582031 96.125 181.582031 82.972656 Z M 181.582031 82.972656 "/>
<path fill-rule="nonzero" fill="rgb(88.392639%, 92.156982%, 95.292664%)" fill-opacity="1" d="M 181.25 82.972656 C 181.25 70.007812 170.738281 59.496094 157.769531 59.496094 C 144.804688 59.496094 134.292969 70.007812 134.292969 82.972656 C 134.292969 95.941406 144.804688 106.453125 157.769531 106.453125 C 170.738281 106.453125 181.25 95.941406 181.25 82.972656 Z M 181.25 82.972656 "/>
<path fill="none" stroke-width="0.79701" stroke-linecap="butt" stroke-linejoin="miter" stroke="rgb(0%, 0%, 50%)" stroke-opacity="1" stroke-miterlimit="10" d="M 152.391031 0.00134375 C 152.391031 13.149781 141.730875 23.809937 128.578531 23.809937 C 115.430094 23.809937 104.769937 13.149781 104.769937 0.00134375 C 104.769937 -13.151 115.430094 -23.811156 128.578531 -23.811156 C 141.730875 -23.811156 152.391031 -13.151 152.391031 0.00134375 Z M 152.391031 0.00134375 " transform="matrix(1, 0, 0, -1, 29.191, 82.974)"/>
<path fill="none" stroke-width="0.19925" stroke-linecap="butt" stroke-linejoin="miter" stroke="rgb(29.978943%, 0%, 0%)" stroke-opacity="1" stroke-miterlimit="10" d="M 152.059 0.00134375 C 152.059 12.966187 141.547281 23.477906 128.578531 23.477906 C 115.613687 23.477906 105.101969 12.966187 105.101969 0.00134375 C 105.101969 -12.967406 115.613687 -23.479125 128.578531 -23.479125 C 141.547281 -23.479125 152.059 -12.967406 152.059 0.00134375 Z M 152.059 0.00134375 " transform="matrix(1, 0, 0, -1, 29.191, 82.974)"/>
<g fill="rgb(0%, 0%, 0%)" fill-opacity="1">
<use xlink:href="#glyph-0-0" x="146.399" y="116.826"/>
</g>
<g fill="rgb(0%, 0%, 0%)" fill-opacity="1">
<use xlink:href="#glyph-1-0" x="152.812804" y="116.826"/>
</g>
<g fill="rgb(0%, 0%, 0%)" fill-opacity="1">
<use xlink:href="#glyph-1-4" x="161.195311" y="116.826"/>
<use xlink:href="#glyph-1-3" x="165.166193" y="116.826"/>
</g>
<g fill="rgb(0%, 0%, 0%)" fill-opacity="1">
<use xlink:href="#glyph-2-0" x="27.496" y="82.003"/>
</g>
<path fill="none" stroke-width="0.398" stroke-linecap="butt" stroke-linejoin="miter" stroke="rgb(0%, 0%, 0%)" stroke-opacity="1" stroke-miterlimit="10" d="M 0.00009375 -0.0005 L 3.390719 -0.0005 " transform="matrix(1, 0, 0, -1, 27.496, 82.937)"/>
<g fill="rgb(0%, 0%, 0%)" fill-opacity="1">
<use xlink:href="#glyph-2-1" x="27.496" y="87.081"/>
</g>
<g fill="rgb(29.978943%, 0%, 0%)" fill-opacity="1">
<use xlink:href="#glyph-2-0" x="47.854" y="82.003"/>
</g>
<path fill="none" stroke-width="0.398" stroke-linecap="butt" stroke-linejoin="miter" stroke="rgb(29.978943%, 0%, 0%)" stroke-opacity="1" stroke-miterlimit="10" d="M 0.00146875 -0.0005 L 3.388188 -0.0005 " transform="matrix(1, 0, 0, -1, 47.854, 82.937)"/>
<g fill="rgb(29.978943%, 0%, 0%)" fill-opacity="1">
<use xlink:href="#glyph-2-1" x="47.854" y="87.081"/>
</g>
<g fill="rgb(0%, 0%, 0%)" fill-opacity="1">
<use xlink:href="#glyph-3-0" x="4.981" y="134.094"/>
<use xlink:href="#glyph-3-1" x="8.274245" y="134.094"/>
<use xlink:href="#glyph-3-2" x="12.508759" y="134.094"/>
</g>
<g fill="rgb(0%, 0%, 0%)" fill-opacity="1">
<use xlink:href="#glyph-3-3" x="19.245088" y="134.094"/>
<use xlink:href="#glyph-3-4" x="23.949838" y="134.094"/>
<use xlink:href="#glyph-3-5" x="26.301815" y="134.094"/>
<use xlink:href="#glyph-3-6" x="31.006565" y="134.094"/>
</g>
<g fill="rgb(0%, 0%, 0%)" fill-opacity="1">
<use xlink:href="#glyph-3-7" x="38.213129" y="134.094"/>
<use xlink:href="#glyph-3-8" x="41.97661" y="134.094"/>
<use xlink:href="#glyph-3-9" x="46.211124" y="134.094"/>
<use xlink:href="#glyph-3-6" x="49.511543" y="134.094"/>
</g>
<g fill="rgb(0%, 0%, 0%)" fill-opacity="1">
<use xlink:href="#glyph-3-1" x="56.718107" y="134.094"/>
<use xlink:href="#glyph-3-10" x="60.952621" y="134.094"/>
<use xlink:href="#glyph-3-11" x="65.657371" y="134.094"/>
</g>
<g fill="rgb(0%, 0%, 0%)" fill-opacity="1">
<use xlink:href="#glyph-3-9" x="73.805205" y="134.094"/>
<use xlink:href="#glyph-3-6" x="77.105623" y="134.094"/>
<use xlink:href="#glyph-3-11" x="80.869104" y="134.094"/>
</g>
<g fill="rgb(0%, 0%, 0%)" fill-opacity="1">
<use xlink:href="#glyph-3-12" x="89.024907" y="134.094"/>
<use xlink:href="#glyph-3-13" x="92.365176" y="134.094"/>
<use xlink:href="#glyph-3-6" x="97.069926" y="134.094"/>
<use xlink:href="#glyph-3-4" x="100.833408" y="134.094"/>
<use xlink:href="#glyph-3-4" x="103.185384" y="134.094"/>
</g>
<g fill="rgb(0%, 0%, 0%)" fill-opacity="1">
<use xlink:href="#glyph-3-6" x="108.980444" y="134.094"/>
<use xlink:href="#glyph-3-1" x="112.743925" y="134.094"/>
<use xlink:href="#glyph-3-7" x="116.978439" y="134.094"/>
</g>
<g fill="rgb(0%, 0%, 0%)" fill-opacity="1">
<use xlink:href="#glyph-3-13" x="120.502817" y="134.094"/>
</g>
<g fill="rgb(0%, 0%, 0%)" fill-opacity="1">
<use xlink:href="#glyph-3-13" x="128.650651" y="134.094"/>
<use xlink:href="#glyph-3-8" x="133.355401" y="134.094"/>
<use xlink:href="#glyph-3-4" x="137.589915" y="134.094"/>
<use xlink:href="#glyph-3-11" x="139.941891" y="134.094"/>
</g>
<g fill="rgb(0%, 0%, 0%)" fill-opacity="1">
<use xlink:href="#glyph-3-13" x="148.089725" y="134.094"/>
<use xlink:href="#glyph-3-1" x="152.794475" y="134.094"/>
<use xlink:href="#glyph-3-4" x="157.028989" y="134.094"/>
<use xlink:href="#glyph-3-14" x="159.380965" y="134.094"/>
</g>
<g fill="rgb(0%, 0%, 0%)" fill-opacity="1">
<use xlink:href="#glyph-3-1" x="165.41991" y="134.094"/>
</g>
<g fill="rgb(0%, 0%, 0%)" fill-opacity="1">
<use xlink:href="#glyph-4-0" x="173.097507" y="134.094"/>
</g>
<g fill="rgb(0%, 0%, 0%)" fill-opacity="1">
<use xlink:href="#glyph-3-15" x="177.454761" y="134.094"/>
<use xlink:href="#glyph-3-3" x="180.27777" y="134.094"/>
<use xlink:href="#glyph-3-1" x="184.98252" y="134.094"/>
</g>
<g fill="rgb(0%, 0%, 0%)" fill-opacity="1">
<use xlink:href="#glyph-3-4" x="189.209064" y="134.094"/>
</g>
<g fill="rgb(0%, 0%, 0%)" fill-opacity="1">
<use xlink:href="#glyph-3-4" x="191.569011" y="134.094"/>
<use xlink:href="#glyph-3-16" x="193.920988" y="134.094"/>
<use xlink:href="#glyph-3-12" x="196.272964" y="134.094"/>
</g>
<g fill="rgb(0%, 0%, 0%)" fill-opacity="1">
<use xlink:href="#glyph-3-17" x="203.056316" y="134.094"/>
</g>
<g fill="rgb(0%, 0%, 0%)" fill-opacity="1">
<use xlink:href="#glyph-3-8" x="207.286048" y="134.094"/>
<use xlink:href="#glyph-3-4" x="211.520562" y="134.094"/>
<use xlink:href="#glyph-3-5" x="213.872539" y="134.094"/>
<use xlink:href="#glyph-3-18" x="218.577289" y="134.094"/>
<use xlink:href="#glyph-3-6" x="225.634016" y="134.094"/>
<use xlink:href="#glyph-3-19" x="229.397497" y="134.094"/>
</g>
<g fill="rgb(0%, 0%, 0%)" fill-opacity="1">
<use xlink:href="#glyph-3-20" x="4.981" y="146.049"/>
<use xlink:href="#glyph-3-13" x="8.274245" y="146.049"/>
<use xlink:href="#glyph-3-6" x="12.978995" y="146.049"/>
</g>
<g fill="rgb(0%, 0%, 0%)" fill-opacity="1">
<use xlink:href="#glyph-3-12" x="19.563892" y="146.049"/>
<use xlink:href="#glyph-3-13" x="22.904161" y="146.049"/>
<use xlink:href="#glyph-3-6" x="27.608911" y="146.049"/>
<use xlink:href="#glyph-3-4" x="31.372392" y="146.049"/>
<use xlink:href="#glyph-3-4" x="33.724369" y="146.049"/>
</g>
<g fill="rgb(0%, 0%, 0%)" fill-opacity="1">
<use xlink:href="#glyph-3-20" x="38.905731" y="146.049"/>
<use xlink:href="#glyph-3-13" x="42.198976" y="146.049"/>
<use xlink:href="#glyph-3-21" x="46.903726" y="146.049"/>
<use xlink:href="#glyph-3-10" x="49.255703" y="146.049"/>
<use xlink:href="#glyph-3-12" x="53.960453" y="146.049"/>
</g>
<g fill="rgb(0%, 0%, 0%)" fill-opacity="1">
<use xlink:href="#glyph-3-1" x="60.122137" y="146.049"/>
<use xlink:href="#glyph-3-12" x="64.356651" y="146.049"/>
</g>
<g fill="rgb(0%, 0%, 0%)" fill-opacity="1">
<use xlink:href="#glyph-4-0" x="70.518335" y="146.049"/>
</g>
<g fill="rgb(0%, 0%, 0%)" fill-opacity="1">
<use xlink:href="#glyph-3-22" x="77.697004" y="146.049"/>
<use xlink:href="#glyph-3-9" x="81.931518" y="146.049"/>
<use xlink:href="#glyph-3-8" x="85.231937" y="146.049"/>
</g>
<g fill="rgb(0%, 0%, 0%)" fill-opacity="1">
<use xlink:href="#glyph-3-23" x="89.227348" y="146.049"/>
<use xlink:href="#glyph-3-12" x="95.343603" y="146.049"/>
</g>
<path fill="none" stroke-width="0.19925" stroke-linecap="butt" stroke-linejoin="miter" stroke="rgb(50%, 50%, 50%)" stroke-opacity="1" stroke-miterlimit="10" d="M 0.0013125 -2.125937 L 0.0013125 2.124063 M 30.481781 -2.125937 L 30.481781 2.124063 M 60.96225 -2.125937 L 60.96225 2.124063 M 91.442719 -2.125937 L 91.442719 2.124063 M 121.923187 -2.125937 L 121.923187 2.124063 M 152.403656 -2.125937 L 152.403656 2.124063 " transform="matrix(1, 0, 0, -1, 268.069, 102.835)"/>
<path fill="none" stroke-width="0.19925" stroke-linecap="butt" stroke-linejoin="miter" stroke="rgb(50%, 50%, 50%)" stroke-opacity="1" stroke-miterlimit="10" d="M -2.127594 -0.0009375 L 2.126312 -0.0009375 M -2.127594 46.143594 L 2.126312 46.143594 M -2.127594 92.288125 L 2.126312 92.288125 " transform="matrix(1, 0, 0, -1, 268.069, 102.835)"/>
<path fill="none" stroke-width="0.3985" stroke-linecap="butt" stroke-linejoin="miter" stroke="rgb(0%, 0%, 0%)" stroke-opacity="1" stroke-miterlimit="10" d="M 0.0013125 -0.0009375 L 153.458344 -0.0009375 " transform="matrix(1, 0, 0, -1, 268.069, 102.835)"/>
<path fill-rule="nonzero" fill="rgb(0%, 0%, 0%)" fill-opacity="1" d="M 423.519531 102.835938 L 420.332031 101.242188 L 421.527344 102.835938 L 420.332031 104.429688 "/>
<path fill="none" stroke-width="0.3985" stroke-linecap="butt" stroke-linejoin="miter" stroke="rgb(0%, 0%, 0%)" stroke-opacity="1" stroke-miterlimit="10" d="M 0.0013125 -0.0009375 L 0.0013125 94.909219 " transform="matrix(1, 0, 0, -1, 268.069, 102.835)"/>
<path fill-rule="nonzero" fill="rgb(0%, 0%, 0%)" fill-opacity="1" d="M 268.070312 5.933594 L 266.476562 9.121094 L 268.070312 7.925781 L 269.664062 9.121094 "/>
<g fill="rgb(0%, 0%, 0%)" fill-opacity="1">
<use xlink:href="#glyph-1-3" x="266.084" y="112.974"/>
</g>
<g fill="rgb(0%, 0%, 0%)" fill-opacity="1">
<use xlink:href="#glyph-1-3" x="293.396" y="112.974"/>
</g>
<g fill="rgb(0%, 0%, 0%)" fill-opacity="1">
<use xlink:href="#glyph-0-1" x="297.366882" y="112.974"/>
</g>
<g fill="rgb(0%, 0%, 0%)" fill-opacity="1">
<use xlink:href="#glyph-1-1" x="299.733092" y="112.974"/>
</g>
<g fill="rgb(0%, 0%, 0%)" fill-opacity="1">
<use xlink:href="#glyph-1-3" x="323.876" y="112.974"/>
</g>
<g fill="rgb(0%, 0%, 0%)" fill-opacity="1">
<use xlink:href="#glyph-0-1" x="327.846882" y="112.974"/>
</g>
<g fill="rgb(0%, 0%, 0%)" fill-opacity="1">
<use xlink:href="#glyph-1-5" x="330.213092" y="112.974"/>
</g>
<g fill="rgb(0%, 0%, 0%)" fill-opacity="1">
<use xlink:href="#glyph-1-3" x="354.357" y="112.974"/>
</g>
<g fill="rgb(0%, 0%, 0%)" fill-opacity="1">
<use xlink:href="#glyph-0-1" x="358.327882" y="112.974"/>
</g>
<g fill="rgb(0%, 0%, 0%)" fill-opacity="1">
<use xlink:href="#glyph-1-6" x="360.694092" y="112.974"/>
</g>
<g fill="rgb(0%, 0%, 0%)" fill-opacity="1">
<use xlink:href="#glyph-1-3" x="384.837" y="112.975"/>
</g>
<g fill="rgb(0%, 0%, 0%)" fill-opacity="1">
<use xlink:href="#glyph-0-1" x="388.807882" y="112.975"/>
</g>
<g fill="rgb(0%, 0%, 0%)" fill-opacity="1">
<use xlink:href="#glyph-1-7" x="391.174092" y="112.975"/>
</g>
<g fill="rgb(0%, 0%, 0%)" fill-opacity="1">
<use xlink:href="#glyph-1-2" x="418.486" y="112.975"/>
</g>
<g fill="rgb(0%, 0%, 0%)" fill-opacity="1">
<use xlink:href="#glyph-1-3" x="258.452" y="105.083"/>
</g>
<g fill="rgb(0%, 0%, 0%)" fill-opacity="1">
<use xlink:href="#glyph-1-3" x="252.115" y="58.94"/>
</g>
<g fill="rgb(0%, 0%, 0%)" fill-opacity="1">
<use xlink:href="#glyph-0-1" x="256.085882" y="58.94"/>
</g>
<g fill="rgb(0%, 0%, 0%)" fill-opacity="1">
<use xlink:href="#glyph-1-4" x="258.452092" y="58.94"/>
</g>
<g fill="rgb(0%, 0%, 0%)" fill-opacity="1">
<use xlink:href="#glyph-1-2" x="258.452" y="12.797"/>
</g>
<g clip-path="url(#clip-0)">
<path fill="none" stroke-width="1.19553" stroke-linecap="butt" stroke-linejoin="miter" stroke="rgb(0%, 0%, 50%)" stroke-opacity="1" stroke-miterlimit="10" d="M 0.0013125 -0.0009375 L 1.095062 0.00296875 L 2.192719 0.0185938 L 3.290375 0.0420313 L 4.384125 0.0771875 L 5.481781 0.120156 L 6.579437 0.170938 L 7.673187 0.233438 L 8.770844 0.30375 L 9.8685 0.385781 L 10.966156 0.479531 L 12.059906 0.577188 L 13.157562 0.686563 L 14.255219 0.807656 L 15.348969 0.936563 L 16.446625 1.073281 L 17.544281 1.221719 L 18.638031 1.381875 L 19.735687 1.545938 L 20.833344 1.725625 L 21.927094 1.909219 L 23.02475 2.104531 L 24.122406 2.311563 L 25.216156 2.526406 L 26.313812 2.752969 L 27.411469 2.983438 L 28.505219 3.229531 L 29.602875 3.483438 L 30.700531 3.745156 L 31.798187 4.018594 L 32.891937 4.299844 L 33.989594 4.588906 L 35.08725 4.889688 L 36.181 5.202188 L 37.278656 5.5225 L 38.376312 5.850625 L 39.470062 6.190469 L 40.567719 6.538125 L 41.665375 6.8975 L 42.759125 7.264688 L 43.856781 7.643594 L 44.954437 8.030313 L 46.048187 8.424844 L 47.145844 8.831094 L 48.2435 9.249063 L 49.341156 9.670938 L 50.434906 10.108438 L 51.532562 10.549844 L 52.630219 11.002969 L 53.723969 11.467813 L 54.821625 11.940469 L 55.919281 12.424844 L 57.013031 12.917031 L 58.110687 13.417031 L 59.208344 13.92875 L 60.302094 14.448281 L 61.39975 14.979531 L 62.497406 15.518594 L 63.591156 16.069375 L 64.688812 16.627969 L 65.786469 17.194375 L 66.880219 17.7725 L 67.977875 18.362344 L 69.075531 18.956094 L 70.173187 19.565469 L 71.266937 20.17875 L 72.364594 20.807656 L 73.46225 21.440469 L 74.556 22.085 L 75.653656 22.74125 L 76.751312 23.405313 L 77.845062 24.077188 L 78.942719 24.760781 L 80.040375 25.452188 L 81.134125 26.155313 L 82.231781 26.86625 L 83.329437 27.588906 L 84.423187 28.319375 L 85.520844 29.061563 L 86.6185 29.811563 L 87.71225 30.569375 L 88.809906 31.338906 L 89.907562 32.11625 L 91.005219 32.905313 L 92.098969 33.702188 L 93.196625 34.510781 L 94.294281 35.327188 L 95.388031 36.151406 L 96.485687 36.987344 L 97.583344 37.835 L 98.677094 38.690469 L 99.77475 39.55375 L 100.872406 40.42875 L 101.966156 41.311563 L 103.063812 42.206094 L 104.161469 43.108438 L 105.255219 44.018594 L 106.352875 44.940469 L 107.450531 45.874063 L 108.548187 46.815469 L 109.641937 47.764688 L 110.739594 48.725625 L 111.83725 49.694375 L 112.931 50.674844 L 114.028656 51.663125 L 115.126312 52.659219 L 116.220062 53.667031 L 117.317719 54.686563 L 118.415375 55.713906 L 119.509125 56.749063 L 120.606781 57.795938 L 121.704437 58.850625 L 122.798187 59.917031 L 123.895844 60.99125 L 124.9935 62.073281 L 126.08725 63.167031 L 127.184906 64.2725 L 128.282562 65.385781 L 129.380219 66.506875 L 130.473969 67.639688 L 131.571625 68.780313 L 132.669281 69.932656 L 133.763031 71.092813 L 134.860687 72.260781 L 135.958344 73.440469 L 137.052094 74.631875 L 138.14975 75.831094 L 139.247406 77.038125 L 140.341156 78.256875 L 141.438812 79.483438 L 142.536469 80.721719 L 143.630219 81.967813 L 144.727875 83.225625 L 145.825531 84.49125 L 146.919281 85.764688 L 148.016937 87.049844 L 149.114594 88.346719 L 150.21225 89.6475 L 151.306 90.963906 L 152.403656 92.284219 " transform="matrix(1, 0, 0, -1, 268.069, 102.835)"/>
<path fill="none" stroke-width="1.19553" stroke-linecap="butt" stroke-linejoin="miter" stroke="rgb(0%, 61.959839%, 45.095825%)" stroke-opacity="1" stroke-miterlimit="10" d="M 0.0013125 -0.0009375 L 15.348969 -0.0009375 L 16.446625 0.00296875 L 20.833344 0.00296875 L 21.927094 0.006875 L 23.02475 0.006875 L 24.122406 0.0107813 L 25.216156 0.0107813 L 27.411469 0.0185938 L 28.505219 0.0225 L 30.700531 0.0303125 L 31.798187 0.038125 L 32.891937 0.0420313 L 33.989594 0.0498438 L 35.08725 0.0615625 L 36.181 0.069375 L 38.376312 0.0928125 L 39.470062 0.108438 L 41.665375 0.139688 L 42.759125 0.159219 L 44.954437 0.206094 L 46.048187 0.233438 L 47.145844 0.260781 L 48.2435 0.292031 L 49.341156 0.327188 L 50.434906 0.36625 L 52.630219 0.452188 L 53.723969 0.502969 L 55.919281 0.612344 L 57.013031 0.674844 L 59.208344 0.815469 L 60.302094 0.893594 L 61.39975 0.979531 L 62.497406 1.069375 L 63.591156 1.167031 L 64.688812 1.2725 L 65.786469 1.381875 L 66.880219 1.502969 L 67.977875 1.627969 L 69.075531 1.764688 L 70.173187 1.909219 L 71.266937 2.065469 L 72.364594 2.225625 L 73.46225 2.401406 L 74.556 2.585 L 75.653656 2.780313 L 76.751312 2.987344 L 77.845062 3.21 L 78.942719 3.440469 L 80.040375 3.686563 L 81.134125 3.948281 L 82.231781 4.221719 L 83.329437 4.510781 L 84.423187 4.815469 L 85.520844 5.135781 L 86.6185 5.471719 L 87.71225 5.827188 L 88.809906 6.202188 L 89.907562 6.592813 L 91.005219 7.006875 L 92.098969 7.436563 L 93.196625 7.889688 L 94.294281 8.36625 L 95.388031 8.86625 L 96.485687 9.385781 L 97.583344 9.932656 L 98.677094 10.502969 L 99.77475 11.096719 L 100.872406 11.721719 L 101.966156 12.374063 L 103.063812 13.05375 L 104.161469 13.760781 L 105.255219 14.502969 L 106.352875 15.2725 L 107.450531 16.077188 L 108.548187 16.913125 L 109.641937 17.784219 L 110.739594 18.690469 L 111.83725 19.635781 L 112.931 20.61625 L 114.028656 21.639688 L 115.126312 22.698281 L 116.220062 23.799844 L 117.317719 24.944375 L 118.415375 26.131875 L 119.509125 27.362344 L 120.606781 28.643594 L 121.704437 29.967813 L 122.798187 31.342813 L 123.895844 32.768594 L 124.9935 34.245156 L 126.08725 35.7725 L 127.184906 37.354531 L 128.282562 38.99125 L 129.380219 40.686563 L 130.473969 42.440469 L 131.571625 44.252969 L 132.669281 46.127969 L 133.763031 48.065469 L 134.860687 50.069375 L 135.958344 52.139688 L 137.052094 54.276406 L 138.14975 56.479531 L 139.247406 58.756875 L 140.341156 61.108438 L 141.438812 63.534219 L 142.536469 66.034219 L 143.630219 68.612344 L 144.727875 71.2725 L 145.825531 74.014688 L 146.919281 76.838906 L 148.016937 79.749063 L 149.114594 82.745156 L 150.21225 85.831094 L 151.306 89.010781 L 152.403656 92.284219 " transform="matrix(1, 0, 0, -1, 268.069, 102.835)"/>
<path fill="none" stroke-width="1.19553" stroke-linecap="butt" stroke-linejoin="miter" stroke="rgb(90.194702%, 62.353516%, 0%)" stroke-opacity="1" stroke-miterlimit="10" d="M 0.0013125 -0.0009375 L 85.520844 -0.0009375 L 86.6185 0.00296875 L 93.196625 0.00296875 L 94.294281 0.006875 L 95.388031 0.006875 L 96.485687 0.0107813 L 97.583344 0.0107813 L 98.677094 0.0146875 L 100.872406 0.0225 L 101.966156 0.0303125 L 104.161469 0.0459375 L 105.255219 0.0576563 L 106.352875 0.069375 L 107.450531 0.085 L 108.548187 0.104531 L 109.641937 0.127969 L 110.739594 0.155313 L 111.83725 0.190469 L 112.931 0.229531 L 114.028656 0.280313 L 115.126312 0.338906 L 116.220062 0.409219 L 117.317719 0.49125 L 118.415375 0.592813 L 119.509125 0.713906 L 120.606781 0.854531 L 121.704437 1.026406 L 122.798187 1.229531 L 123.895844 1.467813 L 124.9935 1.749063 L 126.08725 2.085 L 127.184906 2.475625 L 128.282562 2.940469 L 129.380219 3.487344 L 130.473969 4.127969 L 131.571625 4.877969 L 132.669281 5.760781 L 133.763031 6.792031 L 134.860687 7.995156 L 135.958344 9.401406 L 137.052094 11.042031 L 138.14975 12.948281 L 139.247406 15.167031 L 140.341156 17.74125 L 141.438812 20.729531 L 142.536469 24.190469 L 143.630219 28.198281 L 144.727875 32.831094 L 145.825531 38.17875 L 146.919281 44.350625 L 148.016937 51.46 L 149.114594 59.643594 L 150.21225 69.05375 L 151.306 79.86625 L 152.403656 92.276406 " transform="matrix(1, 0, 0, -1, 268.069, 102.835)"/>
<path fill="none" stroke-width="1.19553" stroke-linecap="butt" stroke-linejoin="miter" stroke="rgb(54.508972%, 0%, 0%)" stroke-opacity="1" stroke-miterlimit="10" d="M 0.0013125 -0.0009375 L 120.606781 -0.0009375 L 121.704437 0.00296875 L 124.9935 0.00296875 L 126.08725 0.006875 L 127.184906 0.0107813 L 129.380219 0.0264063 L 130.473969 0.038125 L 131.571625 0.0576563 L 132.669281 0.0889063 L 133.763031 0.135781 L 134.860687 0.202188 L 135.958344 0.307656 L 137.052094 0.456094 L 138.14975 0.67875 L 139.247406 1.010781 L 140.341156 1.495156 L 141.438812 2.206094 L 142.536469 3.245156 L 143.630219 4.760781 L 144.727875 6.963906 L 145.825531 10.159219 L 146.919281 14.7725 L 148.016937 21.424844 L 149.114594 30.99125 L 150.21225 44.698281 L 151.306 64.30375 L 152.403656 92.256875 " transform="matrix(1, 0, 0, -1, 268.069, 102.835)"/>
</g>
<g fill="rgb(0%, 0%, 0%)" fill-opacity="1">
<use xlink:href="#glyph-5-0" x="278.244" y="126.54"/>
<use xlink:href="#glyph-5-1" x="281.848493" y="126.54"/>
<use xlink:href="#glyph-5-2" x="286.456326" y="126.54"/>
<use xlink:href="#glyph-5-3" x="291.57614" y="126.54"/>
<use xlink:href="#glyph-5-4" x="294.136047" y="126.54"/>
<use xlink:href="#glyph-5-5" x="299.255862" y="126.54"/>
</g>
<g fill="rgb(0%, 0%, 0%)" fill-opacity="1">
<use xlink:href="#glyph-6-0" x="305.966316" y="126.54"/>
</g>
<g fill="rgb(0%, 0%, 0%)" fill-opacity="1">
<use xlink:href="#glyph-7-0" x="312.939485" y="126.54"/>
</g>
<g fill="rgb(0%, 0%, 0%)" fill-opacity="1">
<use xlink:href="#glyph-8-0" x="322.662649" y="126.54"/>
</g>
<g fill="rgb(0%, 0%, 0%)" fill-opacity="1">
<use xlink:href="#glyph-9-0" x="327.270482" y="126.54"/>
</g>
<g fill="rgb(0%, 0%, 0%)" fill-opacity="1">
<use xlink:href="#glyph-8-0" x="333.17934" y="126.54"/>
</g>
<g fill="rgb(0%, 0%, 0%)" fill-opacity="1">
<use xlink:href="#glyph-5-6" x="340.862648" y="126.54"/>
<use xlink:href="#glyph-5-7" x="345.470481" y="126.54"/>
</g>
<g fill="rgb(0%, 0%, 0%)" fill-opacity="1">
<use xlink:href="#glyph-5-1" x="351.352439" y="126.54"/>
</g>
<g fill="rgb(0%, 0%, 0%)" fill-opacity="1">
<use xlink:href="#glyph-5-4" x="359.035747" y="126.54"/>
<use xlink:href="#glyph-5-8" x="364.155562" y="126.54"/>
<use xlink:href="#glyph-5-3" x="369.275376" y="126.54"/>
<use xlink:href="#glyph-5-7" x="371.835283" y="126.54"/>
<use xlink:href="#glyph-5-6" x="374.650733" y="126.54"/>
<use xlink:href="#glyph-5-0" x="379.258566" y="126.54"/>
<use xlink:href="#glyph-5-9" x="382.863059" y="126.54"/>
</g>
<g fill="rgb(0%, 0%, 0%)" fill-opacity="1">
<use xlink:href="#glyph-5-2" x="393.617359" y="126.54"/>
<use xlink:href="#glyph-5-0" x="398.737173" y="126.54"/>
<use xlink:href="#glyph-5-1" x="402.341666" y="126.54"/>
</g>
<g fill="rgb(0%, 0%, 0%)" fill-opacity="1">
<use xlink:href="#glyph-5-10" x="406.689473" y="126.54"/>
</g>
<g fill="rgb(0%, 0%, 0%)" fill-opacity="1">
<use xlink:href="#glyph-10-0" x="243.034" y="89.34"/>
<use xlink:href="#glyph-10-1" x="243.034" y="83.0689"/>
<use xlink:href="#glyph-10-2" x="243.034" y="79.464407"/>
</g>
<g fill="rgb(0%, 0%, 0%)" fill-opacity="1">
<use xlink:href="#glyph-11-0" x="243.034" y="75.880537"/>
</g>
<g fill="rgb(0%, 0%, 0%)" fill-opacity="1">
<use xlink:href="#glyph-12-0" x="243.034" y="71.272704"/>
</g>
<g fill="rgb(0%, 0%, 0%)" fill-opacity="1">
<use xlink:href="#glyph-11-0" x="243.034" y="65.363846"/>
</g>
<g fill="rgb(0%, 0%, 0%)" fill-opacity="1">
<use xlink:href="#glyph-11-1" x="243.034" y="58.200589"/>
</g>
<g fill="rgb(0%, 0%, 0%)" fill-opacity="1">
<use xlink:href="#glyph-13-0" x="243.034" y="48.468459"/>
</g>
<g fill="rgb(0%, 0%, 0%)" fill-opacity="1">
<use xlink:href="#glyph-10-3" x="243.034" y="44.05968"/>
</g>
<g fill="rgb(0%, 0%, 0%)" fill-opacity="1">
<use xlink:href="#glyph-10-4" x="243.034" y="37.91142"/>
</g>
<g fill="rgb(0%, 0%, 0%)" fill-opacity="1">
<use xlink:href="#glyph-13-0" x="243.034" y="28.188255"/>
</g>
<g fill="rgb(0%, 0%, 0%)" fill-opacity="1">
<use xlink:href="#glyph-14-0" x="239.225" y="23.771"/>
</g>
<path fill="none" stroke-width="1.19553" stroke-linecap="butt" stroke-linejoin="miter" stroke="rgb(0%, 0%, 50%)" stroke-opacity="1" stroke-miterlimit="10" d="M 0.00053125 0.0006875 L 17.008344 0.0006875 " transform="matrix(1, 0, 0, -1, 276.519, 16.196)"/>
<g fill="rgb(0%, 0%, 0%)" fill-opacity="1">
<use xlink:href="#glyph-0-0" x="298.102" y="17.87"/>
</g>
<g fill="rgb(0%, 0%, 0%)" fill-opacity="1">
<use xlink:href="#glyph-1-0" x="304.515804" y="17.87"/>
</g>
<g fill="rgb(0%, 0%, 0%)" fill-opacity="1">
<use xlink:href="#glyph-1-1" x="312.898311" y="17.87"/>
</g>
<path fill="none" stroke-width="1.19553" stroke-linecap="butt" stroke-linejoin="miter" stroke="rgb(0%, 61.959839%, 45.095825%)" stroke-opacity="1" stroke-miterlimit="10" d="M 0.00053125 -0.00153125 L 17.008344 -0.00153125 " transform="matrix(1, 0, 0, -1, 276.519, 26.518)"/>
<g fill="rgb(0%, 0%, 0%)" fill-opacity="1">
<use xlink:href="#glyph-0-0" x="298.102" y="28.192"/>
</g>
<g fill="rgb(0%, 0%, 0%)" fill-opacity="1">
<use xlink:href="#glyph-1-0" x="304.515804" y="28.192"/>
</g>
<g fill="rgb(0%, 0%, 0%)" fill-opacity="1">
<use xlink:href="#glyph-1-4" x="312.898311" y="28.192"/>
</g>
<path fill="none" stroke-width="1.19553" stroke-linecap="butt" stroke-linejoin="miter" stroke="rgb(90.194702%, 62.353516%, 0%)" stroke-opacity="1" stroke-miterlimit="10" d="M 0.00053125 0.00015625 L 17.008344 0.00015625 " transform="matrix(1, 0, 0, -1, 276.519, 36.84)"/>
<g fill="rgb(0%, 0%, 0%)" fill-opacity="1">
<use xlink:href="#glyph-0-0" x="296.117" y="38.514"/>
</g>
<g fill="rgb(0%, 0%, 0%)" fill-opacity="1">
<use xlink:href="#glyph-1-0" x="302.530804" y="38.514"/>
</g>
<g fill="rgb(0%, 0%, 0%)" fill-opacity="1">
<use xlink:href="#glyph-1-1" x="310.913311" y="38.514"/>
<use xlink:href="#glyph-1-3" x="314.884193" y="38.514"/>
</g>
<path fill="none" stroke-width="1.19553" stroke-linecap="butt" stroke-linejoin="miter" stroke="rgb(54.508972%, 0%, 0%)" stroke-opacity="1" stroke-miterlimit="10" d="M 0.00053125 0.00184375 L 17.008344 0.00184375 " transform="matrix(1, 0, 0, -1, 276.519, 47.162)"/>
<g fill="rgb(0%, 0%, 0%)" fill-opacity="1">
<use xlink:href="#glyph-0-0" x="296.117" y="48.837"/>
</g>
<g fill="rgb(0%, 0%, 0%)" fill-opacity="1">
<use xlink:href="#glyph-1-0" x="302.530804" y="48.837"/>
</g>
<g fill="rgb(0%, 0%, 0%)" fill-opacity="1">
<use xlink:href="#glyph-1-4" x="310.913311" y="48.837"/>
<use xlink:href="#glyph-1-3" x="314.884193" y="48.837"/>
</g>
<g fill="rgb(0%, 0%, 0%)" fill-opacity="1">
<use xlink:href="#glyph-3-0" x="231.753" y="146.05"/>
<use xlink:href="#glyph-3-3" x="235.046245" y="146.05"/>
<use xlink:href="#glyph-3-2" x="239.750995" y="146.05"/>
</g>
<g fill="rgb(0%, 0%, 0%)" fill-opacity="1">
<use xlink:href="#glyph-3-20" x="245.865656" y="146.05"/>
<use xlink:href="#glyph-3-13" x="249.158901" y="146.05"/>
<use xlink:href="#glyph-3-6" x="253.863651" y="146.05"/>
</g>
<g fill="rgb(0%, 0%, 0%)" fill-opacity="1">
<use xlink:href="#glyph-3-9" x="260.448548" y="146.05"/>
<use xlink:href="#glyph-3-1" x="263.748966" y="146.05"/>
<use xlink:href="#glyph-3-11" x="267.983481" y="146.05"/>
<use xlink:href="#glyph-3-21" x="272.688231" y="146.05"/>
<use xlink:href="#glyph-3-5" x="275.040207" y="146.05"/>
<use xlink:href="#glyph-3-12" x="279.744957" y="146.05"/>
</g>
<g fill="rgb(0%, 0%, 0%)" fill-opacity="1">
<use xlink:href="#glyph-3-24" x="285.914612" y="146.05"/>
<use xlink:href="#glyph-3-25" x="292.030866" y="146.05"/>
<use xlink:href="#glyph-3-26" x="298.495414" y="146.05"/>
</g>
<g fill="rgb(0%, 0%, 0%)" fill-opacity="1">
<use xlink:href="#glyph-3-27" x="306.840906" y="146.05"/>
<use xlink:href="#glyph-3-21" x="311.545656" y="146.05"/>
<use xlink:href="#glyph-3-4" x="313.897633" y="146.05"/>
<use xlink:href="#glyph-3-6" x="316.249609" y="146.05"/>
<use xlink:href="#glyph-3-12" x="320.01309" y="146.05"/>
</g>
<g fill="rgb(0%, 0%, 0%)" fill-opacity="1">
<use xlink:href="#glyph-3-5" x="326.174775" y="146.05"/>
<use xlink:href="#glyph-3-27" x="330.879525" y="146.05"/>
</g>
<g fill="rgb(0%, 0%, 0%)" fill-opacity="1">
<use xlink:href="#glyph-3-1" x="338.40569" y="146.05"/>
<use xlink:href="#glyph-3-20" x="342.640204" y="146.05"/>
</g>
<g fill="rgb(0%, 0%, 0%)" fill-opacity="1">
<use xlink:href="#glyph-4-1" x="348.754865" y="146.05"/>
</g>
<g fill="rgb(0%, 0%, 0%)" fill-opacity="1">
<use xlink:href="#glyph-15-0" x="355.16681" y="146.05"/>
</g>
<g fill="rgb(0%, 0%, 0%)" fill-opacity="1">
<use xlink:href="#glyph-16-0" x="365.986221" y="146.05"/>
</g>
<g fill="rgb(0%, 0%, 0%)" fill-opacity="1">
<use xlink:href="#glyph-3-1" x="373.042151" y="146.05"/>
<use xlink:href="#glyph-3-12" x="377.276665" y="146.05"/>
</g>
<g fill="rgb(0%, 0%, 0%)" fill-opacity="1">
<use xlink:href="#glyph-4-0" x="383.438349" y="146.05"/>
</g>
<g fill="rgb(0%, 0%, 0%)" fill-opacity="1">
<use xlink:href="#glyph-3-22" x="390.624988" y="146.05"/>
</g>
<g fill="rgb(0%, 0%, 0%)" fill-opacity="1">
<use xlink:href="#glyph-3-9" x="394.851532" y="146.05"/>
<use xlink:href="#glyph-3-8" x="398.151951" y="146.05"/>
</g>
<g fill="rgb(0%, 0%, 0%)" fill-opacity="1">
<use xlink:href="#glyph-3-23" x="402.155332" y="146.05"/>
<use xlink:href="#glyph-3-12" x="408.271587" y="146.05"/>
</g>
</svg>
