<?xml version="1.0" encoding="UTF-8"?>
<svg xmlns="http://www.w3.org/2000/svg" xmlns:xlink="http://www.w3.org/1999/xlink" width="142.484pt" height="112.942pt" viewBox="0 0 142.484 112.942">
<defs>
<g>
<g id="glyph-0-0">
<path d="M 3.84375 -0.3125 L 3.84375 -0.40625 C 3.84375 -0.71875 3.703125 -0.71875 3.484375 -0.71875 L 2.484375 -0.703125 L 1.546875 -0.6875 L 1.546875 -2.015625 L 3.234375 -2.015625 C 3.4375 -2.015625 3.546875 -2.0625 3.546875 -2.3125 C 3.546875 -2.5625 3.46875 -2.625 3.234375 -2.625 L 1.546875 -2.625 L 1.546875 -3.8125 L 1.859375 -3.8125 L 3.375 -3.796875 C 3.609375 -3.796875 3.75 -3.796875 3.75 -4.109375 L 3.75 -4.15625 C 3.75 -4.359375 3.703125 -4.46875 3.4375 -4.46875 L 0.90625 -4.46875 C 0.671875 -4.46875 0.59375 -4.40625 0.59375 -4.15625 L 0.59375 -0.3125 C 0.59375 -0.078125 0.65625 0 0.90625 0 L 3.53125 0 C 3.78125 0 3.84375 -0.078125 3.84375 -0.3125 Z M 3.84375 -0.3125 "/>
</g>
<g id="glyph-0-1">
<path d="M 2.953125 -0.328125 C 2.953125 -0.390625 2.9375 -0.6875 2.921875 -0.78125 C 2.921875 -0.796875 2.90625 -0.859375 2.84375 -0.859375 C 2.8125 -0.859375 2.796875 -0.859375 2.734375 -0.796875 C 2.625 -0.703125 2.328125 -0.4375 1.796875 -0.4375 C 1.125 -0.4375 1.125 -1.09375 1.125 -1.5 C 1.125 -2.03125 1.15625 -2.5625 1.8125 -2.5625 C 2.234375 -2.5625 2.40625 -2.46875 2.640625 -2.265625 C 2.71875 -2.203125 2.734375 -2.203125 2.75 -2.203125 C 2.828125 -2.203125 2.828125 -2.25 2.84375 -2.28125 C 2.859375 -2.328125 2.921875 -2.703125 2.921875 -2.734375 C 2.921875 -2.78125 2.875 -2.8125 2.765625 -2.859375 C 2.453125 -3.015625 2.25 -3.078125 1.8125 -3.078125 C 0.84375 -3.078125 0.234375 -2.625 0.234375 -1.484375 C 0.234375 -0.40625 0.796875 0.078125 1.765625 0.078125 C 1.953125 0.078125 2.328125 0.0625 2.765625 -0.15625 C 2.953125 -0.25 2.953125 -0.265625 2.953125 -0.328125 Z M 2.953125 -0.328125 "/>
</g>
<g id="glyph-0-2">
<path d="M 3.34375 -1.453125 C 3.34375 -2.515625 2.828125 -3.078125 1.78125 -3.078125 C 0.703125 -3.078125 0.203125 -2.5 0.203125 -1.453125 C 0.203125 -0.40625 0.75 0.078125 1.765625 0.078125 C 2.78125 0.078125 3.34375 -0.390625 3.34375 -1.453125 Z M 2.46875 -1.53125 C 2.46875 -1.015625 2.46875 -0.4375 1.78125 -0.4375 C 1.078125 -0.4375 1.078125 -1.015625 1.078125 -1.53125 C 1.078125 -2.03125 1.078125 -2.609375 1.765625 -2.609375 C 2.46875 -2.609375 2.46875 -2.03125 2.46875 -1.53125 Z M 2.46875 -1.53125 "/>
</g>
<g id="glyph-0-3">
<path d="M 3.234375 -0.3125 L 3.234375 -2.109375 C 3.234375 -2.765625 2.953125 -3.03125 2.296875 -3.03125 C 1.609375 -3.03125 1.3125 -2.546875 1.234375 -2.375 L 1.234375 -2.6875 C 1.234375 -2.890625 1.1875 -3 0.921875 -3 L 0.703125 -3 C 0.46875 -3 0.390625 -2.9375 0.390625 -2.6875 L 0.390625 -0.3125 C 0.390625 -0.078125 0.453125 0 0.703125 0 L 0.953125 0 C 1.203125 0 1.265625 -0.078125 1.265625 -0.3125 L 1.265625 -1.734375 C 1.265625 -2.296875 1.640625 -2.5625 1.984375 -2.5625 C 2.296875 -2.5625 2.359375 -2.421875 2.359375 -2.09375 L 2.359375 -0.3125 C 2.359375 -0.109375 2.40625 0 2.671875 0 L 2.921875 0 C 3.171875 0 3.234375 -0.078125 3.234375 -0.3125 Z M 3.234375 -0.3125 "/>
</g>
<g id="glyph-0-4">
<path d="M 5.21875 -0.3125 L 5.21875 -2.109375 C 5.21875 -2.765625 4.921875 -3.03125 4.265625 -3.03125 C 3.8125 -3.03125 3.453125 -2.828125 3.21875 -2.390625 C 3.125 -3.015625 2.5625 -3.03125 2.296875 -3.03125 C 2.171875 -3.03125 1.90625 -3.03125 1.609375 -2.828125 C 1.40625 -2.671875 1.28125 -2.46875 1.234375 -2.375 L 1.234375 -2.6875 C 1.234375 -2.890625 1.1875 -3 0.921875 -3 L 0.703125 -3 C 0.46875 -3 0.390625 -2.9375 0.390625 -2.6875 L 0.390625 -0.3125 C 0.390625 -0.078125 0.453125 0 0.703125 0 L 0.953125 0 C 1.203125 0 1.265625 -0.078125 1.265625 -0.3125 L 1.265625 -1.734375 C 1.265625 -2.328125 1.65625 -2.5625 1.984375 -2.5625 C 2.296875 -2.5625 2.359375 -2.4375 2.359375 -2.09375 L 2.359375 -0.3125 C 2.359375 -0.078125 2.4375 0 2.671875 0 L 2.9375 0 C 3.171875 0 3.234375 -0.078125 3.234375 -0.3125 L 3.234375 -1.734375 C 3.234375 -2.328125 3.640625 -2.5625 3.953125 -2.5625 C 4.265625 -2.5625 4.328125 -2.4375 4.328125 -2.09375 L 4.328125 -0.3125 C 4.328125 -0.078125 4.40625 0 4.640625 0 L 4.90625 0 C 5.15625 0 5.21875 -0.078125 5.21875 -0.3125 Z M 5.21875 -0.3125 "/>
</g>
<g id="glyph-0-5">
<path d="M 3.0625 -2.78125 C 3.0625 -2.96875 2.890625 -2.96875 2.796875 -2.96875 L 2.65625 -2.96875 C 2.5625 -2.96875 2.40625 -2.96875 2.3125 -2.8125 C 2.296875 -2.78125 1.765625 -1.359375 1.734375 -0.921875 C 1.703125 -1.234375 1.4375 -1.84375 1.15625 -2.453125 C 0.984375 -2.859375 0.9375 -2.96875 0.609375 -2.96875 L 0.4375 -2.96875 C 0.34375 -2.96875 0.1875 -2.96875 0.1875 -2.796875 C 0.1875 -2.765625 0.203125 -2.71875 0.21875 -2.6875 L 1.4375 0 C 1.390625 0.140625 1.375 0.203125 1.359375 0.265625 C 1.28125 0.484375 1.171875 0.78125 0.8125 0.78125 C 0.609375 0.78125 0.453125 0.6875 0.375 0.640625 C 0.34375 0.625 0.34375 0.609375 0.3125 0.609375 C 0.28125 0.609375 0.234375 0.640625 0.234375 0.71875 C 0.234375 0.765625 0.265625 1.203125 0.296875 1.234375 C 0.34375 1.3125 0.703125 1.328125 0.796875 1.328125 C 1.609375 1.328125 1.921875 0.5625 1.96875 0.40625 L 3.03125 -2.65625 C 3.0625 -2.75 3.0625 -2.75 3.0625 -2.78125 Z M 3.0625 -2.78125 "/>
</g>
<g id="glyph-0-6">
<path d="M 4.171875 -0.375 L 4.125 -0.9375 C 4.125 -0.96875 4.09375 -1 4.046875 -1 C 4.03125 -1 4.015625 -1 4 -0.984375 C 3.828125 -0.859375 3.640625 -0.71875 3.421875 -0.65625 C 3.203125 -0.578125 2.984375 -0.578125 2.765625 -0.578125 C 2.359375 -0.578125 1.953125 -0.6875 1.703125 -0.984375 C 1.40625 -1.328125 1.34375 -1.796875 1.34375 -2.25 C 1.34375 -2.703125 1.40625 -3.15625 1.703125 -3.5 C 1.953125 -3.8125 2.359375 -3.921875 2.765625 -3.921875 C 2.953125 -3.921875 3.15625 -3.890625 3.34375 -3.828125 C 3.53125 -3.75 3.6875 -3.640625 3.84375 -3.5 C 3.859375 -3.5 3.875 -3.484375 3.890625 -3.484375 C 3.9375 -3.484375 3.96875 -3.515625 3.984375 -3.546875 L 4.09375 -4.25 C 4.09375 -4.296875 4.078125 -4.328125 4.046875 -4.328125 C 3.84375 -4.40625 3.625 -4.46875 3.421875 -4.515625 C 3.203125 -4.546875 2.96875 -4.5625 2.765625 -4.5625 C 2.109375 -4.5625 1.453125 -4.4375 0.984375 -3.984375 C 0.53125 -3.53125 0.390625 -2.890625 0.390625 -2.25 C 0.390625 -1.609375 0.53125 -0.953125 0.984375 -0.515625 C 1.453125 -0.0625 2.109375 0.078125 2.765625 0.078125 C 3 0.078125 3.25 0.0625 3.484375 0 C 3.71875 -0.0625 3.921875 -0.171875 4.140625 -0.296875 C 4.15625 -0.3125 4.171875 -0.34375 4.171875 -0.375 Z M 4.171875 -0.375 "/>
</g>
<g id="glyph-0-7">
<path d="M 1.25 -0.3125 L 1.25 -4.171875 C 1.25 -4.390625 1.203125 -4.484375 0.9375 -4.484375 L 0.703125 -4.484375 C 0.46875 -4.484375 0.390625 -4.421875 0.390625 -4.171875 L 0.390625 -0.3125 C 0.390625 -0.078125 0.46875 0 0.703125 0 L 0.9375 0 C 1.1875 0 1.25 -0.078125 1.25 -0.3125 Z M 1.25 -0.3125 "/>
</g>
<g id="glyph-0-8">
<path d="M 1.25 -0.3125 L 1.25 -2.65625 C 1.25 -2.859375 1.203125 -2.96875 0.9375 -2.96875 L 0.703125 -2.96875 C 0.46875 -2.96875 0.390625 -2.890625 0.390625 -2.65625 L 0.390625 -0.3125 C 0.390625 -0.078125 0.46875 0 0.703125 0 L 0.9375 0 C 1.1875 0 1.25 -0.078125 1.25 -0.3125 Z M 1.296875 -3.921875 L 1.296875 -4.046875 C 1.296875 -4.25 1.25 -4.359375 0.984375 -4.359375 L 0.65625 -4.359375 C 0.40625 -4.359375 0.34375 -4.265625 0.34375 -4.046875 L 0.34375 -3.921875 C 0.34375 -3.734375 0.375 -3.609375 0.65625 -3.609375 L 0.984375 -3.609375 C 1.265625 -3.609375 1.296875 -3.71875 1.296875 -3.921875 Z M 1.296875 -3.921875 "/>
</g>
<g id="glyph-0-9">
<path d="M 3.0625 -0.3125 L 3.0625 -2.046875 C 3.0625 -3.0625 2.078125 -3.078125 1.765625 -3.078125 C 1.453125 -3.078125 1.125 -3.046875 0.703125 -2.859375 C 0.5625 -2.8125 0.53125 -2.78125 0.53125 -2.71875 C 0.53125 -2.671875 0.5625 -2.296875 0.578125 -2.25 C 0.578125 -2.203125 0.609375 -2.171875 0.65625 -2.171875 C 0.6875 -2.171875 0.71875 -2.1875 0.734375 -2.21875 C 1.015625 -2.5 1.328125 -2.640625 1.734375 -2.640625 C 2.078125 -2.640625 2.1875 -2.4375 2.1875 -2.046875 L 2.1875 -1.828125 C 1.953125 -1.828125 0.265625 -1.8125 0.265625 -0.859375 C 0.265625 -0.40625 0.625 0.078125 1.203125 0.078125 C 1.421875 0.078125 1.90625 0 2.203125 -0.4375 L 2.203125 -0.3125 C 2.203125 -0.109375 2.25 0 2.515625 0 L 2.75 0 C 3 0 3.0625 -0.078125 3.0625 -0.3125 Z M 2.1875 -1 C 2.1875 -0.390625 1.578125 -0.390625 1.546875 -0.390625 C 1.28125 -0.390625 1.109375 -0.625 1.109375 -0.875 C 1.109375 -1.5 2 -1.546875 2.1875 -1.5625 Z M 2.1875 -1 "/>
</g>
<g id="glyph-0-10">
<path d="M 2.40625 -0.296875 C 2.40625 -0.328125 2.40625 -0.375 2.359375 -0.5 C 2.328125 -0.640625 2.3125 -0.671875 2.25 -0.671875 C 2.21875 -0.671875 2.21875 -0.671875 2.1875 -0.625 C 2.109375 -0.578125 1.9375 -0.4375 1.65625 -0.4375 C 1.5 -0.4375 1.40625 -0.546875 1.40625 -0.96875 L 1.40625 -2.5 L 1.984375 -2.5 C 2.0625 -2.5 2.296875 -2.5 2.296875 -2.734375 C 2.296875 -2.96875 2.0625 -2.96875 1.984375 -2.96875 L 1.40625 -2.96875 L 1.40625 -3.5 C 1.40625 -3.703125 1.359375 -3.8125 1.09375 -3.8125 L 0.90625 -3.8125 C 0.671875 -3.8125 0.59375 -3.734375 0.59375 -3.5 L 0.59375 -2.96875 L 0.4375 -2.96875 C 0.375 -2.96875 0.125 -2.96875 0.125 -2.734375 C 0.125 -2.5 0.359375 -2.5 0.4375 -2.5 L 0.5625 -2.5 L 0.5625 -0.859375 C 0.5625 -0.203125 0.796875 0.078125 1.25 0.078125 C 1.3125 0.078125 1.59375 0.078125 1.921875 -0.03125 C 2.03125 -0.0625 2.40625 -0.1875 2.40625 -0.296875 Z M 2.40625 -0.296875 "/>
</g>
<g id="glyph-0-11">
<path d="M 3.09375 -1.6875 C 3.09375 -2.515625 2.703125 -3.078125 1.75 -3.078125 C 0.71875 -3.078125 0.203125 -2.484375 0.203125 -1.5 C 0.203125 -0.453125 0.8125 0.078125 1.828125 0.078125 C 2.078125 0.078125 2.4375 0.03125 2.875 -0.171875 C 3.015625 -0.25 3.0625 -0.265625 3.0625 -0.34375 C 3.0625 -0.390625 3.046875 -0.578125 3.03125 -0.625 C 3.015625 -0.828125 3 -0.828125 2.9375 -0.828125 C 2.921875 -0.828125 2.90625 -0.828125 2.828125 -0.765625 C 2.453125 -0.4375 2.0625 -0.390625 1.859375 -0.390625 C 1.125 -0.390625 1.046875 -0.96875 1.03125 -1.390625 L 2.78125 -1.390625 C 2.9375 -1.390625 3.09375 -1.390625 3.09375 -1.6875 Z M 2.375 -1.734375 L 1.03125 -1.734375 C 1.046875 -2.125 1.1875 -2.609375 1.75 -2.609375 C 2.265625 -2.609375 2.359375 -2.234375 2.375 -1.734375 Z M 2.375 -1.734375 "/>
</g>
<g id="glyph-0-12">
<path d="M 4.734375 -2.21875 C 4.734375 -2.71875 4.65625 -3.34375 4.28125 -3.8125 C 3.796875 -4.40625 3.03125 -4.484375 2.609375 -4.484375 L 0.90625 -4.484375 C 0.671875 -4.484375 0.59375 -4.421875 0.59375 -4.171875 L 0.59375 -0.3125 C 0.59375 -0.078125 0.65625 0 0.90625 0 L 2.609375 0 C 4.1875 0 4.734375 -0.9375 4.734375 -2.21875 Z M 3.796875 -2.21875 C 3.796875 -1.484375 3.734375 -0.5625 2.359375 -0.5625 L 1.515625 -0.5625 L 1.515625 -3.9375 L 2.34375 -3.9375 C 3.75 -3.9375 3.796875 -2.9375 3.796875 -2.21875 Z M 3.796875 -2.21875 "/>
</g>
<g id="glyph-0-13">
<path d="M 3.453125 -2.625 C 3.453125 -2.640625 3.421875 -2.796875 3.40625 -2.859375 C 3.390625 -3.015625 3.390625 -3.03125 3.265625 -3.03125 C 3.0625 -3.03125 2.75 -2.953125 2.5 -2.8125 C 2.1875 -3.015625 1.859375 -3.03125 1.578125 -3.03125 C 1.3125 -3.03125 0.28125 -3.03125 0.28125 -1.96875 C 0.28125 -1.703125 0.34375 -1.390625 0.59375 -1.171875 C 0.421875 -0.9375 0.421875 -0.671875 0.421875 -0.640625 C 0.421875 -0.53125 0.453125 -0.3125 0.59375 -0.140625 C 0.5 -0.09375 0.15625 0.015625 0.15625 0.4375 C 0.15625 0.640625 0.265625 0.96875 0.671875 1.15625 C 1.03125 1.328125 1.46875 1.328125 1.765625 1.328125 C 2.15625 1.328125 3.390625 1.328125 3.390625 0.40625 C 3.390625 -0.59375 2.484375 -0.59375 1.609375 -0.59375 L 1.296875 -0.59375 C 1.0625 -0.59375 0.96875 -0.59375 0.875 -0.671875 C 0.859375 -0.703125 0.75 -0.796875 0.75 -0.96875 C 0.75 -1.015625 0.75 -1.015625 0.75 -1.0625 C 1.0625 -0.890625 1.4375 -0.890625 1.578125 -0.890625 C 1.84375 -0.890625 2.875 -0.890625 2.875 -1.953125 C 2.875 -2.328125 2.734375 -2.5625 2.671875 -2.625 C 2.78125 -2.625 3.015625 -2.625 3.28125 -2.5625 C 3.3125 -2.546875 3.34375 -2.53125 3.375 -2.53125 C 3.421875 -2.53125 3.453125 -2.578125 3.453125 -2.625 Z M 2.046875 -1.96875 C 2.046875 -1.609375 2.03125 -1.359375 1.578125 -1.359375 C 1.125 -1.359375 1.109375 -1.609375 1.109375 -1.953125 C 1.109375 -2.3125 1.125 -2.5625 1.578125 -2.5625 C 2.03125 -2.5625 2.046875 -2.328125 2.046875 -1.96875 Z M 2.71875 0.4375 C 2.71875 0.859375 1.984375 0.859375 1.78125 0.859375 C 1.515625 0.859375 0.828125 0.859375 0.828125 0.40625 C 0.828125 0.109375 1.03125 0.109375 1.171875 0.109375 L 1.921875 0.109375 C 2.453125 0.109375 2.71875 0.203125 2.71875 0.4375 Z M 2.71875 0.4375 "/>
</g>
<g id="glyph-0-14">
<path d="M 2.5625 -0.90625 C 2.5625 -1.28125 2.375 -1.5 2.25 -1.609375 C 2 -1.84375 1.765625 -1.875 1.5 -1.921875 C 1.140625 -2 0.875 -2.046875 0.875 -2.296875 C 0.875 -2.5625 1.09375 -2.609375 1.34375 -2.609375 C 1.78125 -2.609375 2.015625 -2.453125 2.1875 -2.3125 C 2.25 -2.25 2.25 -2.25 2.28125 -2.25 C 2.34375 -2.25 2.359375 -2.296875 2.375 -2.328125 C 2.375 -2.375 2.4375 -2.75 2.4375 -2.78125 C 2.4375 -2.875 2.109375 -2.96875 2.03125 -3 C 1.765625 -3.0625 1.5625 -3.078125 1.390625 -3.078125 C 1.109375 -3.078125 0.234375 -3.078125 0.234375 -2.140625 C 0.234375 -1.828125 0.375 -1.640625 0.5625 -1.484375 C 0.78125 -1.28125 1.03125 -1.234375 1.40625 -1.15625 C 1.59375 -1.125 1.921875 -1.0625 1.921875 -0.78125 C 1.921875 -0.484375 1.671875 -0.4375 1.421875 -0.4375 C 1.125 -0.4375 0.765625 -0.515625 0.46875 -0.875 C 0.4375 -0.90625 0.40625 -0.9375 0.375 -0.9375 C 0.3125 -0.9375 0.296875 -0.875 0.296875 -0.828125 C 0.28125 -0.75 0.203125 -0.375 0.203125 -0.3125 C 0.203125 -0.1875 0.6875 -0.03125 0.6875 -0.03125 C 1.046875 0.078125 1.3125 0.078125 1.421875 0.078125 C 1.75 0.078125 2.5625 0.046875 2.5625 -0.90625 Z M 2.5625 -0.90625 "/>
</g>
<g id="glyph-1-0">
<path d="M 3.984375 -1.359375 C 3.984375 -1.40625 3.984375 -1.46875 3.90625 -1.46875 C 3.828125 -1.46875 3.828125 -1.421875 3.828125 -1.375 C 3.78125 -0.484375 3.078125 -0.046875 2.484375 -0.046875 C 1.984375 -0.046875 0.921875 -0.359375 0.921875 -2 C 0.921875 -3.625 1.984375 -3.921875 2.46875 -3.921875 C 3.046875 -3.921875 3.65625 -3.484375 3.796875 -2.546875 C 3.8125 -2.46875 3.8125 -2.4375 3.890625 -2.4375 C 3.984375 -2.4375 3.984375 -2.46875 3.984375 -2.59375 L 3.984375 -3.953125 C 3.984375 -4.0625 3.984375 -4.109375 3.921875 -4.109375 C 3.875 -4.109375 3.859375 -4.09375 3.828125 -4.03125 L 3.53125 -3.609375 C 3.34375 -3.78125 3 -4.109375 2.421875 -4.109375 C 1.28125 -4.109375 0.328125 -3.171875 0.328125 -2 C 0.328125 -0.796875 1.296875 0.125 2.421875 0.125 C 3.390625 0.125 3.984375 -0.671875 3.984375 -1.359375 Z M 3.984375 -1.359375 "/>
</g>
<g id="glyph-1-1">
<path d="M 4.3125 -1.96875 C 4.3125 -3.171875 3.421875 -4.109375 2.328125 -4.109375 C 1.234375 -4.109375 0.328125 -3.15625 0.328125 -1.96875 C 0.328125 -0.796875 1.234375 0.125 2.328125 0.125 C 3.40625 0.125 4.3125 -0.796875 4.3125 -1.96875 Z M 3.71875 -2.0625 C 3.71875 -0.5625 2.921875 -0.046875 2.328125 -0.046875 C 1.734375 -0.046875 0.921875 -0.5625 0.921875 -2.0625 C 0.921875 -3.484375 1.765625 -3.953125 2.328125 -3.953125 C 2.890625 -3.953125 3.71875 -3.484375 3.71875 -2.0625 Z M 3.71875 -2.0625 "/>
</g>
<g id="glyph-1-2">
<path d="M 2.484375 -0.6875 C 2.484375 -0.734375 2.453125 -0.765625 2.40625 -0.765625 C 2.34375 -0.765625 2.328125 -0.734375 2.328125 -0.703125 C 2.125 -0.109375 1.609375 -0.09375 1.515625 -0.09375 C 1.234375 -0.09375 1 -0.25 0.875 -0.453125 C 0.671875 -0.734375 0.671875 -1.09375 0.671875 -1.328125 L 2.328125 -1.328125 C 2.453125 -1.328125 2.484375 -1.328125 2.484375 -1.453125 C 2.484375 -2.0625 2.15625 -2.609375 1.421875 -2.609375 C 0.71875 -2.609375 0.171875 -2 0.171875 -1.28125 C 0.171875 -0.515625 0.78125 0.0625 1.484375 0.0625 C 2.203125 0.0625 2.484375 -0.5625 2.484375 -0.6875 Z M 2.09375 -1.46875 L 0.671875 -1.46875 C 0.734375 -2.375 1.25 -2.46875 1.421875 -2.46875 C 1.734375 -2.46875 2.09375 -2.21875 2.09375 -1.46875 Z M 2.09375 -1.46875 "/>
</g>
<g id="glyph-1-3">
<path d="M 4.859375 0 L 4.859375 -0.1875 C 4.5625 -0.1875 4.40625 -0.1875 4.40625 -0.359375 L 4.40625 -1.484375 C 4.40625 -1.984375 4.40625 -2.15625 4.21875 -2.359375 C 4.09375 -2.5 3.859375 -2.578125 3.59375 -2.578125 C 3.171875 -2.578125 2.890625 -2.328125 2.71875 -2.015625 C 2.65625 -2.359375 2.421875 -2.578125 1.921875 -2.578125 C 1.46875 -2.578125 1.171875 -2.265625 1.0625 -2 L 1.046875 -2 L 1.046875 -2.578125 L 0.203125 -2.515625 L 0.203125 -2.328125 C 0.59375 -2.328125 0.65625 -2.296875 0.65625 -2 L 0.65625 -0.453125 C 0.65625 -0.1875 0.59375 -0.1875 0.203125 -0.1875 L 0.203125 0 C 0.484375 -0.015625 0.59375 -0.015625 0.875 -0.015625 C 1.140625 -0.015625 1.21875 -0.015625 1.53125 0 L 1.53125 -0.1875 C 1.140625 -0.1875 1.078125 -0.1875 1.078125 -0.453125 L 1.078125 -1.515625 C 1.078125 -2.140625 1.53125 -2.4375 1.890625 -2.4375 C 2.203125 -2.4375 2.3125 -2.203125 2.3125 -1.796875 L 2.3125 -0.453125 C 2.3125 -0.1875 2.25 -0.1875 1.859375 -0.1875 L 1.859375 0 C 2.140625 -0.015625 2.25 -0.015625 2.53125 -0.015625 C 2.8125 -0.015625 2.890625 -0.015625 3.1875 0 L 3.1875 -0.1875 C 2.8125 -0.1875 2.75 -0.1875 2.75 -0.453125 L 2.75 -1.515625 C 2.75 -2.140625 3.203125 -2.4375 3.546875 -2.4375 C 3.875 -2.4375 3.96875 -2.203125 3.96875 -1.796875 L 3.96875 -0.453125 C 3.96875 -0.1875 3.90625 -0.1875 3.53125 -0.1875 L 3.53125 0 C 3.796875 -0.015625 3.90625 -0.015625 4.1875 -0.015625 C 4.46875 -0.015625 4.546875 -0.015625 4.859375 0 Z M 4.859375 0 "/>
</g>
<g id="glyph-1-4">
<path d="M 1.46875 0 L 1.46875 -0.1875 C 1.09375 -0.1875 1.078125 -0.203125 1.078125 -0.4375 L 1.078125 -2.578125 L 0.234375 -2.515625 L 0.234375 -2.328125 C 0.609375 -2.328125 0.65625 -2.296875 0.65625 -2.015625 L 0.65625 -0.453125 C 0.65625 -0.1875 0.59375 -0.1875 0.203125 -0.1875 L 0.203125 0 C 0.46875 -0.015625 0.59375 -0.015625 0.84375 -0.015625 C 0.9375 -0.015625 1.1875 -0.015625 1.46875 0 Z M 1.140625 -3.515625 C 1.140625 -3.6875 1.015625 -3.828125 0.828125 -3.828125 C 0.65625 -3.828125 0.515625 -3.6875 0.515625 -3.515625 C 0.515625 -3.34375 0.65625 -3.203125 0.828125 -3.203125 C 1.015625 -3.203125 1.140625 -3.34375 1.140625 -3.515625 Z M 1.140625 -3.515625 "/>
</g>
<g id="glyph-1-5">
<path d="M 2.15625 -0.75 C 2.15625 -1.015625 2.046875 -1.171875 1.90625 -1.296875 C 1.71875 -1.484375 1.5 -1.53125 1.078125 -1.609375 C 0.921875 -1.640625 0.5 -1.71875 0.5 -2.046875 C 0.5 -2.234375 0.625 -2.484375 1.15625 -2.484375 C 1.796875 -2.484375 1.828125 -2 1.84375 -1.859375 C 1.84375 -1.78125 1.84375 -1.75 1.921875 -1.75 C 2 -1.75 2 -1.796875 2 -1.90625 L 2 -2.453125 C 2 -2.5625 2 -2.609375 1.9375 -2.609375 C 1.90625 -2.609375 1.890625 -2.609375 1.8125 -2.546875 C 1.8125 -2.53125 1.75 -2.484375 1.71875 -2.453125 C 1.53125 -2.578125 1.359375 -2.609375 1.15625 -2.609375 C 0.390625 -2.609375 0.203125 -2.1875 0.203125 -1.890625 C 0.203125 -1.703125 0.28125 -1.546875 0.40625 -1.421875 C 0.609375 -1.234375 0.828125 -1.203125 1.125 -1.140625 C 1.421875 -1.09375 1.53125 -1.078125 1.65625 -0.96875 C 1.71875 -0.921875 1.859375 -0.8125 1.859375 -0.59375 C 1.859375 -0.078125 1.265625 -0.078125 1.1875 -0.078125 C 0.59375 -0.078125 0.4375 -0.578125 0.375 -0.890625 C 0.359375 -0.953125 0.34375 -0.984375 0.28125 -0.984375 C 0.203125 -0.984375 0.203125 -0.9375 0.203125 -0.828125 L 0.203125 -0.09375 C 0.203125 0.015625 0.203125 0.0625 0.265625 0.0625 C 0.296875 0.0625 0.3125 0.0625 0.40625 -0.046875 C 0.4375 -0.09375 0.5 -0.15625 0.53125 -0.1875 C 0.78125 0.046875 1.046875 0.0625 1.1875 0.0625 C 1.90625 0.0625 2.15625 -0.359375 2.15625 -0.75 Z M 2.15625 -0.75 "/>
</g>
<g id="glyph-1-6">
<path d="M 2.828125 -1.234375 C 2.828125 -2 2.21875 -2.609375 1.5 -2.609375 C 0.75 -2.609375 0.171875 -1.984375 0.171875 -1.234375 C 0.171875 -0.515625 0.78125 0.0625 1.484375 0.0625 C 2.234375 0.0625 2.828125 -0.53125 2.828125 -1.234375 Z M 2.3125 -1.296875 C 2.3125 -1.078125 2.3125 -0.734375 2.171875 -0.484375 C 2.015625 -0.21875 1.75 -0.09375 1.5 -0.09375 C 1.203125 -0.09375 0.96875 -0.25 0.828125 -0.46875 C 0.671875 -0.71875 0.671875 -1.03125 0.671875 -1.296875 C 0.671875 -1.515625 0.671875 -1.84375 0.8125 -2.078125 C 0.984375 -2.375 1.28125 -2.46875 1.484375 -2.46875 C 1.828125 -2.46875 2.0625 -2.28125 2.1875 -2.078125 C 2.3125 -1.828125 2.3125 -1.53125 2.3125 -1.296875 Z M 2.3125 -1.296875 "/>
</g>
<g id="glyph-1-7">
<path d="M 3.1875 0 L 3.1875 -0.1875 C 2.890625 -0.1875 2.75 -0.1875 2.734375 -0.359375 L 2.734375 -1.484375 C 2.734375 -1.96875 2.734375 -2.140625 2.578125 -2.34375 C 2.4375 -2.5 2.21875 -2.578125 1.921875 -2.578125 C 1.390625 -2.578125 1.140625 -2.171875 1.0625 -2.015625 L 1.046875 -2.015625 L 1.046875 -2.578125 L 0.203125 -2.515625 L 0.203125 -2.328125 C 0.59375 -2.328125 0.65625 -2.296875 0.65625 -2 L 0.65625 -0.453125 C 0.65625 -0.1875 0.59375 -0.1875 0.203125 -0.1875 L 0.203125 0 C 0.484375 -0.015625 0.59375 -0.015625 0.875 -0.015625 C 1.140625 -0.015625 1.21875 -0.015625 1.53125 0 L 1.53125 -0.1875 C 1.140625 -0.1875 1.078125 -0.1875 1.078125 -0.453125 L 1.078125 -1.515625 C 1.078125 -2.125 1.515625 -2.4375 1.890625 -2.4375 C 2.234375 -2.4375 2.3125 -2.140625 2.3125 -1.796875 L 2.3125 -0.453125 C 2.3125 -0.1875 2.25 -0.1875 1.859375 -0.1875 L 1.859375 0 C 2.140625 -0.015625 2.25 -0.015625 2.53125 -0.015625 C 2.796875 -0.015625 2.875 -0.015625 3.1875 0 Z M 3.1875 0 "/>
</g>
<g id="glyph-1-8">
<path d="M 3.1875 0 L 3.1875 -0.1875 C 2.796875 -0.1875 2.734375 -0.21875 2.734375 -0.5 L 2.734375 -2.578125 L 1.859375 -2.515625 L 1.859375 -2.328125 C 2.25 -2.328125 2.3125 -2.296875 2.3125 -2 L 2.3125 -0.96875 C 2.3125 -0.453125 2.015625 -0.078125 1.59375 -0.078125 C 1.109375 -0.078125 1.078125 -0.328125 1.078125 -0.640625 L 1.078125 -2.578125 L 0.203125 -2.515625 L 0.203125 -2.328125 C 0.65625 -2.328125 0.65625 -2.3125 0.65625 -1.796875 L 0.65625 -0.921875 C 0.65625 -0.546875 0.65625 -0.296875 0.921875 -0.09375 C 1.09375 0.015625 1.328125 0.0625 1.5625 0.0625 C 1.859375 0.0625 2.15625 -0.0625 2.3125 -0.421875 L 2.328125 -0.421875 L 2.328125 0.0625 Z M 3.1875 0 "/>
</g>
<g id="glyph-1-9">
<path d="M 2 -0.71875 L 2 -1.0625 L 1.828125 -1.0625 L 1.828125 -0.734375 C 1.828125 -0.3125 1.65625 -0.09375 1.4375 -0.09375 C 1.046875 -0.09375 1.046875 -0.609375 1.046875 -0.71875 L 1.046875 -2.328125 L 1.890625 -2.328125 L 1.890625 -2.515625 L 1.046875 -2.515625 L 1.046875 -3.578125 L 0.890625 -3.578125 C 0.875 -3.09375 0.671875 -2.5 0.109375 -2.484375 L 0.109375 -2.328125 L 0.625 -2.328125 L 0.625 -0.71875 C 0.625 -0.0625 1.09375 0.0625 1.40625 0.0625 C 1.796875 0.0625 2 -0.3125 2 -0.71875 Z M 2 -0.71875 "/>
</g>
<g id="glyph-1-10">
<path d="M 3.125 -1.265625 C 3.125 -2 2.546875 -2.578125 1.859375 -2.578125 C 1.546875 -2.578125 1.265625 -2.453125 1.03125 -2.203125 L 1.03125 -2.578125 L 0.171875 -2.515625 L 0.171875 -2.328125 C 0.59375 -2.328125 0.625 -2.296875 0.625 -2.046875 L 0.625 0.6875 C 0.625 0.953125 0.5625 0.953125 0.171875 0.953125 L 0.171875 1.125 C 0.453125 1.125 0.5625 1.109375 0.84375 1.109375 C 1.125 1.109375 1.1875 1.125 1.5 1.125 L 1.5 0.953125 C 1.125 0.953125 1.0625 0.953125 1.0625 0.6875 L 1.0625 -0.28125 C 1.203125 -0.125 1.40625 0.0625 1.796875 0.0625 C 2.484375 0.0625 3.125 -0.5 3.125 -1.265625 Z M 2.625 -1.265625 C 2.625 -0.59375 2.21875 -0.078125 1.75 -0.078125 C 1.484375 -0.078125 1.265625 -0.234375 1.125 -0.4375 C 1.0625 -0.546875 1.0625 -0.5625 1.0625 -0.671875 L 1.0625 -1.953125 C 1.25 -2.296875 1.578125 -2.40625 1.8125 -2.40625 C 2.265625 -2.40625 2.625 -1.890625 2.625 -1.265625 Z M 2.625 -1.265625 "/>
</g>
<g id="glyph-1-11">
<path d="M 1.515625 0 L 1.515625 -0.1875 C 1.140625 -0.1875 1.078125 -0.1875 1.078125 -0.453125 L 1.078125 -4.046875 L 0.203125 -3.984375 L 0.203125 -3.796875 C 0.609375 -3.796875 0.65625 -3.765625 0.65625 -3.46875 L 0.65625 -0.453125 C 0.65625 -0.1875 0.59375 -0.1875 0.203125 -0.1875 L 0.203125 0 C 0.484375 -0.015625 0.59375 -0.015625 0.859375 -0.015625 C 1.140625 -0.015625 1.234375 -0.015625 1.515625 0 Z M 1.515625 0 "/>
</g>
<g id="glyph-2-0">
<path d="M 2.09375 -0.734375 L 1.953125 -0.734375 C 1.9375 -0.671875 1.90625 -0.421875 1.84375 -0.375 C 1.8125 -0.34375 1.5 -0.34375 1.453125 -0.34375 L 0.71875 -0.34375 L 1.21875 -0.75 C 1.34375 -0.859375 1.703125 -1.109375 1.8125 -1.21875 C 1.9375 -1.34375 2.09375 -1.546875 2.09375 -1.8125 C 2.09375 -2.296875 1.65625 -2.59375 1.125 -2.59375 C 0.625 -2.59375 0.28125 -2.25 0.28125 -1.890625 C 0.28125 -1.6875 0.453125 -1.671875 0.484375 -1.671875 C 0.59375 -1.671875 0.703125 -1.734375 0.703125 -1.875 C 0.703125 -1.96875 0.65625 -2.09375 0.484375 -2.09375 C 0.5625 -2.28125 0.8125 -2.4375 1.078125 -2.4375 C 1.484375 -2.4375 1.703125 -2.125 1.703125 -1.8125 C 1.703125 -1.546875 1.515625 -1.25 1.25 -1 L 0.328125 -0.15625 C 0.28125 -0.125 0.28125 -0.125 0.28125 0 L 1.96875 0 Z M 2.09375 -0.734375 "/>
</g>
<g id="glyph-3-0">
<path d="M 4.703125 -0.046875 C 4.703125 -0.046875 4.703125 -0.0625 4.671875 -0.125 L 2.65625 -4.03125 C 2.609375 -4.140625 2.578125 -4.171875 2.484375 -4.171875 C 2.40625 -4.171875 2.375 -4.140625 2.328125 -4.0625 L 0.328125 -0.140625 C 0.296875 -0.09375 0.28125 -0.046875 0.28125 -0.046875 C 0.28125 0 0.328125 0 0.421875 0 L 4.5625 0 C 4.65625 0 4.703125 0 4.703125 -0.046875 Z M 3.921875 -0.453125 L 0.6875 -0.453125 L 2.296875 -3.59375 Z M 3.921875 -0.453125 "/>
</g>
<g id="glyph-4-0">
<path d="M 4.046875 -2.78125 L 4.203125 -3.78125 C 4.203125 -3.8125 4.203125 -3.84375 4.203125 -3.859375 C 4.203125 -3.953125 4.15625 -3.953125 4.03125 -3.953125 L 0.71875 -3.953125 C 0.578125 -3.953125 0.578125 -3.9375 0.53125 -3.828125 L 0.171875 -2.796875 C 0.15625 -2.734375 0.15625 -2.703125 0.15625 -2.703125 C 0.15625 -2.6875 0.171875 -2.640625 0.234375 -2.640625 C 0.296875 -2.640625 0.296875 -2.671875 0.34375 -2.78125 C 0.65625 -3.6875 0.84375 -3.765625 1.6875 -3.765625 L 1.90625 -3.765625 C 2.078125 -3.765625 2.078125 -3.75 2.078125 -3.703125 C 2.078125 -3.671875 2.0625 -3.625 2.046875 -3.578125 L 1.265625 -0.453125 C 1.21875 -0.25 1.203125 -0.1875 0.578125 -0.1875 C 0.390625 -0.1875 0.34375 -0.1875 0.34375 -0.078125 C 0.34375 0 0.421875 0 0.4375 0 C 0.59375 0 0.765625 -0.015625 0.921875 -0.015625 L 1.90625 -0.015625 L 2.40625 0 C 2.453125 0 2.53125 0 2.53125 -0.109375 C 2.53125 -0.1875 2.484375 -0.1875 2.328125 -0.1875 C 2.1875 -0.1875 2.109375 -0.1875 1.953125 -0.1875 C 1.828125 -0.203125 1.75 -0.21875 1.75 -0.3125 C 1.75 -0.34375 1.765625 -0.390625 1.78125 -0.4375 L 2.5625 -3.546875 C 2.59375 -3.671875 2.609375 -3.734375 2.703125 -3.75 C 2.75 -3.765625 2.9375 -3.765625 3.0625 -3.765625 C 3.734375 -3.765625 3.921875 -3.71875 3.921875 -3.265625 C 3.921875 -3.1875 3.921875 -3.109375 3.875 -2.765625 L 3.875 -2.71875 C 3.875 -2.671875 3.890625 -2.640625 3.953125 -2.640625 C 4.015625 -2.640625 4.03125 -2.6875 4.046875 -2.78125 Z M 4.046875 -2.78125 "/>
</g>
</g>
<clipPath id="clip-0">
<path clip-rule="nonzero" d="M 103 6 L 142.484375 6 L 142.484375 47 L 103 47 Z M 103 6 "/>
</clipPath>
<clipPath id="clip-1">
<path clip-rule="nonzero" d="M 50 69 L 95 69 L 95 112.941406 L 50 112.941406 Z M 50 69 "/>
</clipPath>
</defs>
<path fill-rule="nonzero" fill="rgb(91.999817%, 91.999817%, 95.999146%)" fill-opacity="1" stroke-width="0.3985" stroke-linecap="butt" stroke-linejoin="miter" stroke="rgb(0%, 0%, 50%)" stroke-opacity="1" stroke-miterlimit="10" d="M 16.391813 0.00128125 C 16.391813 9.052063 9.051969 16.391906 0.0011875 16.391906 C -9.0535 16.391906 -16.389437 9.052063 -16.389437 0.00128125 C -16.389437 -9.053406 -9.0535 -16.389344 0.0011875 -16.389344 C 9.051969 -16.389344 16.391813 -9.053406 16.391813 0.00128125 Z M 16.391813 0.00128125 " transform="matrix(1, 0, 0, -1, 21.741, 26.763)"/>
<g fill="rgb(0%, 0%, 0%)" fill-opacity="1">
<use xlink:href="#glyph-0-0" x="8.277" y="28.381"/>
<use xlink:href="#glyph-0-1" x="12.43245" y="28.381"/>
<use xlink:href="#glyph-0-2" x="15.598415" y="28.381"/>
<use xlink:href="#glyph-0-3" x="19.160045" y="28.381"/>
<use xlink:href="#glyph-0-2" x="22.793554" y="28.381"/>
<use xlink:href="#glyph-0-4" x="26.355184" y="28.381"/>
<use xlink:href="#glyph-0-5" x="31.967664" y="28.381"/>
</g>
<path fill-rule="nonzero" fill="rgb(91.999817%, 91.999817%, 95.999146%)" fill-opacity="1" d="M 137.304688 26.761719 C 137.304688 18.90625 130.9375 12.539062 123.078125 12.539062 C 115.222656 12.539062 108.855469 18.90625 108.855469 26.761719 C 108.855469 34.621094 115.222656 40.988281 123.078125 40.988281 C 130.9375 40.988281 137.304688 34.621094 137.304688 26.761719 Z M 137.304688 26.761719 "/>
<g clip-path="url(#clip-0)">
<path fill="none" stroke-width="0.3985" stroke-linecap="butt" stroke-linejoin="miter" stroke="rgb(0%, 0%, 50%)" stroke-opacity="1" stroke-miterlimit="10" d="M 115.563688 0.00128125 C 115.563688 7.85675 109.1965 14.223938 101.337125 14.223938 C 93.481656 14.223938 87.114469 7.85675 87.114469 0.00128125 C 87.114469 -7.858094 93.481656 -14.225281 101.337125 -14.225281 C 109.1965 -14.225281 115.563688 -7.858094 115.563688 0.00128125 Z M 115.563688 0.00128125 " transform="matrix(1, 0, 0, -1, 21.741, 26.763)"/>
</g>
<g fill="rgb(0%, 0%, 0%)" fill-opacity="1">
<use xlink:href="#glyph-0-6" x="111.678" y="29.011"/>
<use xlink:href="#glyph-0-7" x="116.229115" y="29.011"/>
<use xlink:href="#glyph-0-8" x="117.883654" y="29.011"/>
<use xlink:href="#glyph-0-4" x="119.538193" y="29.011"/>
<use xlink:href="#glyph-0-9" x="125.150673" y="29.011"/>
<use xlink:href="#glyph-0-10" x="128.55041" y="29.011"/>
<use xlink:href="#glyph-0-11" x="131.167884" y="29.011"/>
</g>
<path fill-rule="nonzero" fill="rgb(91.999817%, 91.999817%, 95.999146%)" fill-opacity="1" d="M 88.921875 91.25 C 88.921875 82.132812 81.53125 74.738281 72.410156 74.738281 C 63.292969 74.738281 55.898438 82.132812 55.898438 91.25 C 55.898438 100.371094 63.292969 107.761719 72.410156 107.761719 C 81.53125 107.761719 88.921875 100.371094 88.921875 91.25 Z M 88.921875 91.25 "/>
<g clip-path="url(#clip-1)">
<path fill="none" stroke-width="0.3985" stroke-linecap="butt" stroke-linejoin="miter" stroke="rgb(0%, 0%, 50%)" stroke-opacity="1" stroke-miterlimit="10" d="M 67.180875 -64.487 C 67.180875 -55.369812 59.79025 -47.975281 50.669156 -47.975281 C 41.551969 -47.975281 34.157438 -55.369812 34.157438 -64.487 C 34.157438 -73.608094 41.551969 -80.998719 50.669156 -80.998719 C 59.79025 -80.998719 67.180875 -73.608094 67.180875 -64.487 Z M 67.180875 -64.487 " transform="matrix(1, 0, 0, -1, 21.741, 26.763)"/>
</g>
<g fill="rgb(0%, 0%, 0%)" fill-opacity="1">
<use xlink:href="#glyph-0-12" x="58.83" y="92.869"/>
<use xlink:href="#glyph-0-9" x="63.974936" y="92.869"/>
<use xlink:href="#glyph-0-4" x="67.374673" y="92.869"/>
<use xlink:href="#glyph-0-9" x="72.987153" y="92.869"/>
<use xlink:href="#glyph-0-13" x="76.386891" y="92.869"/>
<use xlink:href="#glyph-0-11" x="79.94852" y="92.869"/>
<use xlink:href="#glyph-0-14" x="83.258245" y="92.869"/>
</g>
<path fill="none" stroke-width="0.79701" stroke-linecap="butt" stroke-linejoin="miter" stroke="rgb(0%, 0%, 0%)" stroke-opacity="1" stroke-miterlimit="10" d="M 15.524625 5.649719 C 42.231656 15.063781 61.344938 14.864563 85.426969 5.821594 " transform="matrix(1, 0, 0, -1, 21.741, 26.763)"/>
<path fill-rule="nonzero" fill="rgb(0%, 0%, 0%)" fill-opacity="1" d="M 109.59375 21.851562 L 106.441406 18.457031 L 107.167969 20.941406 L 104.984375 22.335938 "/>
<g fill="rgb(0%, 0%, 0%)" fill-opacity="1">
<use xlink:href="#glyph-1-0" x="54.466" y="11.155"/>
<use xlink:href="#glyph-1-1" x="58.792243" y="11.155"/>
</g>
<g fill="rgb(0%, 0%, 0%)" fill-opacity="1">
<use xlink:href="#glyph-2-0" x="63.45095" y="11.8024"/>
</g>
<g fill="rgb(0%, 0%, 0%)" fill-opacity="1">
<use xlink:href="#glyph-1-2" x="68.1459" y="11.155"/>
<use xlink:href="#glyph-1-3" x="70.810535" y="11.155"/>
<use xlink:href="#glyph-1-4" x="75.801771" y="11.155"/>
<use xlink:href="#glyph-1-5" x="77.465711" y="11.155"/>
<use xlink:href="#glyph-1-5" x="79.828447" y="11.155"/>
<use xlink:href="#glyph-1-4" x="82.191183" y="11.155"/>
<use xlink:href="#glyph-1-6" x="83.855122" y="11.155"/>
<use xlink:href="#glyph-1-7" x="86.850214" y="11.155"/>
<use xlink:href="#glyph-1-5" x="90.178093" y="11.155"/>
</g>
<path fill="none" stroke-width="0.79701" stroke-linecap="butt" stroke-linejoin="miter" stroke="rgb(0%, 0%, 0%)" stroke-opacity="1" stroke-miterlimit="10" d="M 96.868375 -13.639344 C 90.719938 -33.373719 82.204313 -44.5495 66.989469 -54.311219 " transform="matrix(1, 0, 0, -1, 21.741, 26.763)"/>
<path fill-rule="nonzero" fill="rgb(0%, 0%, 0%)" fill-opacity="1" d="M 86.550781 82.476562 L 91.15625 81.980469 L 88.730469 81.074219 L 88.917969 78.492188 "/>
<g fill="rgb(0%, 0%, 0%)" fill-opacity="1">
<use xlink:href="#glyph-3-0" x="109.213" y="66.738"/>
</g>
<g fill="rgb(0%, 0%, 0%)" fill-opacity="1">
<use xlink:href="#glyph-4-0" x="114.204236" y="66.738"/>
</g>
<path fill="none" stroke-width="0.79701" stroke-linecap="butt" stroke-linejoin="miter" stroke="rgb(0%, 0%, 0%)" stroke-opacity="1" stroke-miterlimit="10" d="M 36.536344 -55.709656 C 19.676969 -45.225281 11.317594 -34.565125 5.954313 -18.158875 " transform="matrix(1, 0, 0, -1, 21.741, 26.763)"/>
<path fill-rule="nonzero" fill="rgb(0%, 0%, 0%)" fill-opacity="1" d="M 26.890625 42.460938 L 26.207031 47.042969 L 27.695312 44.921875 L 30.148438 45.753906 "/>
<g fill="rgb(0%, 0%, 0%)" fill-opacity="1">
<use xlink:href="#glyph-1-6" x="7.14" y="67.05"/>
<use xlink:href="#glyph-1-8" x="10.135091" y="67.05"/>
<use xlink:href="#glyph-1-9" x="13.462971" y="67.05"/>
<use xlink:href="#glyph-1-10" x="15.792486" y="67.05"/>
<use xlink:href="#glyph-1-8" x="19.120366" y="67.05"/>
<use xlink:href="#glyph-1-9" x="22.448245" y="67.05"/>
</g>
<g fill="rgb(0%, 0%, 0%)" fill-opacity="1">
<use xlink:href="#glyph-1-11" x="26.770991" y="67.05"/>
<use xlink:href="#glyph-1-6" x="28.434931" y="67.05"/>
<use xlink:href="#glyph-1-5" x="31.430022" y="67.05"/>
<use xlink:href="#glyph-1-5" x="33.792758" y="67.05"/>
</g>
</svg>
