<?xml version="1.0" encoding="UTF-8"?>
<svg xmlns="http://www.w3.org/2000/svg" xmlns:xlink="http://www.w3.org/1999/xlink" width="427.036pt" height="142.643pt" viewBox="0 0 427.036 142.643">
<defs>
<g>
<g id="glyph-0-0">
<path d="M 4.578125 -3.1875 C 4.578125 -3.984375 4.53125 -4.78125 4.1875 -5.515625 C 3.734375 -6.484375 2.90625 -6.640625 2.5 -6.640625 C 1.890625 -6.640625 1.171875 -6.375 0.75 -5.453125 C 0.4375 -4.765625 0.390625 -3.984375 0.390625 -3.1875 C 0.390625 -2.4375 0.421875 -1.546875 0.84375 -0.78125 C 1.265625 0.015625 2 0.21875 2.484375 0.21875 C 3.015625 0.21875 3.78125 0.015625 4.21875 -0.9375 C 4.53125 -1.625 4.578125 -2.40625 4.578125 -3.1875 Z M 3.765625 -3.3125 C 3.765625 -2.5625 3.765625 -1.890625 3.65625 -1.25 C 3.5 -0.296875 2.9375 0 2.484375 0 C 2.09375 0 1.5 -0.25 1.328125 -1.203125 C 1.21875 -1.796875 1.21875 -2.71875 1.21875 -3.3125 C 1.21875 -3.953125 1.21875 -4.609375 1.296875 -5.140625 C 1.484375 -6.328125 2.234375 -6.421875 2.484375 -6.421875 C 2.8125 -6.421875 3.46875 -6.234375 3.65625 -5.25 C 3.765625 -4.6875 3.765625 -3.9375 3.765625 -3.3125 Z M 3.765625 -3.3125 "/>
</g>
<g id="glyph-0-1">
<path d="M 4.46875 -1.734375 L 4.234375 -1.734375 C 4.171875 -1.4375 4.109375 -1 4 -0.84375 C 3.9375 -0.765625 3.28125 -0.765625 3.0625 -0.765625 L 1.265625 -0.765625 L 2.328125 -1.796875 C 3.875 -3.171875 4.46875 -3.703125 4.46875 -4.703125 C 4.46875 -5.84375 3.578125 -6.640625 2.359375 -6.640625 C 1.234375 -6.640625 0.5 -5.71875 0.5 -4.828125 C 0.5 -4.28125 1 -4.28125 1.03125 -4.28125 C 1.203125 -4.28125 1.546875 -4.390625 1.546875 -4.8125 C 1.546875 -5.0625 1.359375 -5.328125 1.015625 -5.328125 C 0.9375 -5.328125 0.921875 -5.328125 0.890625 -5.3125 C 1.109375 -5.96875 1.65625 -6.328125 2.234375 -6.328125 C 3.140625 -6.328125 3.5625 -5.515625 3.5625 -4.703125 C 3.5625 -3.90625 3.078125 -3.125 2.515625 -2.5 L 0.609375 -0.375 C 0.5 -0.265625 0.5 -0.234375 0.5 0 L 4.203125 0 Z M 4.46875 -1.734375 "/>
</g>
<g id="glyph-0-2">
<path d="M 4.6875 -1.640625 L 4.6875 -1.953125 L 3.703125 -1.953125 L 3.703125 -6.484375 C 3.703125 -6.6875 3.703125 -6.75 3.53125 -6.75 C 3.453125 -6.75 3.421875 -6.75 3.34375 -6.625 L 0.28125 -1.953125 L 0.28125 -1.640625 L 2.9375 -1.640625 L 2.9375 -0.78125 C 2.9375 -0.421875 2.90625 -0.3125 2.171875 -0.3125 L 1.96875 -0.3125 L 1.96875 0 C 2.375 -0.03125 2.890625 -0.03125 3.3125 -0.03125 C 3.734375 -0.03125 4.25 -0.03125 4.671875 0 L 4.671875 -0.3125 L 4.453125 -0.3125 C 3.71875 -0.3125 3.703125 -0.421875 3.703125 -0.78125 L 3.703125 -1.640625 Z M 2.984375 -1.953125 L 0.5625 -1.953125 L 2.984375 -5.671875 Z M 2.984375 -1.953125 "/>
</g>
<g id="glyph-0-3">
<path d="M 4.5625 -2.03125 C 4.5625 -3.296875 3.671875 -4.25 2.5625 -4.25 C 1.890625 -4.25 1.515625 -3.75 1.3125 -3.265625 L 1.3125 -3.515625 C 1.3125 -6.03125 2.546875 -6.390625 3.0625 -6.390625 C 3.296875 -6.390625 3.71875 -6.328125 3.9375 -5.984375 C 3.78125 -5.984375 3.390625 -5.984375 3.390625 -5.546875 C 3.390625 -5.234375 3.625 -5.078125 3.84375 -5.078125 C 4 -5.078125 4.3125 -5.171875 4.3125 -5.5625 C 4.3125 -6.15625 3.875 -6.640625 3.046875 -6.640625 C 1.765625 -6.640625 0.421875 -5.359375 0.421875 -3.15625 C 0.421875 -0.484375 1.578125 0.21875 2.5 0.21875 C 3.609375 0.21875 4.5625 -0.71875 4.5625 -2.03125 Z M 3.65625 -2.046875 C 3.65625 -1.5625 3.65625 -1.0625 3.484375 -0.703125 C 3.1875 -0.109375 2.734375 -0.0625 2.5 -0.0625 C 1.875 -0.0625 1.578125 -0.65625 1.515625 -0.8125 C 1.328125 -1.28125 1.328125 -2.078125 1.328125 -2.25 C 1.328125 -3.03125 1.65625 -4.03125 2.546875 -4.03125 C 2.71875 -4.03125 3.171875 -4.03125 3.484375 -3.40625 C 3.65625 -3.046875 3.65625 -2.53125 3.65625 -2.046875 Z M 3.65625 -2.046875 "/>
</g>
<g id="glyph-0-4">
<path d="M 4.5625 -1.671875 C 4.5625 -2.03125 4.453125 -2.484375 4.0625 -2.90625 C 3.875 -3.109375 3.71875 -3.203125 3.078125 -3.609375 C 3.796875 -3.984375 4.28125 -4.5 4.28125 -5.15625 C 4.28125 -6.078125 3.40625 -6.640625 2.5 -6.640625 C 1.5 -6.640625 0.6875 -5.90625 0.6875 -4.96875 C 0.6875 -4.796875 0.703125 -4.34375 1.125 -3.875 C 1.234375 -3.765625 1.609375 -3.515625 1.859375 -3.34375 C 1.28125 -3.046875 0.421875 -2.5 0.421875 -1.5 C 0.421875 -0.453125 1.4375 0.21875 2.484375 0.21875 C 3.609375 0.21875 4.5625 -0.609375 4.5625 -1.671875 Z M 3.84375 -5.15625 C 3.84375 -4.578125 3.453125 -4.109375 2.859375 -3.765625 L 1.625 -4.5625 C 1.171875 -4.859375 1.125 -5.1875 1.125 -5.359375 C 1.125 -5.96875 1.78125 -6.390625 2.484375 -6.390625 C 3.203125 -6.390625 3.84375 -5.875 3.84375 -5.15625 Z M 4.0625 -1.3125 C 4.0625 -0.578125 3.3125 -0.0625 2.5 -0.0625 C 1.640625 -0.0625 0.921875 -0.671875 0.921875 -1.5 C 0.921875 -2.078125 1.234375 -2.71875 2.078125 -3.1875 L 3.3125 -2.40625 C 3.59375 -2.21875 4.0625 -1.921875 4.0625 -1.3125 Z M 4.0625 -1.3125 "/>
</g>
<g id="glyph-0-5">
<path d="M 4.171875 0 L 4.171875 -0.3125 L 3.859375 -0.3125 C 2.953125 -0.3125 2.9375 -0.421875 2.9375 -0.78125 L 2.9375 -6.375 C 2.9375 -6.625 2.9375 -6.640625 2.703125 -6.640625 C 2.078125 -6 1.203125 -6 0.890625 -6 L 0.890625 -5.6875 C 1.09375 -5.6875 1.671875 -5.6875 2.1875 -5.953125 L 2.1875 -0.78125 C 2.1875 -0.421875 2.15625 -0.3125 1.265625 -0.3125 L 0.953125 -0.3125 L 0.953125 0 C 1.296875 -0.03125 2.15625 -0.03125 2.5625 -0.03125 C 2.953125 -0.03125 3.828125 -0.03125 4.171875 0 Z M 4.171875 0 "/>
</g>
<g id="glyph-0-6">
<path d="M 4.46875 -2 C 4.46875 -3.1875 3.65625 -4.1875 2.578125 -4.1875 C 2.109375 -4.1875 1.671875 -4.03125 1.3125 -3.671875 L 1.3125 -5.625 C 1.515625 -5.5625 1.84375 -5.5 2.15625 -5.5 C 3.390625 -5.5 4.09375 -6.40625 4.09375 -6.53125 C 4.09375 -6.59375 4.0625 -6.640625 3.984375 -6.640625 C 3.984375 -6.640625 3.953125 -6.640625 3.90625 -6.609375 C 3.703125 -6.515625 3.21875 -6.3125 2.546875 -6.3125 C 2.15625 -6.3125 1.6875 -6.390625 1.21875 -6.59375 C 1.140625 -6.625 1.109375 -6.625 1.109375 -6.625 C 1 -6.625 1 -6.546875 1 -6.390625 L 1 -3.4375 C 1 -3.265625 1 -3.1875 1.140625 -3.1875 C 1.21875 -3.1875 1.234375 -3.203125 1.28125 -3.265625 C 1.390625 -3.421875 1.75 -3.96875 2.5625 -3.96875 C 3.078125 -3.96875 3.328125 -3.515625 3.40625 -3.328125 C 3.5625 -2.953125 3.59375 -2.578125 3.59375 -2.078125 C 3.59375 -1.71875 3.59375 -1.125 3.34375 -0.703125 C 3.109375 -0.3125 2.734375 -0.0625 2.28125 -0.0625 C 1.5625 -0.0625 0.984375 -0.59375 0.8125 -1.171875 C 0.84375 -1.171875 0.875 -1.15625 0.984375 -1.15625 C 1.3125 -1.15625 1.484375 -1.40625 1.484375 -1.640625 C 1.484375 -1.890625 1.3125 -2.140625 0.984375 -2.140625 C 0.84375 -2.140625 0.5 -2.0625 0.5 -1.609375 C 0.5 -0.75 1.1875 0.21875 2.296875 0.21875 C 3.453125 0.21875 4.46875 -0.734375 4.46875 -2 Z M 4.46875 -2 "/>
</g>
<g id="glyph-1-0">
<path d="M 1.90625 -0.53125 C 1.90625 -0.8125 1.671875 -1.0625 1.390625 -1.0625 C 1.09375 -1.0625 0.859375 -0.8125 0.859375 -0.53125 C 0.859375 -0.234375 1.09375 0 1.390625 0 C 1.671875 0 1.90625 -0.234375 1.90625 -0.53125 Z M 1.90625 -0.53125 "/>
</g>
<g id="glyph-1-1">
<path d="M 4.9375 -1.421875 C 4.9375 -1.53125 4.859375 -1.53125 4.828125 -1.53125 C 4.734375 -1.53125 4.71875 -1.484375 4.6875 -1.421875 C 4.359375 -0.34375 3.6875 -0.109375 3.375 -0.109375 C 2.984375 -0.109375 2.828125 -0.421875 2.828125 -0.765625 C 2.828125 -0.984375 2.875 -1.203125 2.984375 -1.640625 L 3.328125 -3.015625 C 3.390625 -3.265625 3.625 -4.1875 4.3125 -4.1875 C 4.359375 -4.1875 4.609375 -4.1875 4.8125 -4.0625 C 4.53125 -4 4.34375 -3.765625 4.34375 -3.515625 C 4.34375 -3.359375 4.453125 -3.171875 4.71875 -3.171875 C 4.9375 -3.171875 5.25 -3.34375 5.25 -3.75 C 5.25 -4.265625 4.671875 -4.40625 4.328125 -4.40625 C 3.75 -4.40625 3.40625 -3.875 3.28125 -3.65625 C 3.03125 -4.3125 2.5 -4.40625 2.203125 -4.40625 C 1.171875 -4.40625 0.59375 -3.125 0.59375 -2.875 C 0.59375 -2.765625 0.71875 -2.765625 0.71875 -2.765625 C 0.796875 -2.765625 0.828125 -2.796875 0.84375 -2.875 C 1.1875 -3.9375 1.84375 -4.1875 2.1875 -4.1875 C 2.375 -4.1875 2.71875 -4.09375 2.71875 -3.515625 C 2.71875 -3.203125 2.546875 -2.546875 2.1875 -1.140625 C 2.03125 -0.53125 1.671875 -0.109375 1.234375 -0.109375 C 1.171875 -0.109375 0.953125 -0.109375 0.734375 -0.234375 C 0.984375 -0.296875 1.203125 -0.5 1.203125 -0.78125 C 1.203125 -1.046875 0.984375 -1.125 0.84375 -1.125 C 0.53125 -1.125 0.296875 -0.875 0.296875 -0.546875 C 0.296875 -0.09375 0.78125 0.109375 1.21875 0.109375 C 1.890625 0.109375 2.25 -0.59375 2.265625 -0.640625 C 2.390625 -0.28125 2.75 0.109375 3.34375 0.109375 C 4.375 0.109375 4.9375 -1.171875 4.9375 -1.421875 Z M 4.9375 -1.421875 "/>
</g>
<g id="glyph-2-0">
<path d="M 1.90625 -2.5 C 1.90625 -2.78125 1.671875 -3.015625 1.390625 -3.015625 C 1.09375 -3.015625 0.859375 -2.78125 0.859375 -2.5 C 0.859375 -2.203125 1.09375 -1.96875 1.390625 -1.96875 C 1.671875 -1.96875 1.90625 -2.203125 1.90625 -2.5 Z M 1.90625 -2.5 "/>
</g>
<g id="glyph-3-0">
<path d="M 5.46875 -1.734375 C 5.46875 -1.921875 5.296875 -1.921875 5.203125 -1.921875 L 1.015625 -1.921875 C 0.90625 -1.921875 0.75 -1.921875 0.75 -1.734375 C 0.75 -1.578125 0.921875 -1.578125 1.015625 -1.578125 L 5.203125 -1.578125 C 5.296875 -1.578125 5.46875 -1.578125 5.46875 -1.734375 Z M 5.46875 -1.734375 "/>
</g>
<g id="glyph-4-0">
<path d="M 3.515625 -1.265625 L 3.28125 -1.265625 C 3.265625 -1.109375 3.1875 -0.703125 3.09375 -0.640625 C 3.046875 -0.59375 2.515625 -0.59375 2.40625 -0.59375 L 1.125 -0.59375 C 1.859375 -1.234375 2.109375 -1.4375 2.515625 -1.765625 C 3.03125 -2.171875 3.515625 -2.609375 3.515625 -3.265625 C 3.515625 -4.109375 2.78125 -4.625 1.890625 -4.625 C 1.03125 -4.625 0.4375 -4.015625 0.4375 -3.375 C 0.4375 -3.03125 0.734375 -2.984375 0.8125 -2.984375 C 0.96875 -2.984375 1.171875 -3.109375 1.171875 -3.359375 C 1.171875 -3.484375 1.125 -3.734375 0.765625 -3.734375 C 0.984375 -4.21875 1.453125 -4.375 1.78125 -4.375 C 2.484375 -4.375 2.84375 -3.828125 2.84375 -3.265625 C 2.84375 -2.65625 2.40625 -2.1875 2.1875 -1.9375 L 0.515625 -0.265625 C 0.4375 -0.203125 0.4375 -0.1875 0.4375 0 L 3.3125 0 Z M 3.515625 -1.265625 "/>
</g>
<g id="glyph-5-0">
<path d="M -3.796875 -4.84375 C -3.9375 -4.890625 -3.953125 -4.890625 -4.03125 -4.890625 C -4.203125 -4.890625 -4.296875 -4.75 -4.296875 -4.59375 C -4.296875 -4.5 -4.234375 -4.34375 -4.09375 -4.25 C -4.03125 -4.234375 -3.734375 -4.140625 -3.546875 -4.109375 L -2.75 -3.90625 L -0.953125 -3.453125 C -0.8125 -3.421875 -0.109375 -2.984375 -0.109375 -2.328125 C -0.109375 -1.828125 -0.546875 -1.71875 -0.921875 -1.71875 C -1.375 -1.71875 -2 -1.890625 -2.875 -2.21875 C -3.28125 -2.375 -3.390625 -2.421875 -3.59375 -2.421875 C -4.03125 -2.421875 -4.40625 -2.109375 -4.40625 -1.609375 C -4.40625 -0.65625 -2.953125 -0.296875 -2.875 -0.296875 C -2.765625 -0.296875 -2.765625 -0.40625 -2.765625 -0.40625 C -2.765625 -0.515625 -2.796875 -0.515625 -2.953125 -0.5625 C -3.890625 -0.84375 -4.1875 -1.234375 -4.1875 -1.578125 C -4.1875 -1.65625 -4.1875 -1.828125 -3.875 -1.828125 C -3.625 -1.828125 -3.359375 -1.71875 -3.171875 -1.65625 C -2.109375 -1.25 -1.546875 -1.078125 -1.078125 -1.078125 C -0.1875 -1.078125 0.109375 -1.703125 0.109375 -2.296875 C 0.109375 -2.6875 -0.0625 -3.015625 -0.34375 -3.296875 C 0.171875 -3.171875 0.671875 -3.046875 1.203125 -2.65625 C 1.53125 -2.390625 1.828125 -2.015625 1.828125 -1.5625 C 1.828125 -1.421875 1.796875 -0.96875 1.40625 -0.796875 C 1.40625 -0.953125 1.40625 -1.09375 1.28125 -1.21875 C 1.203125 -1.328125 1.0625 -1.421875 0.875 -1.421875 C 0.5625 -1.421875 0.53125 -1.15625 0.53125 -1.0625 C 0.53125 -0.828125 0.6875 -0.5 1.171875 -0.5 C 1.671875 -0.5 2.046875 -0.9375 2.046875 -1.5625 C 2.046875 -2.578125 1.140625 -3.609375 0.015625 -3.890625 Z M -3.796875 -4.84375 "/>
</g>
<g id="glyph-5-1">
<path d="M -1.421875 -4.9375 C -1.53125 -4.9375 -1.53125 -4.859375 -1.53125 -4.828125 C -1.53125 -4.734375 -1.484375 -4.71875 -1.421875 -4.6875 C -0.34375 -4.359375 -0.109375 -3.6875 -0.109375 -3.375 C -0.109375 -2.984375 -0.421875 -2.828125 -0.765625 -2.828125 C -0.984375 -2.828125 -1.203125 -2.875 -1.640625 -2.984375 L -3.015625 -3.328125 C -3.265625 -3.390625 -4.1875 -3.625 -4.1875 -4.3125 C -4.1875 -4.359375 -4.1875 -4.609375 -4.0625 -4.8125 C -4 -4.53125 -3.765625 -4.34375 -3.515625 -4.34375 C -3.359375 -4.34375 -3.171875 -4.453125 -3.171875 -4.71875 C -3.171875 -4.9375 -3.34375 -5.25 -3.75 -5.25 C -4.265625 -5.25 -4.40625 -4.671875 -4.40625 -4.328125 C -4.40625 -3.75 -3.875 -3.40625 -3.65625 -3.28125 C -4.3125 -3.03125 -4.40625 -2.5 -4.40625 -2.203125 C -4.40625 -1.171875 -3.125 -0.59375 -2.875 -0.59375 C -2.765625 -0.59375 -2.765625 -0.71875 -2.765625 -0.71875 C -2.765625 -0.796875 -2.796875 -0.828125 -2.875 -0.84375 C -3.9375 -1.1875 -4.1875 -1.84375 -4.1875 -2.1875 C -4.1875 -2.375 -4.09375 -2.71875 -3.515625 -2.71875 C -3.203125 -2.71875 -2.546875 -2.546875 -1.140625 -2.1875 C -0.53125 -2.03125 -0.109375 -1.671875 -0.109375 -1.234375 C -0.109375 -1.171875 -0.109375 -0.953125 -0.234375 -0.734375 C -0.296875 -0.984375 -0.5 -1.203125 -0.78125 -1.203125 C -1.046875 -1.203125 -1.125 -0.984375 -1.125 -0.84375 C -1.125 -0.53125 -0.875 -0.296875 -0.546875 -0.296875 C -0.09375 -0.296875 0.109375 -0.78125 0.109375 -1.21875 C 0.109375 -1.890625 -0.59375 -2.25 -0.640625 -2.265625 C -0.28125 -2.390625 0.109375 -2.75 0.109375 -3.34375 C 0.109375 -4.375 -1.171875 -4.9375 -1.421875 -4.9375 Z M -1.421875 -4.9375 "/>
</g>
<g id="glyph-6-0">
<path d="M 2.390625 -3.296875 C 2.359375 -3.296875 2.34375 -3.296875 2.171875 -3.125 C 0.921875 -1.890625 -0.96875 -1.5625 -2.5 -1.5625 C -4.234375 -1.5625 -5.96875 -1.9375 -7.203125 -3.171875 C -7.328125 -3.296875 -7.34375 -3.296875 -7.375 -3.296875 C -7.453125 -3.296875 -7.484375 -3.265625 -7.484375 -3.203125 C -7.484375 -3.09375 -6.796875 -2.203125 -5.53125 -1.609375 C -4.4375 -1.109375 -3.328125 -0.984375 -2.5 -0.984375 C -1.71875 -0.984375 -0.515625 -1.09375 0.625 -1.640625 C 1.84375 -2.25 2.5 -3.09375 2.5 -3.203125 C 2.5 -3.265625 2.46875 -3.296875 2.390625 -3.296875 Z M 2.390625 -3.296875 "/>
</g>
<g id="glyph-6-1">
<path d="M -2.5 -2.875 C -3.265625 -2.875 -4.46875 -2.765625 -5.609375 -2.21875 C -6.828125 -1.625 -7.484375 -0.765625 -7.484375 -0.671875 C -7.484375 -0.609375 -7.4375 -0.5625 -7.375 -0.5625 C -7.34375 -0.5625 -7.328125 -0.5625 -7.140625 -0.75 C -6.15625 -1.734375 -4.578125 -2.296875 -2.5 -2.296875 C -0.78125 -2.296875 0.96875 -1.9375 2.21875 -0.703125 C 2.34375 -0.5625 2.359375 -0.5625 2.390625 -0.5625 C 2.453125 -0.5625 2.5 -0.609375 2.5 -0.671875 C 2.5 -0.765625 1.8125 -1.671875 0.546875 -2.25 C -0.546875 -2.765625 -1.65625 -2.875 -2.5 -2.875 Z M -2.5 -2.875 "/>
</g>
<g id="glyph-7-0">
<path d="M 6.59375 0 L 6.59375 -0.28125 L 6.453125 -0.28125 C 5.890625 -0.28125 5.796875 -0.359375 5.703125 -0.609375 L 3.671875 -6.234375 C 3.625 -6.34375 3.59375 -6.421875 3.453125 -6.421875 C 3.3125 -6.421875 3.296875 -6.375 3.234375 -6.21875 L 1.3125 -0.890625 C 1.203125 -0.59375 1 -0.28125 0.3125 -0.28125 L 0.3125 0 C 0.640625 -0.03125 0.890625 -0.03125 1.21875 -0.03125 L 2.234375 0 L 2.234375 -0.28125 C 1.71875 -0.28125 1.5625 -0.5625 1.5625 -0.734375 C 1.5625 -0.8125 1.59375 -0.859375 1.609375 -0.90625 L 2.03125 -2.0625 L 4.34375 -2.0625 L 4.828125 -0.703125 C 4.875 -0.625 4.875 -0.59375 4.875 -0.546875 C 4.875 -0.28125 4.375 -0.28125 4.140625 -0.28125 L 4.140625 0 C 4.546875 -0.03125 5.015625 -0.03125 5.421875 -0.03125 Z M 4.25 -2.34375 L 2.125 -2.34375 L 3.1875 -5.28125 Z M 4.25 -2.34375 "/>
</g>
<g id="glyph-7-1">
<path d="M 4.90625 0 L 4.90625 -0.28125 C 4.453125 -0.28125 4.21875 -0.28125 4.21875 -0.5625 L 4.21875 -2.28125 C 4.21875 -3.015625 4.21875 -3.28125 3.96875 -3.59375 C 3.765625 -3.84375 3.421875 -3.96875 2.96875 -3.96875 C 2.140625 -3.96875 1.75 -3.34375 1.625 -3.09375 L 1.609375 -3.09375 L 1.609375 -3.96875 L 0.3125 -3.859375 L 0.3125 -3.59375 C 0.921875 -3.59375 1 -3.53125 1 -3.078125 L 1 -0.6875 C 1 -0.28125 0.90625 -0.28125 0.3125 -0.28125 L 0.3125 0 C 0.734375 -0.015625 0.90625 -0.03125 1.34375 -0.03125 C 1.765625 -0.03125 1.890625 -0.015625 2.359375 0 L 2.359375 -0.28125 C 1.765625 -0.28125 1.671875 -0.28125 1.671875 -0.6875 L 1.671875 -2.328125 C 1.671875 -3.28125 2.34375 -3.734375 2.90625 -3.734375 C 3.4375 -3.734375 3.546875 -3.296875 3.546875 -2.765625 L 3.546875 -0.6875 C 3.546875 -0.28125 3.453125 -0.28125 2.859375 -0.28125 L 2.859375 0 C 3.28125 -0.015625 3.453125 -0.03125 3.890625 -0.03125 C 4.3125 -0.03125 4.4375 -0.015625 4.90625 0 Z M 4.90625 0 "/>
</g>
<g id="glyph-7-2">
<path d="M 4.453125 -0.796875 L 4.453125 -1.296875 L 4.203125 -1.296875 L 4.203125 -0.8125 C 4.203125 -0.703125 4.203125 -0.265625 3.890625 -0.265625 C 3.5625 -0.265625 3.5625 -0.6875 3.5625 -0.828125 L 3.5625 -2.40625 C 3.5625 -2.921875 3.5625 -3.21875 3.15625 -3.59375 C 2.828125 -3.890625 2.390625 -4.015625 1.953125 -4.015625 C 1.1875 -4.015625 0.5625 -3.640625 0.5625 -3.0625 C 0.5625 -2.796875 0.75 -2.640625 0.984375 -2.640625 C 1.234375 -2.640625 1.40625 -2.8125 1.40625 -3.046875 C 1.40625 -3.4375 1 -3.484375 1 -3.484375 C 1.234375 -3.71875 1.671875 -3.796875 1.921875 -3.796875 C 2.390625 -3.796875 2.890625 -3.453125 2.890625 -2.65625 L 2.890625 -2.375 C 2.40625 -2.34375 1.734375 -2.3125 1.140625 -2.015625 C 0.5 -1.703125 0.296875 -1.234375 0.296875 -0.875 C 0.296875 -0.140625 1.171875 0.09375 1.765625 0.09375 C 2.515625 0.09375 2.859375 -0.390625 2.984375 -0.640625 C 3.015625 -0.265625 3.28125 0.046875 3.671875 0.046875 C 3.890625 0.046875 4.453125 -0.078125 4.453125 -0.796875 Z M 2.890625 -1.265625 C 2.890625 -0.390625 2.21875 -0.125 1.828125 -0.125 C 1.40625 -0.125 1.015625 -0.4375 1.015625 -0.875 C 1.015625 -1.46875 1.53125 -2.09375 2.890625 -2.15625 Z M 2.890625 -1.265625 "/>
</g>
<g id="glyph-7-3">
<path d="M 2.34375 0 L 2.34375 -0.28125 C 1.75 -0.28125 1.65625 -0.28125 1.65625 -0.6875 L 1.65625 -6.21875 L 0.328125 -6.125 L 0.328125 -5.84375 C 0.9375 -5.84375 1.015625 -5.78125 1.015625 -5.34375 L 1.015625 -0.6875 C 1.015625 -0.28125 0.921875 -0.28125 0.328125 -0.28125 L 0.328125 0 C 0.75 -0.015625 0.921875 -0.03125 1.328125 -0.03125 C 1.75 -0.03125 1.90625 -0.015625 2.34375 0 Z M 2.34375 0 "/>
</g>
<g id="glyph-7-4">
<path d="M 4.65625 -3.59375 L 4.65625 -3.859375 C 4.375 -3.84375 4.09375 -3.84375 3.984375 -3.84375 C 3.734375 -3.84375 3.453125 -3.84375 3.203125 -3.859375 L 3.203125 -3.59375 C 3.609375 -3.5625 3.609375 -3.25 3.609375 -3.203125 C 3.609375 -3.109375 3.578125 -3.015625 3.546875 -2.953125 L 2.640625 -0.8125 L 1.625 -3.171875 C 1.578125 -3.296875 1.578125 -3.359375 1.578125 -3.359375 C 1.578125 -3.59375 1.890625 -3.59375 2.078125 -3.59375 L 2.078125 -3.859375 L 1.078125 -3.84375 C 1.046875 -3.84375 0.53125 -3.84375 0.1875 -3.859375 L 0.1875 -3.59375 C 0.59375 -3.59375 0.765625 -3.5625 0.875 -3.328125 L 2.28125 0 L 2.0625 0.53125 C 1.859375 1 1.609375 1.609375 1.015625 1.609375 C 0.796875 1.609375 0.640625 1.5 0.625 1.484375 C 0.6875 1.46875 0.9375 1.40625 0.9375 1.09375 C 0.9375 0.859375 0.765625 0.71875 0.5625 0.71875 C 0.34375 0.71875 0.171875 0.859375 0.171875 1.109375 C 0.171875 1.5 0.5625 1.84375 1.015625 1.84375 C 1.609375 1.84375 1.984375 1.3125 2.203125 0.828125 L 3.828125 -2.96875 C 3.921875 -3.203125 4.09375 -3.5625 4.65625 -3.59375 Z M 4.65625 -3.59375 "/>
</g>
<g id="glyph-7-5">
<path d="M 3.0625 -1.109375 L 3.0625 -1.625 L 2.8125 -1.625 L 2.8125 -1.140625 C 2.8125 -0.46875 2.53125 -0.15625 2.21875 -0.15625 C 1.609375 -0.15625 1.609375 -0.9375 1.609375 -1.109375 L 1.609375 -3.59375 L 2.921875 -3.59375 L 2.921875 -3.859375 L 1.609375 -3.859375 L 1.609375 -5.515625 L 1.359375 -5.515625 C 1.359375 -4.765625 1.046875 -3.84375 0.171875 -3.8125 L 0.171875 -3.59375 L 0.953125 -3.59375 L 0.953125 -1.109375 C 0.953125 -0.109375 1.671875 0.09375 2.15625 0.09375 C 2.75 0.09375 3.0625 -0.46875 3.0625 -1.109375 Z M 3.0625 -1.109375 "/>
</g>
<g id="glyph-7-6">
<path d="M 2.265625 0 L 2.265625 -0.28125 C 1.6875 -0.28125 1.65625 -0.328125 1.65625 -0.671875 L 1.65625 -3.96875 L 0.359375 -3.859375 L 0.359375 -3.59375 C 0.9375 -3.59375 1.015625 -3.53125 1.015625 -3.09375 L 1.015625 -0.6875 C 1.015625 -0.28125 0.921875 -0.28125 0.328125 -0.28125 L 0.328125 0 C 0.71875 -0.015625 0.921875 -0.03125 1.3125 -0.03125 C 1.453125 -0.03125 1.828125 -0.03125 2.265625 0 Z M 1.765625 -5.40625 C 1.765625 -5.671875 1.546875 -5.890625 1.28125 -5.890625 C 1.015625 -5.890625 0.796875 -5.671875 0.796875 -5.40625 C 0.796875 -5.140625 1.015625 -4.921875 1.28125 -4.921875 C 1.546875 -4.921875 1.765625 -5.140625 1.765625 -5.40625 Z M 1.765625 -5.40625 "/>
</g>
<g id="glyph-7-7">
<path d="M 3.828125 -1.0625 C 3.828125 -1.171875 3.734375 -1.171875 3.703125 -1.171875 C 3.609375 -1.171875 3.609375 -1.15625 3.546875 -1 C 3.34375 -0.390625 2.84375 -0.15625 2.390625 -0.15625 C 1.8125 -0.15625 1.078125 -0.625 1.078125 -1.953125 C 1.078125 -3.34375 1.796875 -3.765625 2.328125 -3.765625 C 2.453125 -3.765625 2.9375 -3.75 3.265625 -3.53125 C 3.078125 -3.484375 2.890625 -3.359375 2.890625 -3.109375 C 2.890625 -2.875 3.078125 -2.6875 3.3125 -2.6875 C 3.546875 -2.6875 3.734375 -2.84375 3.734375 -3.125 C 3.734375 -3.671875 3.109375 -4.015625 2.3125 -4.015625 C 1.171875 -4.015625 0.3125 -3.0625 0.3125 -1.9375 C 0.3125 -0.78125 1.234375 0.09375 2.296875 0.09375 C 3.546875 0.09375 3.828125 -0.984375 3.828125 -1.0625 Z M 3.828125 -1.0625 "/>
</g>
<g id="glyph-7-8">
<path d="M 1.765625 -3.375 C 1.765625 -3.65625 1.546875 -3.859375 1.28125 -3.859375 C 1 -3.859375 0.796875 -3.65625 0.796875 -3.375 C 0.796875 -3.125 1 -2.890625 1.28125 -2.890625 C 1.546875 -2.890625 1.765625 -3.125 1.765625 -3.375 Z M 1.765625 -0.484375 C 1.765625 -0.75 1.546875 -0.96875 1.28125 -0.96875 C 1 -0.96875 0.796875 -0.75 0.796875 -0.484375 C 0.796875 -0.21875 1 0 1.28125 0 C 1.546875 0 1.765625 -0.21875 1.765625 -0.484375 Z M 1.765625 -0.484375 "/>
</g>
<g id="glyph-7-9">
<path d="M 5.75 -4.453125 C 5.75 -5.34375 4.828125 -6.125 3.578125 -6.125 L 0.359375 -6.125 L 0.359375 -5.84375 L 0.5625 -5.84375 C 1.25 -5.84375 1.28125 -5.75 1.28125 -5.421875 L 1.28125 -0.703125 C 1.28125 -0.375 1.25 -0.28125 0.5625 -0.28125 L 0.359375 -0.28125 L 0.359375 0 C 0.765625 -0.03125 1.265625 -0.03125 1.671875 -0.03125 C 2.09375 -0.03125 2.59375 -0.03125 3 0 L 3 -0.28125 L 2.796875 -0.28125 C 2.09375 -0.28125 2.078125 -0.375 2.078125 -0.703125 L 2.078125 -2.8125 L 3.578125 -2.8125 C 4.828125 -2.8125 5.75 -3.59375 5.75 -4.453125 Z M 4.828125 -4.453125 C 4.828125 -4.046875 4.828125 -3.0625 3.34375 -3.0625 L 2.046875 -3.0625 L 2.046875 -5.484375 C 2.046875 -5.78125 2.078125 -5.84375 2.5 -5.84375 L 3.359375 -5.84375 C 4.828125 -5.84375 4.828125 -4.859375 4.828125 -4.453125 Z M 4.828125 -4.453125 "/>
</g>
<g id="glyph-7-10">
<path d="M 3.015625 0 L 3.015625 -0.28125 L 2.796875 -0.28125 C 2.078125 -0.28125 2.0625 -0.390625 2.0625 -0.703125 L 2.0625 -5.421875 C 2.0625 -5.734375 2.078125 -5.84375 2.796875 -5.84375 L 3.015625 -5.84375 L 3.015625 -6.125 C 2.65625 -6.09375 2.046875 -6.09375 1.65625 -6.09375 C 1.28125 -6.09375 0.65625 -6.09375 0.296875 -6.125 L 0.296875 -5.84375 L 0.515625 -5.84375 C 1.234375 -5.84375 1.25 -5.734375 1.25 -5.421875 L 1.25 -0.703125 C 1.25 -0.390625 1.234375 -0.28125 0.515625 -0.28125 L 0.296875 -0.28125 L 0.296875 0 C 0.65625 -0.03125 1.28125 -0.03125 1.65625 -0.03125 C 2.046875 -0.03125 2.65625 -0.03125 3.015625 0 Z M 3.015625 0 "/>
</g>
<g id="glyph-7-11">
<path d="M 6.5625 -5.84375 L 6.5625 -6.125 C 6.078125 -6.109375 5.953125 -6.09375 5.515625 -6.09375 C 5.078125 -6.09375 4.953125 -6.109375 4.453125 -6.125 L 4.453125 -5.84375 C 5.375 -5.84375 5.375 -5.421875 5.375 -5.171875 L 5.375 -1.34375 L 2.109375 -6.015625 C 2.046875 -6.125 2.015625 -6.125 1.84375 -6.125 L 0.34375 -6.125 L 0.34375 -5.84375 L 0.59375 -5.84375 C 1.015625 -5.84375 1.25 -5.78125 1.25 -5.78125 L 1.25 -0.953125 C 1.25 -0.703125 1.25 -0.28125 0.34375 -0.28125 L 0.34375 0 C 0.828125 -0.015625 0.953125 -0.03125 1.40625 -0.03125 C 1.828125 -0.03125 1.96875 -0.015625 2.453125 0 L 2.453125 -0.28125 C 1.53125 -0.28125 1.53125 -0.703125 1.53125 -0.953125 L 1.53125 -5.578125 L 5.34375 -0.109375 C 5.421875 0 5.46875 0 5.5 0 C 5.65625 0 5.65625 -0.078125 5.65625 -0.234375 L 5.65625 -5.171875 C 5.65625 -5.421875 5.65625 -5.84375 6.5625 -5.84375 Z M 6.5625 -5.84375 "/>
</g>
<g id="glyph-7-12">
<path d="M 3.0625 2.140625 C 3.0625 2.09375 3.03125 2.0625 2.984375 2 C 1.828125 0.9375 1.46875 -0.671875 1.46875 -2.25 C 1.46875 -3.625 1.734375 -5.3125 3 -6.515625 C 3.046875 -6.5625 3.0625 -6.578125 3.0625 -6.625 C 3.0625 -6.6875 3.015625 -6.734375 2.953125 -6.734375 C 2.84375 -6.734375 2.03125 -6.078125 1.546875 -5.109375 C 1.125 -4.25 0.90625 -3.3125 0.90625 -2.25 C 0.90625 -1.609375 0.984375 -0.578125 1.484375 0.46875 C 2.015625 1.578125 2.84375 2.234375 2.953125 2.234375 C 3.015625 2.234375 3.0625 2.203125 3.0625 2.140625 Z M 3.0625 2.140625 "/>
</g>
<g id="glyph-7-13">
<path d="M 3.828125 -1.0625 C 3.828125 -1.125 3.78125 -1.1875 3.703125 -1.1875 C 3.609375 -1.1875 3.59375 -1.125 3.578125 -1.078125 C 3.28125 -0.171875 2.46875 -0.15625 2.34375 -0.15625 C 1.90625 -0.15625 1.546875 -0.390625 1.34375 -0.703125 C 1.046875 -1.140625 1.03125 -1.671875 1.03125 -2.046875 L 3.59375 -2.046875 C 3.78125 -2.046875 3.828125 -2.046875 3.828125 -2.25 C 3.828125 -3.171875 3.328125 -4.015625 2.171875 -4.015625 C 1.109375 -4.015625 0.265625 -3.078125 0.265625 -1.96875 C 0.265625 -0.796875 1.203125 0.09375 2.296875 0.09375 C 3.390625 0.09375 3.828125 -0.859375 3.828125 -1.0625 Z M 3.21875 -2.265625 L 1.046875 -2.265625 C 1.125 -3.65625 1.921875 -3.796875 2.171875 -3.796875 C 2.671875 -3.796875 3.203125 -3.421875 3.21875 -2.265625 Z M 3.21875 -2.265625 "/>
</g>
<g id="glyph-7-14">
<path d="M 3.34375 -3.40625 C 3.34375 -3.6875 3.078125 -3.96875 2.671875 -3.96875 C 2.140625 -3.96875 1.765625 -3.59375 1.546875 -3.03125 L 1.546875 -3.96875 L 0.265625 -3.859375 L 0.265625 -3.59375 C 0.875 -3.59375 0.953125 -3.53125 0.953125 -3.078125 L 0.953125 -0.6875 C 0.953125 -0.28125 0.859375 -0.28125 0.265625 -0.28125 L 0.265625 0 C 0.75 -0.015625 0.859375 -0.03125 1.3125 -0.03125 L 2.453125 0 L 2.453125 -0.28125 L 2.28125 -0.28125 C 1.625 -0.28125 1.59375 -0.375 1.59375 -0.703125 L 1.59375 -2.046875 C 1.59375 -2.421875 1.6875 -3.734375 2.71875 -3.734375 C 2.703125 -3.71875 2.5625 -3.609375 2.5625 -3.40625 C 2.5625 -3.15625 2.75 -3 2.953125 -3 C 3.140625 -3 3.34375 -3.140625 3.34375 -3.40625 Z M 3.34375 -3.40625 "/>
</g>
<g id="glyph-7-15">
<path d="M 4.46875 -3.609375 C 4.46875 -3.78125 4.34375 -4.0625 3.984375 -4.0625 C 3.734375 -4.0625 3.328125 -3.96875 3.015625 -3.640625 C 2.765625 -3.84375 2.421875 -3.96875 2.046875 -3.96875 C 1.1875 -3.96875 0.546875 -3.359375 0.546875 -2.640625 C 0.546875 -2.1875 0.8125 -1.859375 0.953125 -1.734375 C 0.9375 -1.71875 0.6875 -1.40625 0.6875 -0.984375 C 0.6875 -0.6875 0.828125 -0.359375 1.078125 -0.203125 C 0.625 -0.046875 0.265625 0.28125 0.265625 0.703125 C 0.265625 1.34375 1.140625 1.84375 2.296875 1.84375 C 3.40625 1.84375 4.34375 1.375 4.34375 0.6875 C 4.34375 0.3125 4.171875 -0.078125 3.84375 -0.296875 C 3.34375 -0.609375 2.8125 -0.609375 1.96875 -0.609375 C 1.78125 -0.609375 1.5 -0.609375 1.421875 -0.625 C 1.171875 -0.6875 1 -0.921875 1 -1.203125 C 1 -1.359375 1.046875 -1.484375 1.125 -1.609375 C 1.34375 -1.46875 1.625 -1.328125 2.03125 -1.328125 C 2.890625 -1.328125 3.53125 -1.9375 3.53125 -2.640625 C 3.53125 -3.078125 3.28125 -3.390625 3.171875 -3.515625 C 3.53125 -3.84375 3.953125 -3.84375 4.046875 -3.84375 C 4.015625 -3.8125 3.9375 -3.765625 3.9375 -3.609375 C 3.9375 -3.5 4 -3.34375 4.203125 -3.34375 C 4.328125 -3.34375 4.46875 -3.421875 4.46875 -3.609375 Z M 2.84375 -2.640625 C 2.84375 -2.4375 2.84375 -1.5625 2.03125 -1.5625 C 1.234375 -1.5625 1.234375 -2.453125 1.234375 -2.640625 C 1.234375 -2.890625 1.25 -3.1875 1.40625 -3.40625 C 1.546875 -3.59375 1.78125 -3.71875 2.03125 -3.71875 C 2.84375 -3.71875 2.84375 -2.859375 2.84375 -2.640625 Z M 3.84375 0.6875 C 3.84375 1.203125 3.140625 1.609375 2.3125 1.609375 C 1.421875 1.609375 0.765625 1.1875 0.765625 0.6875 C 0.765625 0.546875 0.859375 -0.046875 1.625 -0.046875 L 2.453125 -0.046875 C 2.734375 -0.046875 3.84375 -0.03125 3.84375 0.6875 Z M 3.84375 0.6875 "/>
</g>
<g id="glyph-7-16">
<path d="M 2.671875 -2.25 C 2.671875 -2.984375 2.5625 -3.96875 2.09375 -4.96875 C 1.5625 -6.078125 0.734375 -6.734375 0.625 -6.734375 C 0.53125 -6.734375 0.515625 -6.65625 0.515625 -6.625 C 0.515625 -6.578125 0.53125 -6.5625 0.59375 -6.5 C 1.125 -6.03125 2.109375 -4.8125 2.109375 -2.25 C 2.109375 -0.96875 1.875 0.8125 0.578125 2.03125 C 0.5625 2.046875 0.515625 2.09375 0.515625 2.140625 C 0.515625 2.15625 0.53125 2.234375 0.625 2.234375 C 0.734375 2.234375 1.546875 1.59375 2.03125 0.609375 C 2.453125 -0.25 2.671875 -1.171875 2.671875 -2.25 Z M 2.671875 -2.25 "/>
</g>
<g id="glyph-7-17">
<path d="M 4.34375 -1.90625 C 4.34375 -3.078125 3.40625 -4.015625 2.3125 -4.015625 C 1.171875 -4.015625 0.265625 -3.0625 0.265625 -1.90625 C 0.265625 -0.796875 1.1875 0.09375 2.296875 0.09375 C 3.4375 0.09375 4.34375 -0.8125 4.34375 -1.90625 Z M 3.5625 -1.984375 C 3.5625 -1.65625 3.5625 -1.140625 3.34375 -0.75 C 3.09375 -0.328125 2.6875 -0.15625 2.3125 -0.15625 C 1.859375 -0.15625 1.484375 -0.375 1.28125 -0.71875 C 1.046875 -1.109375 1.03125 -1.578125 1.03125 -1.984375 C 1.03125 -2.328125 1.03125 -2.828125 1.25 -3.203125 C 1.53125 -3.65625 1.96875 -3.796875 2.296875 -3.796875 C 2.8125 -3.796875 3.171875 -3.5 3.359375 -3.203125 C 3.5625 -2.828125 3.5625 -2.375 3.5625 -1.984375 Z M 3.5625 -1.984375 "/>
</g>
<g id="glyph-7-18">
<path d="M 4.671875 -3.59375 L 4.671875 -3.859375 C 4.40625 -3.84375 3.984375 -3.84375 3.984375 -3.84375 C 3.734375 -3.84375 3.453125 -3.84375 3.203125 -3.859375 L 3.203125 -3.59375 C 3.46875 -3.5625 3.609375 -3.4375 3.609375 -3.203125 C 3.609375 -3.109375 3.609375 -3.09375 3.5625 -3 L 2.640625 -0.734375 L 1.609375 -3.1875 C 1.59375 -3.234375 1.5625 -3.296875 1.5625 -3.359375 C 1.5625 -3.59375 1.890625 -3.59375 2.0625 -3.59375 L 2.0625 -3.859375 C 1.671875 -3.84375 1.46875 -3.84375 1.078125 -3.84375 C 0.765625 -3.84375 0.5 -3.84375 0.171875 -3.859375 L 0.171875 -3.59375 C 0.59375 -3.59375 0.765625 -3.59375 0.90625 -3.25 L 2.21875 -0.078125 C 2.265625 0.078125 2.34375 0.09375 2.421875 0.09375 C 2.5 0.09375 2.578125 0.078125 2.640625 -0.078125 L 3.859375 -3.015625 C 4.046875 -3.46875 4.359375 -3.578125 4.671875 -3.59375 Z M 4.671875 -3.59375 "/>
</g>
<g id="glyph-7-19">
<path d="M 4.84375 0 L 4.84375 -0.28125 C 4.234375 -0.28125 4.15625 -0.34375 4.15625 -0.78125 L 4.15625 -6.21875 L 2.828125 -6.125 L 2.828125 -5.84375 C 3.4375 -5.84375 3.515625 -5.78125 3.515625 -5.34375 L 3.515625 -3.4375 C 3.46875 -3.484375 3.0625 -3.96875 2.375 -3.96875 C 1.265625 -3.96875 0.3125 -3.078125 0.3125 -1.921875 C 0.3125 -0.8125 1.203125 0.09375 2.265625 0.09375 C 2.921875 0.09375 3.328125 -0.28125 3.484375 -0.46875 L 3.484375 0.09375 Z M 3.484375 -1.078125 C 3.484375 -0.921875 3.484375 -0.890625 3.359375 -0.703125 C 3.078125 -0.296875 2.65625 -0.125 2.3125 -0.125 C 1.921875 -0.125 1.5625 -0.34375 1.328125 -0.71875 C 1.09375 -1.109375 1.078125 -1.625 1.078125 -1.921875 C 1.078125 -2.34375 1.125 -2.8125 1.359375 -3.171875 C 1.5625 -3.46875 1.921875 -3.734375 2.40625 -3.734375 C 2.78125 -3.734375 3.140625 -3.546875 3.375 -3.203125 C 3.484375 -3.0625 3.484375 -3.0625 3.484375 -2.890625 Z M 3.484375 -1.078125 "/>
</g>
<g id="glyph-7-20">
<path d="M 4.8125 -1.9375 C 4.8125 -3.0625 3.921875 -3.96875 2.875 -3.96875 C 2.390625 -3.96875 1.9375 -3.765625 1.59375 -3.40625 L 1.59375 -3.96875 L 0.265625 -3.859375 L 0.265625 -3.59375 C 0.90625 -3.59375 0.953125 -3.53125 0.953125 -3.140625 L 0.953125 1.046875 C 0.953125 1.46875 0.859375 1.46875 0.265625 1.46875 L 0.265625 1.734375 C 0.6875 1.71875 0.859375 1.71875 1.296875 1.71875 C 1.71875 1.71875 1.84375 1.71875 2.3125 1.734375 L 2.3125 1.46875 C 1.71875 1.46875 1.625 1.46875 1.625 1.046875 L 1.625 -0.4375 C 1.859375 -0.203125 2.15625 0.09375 2.75 0.09375 C 3.828125 0.09375 4.8125 -0.765625 4.8125 -1.9375 Z M 4.03125 -1.9375 C 4.03125 -0.921875 3.421875 -0.125 2.703125 -0.125 C 2.296875 -0.125 1.953125 -0.359375 1.734375 -0.671875 C 1.625 -0.859375 1.625 -0.875 1.625 -1.046875 L 1.625 -3.015625 C 1.921875 -3.53125 2.421875 -3.71875 2.796875 -3.71875 C 3.5 -3.71875 4.03125 -2.90625 4.03125 -1.9375 Z M 4.03125 -1.9375 "/>
</g>
<g id="glyph-7-21">
<path d="M 3.3125 -1.140625 C 3.3125 -1.546875 3.140625 -1.796875 2.9375 -2 C 2.640625 -2.296875 2.3125 -2.359375 1.65625 -2.484375 C 1.421875 -2.53125 0.765625 -2.640625 0.765625 -3.15625 C 0.765625 -3.4375 0.96875 -3.828125 1.78125 -3.828125 C 2.75 -3.828125 2.8125 -3.078125 2.828125 -2.859375 C 2.84375 -2.75 2.84375 -2.6875 2.953125 -2.6875 C 3.078125 -2.6875 3.078125 -2.75 3.078125 -2.921875 L 3.078125 -3.78125 C 3.078125 -3.9375 3.078125 -4.015625 2.984375 -4.015625 C 2.9375 -4.015625 2.921875 -4.015625 2.796875 -3.90625 C 2.78125 -3.890625 2.703125 -3.8125 2.640625 -3.765625 C 2.375 -3.96875 2.09375 -4.015625 1.78125 -4.015625 C 0.59375 -4.015625 0.3125 -3.359375 0.3125 -2.90625 C 0.3125 -2.625 0.4375 -2.390625 0.640625 -2.1875 C 0.9375 -1.90625 1.28125 -1.84375 1.734375 -1.765625 C 2.203125 -1.671875 2.34375 -1.65625 2.546875 -1.5 C 2.640625 -1.421875 2.859375 -1.25 2.859375 -0.921875 C 2.859375 -0.125 1.953125 -0.125 1.828125 -0.125 C 0.921875 -0.125 0.6875 -0.890625 0.578125 -1.375 C 0.546875 -1.46875 0.53125 -1.515625 0.4375 -1.515625 C 0.3125 -1.515625 0.3125 -1.4375 0.3125 -1.28125 L 0.3125 -0.140625 C 0.3125 0.015625 0.3125 0.09375 0.40625 0.09375 C 0.46875 0.09375 0.46875 0.09375 0.640625 -0.078125 C 0.671875 -0.140625 0.765625 -0.25 0.8125 -0.296875 C 1.1875 0.078125 1.609375 0.09375 1.828125 0.09375 C 2.9375 0.09375 3.3125 -0.546875 3.3125 -1.140625 Z M 3.3125 -1.140625 "/>
</g>
<g id="glyph-8-0">
<path d="M 3.015625 0 L 3.015625 -0.234375 L 2.765625 -0.234375 C 2.140625 -0.234375 2.140625 -0.3125 2.140625 -0.515625 L 2.140625 -3.796875 C 2.140625 -3.984375 2.125 -3.984375 1.9375 -3.984375 C 1.546875 -3.59375 0.9375 -3.59375 0.71875 -3.59375 L 0.71875 -3.359375 C 0.875 -3.359375 1.28125 -3.359375 1.640625 -3.53125 L 1.640625 -0.515625 C 1.640625 -0.3125 1.640625 -0.234375 1.015625 -0.234375 L 0.765625 -0.234375 L 0.765625 0 C 1.09375 -0.03125 1.5625 -0.03125 1.890625 -0.03125 C 2.21875 -0.03125 2.6875 -0.03125 3.015625 0 Z M 3.015625 0 "/>
</g>
<g id="glyph-8-1">
<path d="M 3.21875 -1.125 L 3 -1.125 C 2.984375 -1.03125 2.921875 -0.640625 2.84375 -0.578125 C 2.796875 -0.53125 2.3125 -0.53125 2.21875 -0.53125 L 1.109375 -0.53125 L 1.875 -1.15625 C 2.078125 -1.328125 2.609375 -1.703125 2.796875 -1.890625 C 2.96875 -2.0625 3.21875 -2.375 3.21875 -2.796875 C 3.21875 -3.546875 2.546875 -3.984375 1.734375 -3.984375 C 0.96875 -3.984375 0.4375 -3.46875 0.4375 -2.90625 C 0.4375 -2.609375 0.6875 -2.5625 0.75 -2.5625 C 0.90625 -2.5625 1.078125 -2.671875 1.078125 -2.890625 C 1.078125 -3.015625 1 -3.21875 0.734375 -3.21875 C 0.875 -3.515625 1.234375 -3.75 1.65625 -3.75 C 2.28125 -3.75 2.609375 -3.28125 2.609375 -2.796875 C 2.609375 -2.375 2.328125 -1.9375 1.921875 -1.546875 L 0.5 -0.25 C 0.4375 -0.1875 0.4375 -0.1875 0.4375 0 L 3.03125 0 Z M 3.21875 -1.125 "/>
</g>
<g id="glyph-9-0">
<path d="M 4.5625 -1.28125 C 4.5625 -1.328125 4.53125 -1.390625 4.453125 -1.390625 C 4.34375 -1.390625 4.34375 -1.359375 4.296875 -1.21875 C 4.09375 -0.578125 3.578125 -0.125 3.109375 -0.125 C 2.859375 -0.125 2.609375 -0.28125 2.609375 -0.71875 C 2.609375 -0.921875 2.734375 -1.40625 2.8125 -1.75 L 3.109375 -2.9375 C 3.21875 -3.265625 3.484375 -3.734375 3.953125 -3.734375 C 4.109375 -3.734375 4.28125 -3.71875 4.40625 -3.625 C 4.078125 -3.5625 3.984375 -3.28125 3.984375 -3.140625 C 3.984375 -2.96875 4.109375 -2.8125 4.328125 -2.8125 C 4.578125 -2.8125 4.828125 -3.03125 4.828125 -3.34375 C 4.828125 -3.765625 4.375 -3.96875 3.953125 -3.96875 C 3.421875 -3.96875 3.109375 -3.484375 3 -3.296875 C 2.828125 -3.734375 2.4375 -3.96875 2 -3.96875 C 1.046875 -3.96875 0.515625 -2.8125 0.515625 -2.578125 C 0.515625 -2.5 0.578125 -2.46875 0.640625 -2.46875 C 0.71875 -2.46875 0.75 -2.515625 0.765625 -2.578125 C 1.046875 -3.46875 1.640625 -3.734375 1.984375 -3.734375 C 2.25 -3.734375 2.46875 -3.5625 2.46875 -3.140625 C 2.46875 -2.828125 2.09375 -1.390625 1.96875 -0.953125 C 1.90625 -0.6875 1.625 -0.125 1.140625 -0.125 C 0.953125 -0.125 0.765625 -0.1875 0.6875 -0.234375 C 0.921875 -0.28125 1.109375 -0.5 1.109375 -0.71875 C 1.109375 -0.953125 0.9375 -1.046875 0.765625 -1.046875 C 0.5 -1.046875 0.265625 -0.828125 0.265625 -0.515625 C 0.265625 -0.078125 0.75 0.09375 1.125 0.09375 C 1.65625 0.09375 1.953125 -0.328125 2.09375 -0.578125 C 2.3125 0.015625 2.84375 0.09375 3.078125 0.09375 C 4.046875 0.09375 4.5625 -1.0625 4.5625 -1.28125 Z M 4.5625 -1.28125 "/>
</g>
<g id="glyph-10-0">
<path d="M 3.0625 2.140625 C 3.0625 2.09375 3.03125 2.0625 2.984375 2 C 1.828125 0.9375 1.46875 -0.671875 1.46875 -2.25 C 1.46875 -3.625 1.734375 -5.3125 3 -6.515625 C 3.046875 -6.5625 3.0625 -6.578125 3.0625 -6.625 C 3.0625 -6.6875 3.015625 -6.734375 2.953125 -6.734375 C 2.84375 -6.734375 2.03125 -6.078125 1.546875 -5.109375 C 1.125 -4.25 0.90625 -3.3125 0.90625 -2.25 C 0.90625 -1.609375 0.984375 -0.578125 1.484375 0.46875 C 2.015625 1.578125 2.84375 2.234375 2.953125 2.234375 C 3.015625 2.234375 3.0625 2.203125 3.0625 2.140625 Z M 3.0625 2.140625 "/>
</g>
<g id="glyph-10-1">
<path d="M 3.875 0 L 3.875 -0.28125 L 3.59375 -0.28125 C 2.75 -0.28125 2.71875 -0.390625 2.71875 -0.71875 L 2.71875 -5.734375 C 2.71875 -5.953125 2.71875 -5.96875 2.5 -5.96875 C 1.9375 -5.40625 1.109375 -5.40625 0.828125 -5.40625 L 0.828125 -5.125 C 1 -5.125 1.546875 -5.125 2.03125 -5.359375 L 2.03125 -0.71875 C 2.03125 -0.390625 2.015625 -0.28125 1.171875 -0.28125 L 0.890625 -0.28125 L 0.890625 0 C 1.203125 -0.03125 2.015625 -0.03125 2.375 -0.03125 C 2.75 -0.03125 3.546875 -0.03125 3.875 0 Z M 3.875 0 "/>
</g>
<g id="glyph-10-2">
<path d="M 2.671875 -2.25 C 2.671875 -2.984375 2.5625 -3.96875 2.09375 -4.96875 C 1.5625 -6.078125 0.734375 -6.734375 0.625 -6.734375 C 0.53125 -6.734375 0.515625 -6.65625 0.515625 -6.625 C 0.515625 -6.578125 0.53125 -6.5625 0.59375 -6.5 C 1.125 -6.03125 2.109375 -4.8125 2.109375 -2.25 C 2.109375 -0.96875 1.875 0.8125 0.578125 2.03125 C 0.5625 2.046875 0.515625 2.09375 0.515625 2.140625 C 0.515625 2.15625 0.53125 2.234375 0.625 2.234375 C 0.734375 2.234375 1.546875 1.59375 2.03125 0.609375 C 2.453125 -0.25 2.671875 -1.171875 2.671875 -2.25 Z M 2.671875 -2.25 "/>
</g>
<g id="glyph-11-0">
<path d="M 6.390625 -2.25 C 6.390625 -2.4375 6.21875 -2.4375 6.078125 -2.4375 L 1.078125 -2.4375 C 0.953125 -2.4375 0.765625 -2.4375 0.765625 -2.25 C 0.765625 -2.046875 0.9375 -2.046875 1.078125 -2.046875 L 6.078125 -2.046875 C 6.203125 -2.046875 6.390625 -2.046875 6.390625 -2.25 Z M 6.390625 -2.25 "/>
</g>
</g>
<clipPath id="clip-0">
<path clip-rule="nonzero" d="M 61.460938 8 L 300.09375 8 L 300.09375 113.417969 L 61.460938 113.417969 Z M 61.460938 8 "/>
</clipPath>
<clipPath id="clip-1">
<path clip-rule="nonzero" d="M 61.460938 54 L 300.09375 54 L 300.09375 99 L 61.460938 99 Z M 61.460938 54 "/>
</clipPath>
<clipPath id="clip-2">
<path clip-rule="nonzero" d="M 61.460938 19 L 300.09375 19 L 300.09375 113.417969 L 61.460938 113.417969 Z M 61.460938 19 "/>
</clipPath>
</defs>
<path fill="none" stroke-width="0.3985" stroke-linecap="butt" stroke-linejoin="miter" stroke="rgb(92.498779%, 92.498779%, 92.498779%)" stroke-opacity="1" stroke-miterlimit="10" d="M 0.00184375 0.00003125 L 0.00184375 108.238312 M 45.025281 0.00003125 L 45.025281 108.238312 M 90.052625 0.00003125 L 90.052625 108.238312 M 135.076062 0.00003125 L 135.076062 108.238312 M 180.103406 0.00003125 L 180.103406 108.238312 M 225.126844 0.00003125 L 225.126844 108.238312 " transform="matrix(1, 0, 0, -1, 68.213, 113.418)"/>
<path fill="none" stroke-width="0.3985" stroke-linecap="butt" stroke-linejoin="miter" stroke="rgb(92.498779%, 92.498779%, 92.498779%)" stroke-opacity="1" stroke-miterlimit="10" d="M -6.752063 11.394562 L 231.88075 11.394562 M -6.752063 39.878937 L 231.88075 39.878937 M -6.752063 68.363312 L 231.88075 68.363312 M -6.752063 96.843781 L 231.88075 96.843781 " transform="matrix(1, 0, 0, -1, 68.213, 113.418)"/>
<path fill="none" stroke-width="0.19925" stroke-linecap="butt" stroke-linejoin="miter" stroke="rgb(50%, 50%, 50%)" stroke-opacity="1" stroke-miterlimit="10" d="M 0.00184375 0.00003125 L 0.00184375 4.253937 M 45.025281 0.00003125 L 45.025281 4.253937 M 90.052625 0.00003125 L 90.052625 4.253937 M 135.076062 0.00003125 L 135.076062 4.253937 M 180.103406 0.00003125 L 180.103406 4.253937 M 225.126844 0.00003125 L 225.126844 4.253937 M 0.00184375 108.238312 L 0.00184375 103.988312 M 45.025281 108.238312 L 45.025281 103.988312 M 90.052625 108.238312 L 90.052625 103.988312 M 135.076062 108.238312 L 135.076062 103.988312 M 180.103406 108.238312 L 180.103406 103.988312 M 225.126844 108.238312 L 225.126844 103.988312 " transform="matrix(1, 0, 0, -1, 68.213, 113.418)"/>
<path fill="none" stroke-width="0.19925" stroke-linecap="butt" stroke-linejoin="miter" stroke="rgb(50%, 50%, 50%)" stroke-opacity="1" stroke-miterlimit="10" d="M -6.752063 11.394562 L -2.502063 11.394562 M -6.752063 39.878937 L -2.502063 39.878937 M -6.752063 68.363312 L -2.502063 68.363312 M -6.752063 96.843781 L -2.502063 96.843781 M 231.88075 11.394562 L 227.63075 11.394562 M 231.88075 39.878937 L 227.63075 39.878937 M 231.88075 68.363312 L 227.63075 68.363312 M 231.88075 96.843781 L 227.63075 96.843781 " transform="matrix(1, 0, 0, -1, 68.213, 113.418)"/>
<path fill="none" stroke-width="0.3985" stroke-linecap="butt" stroke-linejoin="miter" stroke="rgb(0%, 0%, 0%)" stroke-opacity="1" stroke-miterlimit="10" d="M -6.752063 0.00003125 L -6.752063 108.238312 L 231.88075 108.238312 L 231.88075 0.00003125 Z M -6.752063 0.00003125 " transform="matrix(1, 0, 0, -1, 68.213, 113.418)"/>
<g fill="rgb(0%, 0%, 0%)" fill-opacity="1">
<use xlink:href="#glyph-0-0" x="65.722" y="123.211"/>
</g>
<g fill="rgb(0%, 0%, 0%)" fill-opacity="1">
<use xlink:href="#glyph-0-0" x="106.873" y="123.211"/>
</g>
<g fill="rgb(0%, 0%, 0%)" fill-opacity="1">
<use xlink:href="#glyph-1-0" x="111.8543" y="123.211"/>
</g>
<g fill="rgb(0%, 0%, 0%)" fill-opacity="1">
<use xlink:href="#glyph-0-1" x="114.62191" y="123.211"/>
</g>
<g fill="rgb(0%, 0%, 0%)" fill-opacity="1">
<use xlink:href="#glyph-0-0" x="151.898" y="123.211"/>
</g>
<g fill="rgb(0%, 0%, 0%)" fill-opacity="1">
<use xlink:href="#glyph-1-0" x="156.8793" y="123.211"/>
</g>
<g fill="rgb(0%, 0%, 0%)" fill-opacity="1">
<use xlink:href="#glyph-0-2" x="159.64691" y="123.211"/>
</g>
<g fill="rgb(0%, 0%, 0%)" fill-opacity="1">
<use xlink:href="#glyph-0-0" x="196.923" y="123.211"/>
</g>
<g fill="rgb(0%, 0%, 0%)" fill-opacity="1">
<use xlink:href="#glyph-1-0" x="201.9043" y="123.211"/>
</g>
<g fill="rgb(0%, 0%, 0%)" fill-opacity="1">
<use xlink:href="#glyph-0-3" x="204.67191" y="123.211"/>
</g>
<g fill="rgb(0%, 0%, 0%)" fill-opacity="1">
<use xlink:href="#glyph-0-0" x="241.948" y="123.211"/>
</g>
<g fill="rgb(0%, 0%, 0%)" fill-opacity="1">
<use xlink:href="#glyph-1-0" x="246.9293" y="123.211"/>
</g>
<g fill="rgb(0%, 0%, 0%)" fill-opacity="1">
<use xlink:href="#glyph-0-4" x="249.69691" y="123.211"/>
</g>
<g fill="rgb(0%, 0%, 0%)" fill-opacity="1">
<use xlink:href="#glyph-0-5" x="290.847" y="123.211"/>
</g>
<g fill="rgb(0%, 0%, 0%)" fill-opacity="1">
<use xlink:href="#glyph-0-0" x="52.958" y="105.161"/>
</g>
<g fill="rgb(0%, 0%, 0%)" fill-opacity="1">
<use xlink:href="#glyph-0-6" x="25.105" y="77.596"/>
</g>
<g fill="rgb(0%, 0%, 0%)" fill-opacity="1">
<use xlink:href="#glyph-2-0" x="32.297997" y="77.596"/>
</g>
<g fill="rgb(0%, 0%, 0%)" fill-opacity="1">
<use xlink:href="#glyph-0-5" x="37.277305" y="77.596"/>
<use xlink:href="#glyph-0-0" x="42.258605" y="77.596"/>
</g>
<g fill="rgb(0%, 0%, 0%)" fill-opacity="1">
<use xlink:href="#glyph-3-0" x="47.244" y="73.98"/>
</g>
<g fill="rgb(0%, 0%, 0%)" fill-opacity="1">
<use xlink:href="#glyph-4-0" x="53.470906" y="73.98"/>
</g>
<g fill="rgb(0%, 0%, 0%)" fill-opacity="1">
<use xlink:href="#glyph-0-0" x="45.21" y="48.194"/>
</g>
<g fill="rgb(0%, 0%, 0%)" fill-opacity="1">
<use xlink:href="#glyph-1-0" x="50.1913" y="48.194"/>
</g>
<g fill="rgb(0%, 0%, 0%)" fill-opacity="1">
<use xlink:href="#glyph-0-5" x="52.95891" y="48.194"/>
</g>
<g fill="rgb(0%, 0%, 0%)" fill-opacity="1">
<use xlink:href="#glyph-0-0" x="40.228" y="19.711"/>
</g>
<g fill="rgb(0%, 0%, 0%)" fill-opacity="1">
<use xlink:href="#glyph-1-0" x="45.2093" y="19.711"/>
</g>
<g fill="rgb(0%, 0%, 0%)" fill-opacity="1">
<use xlink:href="#glyph-0-5" x="47.97691" y="19.711"/>
<use xlink:href="#glyph-0-6" x="52.95821" y="19.711"/>
</g>
<g clip-path="url(#clip-0)">
<path fill="none" stroke-width="1.59404" stroke-linecap="butt" stroke-linejoin="miter" stroke="rgb(0%, 0%, 50%)" stroke-opacity="1" stroke-miterlimit="10" d="M 0.00184375 11.394562 L 2.8495 14.953156 L 5.697156 18.421906 L 8.548719 21.796906 L 11.396375 25.085969 L 14.247937 28.277375 L 17.095594 31.382844 L 19.947156 34.394562 L 22.794812 37.316437 L 25.646375 40.144562 L 28.494031 42.882844 L 31.345594 45.531281 L 34.19325 48.085969 L 37.040906 50.550812 L 39.892469 52.921906 L 42.740125 55.203156 L 45.591687 57.394562 L 48.439344 59.496125 L 51.290906 61.503937 L 54.138562 63.418 L 56.990125 65.246125 L 59.837781 66.9805 L 62.689344 68.621125 L 65.537 70.175812 L 68.384656 71.63675 L 71.236219 73.003937 L 74.083875 74.281281 L 76.935437 75.468781 L 79.783094 76.566437 L 82.634656 77.570344 L 85.482312 78.4805 L 88.333875 79.304719 L 91.181531 80.035187 L 94.033094 80.671906 L 96.88075 81.222687 L 99.732312 81.679719 L 102.579969 82.043 L 105.427625 82.316437 L 108.279187 82.500031 L 111.126844 82.593781 L 113.978406 82.593781 L 116.826062 82.500031 L 119.677625 82.320344 L 122.525281 82.046906 L 125.376844 81.679719 L 128.2245 81.226594 L 131.076062 80.679719 L 133.923719 80.039094 L 136.771375 79.308625 L 139.622937 78.488312 L 142.470594 77.578156 L 145.322156 76.57425 L 148.169812 75.476594 L 151.021375 74.293 L 153.869031 73.015656 L 156.720594 71.644562 L 159.56825 70.187531 L 162.419812 68.63675 L 165.267469 66.992219 L 168.115125 65.257844 L 170.966687 63.433625 L 173.814344 61.519562 L 176.665906 59.51175 L 179.513562 57.410187 L 182.365125 55.222687 L 185.212781 52.941437 L 188.064344 50.566437 L 190.912 48.1055 L 193.763562 45.550812 L 196.611219 42.902375 L 199.458875 40.164094 L 202.310437 37.335969 L 205.158094 34.418 L 208.009656 31.406281 L 210.857312 28.304719 L 213.708875 25.109406 L 216.556531 21.82425 L 219.408094 18.44925 L 222.25575 14.9805 L 225.107312 11.421906 " transform="matrix(1, 0, 0, -1, 68.213, 113.418)"/>
</g>
<g clip-path="url(#clip-1)">
<path fill="none" stroke-width="0.79701" stroke-linecap="butt" stroke-linejoin="miter" stroke="rgb(59.999084%, 0%, 0%)" stroke-opacity="1" stroke-dasharray="2.98883 2.98883" stroke-miterlimit="10" d="M 0.00184375 42.726594 L 2.8495 44.394562 L 5.697156 37.88675 L 8.548719 46.968781 L 11.396375 34.589875 L 14.247937 47.51175 L 17.095594 33.76175 L 19.947156 45.519562 L 22.794812 35.433625 L 25.646375 41.457062 L 28.494031 38.691437 L 31.345594 36.582062 L 34.19325 42.046906 L 37.040906 32.472687 L 39.892469 43.988312 L 42.740125 30.433625 L 45.591687 43.550812 L 48.439344 31.000031 L 51.290906 40.671906 L 54.138562 33.746125 L 56.990125 36.2305 L 59.837781 37.433625 L 62.689344 31.69925 L 65.537 40.488312 L 68.384656 28.6055 L 71.236219 41.585969 L 74.083875 27.941437 L 76.935437 40.152375 L 79.783094 29.804719 L 82.634656 36.582062 L 85.482312 33.359406 L 88.333875 32.082062 L 91.181531 37.132844 L 94.033094 28.226594 L 96.88075 39.597687 L 99.732312 26.363312 L 102.579969 39.726594 L 105.427625 27.097687 L 108.279187 37.382844 L 111.126844 30.078156 L 113.978406 33.382844 L 116.826062 34.117219 L 119.677625 29.168 L 122.525281 37.644562 L 125.376844 26.285187 L 128.2245 39.293 L 131.076062 25.785187 L 133.923719 38.421906 L 136.771375 27.839875 L 139.622937 35.347687 L 142.470594 31.679719 L 145.322156 31.234406 L 148.169812 35.859406 L 151.021375 27.644562 L 153.869031 38.839875 L 156.720594 25.960969 L 159.56825 39.535187 L 162.419812 26.863312 L 165.267469 37.734406 L 168.115125 30.070344 L 170.966687 34.183625 L 173.814344 34.44925 L 176.665906 30.296906 L 179.513562 38.437531 L 182.365125 27.628937 L 185.212781 40.63675 L 188.064344 27.296906 L 190.912 40.328156 L 193.763562 29.539094 L 196.611219 37.76175 L 199.458875 33.652375 L 202.310437 34.043 L 205.158094 38.226594 L 208.009656 30.722687 L 210.857312 41.718781 L 213.708875 29.222687 L 216.556531 42.9805 L 219.408094 30.289094 L 222.25575 41.726594 L 225.107312 33.714875 " transform="matrix(1, 0, 0, -1, 68.213, 113.418)"/>
</g>
<g clip-path="url(#clip-2)">
<path fill="none" stroke-width="0.79701" stroke-linecap="butt" stroke-linejoin="miter" stroke="rgb(0%, 39.216614%, 0%)" stroke-opacity="1" stroke-dasharray="0.79701 1.99255" stroke-miterlimit="10" d="M 0.00184375 11.394562 L 2.8495 14.933625 L 5.697156 18.390656 L 8.548719 21.820344 L 11.396375 25.168 L 14.247937 28.320344 L 17.095594 31.300812 L 19.947156 34.265656 L 22.794812 37.312531 L 25.646375 40.300812 L 28.494031 43.019562 L 31.345594 45.457062 L 34.19325 47.863312 L 37.040906 50.453156 L 39.892469 53.089875 L 42.740125 55.453156 L 45.591687 57.410187 L 48.439344 59.234406 L 51.290906 61.277375 L 54.138562 63.523469 L 56.990125 65.566437 L 59.837781 67.125031 L 62.689344 68.398469 L 65.537 69.839875 L 68.384656 71.609406 L 71.236219 73.335969 L 74.083875 74.570344 L 76.935437 75.351594 L 79.783094 76.175812 L 82.634656 77.38675 L 85.482312 78.738312 L 88.333875 79.691437 L 91.181531 80.07425 L 94.033094 80.308625 L 96.88075 80.894562 L 99.732312 81.796906 L 102.579969 82.464875 L 105.427625 82.523469 L 108.279187 82.234406 L 111.126844 82.179719 L 113.978406 82.539094 L 116.826062 82.871125 L 119.677625 82.656281 L 122.525281 81.937531 L 125.376844 81.26175 L 128.2245 81.01175 L 131.076062 80.929719 L 133.923719 80.437531 L 136.771375 79.367219 L 139.622937 78.144562 L 142.470594 77.257844 L 145.322156 76.664094 L 148.169812 75.859406 L 151.021375 74.488312 L 153.869031 72.800812 L 156.720594 71.293 L 159.56825 70.125031 L 162.419812 68.925812 L 165.267469 67.265656 L 168.115125 65.191437 L 170.966687 63.128937 L 173.814344 61.3555 L 176.665906 59.671906 L 179.513562 57.683625 L 182.365125 55.273469 L 185.212781 52.734406 L 188.064344 50.371125 L 190.912 48.144562 L 193.763562 45.750031 L 196.611219 43.01175 L 199.458875 40.070344 L 202.310437 37.183625 L 205.158094 34.38675 L 208.009656 31.503937 L 210.857312 28.390656 L 213.708875 25.093781 L 216.556531 21.76175 L 219.408094 18.421906 L 222.25575 14.992219 L 225.107312 11.421906 " transform="matrix(1, 0, 0, -1, 68.213, 113.418)"/>
</g>
<path fill-rule="nonzero" fill="rgb(69.999695%, 69.999695%, 69.999695%)" fill-opacity="1" stroke-width="0.3985" stroke-linecap="butt" stroke-linejoin="miter" stroke="rgb(69.999695%, 69.999695%, 69.999695%)" stroke-opacity="1" stroke-miterlimit="10" d="M 16.497937 11.394562 C 16.497937 13.043 15.158094 14.382844 13.50575 14.382844 C 11.857312 14.382844 10.517469 13.043 10.517469 11.394562 C 10.517469 9.742219 11.857312 8.406281 13.50575 8.406281 C 15.158094 8.406281 16.497937 9.742219 16.497937 11.394562 Z M 16.497937 11.394562 " transform="matrix(1, 0, 0, -1, 68.213, 113.418)"/>
<path fill-rule="nonzero" fill="rgb(69.999695%, 69.999695%, 69.999695%)" fill-opacity="1" stroke-width="0.3985" stroke-linecap="butt" stroke-linejoin="miter" stroke="rgb(69.999695%, 69.999695%, 69.999695%)" stroke-opacity="1" stroke-miterlimit="10" d="M 43.513562 11.394562 C 43.513562 13.043 42.173719 14.382844 40.521375 14.382844 C 38.872937 14.382844 37.533094 13.043 37.533094 11.394562 C 37.533094 9.742219 38.872937 8.406281 40.521375 8.406281 C 42.173719 8.406281 43.513562 9.742219 43.513562 11.394562 Z M 43.513562 11.394562 " transform="matrix(1, 0, 0, -1, 68.213, 113.418)"/>
<path fill-rule="nonzero" fill="rgb(69.999695%, 69.999695%, 69.999695%)" fill-opacity="1" stroke-width="0.3985" stroke-linecap="butt" stroke-linejoin="miter" stroke="rgb(69.999695%, 69.999695%, 69.999695%)" stroke-opacity="1" stroke-miterlimit="10" d="M 72.779187 11.394562 C 72.779187 13.043 71.439344 14.382844 69.790906 14.382844 C 68.138562 14.382844 66.802625 13.043 66.802625 11.394562 C 66.802625 9.742219 68.138562 8.406281 69.790906 8.406281 C 71.439344 8.406281 72.779187 9.742219 72.779187 11.394562 Z M 72.779187 11.394562 " transform="matrix(1, 0, 0, -1, 68.213, 113.418)"/>
<path fill-rule="nonzero" fill="rgb(69.999695%, 69.999695%, 69.999695%)" fill-opacity="1" stroke-width="0.3985" stroke-linecap="butt" stroke-linejoin="miter" stroke="rgb(69.999695%, 69.999695%, 69.999695%)" stroke-opacity="1" stroke-miterlimit="10" d="M 102.044812 11.394562 C 102.044812 13.043 100.704969 14.382844 99.056531 14.382844 C 97.404187 14.382844 96.06825 13.043 96.06825 11.394562 C 96.06825 9.742219 97.404187 8.406281 99.056531 8.406281 C 100.704969 8.406281 102.044812 9.742219 102.044812 11.394562 Z M 102.044812 11.394562 " transform="matrix(1, 0, 0, -1, 68.213, 113.418)"/>
<path fill-rule="nonzero" fill="rgb(69.999695%, 69.999695%, 69.999695%)" fill-opacity="1" stroke-width="0.3985" stroke-linecap="butt" stroke-linejoin="miter" stroke="rgb(69.999695%, 69.999695%, 69.999695%)" stroke-opacity="1" stroke-miterlimit="10" d="M 131.310437 11.394562 C 131.310437 13.043 129.9745 14.382844 128.322156 14.382844 C 126.673719 14.382844 125.333875 13.043 125.333875 11.394562 C 125.333875 9.742219 126.673719 8.406281 128.322156 8.406281 C 129.9745 8.406281 131.310437 9.742219 131.310437 11.394562 Z M 131.310437 11.394562 " transform="matrix(1, 0, 0, -1, 68.213, 113.418)"/>
<path fill-rule="nonzero" fill="rgb(69.999695%, 69.999695%, 69.999695%)" fill-opacity="1" stroke-width="0.3985" stroke-linecap="butt" stroke-linejoin="miter" stroke="rgb(69.999695%, 69.999695%, 69.999695%)" stroke-opacity="1" stroke-miterlimit="10" d="M 158.326062 11.394562 C 158.326062 13.043 156.990125 14.382844 155.337781 14.382844 C 153.685437 14.382844 152.3495 13.043 152.3495 11.394562 C 152.3495 9.742219 153.685437 8.406281 155.337781 8.406281 C 156.990125 8.406281 158.326062 9.742219 158.326062 11.394562 Z M 158.326062 11.394562 " transform="matrix(1, 0, 0, -1, 68.213, 113.418)"/>
<path fill-rule="nonzero" fill="rgb(69.999695%, 69.999695%, 69.999695%)" fill-opacity="1" stroke-width="0.3985" stroke-linecap="butt" stroke-linejoin="miter" stroke="rgb(69.999695%, 69.999695%, 69.999695%)" stroke-opacity="1" stroke-miterlimit="10" d="M 187.591687 11.394562 C 187.591687 13.043 186.25575 14.382844 184.603406 14.382844 C 182.954969 14.382844 181.615125 13.043 181.615125 11.394562 C 181.615125 9.742219 182.954969 8.406281 184.603406 8.406281 C 186.25575 8.406281 187.591687 9.742219 187.591687 11.394562 Z M 187.591687 11.394562 " transform="matrix(1, 0, 0, -1, 68.213, 113.418)"/>
<path fill-rule="nonzero" fill="rgb(69.999695%, 69.999695%, 69.999695%)" fill-opacity="1" stroke-width="0.3985" stroke-linecap="butt" stroke-linejoin="miter" stroke="rgb(69.999695%, 69.999695%, 69.999695%)" stroke-opacity="1" stroke-miterlimit="10" d="M 214.607312 11.394562 C 214.607312 13.043 213.271375 14.382844 211.619031 14.382844 C 209.970594 14.382844 208.63075 13.043 208.63075 11.394562 C 208.63075 9.742219 209.970594 8.406281 211.619031 8.406281 C 213.271375 8.406281 214.607312 9.742219 214.607312 11.394562 Z M 214.607312 11.394562 " transform="matrix(1, 0, 0, -1, 68.213, 113.418)"/>
<g fill="rgb(0%, 0%, 0%)" fill-opacity="1">
<use xlink:href="#glyph-1-1" x="177.928" y="134.341"/>
</g>
<g fill="rgb(0%, 0%, 0%)" fill-opacity="1">
<use xlink:href="#glyph-5-0" x="15.774" y="68.641"/>
</g>
<g fill="rgb(0%, 0%, 0%)" fill-opacity="1">
<use xlink:href="#glyph-6-0" x="15.774" y="63.397684"/>
</g>
<g fill="rgb(0%, 0%, 0%)" fill-opacity="1">
<use xlink:href="#glyph-5-1" x="15.774" y="59.523228"/>
</g>
<g fill="rgb(0%, 0%, 0%)" fill-opacity="1">
<use xlink:href="#glyph-6-1" x="15.774" y="53.829603"/>
</g>
<path fill-rule="nonzero" fill="rgb(100%, 100%, 100%)" fill-opacity="0.95" stroke-width="0.3985" stroke-linecap="butt" stroke-linejoin="miter" stroke="rgb(79.998779%, 79.998779%, 79.998779%)" stroke-opacity="1" stroke-miterlimit="10" d="M 236.853406 26.097687 L 353.646375 26.097687 L 353.646375 82.140656 L 236.853406 82.140656 Z M 236.853406 26.097687 " transform="matrix(1, 0, 0, -1, 68.213, 113.418)"/>
<path fill="none" stroke-width="1.59404" stroke-linecap="butt" stroke-linejoin="miter" stroke="rgb(0%, 0%, 50%)" stroke-opacity="1" stroke-miterlimit="10" d="M 0.0015625 -0.0014375 L 17.009375 -0.0014375 " transform="matrix(1, 0, 0, -1, 308.85, 39.772)"/>
<g fill="rgb(0%, 0%, 0%)" fill-opacity="1">
<use xlink:href="#glyph-7-0" x="328.647" y="42.788"/>
<use xlink:href="#glyph-7-1" x="335.557404" y="42.788"/>
<use xlink:href="#glyph-7-2" x="340.677219" y="42.788"/>
<use xlink:href="#glyph-7-3" x="345.285052" y="42.788"/>
<use xlink:href="#glyph-7-4" x="347.844959" y="42.788"/>
<use xlink:href="#glyph-7-5" x="352.708334" y="42.788"/>
<use xlink:href="#glyph-7-6" x="356.292204" y="42.788"/>
<use xlink:href="#glyph-7-7" x="358.852112" y="42.788"/>
<use xlink:href="#glyph-7-2" x="362.947963" y="42.788"/>
<use xlink:href="#glyph-7-3" x="367.555796" y="42.788"/>
<use xlink:href="#glyph-7-8" x="370.115703" y="42.788"/>
</g>
<g fill="rgb(0%, 0%, 0%)" fill-opacity="1">
<use xlink:href="#glyph-8-0" x="377.967" y="39.115"/>
</g>
<path fill="none" stroke-width="0.398" stroke-linecap="butt" stroke-linejoin="miter" stroke="rgb(0%, 0%, 0%)" stroke-opacity="1" stroke-miterlimit="10" d="M 0.00175 -0.000875 L 3.654094 -0.000875 " transform="matrix(1, 0, 0, -1, 377.967, 40.546)"/>
<g fill="rgb(0%, 0%, 0%)" fill-opacity="1">
<use xlink:href="#glyph-8-1" x="377.967" y="45.831"/>
</g>
<g fill="rgb(0%, 0%, 0%)" fill-opacity="1">
<use xlink:href="#glyph-9-0" x="382.815" y="42.788"/>
</g>
<g fill="rgb(0%, 0%, 0%)" fill-opacity="1">
<use xlink:href="#glyph-10-0" x="388.038825" y="42.788"/>
<use xlink:href="#glyph-10-1" x="391.622695" y="42.788"/>
</g>
<g fill="rgb(0%, 0%, 0%)" fill-opacity="1">
<use xlink:href="#glyph-11-0" x="398.274867" y="42.788"/>
</g>
<g fill="rgb(0%, 0%, 0%)" fill-opacity="1">
<use xlink:href="#glyph-9-0" x="407.495913" y="42.788"/>
</g>
<g fill="rgb(0%, 0%, 0%)" fill-opacity="1">
<use xlink:href="#glyph-10-2" x="412.719737" y="42.788"/>
</g>
<path fill="none" stroke-width="0.79701" stroke-linecap="butt" stroke-linejoin="miter" stroke="rgb(59.999084%, 0%, 0%)" stroke-opacity="1" stroke-dasharray="2.98883 2.98883" stroke-miterlimit="10" d="M 0.0015625 0.00190625 L 17.009375 0.00190625 " transform="matrix(1, 0, 0, -1, 308.85, 53.373)"/>
<g fill="rgb(0%, 0%, 0%)" fill-opacity="1">
<use xlink:href="#glyph-7-9" x="328.647" y="55.989"/>
<use xlink:href="#glyph-7-10" x="334.9181" y="55.989"/>
<use xlink:href="#glyph-7-11" x="338.244635" y="55.989"/>
<use xlink:href="#glyph-7-11" x="345.155039" y="55.989"/>
</g>
<g fill="rgb(0%, 0%, 0%)" fill-opacity="1">
<use xlink:href="#glyph-7-12" x="355.140919" y="55.989"/>
<use xlink:href="#glyph-7-13" x="358.724789" y="55.989"/>
</g>
<g fill="rgb(0%, 0%, 0%)" fill-opacity="1">
<use xlink:href="#glyph-7-2" x="362.81526" y="55.989"/>
<use xlink:href="#glyph-7-14" x="367.423093" y="55.989"/>
<use xlink:href="#glyph-7-3" x="371.027586" y="55.989"/>
<use xlink:href="#glyph-7-4" x="373.587493" y="55.989"/>
</g>
<g fill="rgb(0%, 0%, 0%)" fill-opacity="1">
<use xlink:href="#glyph-7-5" x="381.526344" y="55.989"/>
<use xlink:href="#glyph-7-14" x="385.110214" y="55.989"/>
<use xlink:href="#glyph-7-2" x="388.714707" y="55.989"/>
<use xlink:href="#glyph-7-6" x="393.32254" y="55.989"/>
<use xlink:href="#glyph-7-1" x="395.882447" y="55.989"/>
<use xlink:href="#glyph-7-6" x="401.002261" y="55.989"/>
<use xlink:href="#glyph-7-1" x="403.562169" y="55.989"/>
<use xlink:href="#glyph-7-15" x="408.681983" y="55.989"/>
<use xlink:href="#glyph-7-16" x="413.289816" y="55.989"/>
</g>
<path fill="none" stroke-width="0.79701" stroke-linecap="butt" stroke-linejoin="miter" stroke="rgb(0%, 39.216614%, 0%)" stroke-opacity="1" stroke-dasharray="0.79701 1.99255" stroke-miterlimit="10" d="M 0.0015625 -0.00021875 L 17.009375 -0.00021875 " transform="matrix(1, 0, 0, -1, 308.85, 66.574)"/>
<g fill="rgb(0%, 0%, 0%)" fill-opacity="1">
<use xlink:href="#glyph-7-9" x="328.647" y="69.189"/>
<use xlink:href="#glyph-7-10" x="334.9181" y="69.189"/>
<use xlink:href="#glyph-7-11" x="338.244635" y="69.189"/>
<use xlink:href="#glyph-7-11" x="345.155039" y="69.189"/>
</g>
<g fill="rgb(0%, 0%, 0%)" fill-opacity="1">
<use xlink:href="#glyph-7-12" x="355.140919" y="69.189"/>
<use xlink:href="#glyph-7-7" x="358.724789" y="69.189"/>
</g>
<g fill="rgb(0%, 0%, 0%)" fill-opacity="1">
<use xlink:href="#glyph-7-17" x="362.811674" y="69.189"/>
<use xlink:href="#glyph-7-1" x="367.419507" y="69.189"/>
</g>
<g fill="rgb(0%, 0%, 0%)" fill-opacity="1">
<use xlink:href="#glyph-7-18" x="372.288262" y="69.189"/>
</g>
<g fill="rgb(0%, 0%, 0%)" fill-opacity="1">
<use xlink:href="#glyph-7-13" x="376.891612" y="69.189"/>
<use xlink:href="#glyph-7-14" x="380.99105" y="69.189"/>
<use xlink:href="#glyph-7-15" x="384.595543" y="69.189"/>
<use xlink:href="#glyph-7-13" x="389.203376" y="69.189"/>
<use xlink:href="#glyph-7-19" x="393.302814" y="69.189"/>
<use xlink:href="#glyph-7-16" x="398.422628" y="69.189"/>
</g>
<path fill-rule="nonzero" fill="rgb(69.999695%, 69.999695%, 69.999695%)" fill-opacity="0.95" stroke-width="0.3985" stroke-linecap="butt" stroke-linejoin="miter" stroke="rgb(69.999695%, 69.999695%, 69.999695%)" stroke-opacity="1" stroke-miterlimit="10" d="M 11.49375 -0.000000000000042633 C 11.49375 1.652344 10.153906 2.988281 8.505469 2.988281 C 6.853125 2.988281 5.517187 1.652344 5.517187 -0.000000000000042633 C 5.517187 -1.652344 6.853125 -2.988281 8.505469 -2.988281 C 10.153906 -2.988281 11.49375 -1.652344 11.49375 -0.000000000000042633 Z M 11.49375 -0.000000000000042633 " transform="matrix(1, 0, 0, -1, 308.85, 79.5)"/>
<g fill="rgb(0%, 0%, 0%)" fill-opacity="1">
<use xlink:href="#glyph-7-7" x="328.647" y="81.841"/>
<use xlink:href="#glyph-7-17" x="332.742852" y="81.841"/>
<use xlink:href="#glyph-7-3" x="337.350684" y="81.841"/>
<use xlink:href="#glyph-7-3" x="339.910592" y="81.841"/>
<use xlink:href="#glyph-7-17" x="342.470499" y="81.841"/>
</g>
<g fill="rgb(0%, 0%, 0%)" fill-opacity="1">
<use xlink:href="#glyph-7-7" x="347.338357" y="81.841"/>
<use xlink:href="#glyph-7-2" x="351.434209" y="81.841"/>
<use xlink:href="#glyph-7-5" x="356.042042" y="81.841"/>
</g>
<g fill="rgb(0%, 0%, 0%)" fill-opacity="1">
<use xlink:href="#glyph-7-6" x="359.616946" y="81.841"/>
<use xlink:href="#glyph-7-17" x="362.176853" y="81.841"/>
<use xlink:href="#glyph-7-1" x="366.784686" y="81.841"/>
</g>
<g fill="rgb(0%, 0%, 0%)" fill-opacity="1">
<use xlink:href="#glyph-7-20" x="374.979975" y="81.841"/>
</g>
<g fill="rgb(0%, 0%, 0%)" fill-opacity="1">
<use xlink:href="#glyph-7-17" x="380.359815" y="81.841"/>
<use xlink:href="#glyph-7-6" x="384.967648" y="81.841"/>
<use xlink:href="#glyph-7-1" x="387.527556" y="81.841"/>
</g>
<g fill="rgb(0%, 0%, 0%)" fill-opacity="1">
<use xlink:href="#glyph-7-5" x="392.387344" y="81.841"/>
<use xlink:href="#glyph-7-21" x="395.971214" y="81.841"/>
</g>
</svg>
