<?xml version="1.0" encoding="UTF-8"?>
<svg xmlns="http://www.w3.org/2000/svg" xmlns:xlink="http://www.w3.org/1999/xlink" width="289.229pt" height="107.82pt" viewBox="0 0 289.229 107.82">
<defs>
<g>
<g id="glyph-0-0">
<path d="M 6.921875 -2.5 C 6.921875 -2.6875 6.734375 -2.6875 6.59375 -2.6875 L 1.15625 -2.6875 C 1.015625 -2.6875 0.828125 -2.6875 0.828125 -2.5 C 0.828125 -2.296875 1.015625 -2.296875 1.15625 -2.296875 L 6.59375 -2.296875 C 6.734375 -2.296875 6.921875 -2.296875 6.921875 -2.5 Z M 6.921875 -2.5 "/>
</g>
<g id="glyph-1-0">
<path d="M 4.6875 -1.640625 L 4.6875 -1.953125 L 3.703125 -1.953125 L 3.703125 -6.484375 C 3.703125 -6.6875 3.703125 -6.75 3.53125 -6.75 C 3.453125 -6.75 3.421875 -6.75 3.34375 -6.625 L 0.28125 -1.953125 L 0.28125 -1.640625 L 2.9375 -1.640625 L 2.9375 -0.78125 C 2.9375 -0.421875 2.90625 -0.3125 2.171875 -0.3125 L 1.96875 -0.3125 L 1.96875 0 C 2.375 -0.03125 2.890625 -0.03125 3.3125 -0.03125 C 3.734375 -0.03125 4.25 -0.03125 4.671875 0 L 4.671875 -0.3125 L 4.453125 -0.3125 C 3.71875 -0.3125 3.703125 -0.421875 3.703125 -0.78125 L 3.703125 -1.640625 Z M 2.984375 -1.953125 L 0.5625 -1.953125 L 2.984375 -5.671875 Z M 2.984375 -1.953125 "/>
</g>
<g id="glyph-1-1">
<path d="M 4.5625 -1.703125 C 4.5625 -2.515625 3.921875 -3.296875 2.890625 -3.515625 C 3.703125 -3.78125 4.28125 -4.46875 4.28125 -5.265625 C 4.28125 -6.078125 3.40625 -6.640625 2.453125 -6.640625 C 1.453125 -6.640625 0.6875 -6.046875 0.6875 -5.28125 C 0.6875 -4.953125 0.90625 -4.765625 1.203125 -4.765625 C 1.5 -4.765625 1.703125 -4.984375 1.703125 -5.28125 C 1.703125 -5.765625 1.234375 -5.765625 1.09375 -5.765625 C 1.390625 -6.265625 2.046875 -6.390625 2.40625 -6.390625 C 2.828125 -6.390625 3.375 -6.171875 3.375 -5.28125 C 3.375 -5.15625 3.34375 -4.578125 3.09375 -4.140625 C 2.796875 -3.65625 2.453125 -3.625 2.203125 -3.625 C 2.125 -3.609375 1.890625 -3.59375 1.8125 -3.59375 C 1.734375 -3.578125 1.671875 -3.5625 1.671875 -3.46875 C 1.671875 -3.359375 1.734375 -3.359375 1.90625 -3.359375 L 2.34375 -3.359375 C 3.15625 -3.359375 3.53125 -2.6875 3.53125 -1.703125 C 3.53125 -0.34375 2.84375 -0.0625 2.40625 -0.0625 C 1.96875 -0.0625 1.21875 -0.234375 0.875 -0.8125 C 1.21875 -0.765625 1.53125 -0.984375 1.53125 -1.359375 C 1.53125 -1.71875 1.265625 -1.921875 0.984375 -1.921875 C 0.734375 -1.921875 0.421875 -1.78125 0.421875 -1.34375 C 0.421875 -0.4375 1.34375 0.21875 2.4375 0.21875 C 3.65625 0.21875 4.5625 -0.6875 4.5625 -1.703125 Z M 4.5625 -1.703125 "/>
</g>
<g id="glyph-1-2">
<path d="M 4.46875 -1.734375 L 4.234375 -1.734375 C 4.171875 -1.4375 4.109375 -1 4 -0.84375 C 3.9375 -0.765625 3.28125 -0.765625 3.0625 -0.765625 L 1.265625 -0.765625 L 2.328125 -1.796875 C 3.875 -3.171875 4.46875 -3.703125 4.46875 -4.703125 C 4.46875 -5.84375 3.578125 -6.640625 2.359375 -6.640625 C 1.234375 -6.640625 0.5 -5.71875 0.5 -4.828125 C 0.5 -4.28125 1 -4.28125 1.03125 -4.28125 C 1.203125 -4.28125 1.546875 -4.390625 1.546875 -4.8125 C 1.546875 -5.0625 1.359375 -5.328125 1.015625 -5.328125 C 0.9375 -5.328125 0.921875 -5.328125 0.890625 -5.3125 C 1.109375 -5.96875 1.65625 -6.328125 2.234375 -6.328125 C 3.140625 -6.328125 3.5625 -5.515625 3.5625 -4.703125 C 3.5625 -3.90625 3.078125 -3.125 2.515625 -2.5 L 0.609375 -0.375 C 0.5 -0.265625 0.5 -0.234375 0.5 0 L 4.203125 0 Z M 4.46875 -1.734375 "/>
</g>
<g id="glyph-1-3">
<path d="M 4.171875 0 L 4.171875 -0.3125 L 3.859375 -0.3125 C 2.953125 -0.3125 2.9375 -0.421875 2.9375 -0.78125 L 2.9375 -6.375 C 2.9375 -6.625 2.9375 -6.640625 2.703125 -6.640625 C 2.078125 -6 1.203125 -6 0.890625 -6 L 0.890625 -5.6875 C 1.09375 -5.6875 1.671875 -5.6875 2.1875 -5.953125 L 2.1875 -0.78125 C 2.1875 -0.421875 2.15625 -0.3125 1.265625 -0.3125 L 0.953125 -0.3125 L 0.953125 0 C 1.296875 -0.03125 2.15625 -0.03125 2.5625 -0.03125 C 2.953125 -0.03125 3.828125 -0.03125 4.171875 0 Z M 4.171875 0 "/>
</g>
<g id="glyph-1-4">
<path d="M 4.578125 -3.1875 C 4.578125 -3.984375 4.53125 -4.78125 4.1875 -5.515625 C 3.734375 -6.484375 2.90625 -6.640625 2.5 -6.640625 C 1.890625 -6.640625 1.171875 -6.375 0.75 -5.453125 C 0.4375 -4.765625 0.390625 -3.984375 0.390625 -3.1875 C 0.390625 -2.4375 0.421875 -1.546875 0.84375 -0.78125 C 1.265625 0.015625 2 0.21875 2.484375 0.21875 C 3.015625 0.21875 3.78125 0.015625 4.21875 -0.9375 C 4.53125 -1.625 4.578125 -2.40625 4.578125 -3.1875 Z M 3.765625 -3.3125 C 3.765625 -2.5625 3.765625 -1.890625 3.65625 -1.25 C 3.5 -0.296875 2.9375 0 2.484375 0 C 2.09375 0 1.5 -0.25 1.328125 -1.203125 C 1.21875 -1.796875 1.21875 -2.71875 1.21875 -3.3125 C 1.21875 -3.953125 1.21875 -4.609375 1.296875 -5.140625 C 1.484375 -6.328125 2.234375 -6.421875 2.484375 -6.421875 C 2.8125 -6.421875 3.46875 -6.234375 3.65625 -5.25 C 3.765625 -4.6875 3.765625 -3.9375 3.765625 -3.3125 Z M 3.765625 -3.3125 "/>
</g>
<g id="glyph-1-5">
<path d="M 4.46875 -2 C 4.46875 -3.1875 3.65625 -4.1875 2.578125 -4.1875 C 2.109375 -4.1875 1.671875 -4.03125 1.3125 -3.671875 L 1.3125 -5.625 C 1.515625 -5.5625 1.84375 -5.5 2.15625 -5.5 C 3.390625 -5.5 4.09375 -6.40625 4.09375 -6.53125 C 4.09375 -6.59375 4.0625 -6.640625 3.984375 -6.640625 C 3.984375 -6.640625 3.953125 -6.640625 3.90625 -6.609375 C 3.703125 -6.515625 3.21875 -6.3125 2.546875 -6.3125 C 2.15625 -6.3125 1.6875 -6.390625 1.21875 -6.59375 C 1.140625 -6.625 1.109375 -6.625 1.109375 -6.625 C 1 -6.625 1 -6.546875 1 -6.390625 L 1 -3.4375 C 1 -3.265625 1 -3.1875 1.140625 -3.1875 C 1.21875 -3.1875 1.234375 -3.203125 1.28125 -3.265625 C 1.390625 -3.421875 1.75 -3.96875 2.5625 -3.96875 C 3.078125 -3.96875 3.328125 -3.515625 3.40625 -3.328125 C 3.5625 -2.953125 3.59375 -2.578125 3.59375 -2.078125 C 3.59375 -1.71875 3.59375 -1.125 3.34375 -0.703125 C 3.109375 -0.3125 2.734375 -0.0625 2.28125 -0.0625 C 1.5625 -0.0625 0.984375 -0.59375 0.8125 -1.171875 C 0.84375 -1.171875 0.875 -1.15625 0.984375 -1.15625 C 1.3125 -1.15625 1.484375 -1.40625 1.484375 -1.640625 C 1.484375 -1.890625 1.3125 -2.140625 0.984375 -2.140625 C 0.84375 -2.140625 0.5 -2.0625 0.5 -1.609375 C 0.5 -0.75 1.1875 0.21875 2.296875 0.21875 C 3.453125 0.21875 4.46875 -0.734375 4.46875 -2 Z M 4.46875 -2 "/>
</g>
<g id="glyph-2-0">
<path d="M 1.90625 -0.53125 C 1.90625 -0.8125 1.671875 -1.0625 1.390625 -1.0625 C 1.09375 -1.0625 0.859375 -0.8125 0.859375 -0.53125 C 0.859375 -0.234375 1.09375 0 1.390625 0 C 1.671875 0 1.90625 -0.234375 1.90625 -0.53125 Z M 1.90625 -0.53125 "/>
</g>
<g id="glyph-2-1">
<path d="M 4.9375 -1.421875 C 4.9375 -1.53125 4.859375 -1.53125 4.828125 -1.53125 C 4.734375 -1.53125 4.71875 -1.484375 4.6875 -1.421875 C 4.359375 -0.34375 3.6875 -0.109375 3.375 -0.109375 C 2.984375 -0.109375 2.828125 -0.421875 2.828125 -0.765625 C 2.828125 -0.984375 2.875 -1.203125 2.984375 -1.640625 L 3.328125 -3.015625 C 3.390625 -3.265625 3.625 -4.1875 4.3125 -4.1875 C 4.359375 -4.1875 4.609375 -4.1875 4.8125 -4.0625 C 4.53125 -4 4.34375 -3.765625 4.34375 -3.515625 C 4.34375 -3.359375 4.453125 -3.171875 4.71875 -3.171875 C 4.9375 -3.171875 5.25 -3.34375 5.25 -3.75 C 5.25 -4.265625 4.671875 -4.40625 4.328125 -4.40625 C 3.75 -4.40625 3.40625 -3.875 3.28125 -3.65625 C 3.03125 -4.3125 2.5 -4.40625 2.203125 -4.40625 C 1.171875 -4.40625 0.59375 -3.125 0.59375 -2.875 C 0.59375 -2.765625 0.71875 -2.765625 0.71875 -2.765625 C 0.796875 -2.765625 0.828125 -2.796875 0.84375 -2.875 C 1.1875 -3.9375 1.84375 -4.1875 2.1875 -4.1875 C 2.375 -4.1875 2.71875 -4.09375 2.71875 -3.515625 C 2.71875 -3.203125 2.546875 -2.546875 2.1875 -1.140625 C 2.03125 -0.53125 1.671875 -0.109375 1.234375 -0.109375 C 1.171875 -0.109375 0.953125 -0.109375 0.734375 -0.234375 C 0.984375 -0.296875 1.203125 -0.5 1.203125 -0.78125 C 1.203125 -1.046875 0.984375 -1.125 0.84375 -1.125 C 0.53125 -1.125 0.296875 -0.875 0.296875 -0.546875 C 0.296875 -0.09375 0.78125 0.109375 1.21875 0.109375 C 1.890625 0.109375 2.25 -0.59375 2.265625 -0.640625 C 2.390625 -0.28125 2.75 0.109375 3.34375 0.109375 C 4.375 0.109375 4.9375 -1.171875 4.9375 -1.421875 Z M 4.9375 -1.421875 "/>
</g>
<g id="glyph-3-0">
<path d="M 2.078125 -3.515625 C 2.078125 -3.734375 1.890625 -3.890625 1.671875 -3.890625 C 1.390625 -3.890625 1.328125 -3.671875 1.296875 -3.578125 L 0.375 -0.5625 L 0.328125 -0.4375 C 0.328125 -0.359375 0.546875 -0.28125 0.609375 -0.28125 C 0.65625 -0.28125 0.6875 -0.328125 0.703125 -0.390625 L 2.03125 -3.296875 C 2.0625 -3.359375 2.078125 -3.421875 2.078125 -3.515625 Z M 2.078125 -3.515625 "/>
</g>
<g id="glyph-4-0">
<path d="M -1.421875 -4.890625 C -1.53125 -4.890625 -1.53125 -4.796875 -1.53125 -4.765625 C -1.53125 -4.671875 -1.484375 -4.65625 -1.34375 -4.625 C -0.625 -4.421875 -0.109375 -4.203125 -0.109375 -3.765625 C -0.109375 -3.5625 -0.21875 -3.4375 -0.578125 -3.4375 C -0.75 -3.4375 -0.984375 -3.484375 -1.140625 -3.515625 C -1.3125 -3.5625 -1.34375 -3.5625 -1.453125 -3.5625 C -2.09375 -3.5625 -2.375 -2.9375 -2.5 -2.078125 C -2.671875 -2.390625 -2.984375 -2.71875 -3.234375 -2.9375 C -3.765625 -3.421875 -4.1875 -3.875 -4.1875 -4.359375 C -4.1875 -4.421875 -4.1875 -4.4375 -4.171875 -4.453125 C -4.15625 -4.578125 -4.15625 -4.578125 -4.09375 -4.671875 C -4.09375 -4.6875 -4.078125 -4.6875 -4.0625 -4.703125 C -4.03125 -4.234375 -3.640625 -4.140625 -3.515625 -4.140625 C -3.359375 -4.140625 -3.171875 -4.25 -3.171875 -4.515625 C -3.171875 -4.78125 -3.390625 -5.0625 -3.78125 -5.0625 C -4.078125 -5.0625 -4.40625 -4.828125 -4.40625 -4.390625 C -4.40625 -4.109375 -4.328125 -3.65625 -3.53125 -2.9375 C -3.15625 -2.59375 -2.75 -2.203125 -2.609375 -1.828125 L -6.8125 -2.859375 C -6.8125 -2.859375 -6.921875 -2.859375 -6.921875 -2.734375 C -6.921875 -2.5 -6.84375 -1.78125 -6.8125 -1.515625 C -6.8125 -1.4375 -6.796875 -1.328125 -6.625 -1.328125 C -6.5 -1.328125 -6.5 -1.421875 -6.5 -1.5625 C -6.5 -2.046875 -6.4375 -2.0625 -6.328125 -2.0625 L -6.125 -2.03125 L -0.390625 -0.59375 C -0.25 -0.546875 -0.234375 -0.546875 -0.171875 -0.546875 C 0.0625 -0.546875 0.109375 -0.75 0.109375 -0.84375 C 0.109375 -0.96875 0.015625 -1.109375 -0.09375 -1.171875 C -0.1875 -1.21875 -2.03125 -1.671875 -2.28125 -1.734375 C -2.25 -2.078125 -2.09375 -2.890625 -1.4375 -2.890625 C -1.359375 -2.890625 -1.328125 -2.890625 -1.21875 -2.859375 C -1.109375 -2.84375 -0.984375 -2.828125 -0.875 -2.828125 C -0.296875 -2.828125 0.109375 -3.21875 0.109375 -3.734375 C 0.109375 -4.03125 -0.046875 -4.3125 -0.421875 -4.53125 C -0.859375 -4.78125 -1.421875 -4.890625 -1.421875 -4.890625 Z M -1.421875 -4.890625 "/>
</g>
<g id="glyph-5-0">
<path d="M -1.296875 -3.90625 C -1.921875 -3.90625 -2.515625 -3.46875 -2.671875 -2.765625 L -2.90625 -1.734375 C -3.046875 -1.125 -3.484375 -0.9375 -3.78125 -0.9375 C -4.234375 -0.9375 -4.671875 -1.359375 -4.671875 -2 C -4.671875 -2.9375 -4.046875 -3.34375 -3.3125 -3.453125 C -3.21875 -3.46875 -3.171875 -3.46875 -3.171875 -3.578125 C -3.171875 -3.6875 -3.21875 -3.6875 -3.359375 -3.6875 L -4.71875 -3.6875 C -4.84375 -3.6875 -4.90625 -3.6875 -4.90625 -3.59375 C -4.90625 -3.546875 -4.875 -3.53125 -4.796875 -3.484375 L -4.40625 -3.21875 C -4.875 -2.765625 -4.90625 -2.1875 -4.90625 -2 C -4.90625 -1.109375 -4.265625 -0.484375 -3.5625 -0.484375 C -3.171875 -0.484375 -2.875 -0.65625 -2.640625 -0.90625 C -2.375 -1.1875 -2.328125 -1.421875 -2.15625 -2.171875 C -2.015625 -2.8125 -1.984375 -2.953125 -1.796875 -3.15625 C -1.625 -3.3125 -1.40625 -3.453125 -1.09375 -3.453125 C -0.609375 -3.453125 -0.109375 -3.046875 -0.109375 -2.390625 C -0.109375 -1.703125 -0.375 -0.78125 -1.421875 -0.71875 C -1.546875 -0.71875 -1.578125 -0.71875 -1.578125 -0.609375 C -1.578125 -0.484375 -1.53125 -0.484375 -1.390625 -0.484375 L -0.046875 -0.484375 C 0.078125 -0.484375 0.140625 -0.484375 0.140625 -0.578125 C 0.140625 -0.640625 0.125 -0.65625 0.0625 -0.703125 C -0.03125 -0.765625 -0.25 -0.90625 -0.34375 -0.953125 C 0.046875 -1.390625 0.140625 -1.9375 0.140625 -2.390625 C 0.140625 -3.296875 -0.546875 -3.90625 -1.296875 -3.90625 Z M -1.296875 -3.90625 "/>
</g>
<g id="glyph-5-1">
<path d="M -1.828125 -5.078125 L -1.828125 -4.84375 C -0.78125 -4.65625 -0.25 -4.5 -0.25 -3.203125 L -0.25 -2.109375 C -0.25 -1.78125 -0.3125 -1.765625 -0.515625 -1.765625 L -2.328125 -1.765625 L -2.328125 -2.46875 C -2.328125 -3.171875 -2.125 -3.28125 -1.515625 -3.28125 L -1.515625 -3.515625 L -3.40625 -3.515625 L -3.40625 -3.28125 C -2.796875 -3.28125 -2.578125 -3.171875 -2.578125 -2.46875 L -2.578125 -1.765625 L -4.203125 -1.765625 C -4.421875 -1.765625 -4.484375 -1.78125 -4.484375 -2.109375 L -4.484375 -3.15625 C -4.484375 -4.296875 -4.109375 -4.5 -3.125 -4.625 L -3.125 -4.859375 L -4.734375 -4.640625 L -4.734375 -0.390625 L -4.484375 -0.390625 L -4.484375 -0.5625 C -4.484375 -1.09375 -4.40625 -1.109375 -4.171875 -1.109375 L -0.5625 -1.109375 C -0.328125 -1.109375 -0.25 -1.09375 -0.25 -0.5625 L -0.25 -0.390625 L 0 -0.390625 L 0 -4.765625 Z M -1.828125 -5.078125 "/>
</g>
<g id="glyph-6-0">
<path d="M 3.375 -0.765625 C 3.375 -0.8125 3.3125 -0.890625 3.25 -0.890625 C 3.21875 -0.890625 3.203125 -0.890625 3.125 -0.8125 C 2.546875 -0.265625 2.234375 -0.109375 1.9375 -0.109375 C 1.8125 -0.109375 1.609375 -0.109375 1.484375 -0.515625 C 1.4375 -0.65625 1.375 -0.96875 1.375 -1.296875 C 1.375 -1.4375 1.375 -1.609375 1.421875 -1.765625 C 1.421875 -1.765625 1.421875 -1.78125 1.59375 -1.953125 C 1.984375 -2.359375 2.5 -2.9375 2.859375 -3.484375 C 3.5625 -4.5625 3.625 -5.359375 3.625 -5.609375 C 3.625 -5.921875 3.546875 -6.328125 3.078125 -6.328125 C 2.671875 -6.328125 2.375 -5.953125 2.25 -5.796875 C 1.421875 -4.765625 0.84375 -2.875 0.84375 -1.71875 C 0.84375 -1.671875 0.84375 -1.609375 0.859375 -1.5625 L 0.234375 -0.984375 C 0.21875 -0.96875 0.15625 -0.90625 0.125 -0.890625 C 0.109375 -0.859375 0.09375 -0.828125 0.09375 -0.796875 C 0.09375 -0.765625 0.125 -0.65625 0.203125 -0.65625 C 0.28125 -0.65625 0.625 -1 0.71875 -1.109375 L 0.875 -1.25 C 0.984375 -0.421875 1.3125 0.109375 1.921875 0.109375 C 2.46875 0.109375 3.015625 -0.375 3.34375 -0.671875 C 3.359375 -0.6875 3.375 -0.703125 3.375 -0.765625 Z M 3.390625 -5.640625 C 3.390625 -5.5 3.359375 -4.9375 3 -4.203125 C 2.46875 -3.15625 1.46875 -2.1875 1.46875 -2.1875 C 1.53125 -2.546875 1.84375 -3.921875 2.140625 -4.71875 C 2.25 -5 2.65625 -6.09375 3.09375 -6.09375 C 3.34375 -6.09375 3.390625 -5.859375 3.390625 -5.640625 Z M 3.390625 -5.640625 "/>
</g>
<g id="glyph-6-1">
<path d="M 1.765625 -0.484375 C 1.765625 -0.75 1.546875 -0.96875 1.28125 -0.96875 C 1 -0.96875 0.796875 -0.75 0.796875 -0.484375 C 0.796875 -0.21875 1 0 1.28125 0 C 1.546875 0 1.765625 -0.21875 1.765625 -0.484375 Z M 1.765625 -0.484375 "/>
</g>
<g id="glyph-7-0">
<path d="M 6.640625 -3.15625 C 6.640625 -3.359375 6.453125 -3.359375 6.3125 -3.359375 L 0.84375 -3.359375 C 0.703125 -3.359375 0.515625 -3.359375 0.515625 -3.15625 C 0.515625 -2.96875 0.6875 -2.96875 0.8125 -2.96875 L 6.34375 -2.96875 C 6.46875 -2.96875 6.640625 -2.96875 6.640625 -3.15625 Z M 6.640625 -1.34375 C 6.640625 -1.53125 6.46875 -1.53125 6.34375 -1.53125 L 0.8125 -1.53125 C 0.6875 -1.53125 0.515625 -1.53125 0.515625 -1.34375 C 0.515625 -1.140625 0.703125 -1.140625 0.84375 -1.140625 L 6.3125 -1.140625 C 6.453125 -1.140625 6.640625 -1.140625 6.640625 -1.34375 Z M 6.640625 -1.34375 "/>
</g>
<g id="glyph-7-1">
<path d="M 4.25 -2.875 C 4.25 -3.46875 4.21875 -4.25 3.90625 -4.921875 C 3.5 -5.765625 2.828125 -5.96875 2.3125 -5.96875 C 1.765625 -5.96875 1.078125 -5.765625 0.6875 -4.890625 C 0.40625 -4.28125 0.359375 -3.546875 0.359375 -2.875 C 0.359375 -2.28125 0.375 -1.421875 0.765625 -0.703125 C 1.1875 0.046875 1.890625 0.203125 2.296875 0.203125 C 2.875 0.203125 3.546875 -0.046875 3.921875 -0.875 C 4.1875 -1.484375 4.25 -2.15625 4.25 -2.875 Z M 3.46875 -2.984375 C 3.46875 -2.421875 3.46875 -1.671875 3.375 -1.140625 C 3.1875 -0.109375 2.53125 -0.03125 2.3125 -0.03125 C 2.03125 -0.03125 1.390625 -0.15625 1.21875 -1.171875 C 1.125 -1.6875 1.125 -2.46875 1.125 -2.984375 C 1.125 -3.59375 1.125 -4.296875 1.234375 -4.796875 C 1.421875 -5.59375 1.984375 -5.75 2.296875 -5.75 C 2.640625 -5.75 3.203125 -5.5625 3.375 -4.734375 C 3.46875 -4.25 3.46875 -3.546875 3.46875 -2.984375 Z M 3.46875 -2.984375 "/>
</g>
<g id="glyph-7-2">
<path d="M 4.140625 -1.796875 C 4.140625 -2.875 3.375 -3.765625 2.390625 -3.765625 C 1.96875 -3.765625 1.53125 -3.625 1.203125 -3.296875 L 1.203125 -5.0625 C 1.484375 -4.984375 1.765625 -4.9375 2.03125 -4.9375 C 3.140625 -4.9375 3.78125 -5.734375 3.78125 -5.859375 C 3.78125 -5.9375 3.734375 -5.96875 3.6875 -5.96875 C 3.6875 -5.96875 3.65625 -5.96875 3.5625 -5.921875 C 3.140625 -5.765625 2.734375 -5.6875 2.359375 -5.6875 C 1.96875 -5.6875 1.5625 -5.765625 1.15625 -5.921875 C 1.0625 -5.96875 1.046875 -5.96875 1.046875 -5.96875 C 0.9375 -5.96875 0.9375 -5.890625 0.9375 -5.734375 L 0.9375 -3.09375 C 0.9375 -2.9375 0.9375 -2.828125 1.0625 -2.828125 C 1.125 -2.828125 1.15625 -2.875 1.203125 -2.953125 C 1.484375 -3.328125 1.90625 -3.546875 2.375 -3.546875 C 3.34375 -3.546875 3.34375 -2.15625 3.34375 -1.84375 C 3.34375 -1.5625 3.34375 -1 3.078125 -0.59375 C 2.84375 -0.21875 2.46875 -0.046875 2.109375 -0.046875 C 1.59375 -0.046875 0.984375 -0.390625 0.765625 -1.046875 C 0.765625 -1.046875 0.828125 -1.03125 0.890625 -1.03125 C 1.078125 -1.03125 1.34375 -1.140625 1.34375 -1.46875 C 1.34375 -1.75 1.140625 -1.90625 0.890625 -1.90625 C 0.703125 -1.90625 0.453125 -1.796875 0.453125 -1.4375 C 0.453125 -0.625 1.140625 0.203125 2.140625 0.203125 C 3.21875 0.203125 4.140625 -0.6875 4.140625 -1.796875 Z M 4.140625 -1.796875 "/>
</g>
<g id="glyph-7-3">
<path d="M 3.875 0 L 3.875 -0.28125 L 3.59375 -0.28125 C 2.75 -0.28125 2.71875 -0.390625 2.71875 -0.71875 L 2.71875 -5.734375 C 2.71875 -5.953125 2.71875 -5.96875 2.5 -5.96875 C 1.9375 -5.40625 1.109375 -5.40625 0.828125 -5.40625 L 0.828125 -5.125 C 1 -5.125 1.546875 -5.125 2.03125 -5.359375 L 2.03125 -0.71875 C 2.03125 -0.390625 2.015625 -0.28125 1.171875 -0.28125 L 0.890625 -0.28125 L 0.890625 0 C 1.203125 -0.03125 2.015625 -0.03125 2.375 -0.03125 C 2.75 -0.03125 3.546875 -0.03125 3.875 0 Z M 3.875 0 "/>
</g>
<g id="glyph-7-4">
<path d="M 4.140625 -1.59375 L 3.890625 -1.59375 C 3.875 -1.46875 3.796875 -0.9375 3.6875 -0.796875 C 3.625 -0.71875 3.015625 -0.71875 2.828125 -0.71875 L 1.234375 -0.71875 L 2.125 -1.5625 C 3.59375 -2.828125 4.140625 -3.3125 4.140625 -4.21875 C 4.140625 -5.25 3.296875 -5.96875 2.1875 -5.96875 C 1.15625 -5.96875 0.453125 -5.15625 0.453125 -4.34375 C 0.453125 -3.890625 0.84375 -3.84375 0.921875 -3.84375 C 1.125 -3.84375 1.390625 -3.984375 1.390625 -4.3125 C 1.390625 -4.578125 1.203125 -4.78125 0.921875 -4.78125 C 0.875 -4.78125 0.859375 -4.78125 0.8125 -4.765625 C 1.03125 -5.40625 1.609375 -5.6875 2.09375 -5.6875 C 3 -5.6875 3.3125 -4.84375 3.3125 -4.21875 C 3.3125 -3.3125 2.625 -2.5625 2.203125 -2.09375 L 0.5625 -0.328125 C 0.453125 -0.21875 0.453125 -0.203125 0.453125 0 L 3.890625 0 Z M 4.140625 -1.59375 "/>
</g>
</g>
<clipPath id="clip-0">
<path clip-rule="nonzero" d="M 39.804688 5.179688 L 278.441406 5.179688 L 278.441406 73.734375 L 39.804688 73.734375 Z M 39.804688 5.179688 "/>
</clipPath>
</defs>
<path fill="none" stroke-width="0.3985" stroke-linecap="butt" stroke-linejoin="miter" stroke="rgb(89.99939%, 89.99939%, 89.99939%)" stroke-opacity="1" stroke-miterlimit="10" d="M -0.0003125 -0.000375 L -0.0003125 68.554312 M 29.827813 -0.000375 L 29.827813 68.554312 M 59.659844 -0.000375 L 59.659844 68.554312 M 89.487969 -0.000375 L 89.487969 68.554312 M 119.316094 -0.000375 L 119.316094 68.554312 M 149.148125 -0.000375 L 149.148125 68.554312 M 178.97625 -0.000375 L 178.97625 68.554312 M 208.804375 -0.000375 L 208.804375 68.554312 M 238.636406 -0.000375 L 238.636406 68.554312 " transform="matrix(1, 0, 0, -1, 39.805, 73.734)"/>
<path fill="none" stroke-width="0.3985" stroke-linecap="butt" stroke-linejoin="miter" stroke="rgb(89.99939%, 89.99939%, 89.99939%)" stroke-opacity="1" stroke-miterlimit="10" d="M -0.0003125 -0.000375 L 238.636406 -0.000375 M -0.0003125 29.808219 L 238.636406 29.808219 M -0.0003125 59.612906 L 238.636406 59.612906 " transform="matrix(1, 0, 0, -1, 39.805, 73.734)"/>
<path fill="none" stroke-width="0.19925" stroke-linecap="butt" stroke-linejoin="miter" stroke="rgb(50%, 50%, 50%)" stroke-opacity="1" stroke-miterlimit="10" d="M -0.0003125 -0.000375 L -0.0003125 4.253531 M 29.827813 -0.000375 L 29.827813 4.253531 M 59.659844 -0.000375 L 59.659844 4.253531 M 89.487969 -0.000375 L 89.487969 4.253531 M 119.316094 -0.000375 L 119.316094 4.253531 M 149.148125 -0.000375 L 149.148125 4.253531 M 178.97625 -0.000375 L 178.97625 4.253531 M 208.804375 -0.000375 L 208.804375 4.253531 M 238.636406 -0.000375 L 238.636406 4.253531 M -0.0003125 68.554312 L -0.0003125 64.304312 M 29.827813 68.554312 L 29.827813 64.304312 M 59.659844 68.554312 L 59.659844 64.304312 M 89.487969 68.554312 L 89.487969 64.304312 M 119.316094 68.554312 L 119.316094 64.304312 M 149.148125 68.554312 L 149.148125 64.304312 M 178.97625 68.554312 L 178.97625 64.304312 M 208.804375 68.554312 L 208.804375 64.304312 M 238.636406 68.554312 L 238.636406 64.304312 " transform="matrix(1, 0, 0, -1, 39.805, 73.734)"/>
<path fill="none" stroke-width="0.19925" stroke-linecap="butt" stroke-linejoin="miter" stroke="rgb(50%, 50%, 50%)" stroke-opacity="1" stroke-miterlimit="10" d="M -0.0003125 -0.000375 L 4.253594 -0.000375 M -0.0003125 29.808219 L 4.253594 29.808219 M -0.0003125 59.612906 L 4.253594 59.612906 M 238.636406 -0.000375 L 234.3825 -0.000375 M 238.636406 29.808219 L 234.3825 29.808219 M 238.636406 59.612906 L 234.3825 59.612906 " transform="matrix(1, 0, 0, -1, 39.805, 73.734)"/>
<path fill="none" stroke-width="0.3985" stroke-linecap="butt" stroke-linejoin="miter" stroke="rgb(0%, 0%, 0%)" stroke-opacity="1" stroke-miterlimit="10" d="M -0.0003125 -0.000375 L -0.0003125 68.554312 L 238.636406 68.554312 L 238.636406 -0.000375 Z M -0.0003125 -0.000375 " transform="matrix(1, 0, 0, -1, 39.805, 73.734)"/>
<g fill="rgb(0%, 0%, 0%)" fill-opacity="1">
<use xlink:href="#glyph-0-0" x="33.44" y="83.528"/>
</g>
<g fill="rgb(0%, 0%, 0%)" fill-opacity="1">
<use xlink:href="#glyph-1-0" x="41.18891" y="83.528"/>
</g>
<g fill="rgb(0%, 0%, 0%)" fill-opacity="1">
<use xlink:href="#glyph-0-0" x="63.269" y="83.528"/>
</g>
<g fill="rgb(0%, 0%, 0%)" fill-opacity="1">
<use xlink:href="#glyph-1-1" x="71.01791" y="83.528"/>
</g>
<g fill="rgb(0%, 0%, 0%)" fill-opacity="1">
<use xlink:href="#glyph-0-0" x="93.098" y="83.528"/>
</g>
<g fill="rgb(0%, 0%, 0%)" fill-opacity="1">
<use xlink:href="#glyph-1-2" x="100.84691" y="83.528"/>
</g>
<g fill="rgb(0%, 0%, 0%)" fill-opacity="1">
<use xlink:href="#glyph-0-0" x="122.927" y="83.528"/>
</g>
<g fill="rgb(0%, 0%, 0%)" fill-opacity="1">
<use xlink:href="#glyph-1-3" x="130.67591" y="83.528"/>
</g>
<g fill="rgb(0%, 0%, 0%)" fill-opacity="1">
<use xlink:href="#glyph-1-4" x="156.63" y="83.528"/>
</g>
<g fill="rgb(0%, 0%, 0%)" fill-opacity="1">
<use xlink:href="#glyph-1-3" x="186.459" y="83.528"/>
</g>
<g fill="rgb(0%, 0%, 0%)" fill-opacity="1">
<use xlink:href="#glyph-1-2" x="216.288" y="83.528"/>
</g>
<g fill="rgb(0%, 0%, 0%)" fill-opacity="1">
<use xlink:href="#glyph-1-1" x="246.117" y="83.528"/>
</g>
<g fill="rgb(0%, 0%, 0%)" fill-opacity="1">
<use xlink:href="#glyph-1-0" x="275.946" y="83.528"/>
</g>
<g fill="rgb(0%, 0%, 0%)" fill-opacity="1">
<use xlink:href="#glyph-1-4" x="31.304" y="76.871"/>
</g>
<g fill="rgb(0%, 0%, 0%)" fill-opacity="1">
<use xlink:href="#glyph-1-4" x="23.555" y="47.065"/>
</g>
<g fill="rgb(0%, 0%, 0%)" fill-opacity="1">
<use xlink:href="#glyph-2-0" x="28.5363" y="47.065"/>
</g>
<g fill="rgb(0%, 0%, 0%)" fill-opacity="1">
<use xlink:href="#glyph-1-5" x="31.30391" y="47.065"/>
</g>
<g fill="rgb(0%, 0%, 0%)" fill-opacity="1">
<use xlink:href="#glyph-1-3" x="31.304" y="17.259"/>
</g>
<g clip-path="url(#clip-0)">
<path fill="none" stroke-width="0.79701" stroke-linecap="butt" stroke-linejoin="miter" stroke="rgb(0%, 0%, 50%)" stroke-opacity="1" stroke-miterlimit="10" d="M -0.0003125 -0.000375 L 50.616875 -0.000375 L 53.030938 0.00353125 L 57.85125 0.0113437 L 60.261406 0.0230625 L 62.671563 0.0425937 L 65.081719 0.0816562 L 67.491875 0.144156 L 69.902031 0.245719 L 72.312187 0.413687 L 74.722344 0.683219 L 77.1325 1.093375 L 79.542656 1.70275 L 81.952812 2.585562 L 84.362969 3.82775 L 86.773125 5.51525 L 89.187187 7.745719 L 91.597344 10.593375 L 94.0075 14.124625 L 96.417656 18.339469 L 98.827812 23.206656 L 101.237969 28.597281 L 103.648125 34.331656 L 106.058281 40.163687 L 108.468437 45.76525 L 110.878594 50.808219 L 113.28875 54.944937 L 115.698906 57.898062 L 118.109062 59.429312 L 120.519219 59.429312 L 122.929375 57.898062 L 125.343437 54.95275 L 127.753594 50.816031 L 130.16375 45.776969 L 132.573906 40.1715 L 134.984062 34.343375 L 137.394219 28.601187 L 139.804375 23.214469 L 142.214531 18.347281 L 144.624687 14.132437 L 147.034844 10.601187 L 149.445 7.745719 L 151.855156 5.519156 L 154.265312 3.82775 L 156.675469 2.585562 L 159.085625 1.70275 L 161.499687 1.093375 L 163.909844 0.683219 L 166.32 0.417594 L 168.730156 0.245719 L 171.140312 0.144156 L 173.550469 0.0816562 L 175.960625 0.0425937 L 178.370781 0.0230625 L 180.780937 0.0113437 L 188.011406 -0.000375 L 238.6325 -0.000375 " transform="matrix(1, 0, 0, -1, 39.805, 73.734)"/>
<path fill="none" stroke-width="0.79701" stroke-linecap="butt" stroke-linejoin="miter" stroke="rgb(59.999084%, 0%, 0%)" stroke-opacity="1" stroke-miterlimit="10" d="M -0.0003125 0.0191562 L 2.409844 0.0269687 L 7.230156 0.0504062 L 9.640313 0.0699375 L 12.050469 0.093375 L 14.460625 0.124625 L 16.874688 0.163687 L 19.284844 0.214469 L 21.695 0.280875 L 24.105156 0.366812 L 26.515313 0.472281 L 28.925469 0.605094 L 31.335625 0.769156 L 33.745781 0.972281 L 36.155938 1.222281 L 38.566094 1.526969 L 40.97625 1.894156 L 43.386406 2.335562 L 45.796563 2.859 L 48.206719 3.476187 L 50.616875 4.20275 L 53.030938 5.0465 L 55.441094 6.01525 L 57.85125 7.128531 L 60.261406 8.394156 L 62.671563 9.819937 L 65.081719 11.413687 L 67.491875 13.175406 L 69.902031 15.116812 L 72.312187 17.226187 L 74.722344 19.503531 L 77.1325 21.937125 L 79.542656 24.511344 L 81.952812 27.206656 L 84.362969 30.011344 L 86.773125 32.882437 L 89.187187 35.792594 L 91.597344 38.714469 L 94.0075 41.593375 L 96.417656 44.405875 L 98.827812 47.093375 L 101.237969 49.620719 L 103.648125 51.941031 L 106.058281 54.01525 L 108.468437 55.812125 L 110.878594 57.284781 L 113.28875 58.4215 L 115.698906 59.187125 L 118.109062 59.573844 L 120.519219 59.573844 L 122.929375 59.191031 L 125.343437 58.4215 L 127.753594 57.288687 L 130.16375 55.812125 L 132.573906 54.01525 L 134.984062 51.944937 L 137.394219 49.620719 L 139.804375 47.097281 L 142.214531 44.409781 L 144.624687 41.601187 L 147.034844 38.722281 L 149.445 35.800406 L 151.855156 32.89025 L 154.265312 30.01525 L 156.675469 27.214469 L 159.085625 24.511344 L 161.499687 21.937125 L 163.909844 19.503531 L 166.32 17.230094 L 168.730156 15.120719 L 171.140312 13.183219 L 173.550469 11.417594 L 175.960625 9.82775 L 178.370781 8.401969 L 180.780937 7.128531 L 183.191094 6.023062 L 185.60125 5.0465 L 188.011406 4.20275 L 190.421562 3.480094 L 192.831719 2.859 L 195.241875 2.335562 L 197.655937 1.894156 L 200.066094 1.526969 L 202.47625 1.222281 L 204.886406 0.972281 L 207.296562 0.769156 L 209.706719 0.605094 L 212.116875 0.472281 L 214.527031 0.366812 L 216.937187 0.280875 L 219.347344 0.214469 L 221.7575 0.163687 L 224.167656 0.124625 L 226.577812 0.093375 L 228.987969 0.0699375 L 231.398125 0.0504062 L 233.812187 0.0386875 L 236.222344 0.0269687 L 238.6325 0.0191562 " transform="matrix(1, 0, 0, -1, 39.805, 73.734)"/>
<path fill="none" stroke-width="0.79701" stroke-linecap="butt" stroke-linejoin="miter" stroke="rgb(0%, 39.216614%, 0%)" stroke-opacity="1" stroke-miterlimit="10" d="M -0.0003125 8.066031 L 2.409844 8.741812 L 4.82 9.448844 L 7.230156 10.206656 L 9.640313 10.999625 L 12.050469 11.843375 L 14.460625 12.722281 L 16.874688 13.648062 L 19.284844 14.620719 L 21.695 15.628531 L 24.105156 16.683219 L 26.515313 17.780875 L 28.925469 18.917594 L 31.335625 20.093375 L 33.745781 21.312125 L 36.155938 22.569937 L 38.566094 23.855094 L 40.97625 25.175406 L 43.386406 26.526969 L 45.796563 27.905875 L 48.206719 29.300406 L 50.616875 30.726187 L 53.030938 32.163687 L 55.441094 33.612906 L 57.85125 35.066031 L 62.671563 37.987906 L 65.081719 39.441031 L 67.491875 40.886344 L 69.902031 42.312125 L 72.312187 43.714469 L 74.722344 45.089469 L 77.1325 46.437125 L 79.542656 47.741812 L 81.952812 49.007437 L 84.362969 50.222281 L 86.773125 51.382437 L 89.187187 52.484 L 91.597344 53.523062 L 94.0075 54.491812 L 96.417656 55.386344 L 98.827812 56.210562 L 101.237969 56.948844 L 103.648125 57.605094 L 106.058281 58.1715 L 108.468437 58.648062 L 110.878594 59.030875 L 113.28875 59.323844 L 115.698906 59.51525 L 118.109062 59.612906 L 120.519219 59.612906 L 122.929375 59.51525 L 125.343437 59.323844 L 127.753594 59.030875 L 130.16375 58.648062 L 132.573906 58.1715 L 134.984062 57.605094 L 137.394219 56.948844 L 139.804375 56.210562 L 142.214531 55.394156 L 144.624687 54.491812 L 147.034844 53.526969 L 149.445 52.487906 L 151.855156 51.386344 L 154.265312 50.222281 L 156.675469 49.007437 L 159.085625 47.741812 L 161.499687 46.437125 L 163.909844 45.097281 L 166.32 43.718375 L 168.730156 42.312125 L 171.140312 40.886344 L 173.550469 39.441031 L 178.370781 36.534781 L 183.191094 33.612906 L 185.60125 32.163687 L 188.011406 30.726187 L 190.421562 29.308219 L 192.831719 27.905875 L 195.241875 26.526969 L 197.655937 25.175406 L 200.066094 23.855094 L 202.47625 22.569937 L 204.886406 21.316031 L 207.296562 20.101187 L 209.706719 18.917594 L 212.116875 17.780875 L 214.527031 16.687125 L 216.937187 15.628531 L 219.347344 14.620719 L 221.7575 13.648062 L 224.167656 12.722281 L 226.577812 11.843375 L 228.987969 11.007437 L 231.398125 10.206656 L 233.812187 9.456656 L 236.222344 8.741812 L 238.6325 8.066031 " transform="matrix(1, 0, 0, -1, 39.805, 73.734)"/>
</g>
<g fill="rgb(0%, 0%, 0%)" fill-opacity="1">
<use xlink:href="#glyph-2-1" x="145.941" y="98.688"/>
</g>
<g fill="rgb(0%, 0%, 0%)" fill-opacity="1">
<use xlink:href="#glyph-0-0" x="153.846323" y="98.688"/>
</g>
<g fill="rgb(0%, 0%, 0%)" fill-opacity="1">
<use xlink:href="#glyph-2-1" x="163.806931" y="98.688"/>
</g>
<g fill="rgb(0%, 0%, 0%)" fill-opacity="1">
<use xlink:href="#glyph-3-0" x="169.505" y="95.073"/>
</g>
<g fill="rgb(0%, 0%, 0%)" fill-opacity="1">
<use xlink:href="#glyph-4-0" x="15.22" y="47.177"/>
</g>
<g fill="rgb(0%, 0%, 0%)" fill-opacity="1">
<use xlink:href="#glyph-5-0" x="16.714" y="41.99"/>
<use xlink:href="#glyph-5-1" x="16.714" y="37.589532"/>
</g>
<path fill-rule="nonzero" fill="rgb(100%, 100%, 100%)" fill-opacity="1" stroke-width="0.3985" stroke-linecap="butt" stroke-linejoin="miter" stroke="rgb(0%, 0%, 0%)" stroke-opacity="1" stroke-miterlimit="10" d="M 178.027031 25.823844 L 233.659844 25.823844 L 233.659844 64.929312 L 178.027031 64.929312 Z M 178.027031 25.823844 " transform="matrix(1, 0, 0, -1, 39.805, 73.734)"/>
<path fill="none" stroke-width="0.79701" stroke-linecap="butt" stroke-linejoin="miter" stroke="rgb(0%, 0%, 50%)" stroke-opacity="1" stroke-miterlimit="10" d="M -0.00015625 0.00065625 L 17.007656 0.00065625 " transform="matrix(1, 0, 0, -1, 221.215, 16.653)"/>
<g fill="rgb(0%, 0%, 0%)" fill-opacity="1">
<use xlink:href="#glyph-6-0" x="240.615" y="19.019"/>
</g>
<g fill="rgb(0%, 0%, 0%)" fill-opacity="1">
<use xlink:href="#glyph-7-0" x="246.975764" y="19.019"/>
</g>
<g fill="rgb(0%, 0%, 0%)" fill-opacity="1">
<use xlink:href="#glyph-7-1" x="256.707895" y="19.019"/>
</g>
<g fill="rgb(0%, 0%, 0%)" fill-opacity="1">
<use xlink:href="#glyph-6-1" x="261.315728" y="19.019"/>
</g>
<g fill="rgb(0%, 0%, 0%)" fill-opacity="1">
<use xlink:href="#glyph-7-2" x="263.875635" y="19.019"/>
</g>
<path fill="none" stroke-width="0.79701" stroke-linecap="butt" stroke-linejoin="miter" stroke="rgb(59.999084%, 0%, 0%)" stroke-opacity="1" stroke-miterlimit="10" d="M -0.00015625 -0.000375 L 17.007656 -0.000375 " transform="matrix(1, 0, 0, -1, 221.215, 28.359)"/>
<g fill="rgb(0%, 0%, 0%)" fill-opacity="1">
<use xlink:href="#glyph-6-0" x="240.615" y="30.725"/>
</g>
<g fill="rgb(0%, 0%, 0%)" fill-opacity="1">
<use xlink:href="#glyph-7-0" x="246.975764" y="30.725"/>
</g>
<g fill="rgb(0%, 0%, 0%)" fill-opacity="1">
<use xlink:href="#glyph-7-3" x="256.707895" y="30.725"/>
</g>
<g fill="rgb(0%, 0%, 0%)" fill-opacity="1">
<use xlink:href="#glyph-6-1" x="261.315728" y="30.725"/>
</g>
<g fill="rgb(0%, 0%, 0%)" fill-opacity="1">
<use xlink:href="#glyph-7-1" x="263.875635" y="30.725"/>
</g>
<path fill="none" stroke-width="0.79701" stroke-linecap="butt" stroke-linejoin="miter" stroke="rgb(0%, 39.216614%, 0%)" stroke-opacity="1" stroke-miterlimit="10" d="M -0.00015625 -0.00140625 L 17.007656 -0.00140625 " transform="matrix(1, 0, 0, -1, 221.215, 40.065)"/>
<g fill="rgb(0%, 0%, 0%)" fill-opacity="1">
<use xlink:href="#glyph-6-0" x="240.615" y="42.431"/>
</g>
<g fill="rgb(0%, 0%, 0%)" fill-opacity="1">
<use xlink:href="#glyph-7-0" x="246.975764" y="42.431"/>
</g>
<g fill="rgb(0%, 0%, 0%)" fill-opacity="1">
<use xlink:href="#glyph-7-4" x="256.707895" y="42.431"/>
</g>
<g fill="rgb(0%, 0%, 0%)" fill-opacity="1">
<use xlink:href="#glyph-6-1" x="261.315728" y="42.431"/>
</g>
<g fill="rgb(0%, 0%, 0%)" fill-opacity="1">
<use xlink:href="#glyph-7-1" x="263.875635" y="42.431"/>
</g>
</svg>
