<?xml version="1.0" encoding="UTF-8"?>
<svg xmlns="http://www.w3.org/2000/svg" xmlns:xlink="http://www.w3.org/1999/xlink" width="216.68pt" height="122.302pt" viewBox="0 0 216.68 122.302">
<defs>
<g>
<g id="glyph-0-0">
<path d="M 5.296875 -1.328125 C 5.296875 -1.453125 5.171875 -1.453125 5.078125 -1.453125 C 4.984375 -1.453125 4.921875 -1.453125 4.875 -1.34375 C 4.625 -0.515625 3.96875 -0.25 3.609375 -0.25 C 3.265625 -0.25 3.109375 -0.40625 3.109375 -0.703125 C 3.109375 -0.890625 3.21875 -1.359375 3.296875 -1.6875 L 3.609375 -2.921875 C 3.75 -3.453125 4.0625 -3.734375 4.375 -3.734375 C 4.421875 -3.734375 4.625 -3.734375 4.8125 -3.59375 C 4.484375 -3.5 4.328125 -3.203125 4.328125 -2.984375 C 4.328125 -2.78125 4.46875 -2.5625 4.765625 -2.5625 C 5.078125 -2.5625 5.421875 -2.828125 5.421875 -3.265625 C 5.421875 -3.734375 4.9375 -4.046875 4.390625 -4.046875 C 3.890625 -4.046875 3.546875 -3.671875 3.4375 -3.5 C 3.203125 -3.890625 2.703125 -4.046875 2.203125 -4.046875 C 1.0625 -4.046875 0.453125 -2.953125 0.453125 -2.65625 C 0.453125 -2.53125 0.59375 -2.53125 0.671875 -2.53125 C 0.78125 -2.53125 0.84375 -2.53125 0.875 -2.640625 C 1.140625 -3.46875 1.78125 -3.734375 2.15625 -3.734375 C 2.5 -3.734375 2.65625 -3.5625 2.65625 -3.28125 C 2.65625 -3.109375 2.53125 -2.625 2.453125 -2.296875 L 2.140625 -1.0625 C 2.015625 -0.515625 1.6875 -0.25 1.375 -0.25 C 1.34375 -0.25 1.125 -0.25 0.953125 -0.390625 C 1.28125 -0.46875 1.4375 -0.78125 1.4375 -1 C 1.4375 -1.203125 1.28125 -1.421875 0.984375 -1.421875 C 0.671875 -1.421875 0.34375 -1.15625 0.34375 -0.71875 C 0.34375 -0.234375 0.8125 0.078125 1.359375 0.078125 C 1.875 0.078125 2.203125 -0.3125 2.328125 -0.46875 C 2.546875 -0.09375 3.046875 0.078125 3.5625 0.078125 C 4.6875 0.078125 5.296875 -1.03125 5.296875 -1.328125 Z M 5.296875 -1.328125 "/>
</g>
<g id="glyph-0-1">
<path d="M 5.6875 -1.328125 C 5.6875 -1.453125 5.546875 -1.453125 5.46875 -1.453125 C 5.359375 -1.453125 5.296875 -1.453125 5.265625 -1.34375 C 4.984375 -0.34375 4.484375 -0.25 4.34375 -0.25 C 4.28125 -0.25 4.1875 -0.25 4.1875 -0.4375 C 4.1875 -0.640625 4.28125 -0.875 4.34375 -1.015625 C 4.515625 -1.46875 4.921875 -2.515625 4.921875 -3.015625 C 4.921875 -3.84375 4.234375 -4.046875 3.59375 -4.046875 C 3.390625 -4.046875 2.84375 -4.046875 2.234375 -3.5 L 2.828125 -5.90625 C 2.875 -6.03125 2.875 -6.0625 2.875 -6.0625 C 2.875 -6.171875 2.765625 -6.21875 2.671875 -6.21875 C 2.640625 -6.21875 2.625 -6.21875 2.609375 -6.21875 L 1.453125 -6.15625 C 1.328125 -6.15625 1.171875 -6.140625 1.171875 -5.890625 C 1.171875 -5.734375 1.328125 -5.734375 1.40625 -5.734375 C 1.5 -5.734375 1.65625 -5.734375 1.78125 -5.71875 L 0.484375 -0.53125 C 0.46875 -0.5 0.453125 -0.375 0.453125 -0.328125 C 0.453125 -0.109375 0.625 0.078125 0.875 0.078125 C 0.9375 0.078125 1.34375 0.078125 1.46875 -0.4375 L 2 -2.5625 C 2.046875 -2.71875 2.046875 -2.75 2.171875 -2.921875 C 2.328125 -3.125 2.765625 -3.734375 3.515625 -3.734375 C 3.75 -3.734375 3.96875 -3.640625 3.96875 -3.203125 C 3.96875 -2.6875 3.5625 -1.625 3.40625 -1.1875 C 3.296875 -0.953125 3.28125 -0.890625 3.28125 -0.734375 C 3.28125 -0.21875 3.796875 0.078125 4.28125 0.078125 C 5.234375 0.078125 5.6875 -1.140625 5.6875 -1.328125 Z M 5.6875 -1.328125 "/>
</g>
<g id="glyph-0-2">
<path d="M 4.328125 0.015625 L 5.171875 -3.375 C 5.21875 -3.546875 5.21875 -3.5625 5.21875 -3.59375 C 5.21875 -3.78125 5.078125 -3.984375 4.796875 -3.984375 C 4.328125 -3.984375 4.21875 -3.5625 4.15625 -3.3125 L 3.921875 -2.390625 L 3.546875 -0.890625 C 3.5 -0.703125 3.234375 -0.484375 3.203125 -0.46875 C 3.109375 -0.40625 2.890625 -0.25 2.59375 -0.25 C 2.0625 -0.25 2.046875 -0.703125 2.046875 -0.90625 C 2.046875 -1.453125 2.328125 -2.15625 2.578125 -2.796875 C 2.671875 -3.03125 2.703125 -3.09375 2.703125 -3.25 C 2.703125 -3.765625 2.171875 -4.046875 1.6875 -4.046875 C 0.734375 -4.046875 0.28125 -2.828125 0.28125 -2.65625 C 0.28125 -2.53125 0.421875 -2.53125 0.5 -2.53125 C 0.609375 -2.53125 0.671875 -2.53125 0.703125 -2.640625 C 1 -3.640625 1.5 -3.734375 1.625 -3.734375 C 1.6875 -3.734375 1.78125 -3.734375 1.78125 -3.546875 C 1.78125 -3.34375 1.6875 -3.109375 1.625 -2.953125 C 1.28125 -2.0625 1.09375 -1.546875 1.09375 -1.09375 C 1.09375 -0.078125 1.984375 0.078125 2.515625 0.078125 C 2.75 0.078125 3.046875 0.03125 3.375 -0.203125 C 3.125 0.90625 2.453125 1.484375 1.84375 1.484375 C 1.71875 1.484375 1.46875 1.46875 1.296875 1.359375 C 1.578125 1.25 1.71875 1 1.71875 0.765625 C 1.71875 0.4375 1.46875 0.34375 1.28125 0.34375 C 0.953125 0.34375 0.640625 0.640625 0.640625 1.03125 C 0.640625 1.484375 1.109375 1.8125 1.84375 1.8125 C 2.875 1.8125 4.046875 1.125 4.328125 0.015625 Z M 4.328125 0.015625 "/>
</g>
<g id="glyph-1-0">
<path d="M 2.96875 0 L 2.96875 -0.21875 L 2.734375 -0.21875 C 2.109375 -0.21875 2.109375 -0.3125 2.109375 -0.515625 L 2.109375 -4 C 2.109375 -4.171875 2.09375 -4.171875 1.921875 -4.171875 C 1.515625 -3.78125 0.9375 -3.765625 0.6875 -3.765625 L 0.6875 -3.546875 C 0.828125 -3.546875 1.25 -3.546875 1.59375 -3.71875 L 1.59375 -0.515625 C 1.59375 -0.3125 1.59375 -0.21875 0.96875 -0.21875 L 0.734375 -0.21875 L 0.734375 0 L 1.84375 -0.03125 Z M 2.96875 0 "/>
</g>
<g id="glyph-1-1">
<path d="M 3.171875 -1.140625 L 2.953125 -1.140625 C 2.9375 -1 2.875 -0.640625 2.796875 -0.578125 C 2.75 -0.53125 2.265625 -0.53125 2.171875 -0.53125 L 1.015625 -0.53125 C 1.671875 -1.125 1.890625 -1.296875 2.28125 -1.59375 C 2.734375 -1.953125 3.171875 -2.34375 3.171875 -2.953125 C 3.171875 -3.703125 2.5 -4.171875 1.703125 -4.171875 C 0.921875 -4.171875 0.390625 -3.625 0.390625 -3.046875 C 0.390625 -2.71875 0.671875 -2.6875 0.734375 -2.6875 C 0.875 -2.6875 1.0625 -2.796875 1.0625 -3.03125 C 1.0625 -3.140625 1.015625 -3.359375 0.6875 -3.359375 C 0.890625 -3.8125 1.3125 -3.9375 1.609375 -3.9375 C 2.234375 -3.9375 2.5625 -3.453125 2.5625 -2.953125 C 2.5625 -2.40625 2.171875 -1.96875 1.96875 -1.734375 L 0.453125 -0.25 C 0.390625 -0.1875 0.390625 -0.171875 0.390625 0 L 2.984375 0 Z M 3.171875 -1.140625 "/>
</g>
<g id="glyph-1-2">
<path d="M 3.234375 -1.09375 C 3.234375 -1.578125 2.828125 -2.0625 2.140625 -2.21875 C 2.796875 -2.453125 3.03125 -2.921875 3.03125 -3.296875 C 3.03125 -3.796875 2.46875 -4.171875 1.765625 -4.171875 C 1.0625 -4.171875 0.53125 -3.828125 0.53125 -3.328125 C 0.53125 -3.109375 0.671875 -3 0.859375 -3 C 1.0625 -3 1.1875 -3.140625 1.1875 -3.3125 C 1.1875 -3.5 1.0625 -3.625 0.859375 -3.640625 C 1.078125 -3.921875 1.515625 -3.984375 1.75 -3.984375 C 2.03125 -3.984375 2.421875 -3.84375 2.421875 -3.296875 C 2.421875 -3.046875 2.34375 -2.75 2.171875 -2.5625 C 1.96875 -2.3125 1.796875 -2.3125 1.46875 -2.28125 C 1.3125 -2.28125 1.3125 -2.28125 1.28125 -2.265625 C 1.28125 -2.265625 1.21875 -2.25 1.21875 -2.1875 C 1.21875 -2.09375 1.265625 -2.09375 1.375 -2.09375 L 1.71875 -2.09375 C 2.203125 -2.09375 2.5625 -1.765625 2.5625 -1.09375 C 2.5625 -0.3125 2.109375 -0.078125 1.734375 -0.078125 C 1.484375 -0.078125 0.9375 -0.140625 0.671875 -0.515625 C 0.96875 -0.53125 1.03125 -0.734375 1.03125 -0.859375 C 1.03125 -1.0625 0.890625 -1.21875 0.6875 -1.21875 C 0.515625 -1.21875 0.34375 -1.109375 0.34375 -0.84375 C 0.34375 -0.25 1 0.125 1.75 0.125 C 2.625 0.125 3.234375 -0.453125 3.234375 -1.09375 Z M 3.234375 -1.09375 "/>
</g>
<g id="glyph-2-0">
<path d="M 3.609375 -4.75 L 2.25 -6.203125 L 0.875 -4.75 L 1 -4.625 L 2.25 -5.59375 L 3.484375 -4.625 Z M 3.609375 -4.75 "/>
</g>
<g id="glyph-3-0">
<path d="M 1.71875 -0.46875 C 1.71875 -0.734375 1.5 -0.953125 1.25 -0.953125 C 0.984375 -0.953125 0.765625 -0.734375 0.765625 -0.46875 C 0.765625 -0.21875 0.984375 0 1.25 0 C 1.5 0 1.71875 -0.21875 1.71875 -0.46875 Z M 1.71875 -0.46875 "/>
</g>
<g id="glyph-4-0">
<path d="M 9.734375 -5.390625 C 9.734375 -5.453125 9.671875 -5.53125 9.59375 -5.53125 C 9.375 -5.53125 9.125 -5.5 8.90625 -5.5 C 8.59375 -5.5 8.265625 -5.53125 7.96875 -5.53125 C 7.90625 -5.53125 7.75 -5.53125 7.75 -5.296875 C 7.75 -5.15625 7.90625 -5.15625 7.953125 -5.15625 C 7.984375 -5.15625 8.3125 -5.15625 8.515625 -5.0625 L 6.1875 -1.375 L 5.703125 -5.109375 C 5.859375 -5.140625 6.109375 -5.15625 6.234375 -5.15625 C 6.40625 -5.15625 6.53125 -5.15625 6.53125 -5.390625 C 6.53125 -5.390625 6.53125 -5.53125 6.359375 -5.53125 L 5.171875 -5.5 L 4.65625 -5.515625 C 4.421875 -5.515625 4.125 -5.53125 4.125 -5.53125 C 4.0625 -5.53125 3.90625 -5.53125 3.90625 -5.296875 C 3.90625 -5.15625 4.046875 -5.15625 4.171875 -5.15625 C 4.296875 -5.15625 4.453125 -5.140625 4.5625 -5.140625 L 4.65625 -4.328125 C 4.65625 -4.3125 4.65625 -4.296875 4.59375 -4.203125 L 2.8125 -1.375 L 2.328125 -5.109375 C 2.484375 -5.140625 2.734375 -5.15625 2.859375 -5.15625 C 3.046875 -5.15625 3.046875 -5.15625 3.09375 -5.203125 C 3.140625 -5.234375 3.15625 -5.390625 3.15625 -5.390625 C 3.15625 -5.390625 3.15625 -5.53125 2.984375 -5.53125 L 1.796875 -5.5 L 1.28125 -5.515625 C 1.0625 -5.515625 0.734375 -5.53125 0.734375 -5.53125 C 0.671875 -5.53125 0.53125 -5.53125 0.53125 -5.296875 C 0.53125 -5.15625 0.65625 -5.15625 0.796875 -5.15625 C 0.90625 -5.15625 1.078125 -5.140625 1.171875 -5.140625 L 1.828125 -0.109375 C 1.859375 0.0625 1.875 0.140625 2.0625 0.140625 C 2.234375 0.140625 2.3125 0.078125 2.40625 -0.078125 L 4.734375 -3.765625 L 5.203125 -0.109375 C 5.234375 0.078125 5.25 0.140625 5.453125 0.140625 C 5.625 0.140625 5.6875 0.078125 5.78125 -0.078125 L 8.78125 -4.84375 C 8.890625 -5 8.984375 -5.140625 9.484375 -5.15625 C 9.59375 -5.15625 9.734375 -5.15625 9.734375 -5.390625 Z M 9.734375 -5.390625 "/>
</g>
<g id="glyph-5-0">
<path d="M 3.5625 -0.78125 C 3.5625 -0.78125 3.5625 -0.84375 3.46875 -0.84375 C 3.390625 -0.84375 3.390625 -0.828125 3.359375 -0.71875 C 3.265625 -0.4375 3.046875 -0.125 2.78125 -0.125 C 2.671875 -0.125 2.625 -0.203125 2.625 -0.3125 C 2.625 -0.421875 2.671875 -0.515625 2.71875 -0.625 C 2.796875 -0.84375 3.03125 -1.453125 3.03125 -1.75 C 3.03125 -2.171875 2.734375 -2.375 2.296875 -2.375 C 1.875 -2.375 1.578125 -2.140625 1.375 -1.890625 L 1.796875 -3.5625 C 1.796875 -3.59375 1.8125 -3.625 1.8125 -3.65625 C 1.8125 -3.734375 1.703125 -3.734375 1.640625 -3.71875 L 1.03125 -3.671875 C 0.9375 -3.671875 0.875 -3.671875 0.875 -3.546875 C 0.875 -3.453125 0.9375 -3.453125 1.015625 -3.453125 C 1.1875 -3.453125 1.21875 -3.453125 1.296875 -3.421875 C 1.296875 -3.359375 1.296875 -3.34375 1.265625 -3.25 L 0.515625 -0.25 C 0.5 -0.171875 0.5 -0.125 0.5 -0.125 C 0.5 0 0.609375 0.046875 0.6875 0.046875 C 0.734375 0.046875 0.828125 0.03125 0.90625 -0.0625 C 0.921875 -0.109375 0.96875 -0.28125 1 -0.390625 L 1.109375 -0.875 C 1.15625 -1.015625 1.171875 -1.125 1.203125 -1.234375 C 1.21875 -1.328125 1.25 -1.421875 1.40625 -1.640625 C 1.578125 -1.890625 1.859375 -2.1875 2.28125 -2.1875 C 2.609375 -2.1875 2.609375 -1.90625 2.609375 -1.8125 C 2.609375 -1.5 2.390625 -0.9375 2.28125 -0.6875 C 2.25 -0.59375 2.21875 -0.5 2.21875 -0.40625 C 2.21875 -0.140625 2.46875 0.046875 2.75 0.046875 C 3.296875 0.046875 3.5625 -0.65625 3.5625 -0.78125 Z M 3.5625 -0.78125 "/>
</g>
</g>
<clipPath id="clip-0">
<path clip-rule="nonzero" d="M 29 92 L 60 92 L 60 122.300781 L 29 122.300781 Z M 29 92 "/>
</clipPath>
<clipPath id="clip-1">
<path clip-rule="nonzero" d="M 92 92 L 124 92 L 124 122.300781 L 92 122.300781 Z M 92 92 "/>
</clipPath>
<clipPath id="clip-2">
<path clip-rule="nonzero" d="M 156 92 L 188 92 L 188 122.300781 L 156 122.300781 Z M 156 92 "/>
</clipPath>
</defs>
<path fill-rule="nonzero" fill="rgb(97.499084%, 97.499084%, 97.499084%)" fill-opacity="1" d="M 54.304688 107.378906 C 54.304688 102 49.941406 97.636719 44.5625 97.636719 C 39.179688 97.636719 34.816406 102 34.816406 107.378906 C 34.816406 112.761719 39.179688 117.121094 44.5625 117.121094 C 49.941406 117.121094 54.304688 112.761719 54.304688 107.378906 Z M 54.304688 107.378906 "/>
<g clip-path="url(#clip-0)">
<path fill="none" stroke-width="0.3985" stroke-linecap="butt" stroke-linejoin="miter" stroke="rgb(50%, 50%, 50%)" stroke-opacity="1" stroke-miterlimit="10" d="M 9.743688 0.00009375 C 9.743688 5.379 5.380406 9.742281 0.0015 9.742281 C -5.381312 9.742281 -9.744594 5.379 -9.744594 0.00009375 C -9.744594 -5.382719 -5.381312 -9.742094 0.0015 -9.742094 C 5.380406 -9.742094 9.743688 -5.382719 9.743688 0.00009375 Z M 9.743688 0.00009375 " transform="matrix(1, 0, 0, -1, 44.561, 107.379)"/>
</g>
<g fill="rgb(0%, 0%, 0%)" fill-opacity="1">
<use xlink:href="#glyph-0-0" x="39.595" y="108.699"/>
</g>
<g fill="rgb(0%, 0%, 0%)" fill-opacity="1">
<use xlink:href="#glyph-1-0" x="45.5044" y="110.0436"/>
</g>
<path fill-rule="nonzero" fill="rgb(94.999695%, 94.999695%, 97.499084%)" fill-opacity="1" stroke-width="0.3985" stroke-linecap="butt" stroke-linejoin="miter" stroke="rgb(0%, 0%, 50%)" stroke-opacity="1" stroke-miterlimit="10" d="M 9.767125 58.675875 L -9.768031 58.675875 C -11.416469 58.675875 -12.756312 57.339937 -12.756312 55.687594 L -12.756312 36.156344 C -12.756312 34.504 -11.416469 33.164156 -9.768031 33.164156 L 9.767125 33.164156 C 11.419469 33.164156 12.755406 34.504 12.755406 36.156344 L 12.755406 55.687594 C 12.755406 57.339937 11.419469 58.675875 9.767125 58.675875 Z M 9.767125 58.675875 " transform="matrix(1, 0, 0, -1, 44.561, 107.379)"/>
<g fill="rgb(0%, 0%, 0%)" fill-opacity="1">
<use xlink:href="#glyph-0-1" x="39.557" y="63.899"/>
</g>
<g fill="rgb(0%, 0%, 0%)" fill-opacity="1">
<use xlink:href="#glyph-1-0" x="45.5429" y="65.2436"/>
</g>
<path fill-rule="nonzero" fill="rgb(97.499084%, 97.499084%, 97.499084%)" fill-opacity="1" stroke-width="0.3985" stroke-linecap="butt" stroke-linejoin="miter" stroke="rgb(50%, 50%, 50%)" stroke-opacity="1" stroke-miterlimit="10" d="M 10.356969 91.843844 C 10.356969 97.562594 5.72025 102.199312 0.0015 102.199312 C -5.721156 102.199312 -10.357875 97.562594 -10.357875 91.843844 C -10.357875 86.125094 -5.721156 81.488375 0.0015 81.488375 C 5.72025 81.488375 10.356969 86.125094 10.356969 91.843844 Z M 10.356969 91.843844 " transform="matrix(1, 0, 0, -1, 44.561, 107.379)"/>
<g fill="rgb(0%, 0%, 0%)" fill-opacity="1">
<use xlink:href="#glyph-2-0" x="41.047" y="17.6909"/>
</g>
<g fill="rgb(0%, 0%, 0%)" fill-opacity="1">
<use xlink:href="#glyph-0-2" x="39.904" y="17.816"/>
</g>
<g fill="rgb(0%, 0%, 0%)" fill-opacity="1">
<use xlink:href="#glyph-1-0" x="45.196" y="19.1606"/>
</g>
<path fill="none" stroke-width="0.79701" stroke-linecap="butt" stroke-linejoin="miter" stroke="rgb(0%, 0%, 0%)" stroke-opacity="1" stroke-miterlimit="10" d="M 0.0015 9.921969 L 0.0015 32.187594 " transform="matrix(1, 0, 0, -1, 44.561, 107.379)"/>
<path fill="none" stroke-width="0.79701" stroke-linecap="round" stroke-linejoin="round" stroke="rgb(0%, 0%, 0%)" stroke-opacity="1" stroke-miterlimit="10" d="M -2.55238 3.111781 C -2.08363 1.244594 -1.044567 0.361781 -0.00159875 -0.0015 C -1.044567 -0.364781 -2.08363 -1.243688 -2.55238 -3.110875 " transform="matrix(0, -1, -1, 0, 44.561, 74.79137)"/>
<path fill="none" stroke-width="0.79701" stroke-linecap="butt" stroke-linejoin="miter" stroke="rgb(0%, 0%, 0%)" stroke-opacity="1" stroke-miterlimit="10" d="M 0.0015 58.855562 L 0.0015 80.511812 " transform="matrix(1, 0, 0, -1, 44.561, 107.379)"/>
<path fill="none" stroke-width="0.79701" stroke-linecap="round" stroke-linejoin="round" stroke="rgb(0%, 0%, 0%)" stroke-opacity="1" stroke-miterlimit="10" d="M -2.549281 3.111781 C -2.084438 1.244594 -1.045375 0.361781 0.0015 -0.0015 C -1.045375 -0.364781 -2.084438 -1.243688 -2.549281 -3.110875 " transform="matrix(0, -1, -1, 0, 44.561, 26.47025)"/>
<path fill-rule="nonzero" fill="rgb(97.499084%, 97.499084%, 97.499084%)" fill-opacity="1" d="M 118.082031 107.378906 C 118.082031 102 113.722656 97.636719 108.339844 97.636719 C 102.960938 97.636719 98.597656 102 98.597656 107.378906 C 98.597656 112.761719 102.960938 117.121094 108.339844 117.121094 C 113.722656 117.121094 118.082031 112.761719 118.082031 107.378906 Z M 118.082031 107.378906 "/>
<g clip-path="url(#clip-1)">
<path fill="none" stroke-width="0.3985" stroke-linecap="butt" stroke-linejoin="miter" stroke="rgb(50%, 50%, 50%)" stroke-opacity="1" stroke-miterlimit="10" d="M 73.521031 0.00009375 C 73.521031 5.379 69.161656 9.742281 63.778844 9.742281 C 58.399938 9.742281 54.036656 5.379 54.036656 0.00009375 C 54.036656 -5.382719 58.399938 -9.742094 63.778844 -9.742094 C 69.161656 -9.742094 73.521031 -5.382719 73.521031 0.00009375 Z M 73.521031 0.00009375 " transform="matrix(1, 0, 0, -1, 44.561, 107.379)"/>
</g>
<g fill="rgb(0%, 0%, 0%)" fill-opacity="1">
<use xlink:href="#glyph-0-0" x="103.374" y="108.699"/>
</g>
<g fill="rgb(0%, 0%, 0%)" fill-opacity="1">
<use xlink:href="#glyph-1-1" x="109.2834" y="110.0436"/>
</g>
<path fill-rule="nonzero" fill="rgb(94.999695%, 94.999695%, 97.499084%)" fill-opacity="1" stroke-width="0.3985" stroke-linecap="butt" stroke-linejoin="miter" stroke="rgb(0%, 0%, 50%)" stroke-opacity="1" stroke-miterlimit="10" d="M 73.548375 58.675875 L 54.013219 58.675875 C 52.360875 58.675875 51.024938 57.339937 51.024938 55.687594 L 51.024938 36.156344 C 51.024938 34.504 52.360875 33.164156 54.013219 33.164156 L 73.548375 33.164156 C 75.196812 33.164156 76.536656 34.504 76.536656 36.156344 L 76.536656 55.687594 C 76.536656 57.339937 75.196812 58.675875 73.548375 58.675875 Z M 73.548375 58.675875 " transform="matrix(1, 0, 0, -1, 44.561, 107.379)"/>
<g fill="rgb(0%, 0%, 0%)" fill-opacity="1">
<use xlink:href="#glyph-0-1" x="103.336" y="63.899"/>
</g>
<g fill="rgb(0%, 0%, 0%)" fill-opacity="1">
<use xlink:href="#glyph-1-1" x="109.3219" y="65.2436"/>
</g>
<path fill-rule="nonzero" fill="rgb(97.499084%, 97.499084%, 97.499084%)" fill-opacity="1" stroke-width="0.3985" stroke-linecap="butt" stroke-linejoin="miter" stroke="rgb(50%, 50%, 50%)" stroke-opacity="1" stroke-miterlimit="10" d="M 74.134312 91.843844 C 74.134312 97.562594 69.497594 102.199312 63.778844 102.199312 C 58.060094 102.199312 53.423375 97.562594 53.423375 91.843844 C 53.423375 86.125094 58.060094 81.488375 63.778844 81.488375 C 69.497594 81.488375 74.134312 86.125094 74.134312 91.843844 Z M 74.134312 91.843844 " transform="matrix(1, 0, 0, -1, 44.561, 107.379)"/>
<g fill="rgb(0%, 0%, 0%)" fill-opacity="1">
<use xlink:href="#glyph-2-0" x="104.826" y="17.6909"/>
</g>
<g fill="rgb(0%, 0%, 0%)" fill-opacity="1">
<use xlink:href="#glyph-0-2" x="103.683" y="17.816"/>
</g>
<g fill="rgb(0%, 0%, 0%)" fill-opacity="1">
<use xlink:href="#glyph-1-1" x="108.975" y="19.1606"/>
</g>
<path fill="none" stroke-width="0.79701" stroke-linecap="butt" stroke-linejoin="miter" stroke="rgb(0%, 0%, 0%)" stroke-opacity="1" stroke-miterlimit="10" d="M 63.778844 9.921969 L 63.778844 32.187594 " transform="matrix(1, 0, 0, -1, 44.561, 107.379)"/>
<path fill="none" stroke-width="0.79701" stroke-linecap="round" stroke-linejoin="round" stroke="rgb(0%, 0%, 0%)" stroke-opacity="1" stroke-miterlimit="10" d="M -2.55238 3.110131 C -2.08363 1.242944 -1.044567 0.364037 -0.00159875 0.00075625 C -1.044567 -0.362525 -2.08363 -1.245338 -2.55238 -3.112525 " transform="matrix(0, -1, -1, 0, 108.3406, 74.79137)"/>
<path fill="none" stroke-width="0.79701" stroke-linecap="butt" stroke-linejoin="miter" stroke="rgb(0%, 0%, 0%)" stroke-opacity="1" stroke-miterlimit="10" d="M 63.778844 58.855562 L 63.778844 80.511812 " transform="matrix(1, 0, 0, -1, 44.561, 107.379)"/>
<path fill="none" stroke-width="0.79701" stroke-linecap="round" stroke-linejoin="round" stroke="rgb(0%, 0%, 0%)" stroke-opacity="1" stroke-miterlimit="10" d="M -2.549281 3.110131 C -2.084438 1.242944 -1.045375 0.364037 0.0015 0.00075625 C -1.045375 -0.362525 -2.084438 -1.245338 -2.549281 -3.112525 " transform="matrix(0, -1, -1, 0, 108.3406, 26.47025)"/>
<path fill-rule="nonzero" fill="rgb(97.499084%, 97.499084%, 97.499084%)" fill-opacity="1" d="M 181.863281 107.378906 C 181.863281 102 177.5 97.636719 172.121094 97.636719 C 166.738281 97.636719 162.378906 102 162.378906 107.378906 C 162.378906 112.761719 166.738281 117.121094 172.121094 117.121094 C 177.5 117.121094 181.863281 112.761719 181.863281 107.378906 Z M 181.863281 107.378906 "/>
<g clip-path="url(#clip-2)">
<path fill="none" stroke-width="0.3985" stroke-linecap="butt" stroke-linejoin="miter" stroke="rgb(50%, 50%, 50%)" stroke-opacity="1" stroke-miterlimit="10" d="M 137.302281 0.00009375 C 137.302281 5.379 132.939 9.742281 127.560094 9.742281 C 122.177281 9.742281 117.817906 5.379 117.817906 0.00009375 C 117.817906 -5.382719 122.177281 -9.742094 127.560094 -9.742094 C 132.939 -9.742094 137.302281 -5.382719 137.302281 0.00009375 Z M 137.302281 0.00009375 " transform="matrix(1, 0, 0, -1, 44.561, 107.379)"/>
</g>
<g fill="rgb(0%, 0%, 0%)" fill-opacity="1">
<use xlink:href="#glyph-0-0" x="167.154" y="108.699"/>
</g>
<g fill="rgb(0%, 0%, 0%)" fill-opacity="1">
<use xlink:href="#glyph-1-2" x="173.0625" y="110.0436"/>
</g>
<path fill-rule="nonzero" fill="rgb(94.999695%, 94.999695%, 97.499084%)" fill-opacity="1" stroke-width="0.3985" stroke-linecap="butt" stroke-linejoin="miter" stroke="rgb(0%, 0%, 50%)" stroke-opacity="1" stroke-miterlimit="10" d="M 137.325719 58.675875 L 117.794469 58.675875 C 116.142125 58.675875 114.802281 57.339937 114.802281 55.687594 L 114.802281 36.156344 C 114.802281 34.504 116.142125 33.164156 117.794469 33.164156 L 137.325719 33.164156 C 138.978062 33.164156 140.314 34.504 140.314 36.156344 L 140.314 55.687594 C 140.314 57.339937 138.978062 58.675875 137.325719 58.675875 Z M 137.325719 58.675875 " transform="matrix(1, 0, 0, -1, 44.561, 107.379)"/>
<g fill="rgb(0%, 0%, 0%)" fill-opacity="1">
<use xlink:href="#glyph-0-1" x="167.115" y="63.899"/>
</g>
<g fill="rgb(0%, 0%, 0%)" fill-opacity="1">
<use xlink:href="#glyph-1-2" x="173.1009" y="65.2436"/>
</g>
<path fill-rule="nonzero" fill="rgb(97.499084%, 97.499084%, 97.499084%)" fill-opacity="1" stroke-width="0.3985" stroke-linecap="butt" stroke-linejoin="miter" stroke="rgb(50%, 50%, 50%)" stroke-opacity="1" stroke-miterlimit="10" d="M 137.915562 91.843844 C 137.915562 97.562594 133.278844 102.199312 127.560094 102.199312 C 121.841344 102.199312 117.204625 97.562594 117.204625 91.843844 C 117.204625 86.125094 121.841344 81.488375 127.560094 81.488375 C 133.278844 81.488375 137.915562 86.125094 137.915562 91.843844 Z M 137.915562 91.843844 " transform="matrix(1, 0, 0, -1, 44.561, 107.379)"/>
<g fill="rgb(0%, 0%, 0%)" fill-opacity="1">
<use xlink:href="#glyph-2-0" x="168.605" y="17.6909"/>
</g>
<g fill="rgb(0%, 0%, 0%)" fill-opacity="1">
<use xlink:href="#glyph-0-2" x="167.462" y="17.816"/>
</g>
<g fill="rgb(0%, 0%, 0%)" fill-opacity="1">
<use xlink:href="#glyph-1-2" x="172.754" y="19.1606"/>
</g>
<path fill="none" stroke-width="0.79701" stroke-linecap="butt" stroke-linejoin="miter" stroke="rgb(0%, 0%, 0%)" stroke-opacity="1" stroke-miterlimit="10" d="M 127.560094 9.921969 L 127.560094 32.187594 " transform="matrix(1, 0, 0, -1, 44.561, 107.379)"/>
<path fill="none" stroke-width="0.79701" stroke-linecap="round" stroke-linejoin="round" stroke="rgb(0%, 0%, 0%)" stroke-opacity="1" stroke-miterlimit="10" d="M -2.55238 3.112468 C -2.08363 1.24528 -1.044567 0.362468 -0.00159875 -0.00081375 C -1.044567 -0.364095 -2.08363 -1.243001 -2.55238 -3.110189 " transform="matrix(0, -1, -1, 0, 172.12028, 74.79137)"/>
<path fill="none" stroke-width="0.79701" stroke-linecap="butt" stroke-linejoin="miter" stroke="rgb(0%, 0%, 0%)" stroke-opacity="1" stroke-miterlimit="10" d="M 127.560094 58.855562 L 127.560094 80.511812 " transform="matrix(1, 0, 0, -1, 44.561, 107.379)"/>
<path fill="none" stroke-width="0.79701" stroke-linecap="round" stroke-linejoin="round" stroke="rgb(0%, 0%, 0%)" stroke-opacity="1" stroke-miterlimit="10" d="M -2.549451 3.112317 C -2.084608 1.24513 -1.045545 0.362317 0.00133 -0.00096375 C -1.045545 -0.364245 -2.084608 -1.243151 -2.549451 -3.110339 " transform="matrix(0, -1, -1, 0, 172.12013, 26.47008)"/>
<path fill="none" stroke-width="0.79701" stroke-linecap="butt" stroke-linejoin="miter" stroke="rgb(0%, 0%, 0%)" stroke-opacity="1" stroke-miterlimit="10" d="M 12.935094 45.921969 L 50.048375 45.921969 " transform="matrix(1, 0, 0, -1, 44.561, 107.379)"/>
<path fill="none" stroke-width="0.79701" stroke-linecap="round" stroke-linejoin="round" stroke="rgb(0%, 0%, 0%)" stroke-opacity="1" stroke-miterlimit="10" d="M -2.549829 3.109954 C -2.084985 1.242766 -1.045922 0.36386 0.0009525 0.00057875 C -1.045922 -0.362703 -2.084985 -1.245515 -2.549829 -3.112703 " transform="matrix(1, 0, 0, -1, 95.00686, 61.45761)"/>
<path fill="none" stroke-width="0.79701" stroke-linecap="butt" stroke-linejoin="miter" stroke="rgb(0%, 0%, 0%)" stroke-opacity="1" stroke-miterlimit="10" d="M 76.716344 45.921969 L 113.825719 45.921969 " transform="matrix(1, 0, 0, -1, 44.561, 107.379)"/>
<path fill="none" stroke-width="0.79701" stroke-linecap="round" stroke-linejoin="round" stroke="rgb(0%, 0%, 0%)" stroke-opacity="1" stroke-miterlimit="10" d="M -2.552145 3.109954 C -2.083395 1.242766 -1.044332 0.36386 -0.00136375 0.00057875 C -1.044332 -0.362703 -2.083395 -1.245515 -2.552145 -3.112703 " transform="matrix(1, 0, 0, -1, 158.78652, 61.45761)"/>
<g fill="rgb(0%, 0%, 0%)" fill-opacity="1">
<use xlink:href="#glyph-3-0" x="7.97" y="61.931"/>
</g>
<g fill="rgb(0%, 0%, 0%)" fill-opacity="1">
<use xlink:href="#glyph-3-0" x="11.958228" y="61.931"/>
</g>
<g fill="rgb(0%, 0%, 0%)" fill-opacity="1">
<use xlink:href="#glyph-3-0" x="15.93749" y="61.931"/>
</g>
<path fill="none" stroke-width="0.79701" stroke-linecap="butt" stroke-linejoin="miter" stroke="rgb(0%, 0%, 0%)" stroke-opacity="1" stroke-miterlimit="10" d="M -20.408656 45.921969 L -13.732875 45.921969 " transform="matrix(1, 0, 0, -1, 44.561, 107.379)"/>
<path fill="none" stroke-width="0.79701" stroke-linecap="round" stroke-linejoin="round" stroke="rgb(0%, 0%, 0%)" stroke-opacity="1" stroke-miterlimit="10" d="M -2.551499 3.109954 C -2.082749 1.242766 -1.047593 0.36386 -0.0007175 0.00057875 C -1.047593 -0.362703 -2.082749 -1.245515 -2.551499 -3.112703 " transform="matrix(1, 0, 0, -1, 31.22728, 61.45761)"/>
<g fill="rgb(0%, 0%, 0%)" fill-opacity="1">
<use xlink:href="#glyph-3-0" x="196.756" y="61.931"/>
</g>
<g fill="rgb(0%, 0%, 0%)" fill-opacity="1">
<use xlink:href="#glyph-3-0" x="200.744228" y="61.931"/>
</g>
<g fill="rgb(0%, 0%, 0%)" fill-opacity="1">
<use xlink:href="#glyph-3-0" x="204.72349" y="61.931"/>
</g>
<path fill="none" stroke-width="0.79701" stroke-linecap="butt" stroke-linejoin="miter" stroke="rgb(0%, 0%, 0%)" stroke-opacity="1" stroke-miterlimit="10" d="M 140.493687 45.921969 L 147.173375 45.921969 " transform="matrix(1, 0, 0, -1, 44.561, 107.379)"/>
<path fill="none" stroke-width="0.79701" stroke-linecap="round" stroke-linejoin="round" stroke="rgb(0%, 0%, 0%)" stroke-opacity="1" stroke-miterlimit="10" d="M -2.549859 3.109774 C -2.085015 1.242586 -1.045952 0.36368 0.0009225 0.00039875 C -1.045952 -0.362883 -2.085015 -1.245695 -2.549859 -3.112883 " transform="matrix(1, 0, 0, -1, 192.13189, 61.45743)"/>
<g fill="rgb(0%, 0%, 50%)" fill-opacity="1">
<use xlink:href="#glyph-4-0" x="67.912" y="56.094"/>
</g>
<g fill="rgb(0%, 0%, 50%)" fill-opacity="1">
<use xlink:href="#glyph-5-0" x="76.7329" y="57.0507"/>
<use xlink:href="#glyph-5-0" x="80.63705" y="57.0507"/>
</g>
<g fill="rgb(0%, 39.216614%, 0%)" fill-opacity="1">
<use xlink:href="#glyph-4-0" x="131.691" y="56.094"/>
</g>
<g fill="rgb(0%, 39.216614%, 0%)" fill-opacity="1">
<use xlink:href="#glyph-5-0" x="140.5119" y="57.0507"/>
<use xlink:href="#glyph-5-0" x="144.41605" y="57.0507"/>
</g>
</svg>
