<?xml version="1.0" encoding="UTF-8"?>
<svg xmlns="http://www.w3.org/2000/svg" xmlns:xlink="http://www.w3.org/1999/xlink" width="438.392pt" height="270.249pt" viewBox="0 0 438.392 270.249">
<defs>
<g>
<g id="glyph-0-0">
<path d="M 6.21875 -3.921875 L 5.953125 -6.09375 L 0.375 -6.09375 L 0.375 -5.65625 L 1.34375 -5.65625 L 1.34375 -0.4375 L 0.375 -0.4375 L 0.375 0 C 0.6875 -0.03125 1.671875 -0.03125 2.046875 -0.03125 C 2.46875 -0.03125 3.484375 -0.03125 3.859375 0 L 3.859375 -0.4375 L 2.640625 -0.4375 L 2.640625 -2.828125 L 3.125 -2.828125 C 4 -2.828125 4.078125 -2.453125 4.078125 -1.78125 L 4.53125 -1.78125 L 4.53125 -4.328125 L 4.078125 -4.328125 C 4.078125 -3.65625 4 -3.28125 3.125 -3.28125 L 2.640625 -3.28125 L 2.640625 -5.65625 L 3.96875 -5.65625 C 5.40625 -5.65625 5.625 -4.984375 5.765625 -3.921875 Z M 6.21875 -3.921875 "/>
</g>
<g id="glyph-0-1">
<path d="M 5 -1.953125 C 5 -3.125 4.171875 -4.0625 2.65625 -4.0625 C 1.078125 -4.0625 0.296875 -3.078125 0.296875 -1.953125 C 0.296875 -0.84375 1.109375 0.046875 2.640625 0.046875 C 4.25 0.046875 5 -0.890625 5 -1.953125 Z M 3.8125 -2.046875 C 3.8125 -1.28125 3.8125 -0.328125 2.65625 -0.328125 C 1.484375 -0.328125 1.484375 -1.28125 1.484375 -2.046875 C 1.484375 -2.8125 1.484375 -3.703125 2.640625 -3.703125 C 3.8125 -3.703125 3.8125 -2.8125 3.8125 -2.046875 Z M 3.8125 -2.046875 "/>
</g>
<g id="glyph-0-2">
<path d="M 4.078125 -3.28125 C 4.078125 -3.734375 3.609375 -4.03125 3.078125 -4.03125 C 2.453125 -4.03125 2.078125 -3.578125 1.875 -3.0625 L 1.859375 -3.0625 L 1.859375 -4.03125 L 0.375 -3.96875 L 0.375 -3.53125 C 0.90625 -3.53125 0.984375 -3.53125 0.984375 -3.171875 L 0.984375 -0.4375 L 0.375 -0.4375 L 0.375 0 L 1.515625 -0.03125 C 1.734375 -0.03125 2.265625 -0.03125 2.734375 0 L 2.734375 -0.4375 L 1.96875 -0.4375 L 1.96875 -1.953125 C 1.96875 -2.609375 2.21875 -3.65625 3.078125 -3.671875 C 2.984375 -3.578125 2.9375 -3.421875 2.9375 -3.28125 C 2.9375 -2.890625 3.25 -2.703125 3.5 -2.703125 C 3.796875 -2.703125 4.078125 -2.90625 4.078125 -3.28125 Z M 4.078125 -3.28125 "/>
</g>
<g id="glyph-0-3">
<path d="M 7.421875 -3.546875 L 7.421875 -3.984375 C 7.171875 -3.953125 6.953125 -3.953125 6.703125 -3.953125 C 6.421875 -3.953125 6.140625 -3.96875 5.859375 -3.984375 L 5.859375 -3.546875 C 5.96875 -3.546875 6.171875 -3.546875 6.359375 -3.46875 C 6.34375 -3.390625 6.34375 -3.375 6.3125 -3.3125 L 5.359375 -1.046875 L 4.328125 -3.546875 L 4.8125 -3.546875 L 4.8125 -3.984375 L 3.796875 -3.953125 C 3.71875 -3.953125 3.28125 -3.953125 2.890625 -3.984375 L 2.890625 -3.546875 L 3.40625 -3.546875 C 3.53125 -3.28125 3.53125 -3.265625 3.578125 -3.125 L 2.796875 -1.25 L 1.84375 -3.546875 L 2.328125 -3.546875 L 2.328125 -3.984375 L 1.234375 -3.953125 C 1.015625 -3.953125 0.6875 -3.953125 0.234375 -3.984375 L 0.234375 -3.546875 L 0.75 -3.546875 L 2.15625 -0.1875 C 2.25 0.046875 2.390625 0.046875 2.5 0.046875 C 2.75 0.046875 2.796875 -0.046875 2.859375 -0.203125 L 3.828125 -2.53125 L 4.8125 -0.1875 C 4.90625 0.046875 5.046875 0.046875 5.15625 0.046875 C 5.265625 0.046875 5.40625 0.046875 5.5 -0.1875 L 6.828125 -3.34375 C 6.890625 -3.484375 6.90625 -3.546875 7.421875 -3.546875 Z M 7.421875 -3.546875 "/>
</g>
<g id="glyph-0-4">
<path d="M 5.109375 -0.21875 C 5.109375 -0.4375 4.953125 -0.4375 4.875 -0.4375 C 4.296875 -0.453125 4.296875 -0.53125 4.296875 -0.75 L 4.296875 -2.671875 C 4.296875 -3.46875 3.65625 -4.0625 2.265625 -4.0625 C 1.765625 -4.0625 0.609375 -4.046875 0.609375 -3.21875 C 0.609375 -2.8125 0.921875 -2.625 1.1875 -2.625 C 1.5 -2.625 1.78125 -2.84375 1.78125 -3.203125 C 1.78125 -3.46875 1.625 -3.625 1.59375 -3.65625 C 1.6875 -3.671875 1.90625 -3.703125 2.234375 -3.703125 C 2.875 -3.703125 3.25 -3.375 3.25 -2.671875 L 3.25 -2.390625 C 1.765625 -2.390625 0.25 -2 0.25 -1 C 0.25 -0.109375 1.375 0.046875 2.015625 0.046875 C 2.703125 0.046875 3.171875 -0.234375 3.40625 -0.65625 C 3.40625 -0.4375 3.40625 0 4.375 0 L 4.8125 0 C 4.984375 0 5.109375 0 5.109375 -0.21875 Z M 3.25 -1.25 C 3.25 -0.3125 2.203125 -0.3125 2.171875 -0.3125 C 1.71875 -0.3125 1.34375 -0.59375 1.34375 -1 C 1.34375 -1.296875 1.5 -2 3.25 -2.078125 Z M 3.25 -1.25 "/>
</g>
<g id="glyph-0-5">
<path d="M 5.515625 0 L 5.515625 -0.4375 C 4.984375 -0.4375 4.90625 -0.4375 4.90625 -0.796875 L 4.90625 -6.21875 L 3.296875 -6.15625 L 3.296875 -5.71875 C 3.84375 -5.71875 3.90625 -5.71875 3.90625 -5.359375 L 3.90625 -3.625 C 3.515625 -3.921875 3.09375 -4.03125 2.65625 -4.03125 C 1.203125 -4.03125 0.34375 -3.140625 0.34375 -1.984375 C 0.34375 -0.796875 1.1875 0.046875 2.5625 0.046875 C 3.125 0.046875 3.5625 -0.15625 3.859375 -0.390625 L 3.859375 0.046875 Z M 3.859375 -0.984375 C 3.65625 -0.65625 3.234375 -0.3125 2.65625 -0.3125 C 1.546875 -0.3125 1.546875 -1.375 1.546875 -1.96875 C 1.546875 -2.5 1.546875 -2.875 1.78125 -3.203125 C 2.015625 -3.5625 2.453125 -3.671875 2.765625 -3.671875 C 3.203125 -3.671875 3.578125 -3.484375 3.859375 -3.125 Z M 3.859375 -0.984375 "/>
</g>
<g id="glyph-0-6">
<path d="M 8.59375 0 L 8.59375 -0.4375 L 7.984375 -0.4375 L 7.984375 -2.734375 C 7.984375 -3.796875 7.359375 -4.03125 6.5625 -4.03125 C 5.625 -4.03125 5.171875 -3.46875 5 -3.1875 C 4.8125 -4 4.015625 -4.03125 3.625 -4.03125 C 2.515625 -4.03125 2.078125 -3.234375 2.015625 -3.09375 L 2 -3.09375 L 2 -4.03125 L 0.453125 -3.96875 L 0.453125 -3.53125 C 0.984375 -3.53125 1.0625 -3.53125 1.0625 -3.171875 L 1.0625 -0.4375 L 0.453125 -0.4375 L 0.453125 0 L 1.578125 -0.03125 L 2.71875 0 L 2.71875 -0.4375 L 2.109375 -0.4375 L 2.109375 -2.28125 C 2.109375 -3.28125 2.9375 -3.671875 3.46875 -3.671875 C 3.8125 -3.671875 4 -3.5 4 -2.8125 L 4 -0.4375 L 3.390625 -0.4375 L 3.390625 0 L 4.515625 -0.03125 L 5.65625 0 L 5.65625 -0.4375 L 5.046875 -0.4375 L 5.046875 -2.28125 C 5.046875 -3.28125 5.875 -3.671875 6.40625 -3.671875 C 6.75 -3.671875 6.9375 -3.5 6.9375 -2.8125 L 6.9375 -0.4375 L 6.328125 -0.4375 L 6.328125 0 L 7.46875 -0.03125 Z M 8.59375 0 "/>
</g>
<g id="glyph-0-7">
<path d="M 4.5625 -1.046875 C 4.5625 -1.21875 4.390625 -1.21875 4.328125 -1.21875 C 4.171875 -1.21875 4.15625 -1.171875 4.09375 -1.046875 C 3.890625 -0.578125 3.34375 -0.328125 2.78125 -0.328125 C 1.5 -0.328125 1.484375 -1.484375 1.484375 -1.921875 L 4.265625 -1.921875 C 4.453125 -1.921875 4.5625 -1.921875 4.5625 -2.171875 C 4.5625 -2.375 4.546875 -3.171875 3.96875 -3.65625 C 3.5625 -3.984375 3.015625 -4.0625 2.578125 -4.0625 C 1.046875 -4.0625 0.296875 -3.09375 0.296875 -2.015625 C 0.296875 -0.84375 1.1875 0.046875 2.703125 0.046875 C 4.1875 0.046875 4.5625 -0.890625 4.5625 -1.046875 Z M 3.6875 -2.25 L 1.484375 -2.25 C 1.5 -2.65625 1.546875 -3.703125 2.578125 -3.703125 C 3.625 -3.703125 3.671875 -2.609375 3.6875 -2.25 Z M 3.6875 -2.25 "/>
</g>
<g id="glyph-0-8">
<path d="M 3.53125 2.09375 C 3.53125 2.046875 3.5 2.015625 3.390625 1.90625 C 2.21875 0.8125 1.890625 -0.796875 1.890625 -2.25 C 1.890625 -3.734375 2.25 -5.296875 3.359375 -6.375 C 3.515625 -6.53125 3.53125 -6.53125 3.53125 -6.59375 C 3.53125 -6.703125 3.421875 -6.734375 3.34375 -6.734375 C 3.15625 -6.734375 2.6875 -6.28125 2.578125 -6.171875 C 1.6875 -5.34375 0.984375 -3.953125 0.984375 -2.25 C 0.984375 -0.078125 2.078125 1.234375 2.546875 1.671875 C 2.625 1.734375 3.140625 2.25 3.34375 2.25 C 3.375 2.25 3.53125 2.25 3.53125 2.09375 Z M 3.53125 2.09375 "/>
</g>
<g id="glyph-0-9">
<path d="M 2.6875 0 L 2.6875 -0.4375 L 2.078125 -0.4375 L 2.078125 -6.21875 L 0.46875 -6.15625 L 0.46875 -5.71875 C 1 -5.71875 1.078125 -5.71875 1.078125 -5.359375 L 1.078125 -0.4375 L 0.46875 -0.4375 L 0.46875 0 L 1.5625 -0.03125 Z M 2.6875 0 "/>
</g>
<g id="glyph-0-10">
<path d="M 4.046875 -5.484375 C 4.046875 -5.890625 3.6875 -6.28125 3 -6.28125 C 2.046875 -6.28125 1.078125 -5.875 1.078125 -4.875 L 1.078125 -3.984375 L 0.390625 -3.984375 L 0.390625 -3.546875 L 1.078125 -3.546875 L 1.078125 -0.4375 L 0.46875 -0.4375 L 0.46875 0 L 1.625 -0.03125 C 1.84375 -0.03125 2.375 -0.03125 2.84375 0 L 2.84375 -0.4375 L 2.078125 -0.4375 L 2.078125 -3.546875 L 3.140625 -3.546875 L 3.140625 -3.984375 L 2.03125 -3.984375 L 2.03125 -4.875 C 2.03125 -5.84375 2.71875 -5.921875 2.953125 -5.921875 C 2.984375 -5.921875 3.0625 -5.90625 3.0625 -5.90625 C 3.0625 -5.90625 3.0625 -5.890625 3.046875 -5.859375 C 2.953125 -5.75 2.90625 -5.625 2.90625 -5.484375 C 2.90625 -5.109375 3.203125 -4.90625 3.46875 -4.90625 C 3.765625 -4.90625 4.046875 -5.125 4.046875 -5.484375 Z M 4.046875 -5.484375 "/>
</g>
<g id="glyph-0-11">
<path d="M 3.53125 -1.109375 L 3.53125 -1.578125 L 3.0625 -1.578125 L 3.0625 -1.125 C 3.0625 -0.5 2.75 -0.328125 2.515625 -0.328125 C 2 -0.328125 2 -0.875 2 -1.078125 L 2 -3.546875 L 3.359375 -3.546875 L 3.359375 -3.984375 L 2 -3.984375 L 2 -5.6875 L 1.546875 -5.6875 C 1.53125 -4.859375 1.109375 -3.921875 0.203125 -3.90625 L 0.203125 -3.546875 L 0.953125 -3.546875 L 0.953125 -1.109375 C 0.953125 -0.078125 1.84375 0.046875 2.390625 0.046875 C 3.09375 0.046875 3.53125 -0.453125 3.53125 -1.109375 Z M 3.53125 -1.109375 "/>
</g>
<g id="glyph-0-12">
<path d="M 2.625 0 L 2.625 -0.4375 L 2.078125 -0.4375 L 2.078125 -4.03125 L 0.5 -3.96875 L 0.5 -3.53125 C 1.015625 -3.53125 1.078125 -3.53125 1.078125 -3.171875 L 1.078125 -0.4375 L 0.46875 -0.4375 L 0.46875 0 C 1.0625 -0.015625 1.1875 -0.03125 1.5625 -0.03125 C 2 -0.03125 2.109375 -0.015625 2.625 0 Z M 2.171875 -5.421875 C 2.171875 -5.84375 1.828125 -6.140625 1.46875 -6.140625 C 1.09375 -6.140625 0.765625 -5.828125 0.765625 -5.4375 C 0.765625 -5.015625 1.109375 -4.734375 1.46875 -4.734375 C 1.84375 -4.734375 2.171875 -5.03125 2.171875 -5.421875 Z M 2.171875 -5.421875 "/>
</g>
<g id="glyph-0-13">
<path d="M 5.15625 -3.546875 C 5.15625 -3.78125 4.984375 -4.09375 4.5625 -4.09375 C 4.125 -4.09375 3.75 -3.875 3.578125 -3.75 C 3.203125 -3.96875 2.796875 -4.03125 2.359375 -4.03125 C 0.984375 -4.03125 0.515625 -3.296875 0.515625 -2.703125 C 0.515625 -2.21875 0.828125 -1.890625 0.984375 -1.765625 C 0.796875 -1.546875 0.6875 -1.25 0.6875 -0.984375 C 0.6875 -0.59375 0.875 -0.28125 1.0625 -0.109375 C 0.390625 0.078125 0.296875 0.453125 0.296875 0.65625 C 0.296875 1.1875 0.921875 1.796875 2.640625 1.796875 C 4.21875 1.796875 5 1.3125 5 0.625 C 5 0.3125 4.890625 -0.234375 4.265625 -0.53125 C 3.75 -0.765625 3.28125 -0.765625 2.390625 -0.765625 L 1.9375 -0.765625 C 1.65625 -0.765625 1.53125 -0.765625 1.375 -0.875 C 1.234375 -1 1.171875 -1.140625 1.171875 -1.328125 C 1.171875 -1.5 1.234375 -1.609375 1.234375 -1.609375 C 1.5625 -1.4375 1.96875 -1.375 2.359375 -1.375 C 3.734375 -1.375 4.203125 -2.109375 4.203125 -2.703125 C 4.203125 -3.0625 4.03125 -3.359375 3.84375 -3.546875 C 4.078125 -3.671875 4.265625 -3.6875 4.375 -3.71875 C 4.375 -3.671875 4.34375 -3.625 4.34375 -3.53125 C 4.34375 -3.296875 4.53125 -3.125 4.75 -3.125 C 4.953125 -3.125 5.15625 -3.28125 5.15625 -3.546875 Z M 3.171875 -2.703125 C 3.171875 -2.3125 3.171875 -1.734375 2.359375 -1.734375 C 1.546875 -1.734375 1.546875 -2.3125 1.546875 -2.703125 C 1.546875 -3.109375 1.546875 -3.671875 2.359375 -3.671875 C 3.171875 -3.671875 3.171875 -3.109375 3.171875 -2.703125 Z M 4.203125 0.65625 C 4.203125 0.953125 3.875 1.4375 2.65625 1.4375 C 1.46875 1.4375 1.09375 1 1.09375 0.640625 C 1.09375 0.125 1.671875 0.125 1.796875 0.125 L 2.890625 0.125 C 3.171875 0.125 4.203125 0.125 4.203125 0.65625 Z M 4.203125 0.65625 "/>
</g>
<g id="glyph-0-14">
<path d="M 5.65625 0 L 5.65625 -0.4375 L 5.046875 -0.4375 L 5.046875 -2.734375 C 5.046875 -3.796875 4.390625 -4.03125 3.609375 -4.03125 C 2.765625 -4.03125 2.28125 -3.546875 2.046875 -3.1875 L 2.046875 -6.21875 L 0.453125 -6.15625 L 0.453125 -5.71875 C 0.984375 -5.71875 1.0625 -5.71875 1.0625 -5.359375 L 1.0625 -0.4375 L 0.453125 -0.4375 L 0.453125 0 L 1.578125 -0.03125 L 2.71875 0 L 2.71875 -0.4375 L 2.109375 -0.4375 L 2.109375 -2.28125 C 2.109375 -3.28125 2.9375 -3.671875 3.46875 -3.671875 C 3.8125 -3.671875 3.984375 -3.484375 3.984375 -2.8125 L 3.984375 -0.4375 L 3.375 -0.4375 L 3.375 0 L 4.515625 -0.03125 Z M 5.65625 0 "/>
</g>
<g id="glyph-0-15">
<path d="M 3.125 -2.25 C 3.125 -4.40625 2.03125 -5.71875 1.5625 -6.15625 C 1.5 -6.21875 0.96875 -6.734375 0.765625 -6.734375 C 0.703125 -6.734375 0.59375 -6.703125 0.59375 -6.578125 C 0.59375 -6.53125 0.625 -6.5 0.71875 -6.40625 C 1.8125 -5.34375 2.21875 -3.921875 2.21875 -2.25 C 2.21875 -0.75 1.875 0.8125 0.765625 1.890625 C 0.59375 2.046875 0.59375 2.046875 0.59375 2.09375 C 0.59375 2.21875 0.703125 2.25 0.765625 2.25 C 0.953125 2.25 1.4375 1.796875 1.53125 1.6875 C 2.4375 0.859375 3.125 -0.53125 3.125 -2.25 Z M 3.125 -2.25 "/>
</g>
<g id="glyph-0-16">
<path d="M 2.171875 -3.28125 C 2.171875 -3.6875 1.84375 -3.984375 1.484375 -3.984375 C 1.0625 -3.984375 0.765625 -3.65625 0.765625 -3.28125 C 0.765625 -2.890625 1.078125 -2.578125 1.484375 -2.578125 C 1.859375 -2.578125 2.171875 -2.890625 2.171875 -3.28125 Z M 2.171875 -0.703125 C 2.171875 -1.109375 1.84375 -1.40625 1.484375 -1.40625 C 1.0625 -1.40625 0.765625 -1.078125 0.765625 -0.703125 C 0.765625 -0.296875 1.109375 0 1.46875 0 C 1.890625 0 2.171875 -0.328125 2.171875 -0.703125 Z M 2.171875 -0.703125 "/>
</g>
<g id="glyph-0-17">
<path d="M 7.921875 -0.875 C 7.921875 -1.0625 7.78125 -1.078125 7.6875 -1.078125 C 7.484375 -1.078125 7.46875 -0.953125 7.46875 -0.875 C 7.421875 -0.4375 7.140625 -0.25 6.890625 -0.25 C 6.34375 -0.25 6.28125 -0.796875 6.171875 -1.5625 C 6.078125 -2.21875 6.015625 -2.703125 5.125 -3.046875 C 5.890625 -3.25 6.625 -3.734375 6.625 -4.484375 C 6.625 -5.421875 5.5625 -6.15625 3.859375 -6.15625 L 0.375 -6.15625 L 0.375 -5.71875 L 1.34375 -5.71875 L 1.34375 -0.4375 L 0.375 -0.4375 L 0.375 0 C 0.703125 -0.03125 1.59375 -0.03125 1.96875 -0.03125 C 2.328125 -0.03125 3.234375 -0.03125 3.5625 0 L 3.5625 -0.4375 L 2.59375 -0.4375 L 2.59375 -2.890625 L 3.6875 -2.890625 C 4.0625 -2.890625 4.3125 -2.8125 4.5625 -2.546875 C 4.8125 -2.296875 4.8125 -2.078125 4.8125 -1.484375 C 4.8125 -0.921875 4.8125 -0.5 5.359375 -0.171875 C 5.75 0.046875 6.3125 0.109375 6.8125 0.109375 C 7.765625 0.109375 7.921875 -0.671875 7.921875 -0.875 Z M 5.203125 -4.484375 C 5.203125 -3.96875 5.1875 -3.25 3.703125 -3.25 L 2.59375 -3.25 L 2.59375 -5.71875 L 3.71875 -5.71875 C 5.1875 -5.71875 5.203125 -5.015625 5.203125 -4.484375 Z M 5.203125 -4.484375 "/>
</g>
<g id="glyph-0-18">
<path d="M 5.34375 -3.546875 L 5.34375 -3.984375 C 5.09375 -3.953125 4.875 -3.953125 4.625 -3.953125 C 4.359375 -3.953125 4.078125 -3.953125 3.8125 -3.984375 L 3.8125 -3.546875 C 4.0625 -3.546875 4.140625 -3.5 4.21875 -3.46875 C 4.21875 -3.421875 4.21875 -3.40625 4.171875 -3.34375 L 3.09375 -1.109375 L 1.921875 -3.546875 L 2.390625 -3.546875 L 2.390625 -3.984375 L 1.28125 -3.953125 C 0.953125 -3.953125 0.78125 -3.953125 0.25 -3.984375 L 0.25 -3.546875 L 0.8125 -3.546875 L 2.421875 -0.203125 C 2.5 -0.03125 2.578125 0.046875 2.796875 0.046875 C 3.015625 0.046875 3.09375 -0.03125 3.171875 -0.203125 L 4.6875 -3.359375 C 4.75 -3.484375 4.78125 -3.546875 5.34375 -3.546875 Z M 5.34375 -3.546875 "/>
</g>
<g id="glyph-0-19">
<path d="M 3.828125 -1.25 C 3.828125 -1.71875 3.5625 -2 3.40625 -2.140625 C 3 -2.46875 2.71875 -2.515625 2.015625 -2.640625 C 1.578125 -2.703125 1.015625 -2.796875 1.015625 -3.203125 C 1.015625 -3.734375 1.84375 -3.734375 2.046875 -3.734375 C 3.046875 -3.734375 3.078125 -3.203125 3.109375 -2.96875 C 3.109375 -2.84375 3.234375 -2.84375 3.328125 -2.84375 C 3.546875 -2.84375 3.5625 -2.890625 3.5625 -3.109375 L 3.5625 -3.796875 C 3.5625 -3.96875 3.5625 -4.0625 3.375 -4.0625 C 3.296875 -4.0625 3.140625 -3.984375 2.984375 -3.90625 C 2.703125 -4.03125 2.34375 -4.0625 2.046875 -4.0625 C 1.78125 -4.0625 0.34375 -4.0625 0.34375 -2.875 C 0.34375 -1.9375 1.53125 -1.734375 1.84375 -1.6875 C 2.578125 -1.5625 3.171875 -1.46875 3.171875 -0.953125 C 3.171875 -0.3125 2.328125 -0.3125 2.125 -0.3125 C 1.671875 -0.3125 1.078125 -0.421875 0.828125 -1.25 C 0.78125 -1.40625 0.765625 -1.421875 0.578125 -1.421875 C 0.34375 -1.421875 0.34375 -1.375 0.34375 -1.15625 L 0.34375 -0.203125 C 0.34375 -0.046875 0.34375 0.046875 0.53125 0.046875 C 0.59375 0.046875 0.609375 0.046875 0.8125 -0.078125 L 1.046875 -0.21875 C 1.46875 0.046875 1.953125 0.046875 2.125 0.046875 C 2.390625 0.046875 3.828125 0.046875 3.828125 -1.25 Z M 3.828125 -1.25 "/>
</g>
<g id="glyph-1-0">
<path d="M 8.6875 -2.25 C 8.6875 -2.28125 8.65625 -2.328125 8.609375 -2.34375 C 7.625 -2.65625 6.90625 -3.484375 6.71875 -4.5 C 6.703125 -4.5625 6.65625 -4.59375 6.609375 -4.59375 L 6.453125 -4.59375 C 6.390625 -4.59375 6.34375 -4.546875 6.34375 -4.46875 C 6.5 -3.640625 6.953125 -2.921875 7.625 -2.4375 L 0.703125 -2.4375 C 0.578125 -2.4375 0.515625 -2.34375 0.515625 -2.25 C 0.515625 -2.140625 0.578125 -2.046875 0.703125 -2.046875 L 7.625 -2.046875 C 6.953125 -1.5625 6.5 -0.84375 6.34375 -0.015625 C 6.34375 0.0625 6.390625 0.109375 6.453125 0.109375 L 6.609375 0.109375 C 6.65625 0.109375 6.703125 0.078125 6.71875 0.015625 C 6.90625 -1 7.625 -1.828125 8.609375 -2.140625 C 8.65625 -2.15625 8.6875 -2.203125 8.6875 -2.25 Z M 8.6875 -2.25 "/>
</g>
<g id="glyph-2-0">
<path d="M 4.421875 -1.71875 C 4.421875 -2.71875 3.609375 -3.515625 2.640625 -3.515625 C 2.328125 -3.515625 1.875 -3.4375 1.46875 -3.015625 L 1.46875 -3.515625 L 0.28125 -3.421875 L 0.28125 -3.15625 C 0.84375 -3.15625 0.890625 -3.109375 0.890625 -2.78125 L 0.890625 0.921875 C 0.890625 1.28125 0.78125 1.28125 0.28125 1.28125 L 0.28125 1.546875 C 0.625 1.515625 0.96875 1.515625 1.1875 1.515625 C 1.421875 1.515625 1.75 1.515625 2.09375 1.546875 L 2.09375 1.28125 C 1.578125 1.28125 1.484375 1.28125 1.484375 0.921875 L 1.484375 -0.390625 C 1.859375 0.015625 2.265625 0.078125 2.53125 0.078125 C 3.53125 0.078125 4.421875 -0.703125 4.421875 -1.71875 Z M 3.703125 -1.71875 C 3.703125 -0.8125 3.125 -0.140625 2.484375 -0.140625 C 2.203125 -0.140625 1.84375 -0.265625 1.578125 -0.65625 C 1.484375 -0.796875 1.484375 -0.8125 1.484375 -0.953125 L 1.484375 -2.65625 C 1.671875 -2.96875 2.078125 -3.265625 2.578125 -3.265625 C 3.1875 -3.265625 3.703125 -2.59375 3.703125 -1.71875 Z M 3.703125 -1.71875 "/>
</g>
<g id="glyph-2-1">
<path d="M 3.0625 -3.015625 C 3.0625 -3.296875 2.8125 -3.515625 2.453125 -3.515625 C 1.9375 -3.515625 1.578125 -3.125 1.421875 -2.671875 L 1.40625 -2.671875 L 1.40625 -3.515625 L 0.28125 -3.421875 L 0.28125 -3.15625 C 0.828125 -3.15625 0.890625 -3.109375 0.890625 -2.71875 L 0.890625 -0.625 C 0.890625 -0.265625 0.78125 -0.265625 0.28125 -0.265625 L 0.28125 0 C 0.59375 -0.03125 1.03125 -0.03125 1.21875 -0.03125 C 1.6875 -0.03125 1.703125 -0.03125 2.21875 0 L 2.21875 -0.265625 L 2.0625 -0.265625 C 1.484375 -0.265625 1.46875 -0.34375 1.46875 -0.640625 L 1.46875 -1.8125 C 1.46875 -2.421875 1.71875 -3.28125 2.484375 -3.296875 C 2.4375 -3.265625 2.34375 -3.203125 2.34375 -3.015625 C 2.34375 -2.765625 2.546875 -2.65625 2.703125 -2.65625 C 2.890625 -2.65625 3.0625 -2.78125 3.0625 -3.015625 Z M 3.0625 -3.015625 "/>
</g>
<g id="glyph-2-2">
<path d="M 3.984375 -1.703125 C 3.984375 -2.6875 3.15625 -3.546875 2.109375 -3.546875 C 1.0625 -3.546875 0.234375 -2.6875 0.234375 -1.703125 C 0.234375 -0.703125 1.09375 0.078125 2.109375 0.078125 C 3.140625 0.078125 3.984375 -0.703125 3.984375 -1.703125 Z M 3.28125 -1.765625 C 3.28125 -1.40625 3.265625 -0.96875 3.03125 -0.625 C 2.828125 -0.3125 2.46875 -0.171875 2.109375 -0.171875 C 1.6875 -0.171875 1.34375 -0.375 1.171875 -0.65625 C 0.96875 -0.984375 0.953125 -1.375 0.953125 -1.765625 C 0.953125 -2.078125 0.953125 -2.546875 1.1875 -2.890625 C 1.40625 -3.171875 1.734375 -3.328125 2.109375 -3.328125 C 2.53125 -3.328125 2.875 -3.125 3.046875 -2.859375 C 3.265625 -2.515625 3.28125 -2.09375 3.28125 -1.765625 Z M 3.28125 -1.765625 "/>
</g>
<g id="glyph-2-3">
<path d="M 4.09375 -0.71875 L 4.09375 -1.15625 L 3.84375 -1.15625 L 3.84375 -0.71875 C 3.84375 -0.390625 3.734375 -0.265625 3.5625 -0.265625 C 3.265625 -0.265625 3.265625 -0.625 3.265625 -0.71875 L 3.265625 -2.375 C 3.265625 -3.15625 2.515625 -3.546875 1.78125 -3.546875 C 1.125 -3.546875 0.53125 -3.296875 0.53125 -2.765625 C 0.53125 -2.53125 0.703125 -2.390625 0.90625 -2.390625 C 1.125 -2.390625 1.28125 -2.546875 1.28125 -2.765625 C 1.28125 -2.953125 1.15625 -3.09375 0.984375 -3.125 C 1.28125 -3.328125 1.71875 -3.328125 1.765625 -3.328125 C 2.21875 -3.328125 2.65625 -3.015625 2.65625 -2.359375 L 2.65625 -2.125 C 2.203125 -2.09375 1.671875 -2.078125 1.109375 -1.84375 C 0.40625 -1.53125 0.265625 -1.078125 0.265625 -0.8125 C 0.265625 -0.125 1.078125 0.078125 1.625 0.078125 C 2.203125 0.078125 2.5625 -0.25 2.734375 -0.5625 C 2.78125 -0.265625 2.984375 0.046875 3.34375 0.046875 C 3.421875 0.046875 4.09375 0.015625 4.09375 -0.71875 Z M 2.65625 -1.125 C 2.65625 -0.34375 2.015625 -0.140625 1.6875 -0.140625 C 1.28125 -0.140625 0.921875 -0.421875 0.921875 -0.8125 C 0.921875 -1.328125 1.421875 -1.875 2.65625 -1.90625 Z M 2.65625 -1.125 "/>
</g>
<g id="glyph-2-4">
<path d="M 4.109375 -3.203125 C 4.109375 -3.328125 4 -3.609375 3.65625 -3.609375 C 3.515625 -3.609375 3.125 -3.5625 2.765625 -3.234375 C 2.5625 -3.375 2.25 -3.515625 1.875 -3.515625 C 1.09375 -3.515625 0.515625 -2.96875 0.515625 -2.34375 C 0.515625 -1.96875 0.71875 -1.6875 0.890625 -1.53125 C 0.703125 -1.328125 0.640625 -1.078125 0.640625 -0.890625 C 0.640625 -0.5625 0.8125 -0.3125 0.984375 -0.171875 C 0.5625 -0.0625 0.234375 0.25 0.234375 0.609375 C 0.234375 1.1875 1.0625 1.640625 2.109375 1.640625 C 3.109375 1.640625 3.984375 1.234375 3.984375 0.59375 C 3.984375 0.171875 3.734375 -0.171875 3.46875 -0.296875 C 3 -0.546875 2.609375 -0.546875 1.828125 -0.546875 L 1.375 -0.546875 C 1.125 -0.578125 0.9375 -0.78125 0.9375 -1.078125 C 0.9375 -1.265625 0.984375 -1.34375 1.03125 -1.40625 C 1.375 -1.21875 1.6875 -1.171875 1.875 -1.171875 C 2.65625 -1.171875 3.25 -1.71875 3.25 -2.34375 C 3.25 -2.640625 3.109375 -2.90625 2.921875 -3.109375 C 3.03125 -3.203125 3.296875 -3.375 3.6875 -3.375 C 3.65625 -3.359375 3.609375 -3.3125 3.609375 -3.1875 C 3.609375 -3.046875 3.71875 -2.9375 3.859375 -2.9375 C 3.96875 -2.9375 4.109375 -3.015625 4.109375 -3.203125 Z M 2.609375 -2.34375 C 2.609375 -2.046875 2.578125 -1.84375 2.453125 -1.6875 C 2.28125 -1.453125 2.03125 -1.40625 1.875 -1.40625 C 1.140625 -1.40625 1.140625 -2.171875 1.140625 -2.34375 C 1.140625 -2.640625 1.171875 -2.84375 1.296875 -3 C 1.4375 -3.1875 1.65625 -3.28125 1.875 -3.28125 C 2.609375 -3.28125 2.609375 -2.515625 2.609375 -2.34375 Z M 3.515625 0.609375 C 3.515625 1.03125 2.90625 1.40625 2.109375 1.40625 C 1.3125 1.40625 0.703125 1.03125 0.703125 0.609375 C 0.703125 0.4375 0.84375 -0.03125 1.484375 -0.03125 L 2.25 -0.03125 C 2.46875 -0.03125 3.515625 -0.03125 3.515625 0.609375 Z M 3.515625 0.609375 "/>
</g>
<g id="glyph-2-5">
<path d="M 2.8125 -1 L 2.8125 -1.4375 L 2.5625 -1.4375 L 2.5625 -1.015625 C 2.5625 -0.46875 2.3125 -0.171875 2.015625 -0.171875 C 1.484375 -0.171875 1.484375 -0.859375 1.484375 -0.984375 L 1.484375 -3.171875 L 2.671875 -3.171875 L 2.671875 -3.4375 L 1.484375 -3.4375 L 1.484375 -4.90625 L 1.234375 -4.90625 C 1.234375 -4.171875 0.90625 -3.421875 0.15625 -3.390625 L 0.15625 -3.171875 L 0.875 -3.171875 L 0.875 -1 C 0.875 -0.0625 1.59375 0.078125 1.953125 0.078125 C 2.5 0.078125 2.8125 -0.390625 2.8125 -1 Z M 2.8125 -1 "/>
</g>
<g id="glyph-2-6">
<path d="M 3.515625 -0.953125 C 3.515625 -0.984375 3.484375 -1.0625 3.390625 -1.0625 C 3.296875 -1.0625 3.28125 -1.015625 3.265625 -0.96875 C 2.984375 -0.1875 2.296875 -0.171875 2.15625 -0.171875 C 1.796875 -0.171875 1.421875 -0.328125 1.1875 -0.703125 C 0.953125 -1.0625 0.953125 -1.578125 0.953125 -1.8125 L 3.296875 -1.8125 C 3.46875 -1.8125 3.515625 -1.8125 3.515625 -2 C 3.515625 -2.703125 3.125 -3.546875 2 -3.546875 C 1.015625 -3.546875 0.234375 -2.734375 0.234375 -1.75 C 0.234375 -0.71875 1.09375 0.078125 2.109375 0.078125 C 3.109375 0.078125 3.515625 -0.765625 3.515625 -0.953125 Z M 2.96875 -2.03125 L 0.953125 -2.03125 C 1.03125 -3.140625 1.703125 -3.328125 2 -3.328125 C 2.9375 -3.328125 2.96875 -2.203125 2.96875 -2.03125 Z M 2.96875 -2.03125 "/>
</g>
<g id="glyph-2-7">
<path d="M 4.421875 0 L 4.421875 -0.265625 C 3.875 -0.265625 3.8125 -0.3125 3.8125 -0.703125 L 3.8125 -5.53125 L 2.625 -5.4375 L 2.625 -5.171875 C 3.15625 -5.171875 3.234375 -5.125 3.234375 -4.734375 L 3.234375 -3.046875 C 2.953125 -3.359375 2.578125 -3.515625 2.15625 -3.515625 C 1.15625 -3.515625 0.28125 -2.734375 0.28125 -1.71875 C 0.28125 -0.734375 1.078125 0.078125 2.078125 0.078125 C 2.546875 0.078125 2.9375 -0.140625 3.203125 -0.421875 L 3.203125 0.078125 Z M 3.203125 -0.984375 C 3.203125 -0.84375 3.203125 -0.8125 3.078125 -0.65625 C 2.859375 -0.328125 2.5 -0.140625 2.125 -0.140625 C 1.75 -0.140625 1.4375 -0.328125 1.25 -0.625 C 1.03125 -0.9375 0.984375 -1.328125 0.984375 -1.703125 C 0.984375 -2.171875 1.0625 -2.5 1.25 -2.765625 C 1.4375 -3.0625 1.796875 -3.296875 2.203125 -3.296875 C 2.578125 -3.296875 2.96875 -3.09375 3.203125 -2.6875 Z M 3.203125 -0.984375 "/>
</g>
<g id="glyph-2-8">
<path d="M 2.078125 0 L 2.078125 -0.265625 C 1.546875 -0.265625 1.515625 -0.296875 1.515625 -0.609375 L 1.515625 -3.515625 L 0.359375 -3.421875 L 0.359375 -3.15625 C 0.875 -3.15625 0.9375 -3.109375 0.9375 -2.71875 L 0.9375 -0.625 C 0.9375 -0.265625 0.84375 -0.265625 0.328125 -0.265625 L 0.328125 0 C 0.640625 -0.03125 1.09375 -0.03125 1.21875 -0.03125 C 1.3125 -0.03125 1.796875 -0.03125 2.078125 0 Z M 1.625 -4.796875 C 1.625 -5.0625 1.40625 -5.25 1.171875 -5.25 C 0.953125 -5.25 0.734375 -5.0625 0.734375 -4.796875 C 0.734375 -4.5625 0.921875 -4.359375 1.171875 -4.359375 C 1.421875 -4.359375 1.625 -4.5625 1.625 -4.796875 Z M 1.625 -4.796875 "/>
</g>
<g id="glyph-2-9">
<path d="M 4.28125 -3.171875 L 4.28125 -3.4375 C 4.015625 -3.40625 4 -3.40625 3.671875 -3.40625 C 3.59375 -3.40625 3.21875 -3.40625 2.96875 -3.4375 L 2.96875 -3.171875 C 3.25 -3.15625 3.328125 -2.984375 3.328125 -2.84375 C 3.328125 -2.765625 3.3125 -2.71875 3.28125 -2.65625 L 2.421875 -0.640625 L 1.46875 -2.8125 C 1.421875 -2.90625 1.421875 -2.96875 1.421875 -2.96875 C 1.421875 -3.171875 1.71875 -3.171875 1.84375 -3.171875 L 1.84375 -3.4375 C 1.5 -3.40625 1.125 -3.40625 0.984375 -3.40625 C 0.8125 -3.40625 0.4375 -3.40625 0.171875 -3.4375 L 0.171875 -3.171875 C 0.65625 -3.171875 0.703125 -3.125 0.828125 -2.859375 L 2.015625 -0.09375 C 2.078125 0.03125 2.125 0.078125 2.234375 0.078125 C 2.34375 0.078125 2.40625 0.015625 2.4375 -0.078125 L 3.53125 -2.609375 C 3.71875 -3.0625 4 -3.15625 4.28125 -3.171875 Z M 4.28125 -3.171875 "/>
</g>
<g id="glyph-2-10">
<path d="M 2.125 0 L 2.125 -0.265625 C 1.625 -0.265625 1.515625 -0.265625 1.515625 -0.625 L 1.515625 -5.53125 L 0.328125 -5.4375 L 0.328125 -5.171875 C 0.875 -5.171875 0.9375 -5.125 0.9375 -4.734375 L 0.9375 -0.625 C 0.9375 -0.265625 0.84375 -0.265625 0.328125 -0.265625 L 0.328125 0 C 0.640625 -0.03125 1.09375 -0.03125 1.234375 -0.03125 C 1.390625 -0.03125 1.8125 -0.03125 2.125 0 Z M 2.125 0 "/>
</g>
<g id="glyph-2-11">
<path d="M 4.484375 0 L 4.484375 -0.265625 C 3.96875 -0.265625 3.875 -0.265625 3.875 -0.625 L 3.875 -2.421875 C 3.875 -3.078125 3.5625 -3.515625 2.734375 -3.515625 C 1.9375 -3.515625 1.578125 -2.9375 1.484375 -2.75 L 1.484375 -3.515625 L 0.328125 -3.421875 L 0.328125 -3.15625 C 0.875 -3.15625 0.9375 -3.109375 0.9375 -2.71875 L 0.9375 -0.625 C 0.9375 -0.265625 0.84375 -0.265625 0.328125 -0.265625 L 0.328125 0 C 0.671875 -0.03125 1.015625 -0.03125 1.234375 -0.03125 C 1.46875 -0.03125 1.796875 -0.03125 2.140625 0 L 2.140625 -0.265625 C 1.640625 -0.265625 1.53125 -0.265625 1.53125 -0.625 L 1.53125 -2.0625 C 1.53125 -2.90625 2.171875 -3.296875 2.65625 -3.296875 C 3.140625 -3.296875 3.265625 -2.953125 3.265625 -2.453125 L 3.265625 -0.625 C 3.265625 -0.265625 3.171875 -0.265625 2.65625 -0.265625 L 2.65625 0 C 3 -0.03125 3.359375 -0.03125 3.5625 -0.03125 C 3.796875 -0.03125 4.140625 -0.03125 4.484375 0 Z M 4.484375 0 "/>
</g>
<g id="glyph-2-12">
<path d="M 3.046875 -1.03125 C 3.046875 -1.40625 2.828125 -1.96875 1.875 -2.140625 C 1.8125 -2.15625 1.359375 -2.234375 1.328125 -2.234375 C 1.078125 -2.296875 0.703125 -2.46875 0.703125 -2.78125 C 0.703125 -3.015625 0.890625 -3.359375 1.640625 -3.359375 C 2.53125 -3.359375 2.578125 -2.703125 2.59375 -2.484375 C 2.59375 -2.421875 2.65625 -2.390625 2.703125 -2.390625 C 2.84375 -2.390625 2.84375 -2.453125 2.84375 -2.59375 L 2.84375 -3.34375 C 2.84375 -3.46875 2.84375 -3.546875 2.734375 -3.546875 C 2.6875 -3.546875 2.671875 -3.546875 2.546875 -3.421875 C 2.53125 -3.421875 2.453125 -3.34375 2.4375 -3.34375 C 2.4375 -3.34375 2.40625 -3.34375 2.359375 -3.375 C 2.234375 -3.46875 2 -3.546875 1.640625 -3.546875 C 0.53125 -3.546875 0.28125 -2.953125 0.28125 -2.5625 C 0.28125 -2.171875 0.578125 -1.9375 0.59375 -1.90625 C 0.921875 -1.671875 1.09375 -1.640625 1.640625 -1.546875 C 2.015625 -1.46875 2.625 -1.359375 2.625 -0.828125 C 2.625 -0.515625 2.421875 -0.140625 1.6875 -0.140625 C 0.875 -0.140625 0.640625 -0.765625 0.546875 -1.1875 C 0.515625 -1.296875 0.5 -1.328125 0.40625 -1.328125 C 0.28125 -1.328125 0.28125 -1.265625 0.28125 -1.109375 L 0.28125 -0.125 C 0.28125 0 0.28125 0.078125 0.375 0.078125 C 0.4375 0.078125 0.4375 0.078125 0.578125 -0.078125 C 0.625 -0.125 0.703125 -0.21875 0.75 -0.265625 C 1.109375 0.0625 1.484375 0.078125 1.6875 0.078125 C 2.703125 0.078125 3.046875 -0.5 3.046875 -1.03125 Z M 3.046875 -1.03125 "/>
</g>
<g id="glyph-2-13">
<path d="M 3.515625 -0.953125 C 3.515625 -1.046875 3.40625 -1.046875 3.390625 -1.046875 C 3.328125 -1.046875 3.296875 -1.046875 3.265625 -0.96875 C 3.21875 -0.796875 2.984375 -0.171875 2.1875 -0.171875 C 1.703125 -0.171875 0.984375 -0.546875 0.984375 -1.734375 C 0.984375 -2.875 1.578125 -3.3125 2.15625 -3.3125 C 2.234375 -3.3125 2.65625 -3.3125 2.9375 -3.15625 C 2.703125 -3.09375 2.671875 -2.90625 2.671875 -2.8125 C 2.671875 -2.59375 2.828125 -2.4375 3.046875 -2.4375 C 3.265625 -2.4375 3.421875 -2.578125 3.421875 -2.828125 C 3.421875 -3.3125 2.890625 -3.546875 2.140625 -3.546875 C 1.03125 -3.546875 0.28125 -2.671875 0.28125 -1.71875 C 0.28125 -0.703125 1.109375 0.078125 2.109375 0.078125 C 3.234375 0.078125 3.515625 -0.859375 3.515625 -0.953125 Z M 3.515625 -0.953125 "/>
</g>
<g id="glyph-2-14">
<path d="M 4.484375 0 L 4.484375 -0.265625 C 3.96875 -0.265625 3.875 -0.265625 3.875 -0.625 L 3.875 -2.421875 C 3.875 -3.078125 3.5625 -3.515625 2.734375 -3.515625 C 2.03125 -3.515625 1.671875 -3.0625 1.515625 -2.8125 L 1.515625 -5.53125 L 0.328125 -5.4375 L 0.328125 -5.171875 C 0.875 -5.171875 0.9375 -5.125 0.9375 -4.734375 L 0.9375 -0.625 C 0.9375 -0.265625 0.84375 -0.265625 0.328125 -0.265625 L 0.328125 0 C 0.671875 -0.03125 1.015625 -0.03125 1.234375 -0.03125 C 1.46875 -0.03125 1.796875 -0.03125 2.140625 0 L 2.140625 -0.265625 C 1.640625 -0.265625 1.53125 -0.265625 1.53125 -0.625 L 1.53125 -2.0625 C 1.53125 -2.90625 2.171875 -3.296875 2.65625 -3.296875 C 3.140625 -3.296875 3.265625 -2.953125 3.265625 -2.453125 L 3.265625 -0.625 C 3.265625 -0.265625 3.171875 -0.265625 2.65625 -0.265625 L 2.65625 0 C 3 -0.03125 3.359375 -0.03125 3.5625 -0.03125 C 3.796875 -0.03125 4.140625 -0.03125 4.484375 0 Z M 4.484375 0 "/>
</g>
<g id="glyph-2-15">
<path d="M 4.484375 0 L 4.484375 -0.265625 C 3.9375 -0.265625 3.875 -0.3125 3.875 -0.703125 L 3.875 -3.515625 L 2.65625 -3.421875 L 2.65625 -3.15625 C 3.203125 -3.15625 3.265625 -3.109375 3.265625 -2.71875 L 3.265625 -1.328125 C 3.265625 -0.640625 2.859375 -0.140625 2.25 -0.140625 C 1.5625 -0.140625 1.53125 -0.484375 1.53125 -0.890625 L 1.53125 -3.515625 L 0.328125 -3.421875 L 0.328125 -3.15625 C 0.9375 -3.15625 0.9375 -3.140625 0.9375 -2.4375 L 0.9375 -1.234375 C 0.9375 -0.65625 0.9375 0.078125 2.203125 0.078125 C 2.953125 0.078125 3.25 -0.5 3.28125 -0.5625 L 3.296875 -0.5625 L 3.296875 0.078125 Z M 4.484375 0 "/>
</g>
<g id="glyph-2-16">
<path d="M 1.625 -0.4375 C 1.625 -0.703125 1.40625 -0.890625 1.171875 -0.890625 C 0.90625 -0.890625 0.734375 -0.671875 0.734375 -0.453125 C 0.734375 -0.171875 0.953125 0 1.171875 0 C 1.4375 0 1.625 -0.21875 1.625 -0.4375 Z M 1.625 -0.4375 "/>
</g>
<g id="glyph-2-17">
<path d="M 5.9375 -3.171875 L 5.9375 -3.4375 C 5.671875 -3.40625 5.65625 -3.40625 5.3125 -3.40625 C 5.0625 -3.40625 4.84375 -3.40625 4.59375 -3.4375 L 4.59375 -3.171875 C 4.9375 -3.15625 5.03125 -2.953125 5.03125 -2.8125 C 5.03125 -2.703125 5 -2.65625 4.984375 -2.609375 L 4.234375 -0.625 L 3.40625 -2.796875 C 3.375 -2.90625 3.375 -2.921875 3.375 -2.953125 C 3.375 -3.15625 3.625 -3.171875 3.8125 -3.171875 L 3.8125 -3.4375 C 3.5 -3.40625 3.078125 -3.40625 3 -3.40625 C 2.828125 -3.40625 2.5 -3.40625 2.265625 -3.4375 L 2.265625 -3.171875 C 2.75 -3.171875 2.765625 -3.125 2.921875 -2.703125 L 2.1875 -0.734375 L 1.390625 -2.8125 C 1.390625 -2.84375 1.359375 -2.921875 1.359375 -2.953125 C 1.359375 -3.171875 1.65625 -3.171875 1.796875 -3.171875 L 1.796875 -3.4375 C 1.453125 -3.40625 1.09375 -3.40625 0.953125 -3.40625 C 0.8125 -3.40625 0.390625 -3.40625 0.171875 -3.4375 L 0.171875 -3.171875 C 0.5625 -3.171875 0.640625 -3.140625 0.734375 -2.921875 L 1.796875 -0.109375 C 1.84375 0.015625 1.875 0.078125 2 0.078125 C 2.140625 0.078125 2.171875 -0.015625 2.203125 -0.109375 L 3.046875 -2.34375 L 3.890625 -0.109375 C 3.9375 -0.015625 3.96875 0.078125 4.109375 0.078125 C 4.234375 0.078125 4.265625 0 4.296875 -0.09375 L 5.265625 -2.625 C 5.328125 -2.8125 5.46875 -3.15625 5.9375 -3.171875 Z M 5.9375 -3.171875 "/>
</g>
<g id="glyph-2-18">
<path d="M 4.3125 0 L 4.3125 -0.265625 C 3.984375 -0.265625 3.84375 -0.296875 3.546875 -0.671875 L 2.40625 -2.171875 L 3.078125 -2.703125 C 3.609375 -3.125 3.9375 -3.15625 4.140625 -3.171875 L 4.140625 -3.4375 C 3.9375 -3.40625 3.828125 -3.40625 3.5 -3.40625 C 3.109375 -3.40625 3 -3.421875 2.65625 -3.4375 L 2.65625 -3.171875 C 2.8125 -3.15625 2.84375 -3.0625 2.84375 -3.015625 C 2.84375 -2.84375 2.671875 -2.703125 2.609375 -2.65625 L 1.46875 -1.734375 L 1.46875 -5.53125 L 0.28125 -5.4375 L 0.28125 -5.171875 C 0.828125 -5.171875 0.890625 -5.125 0.890625 -4.734375 L 0.890625 -0.625 C 0.890625 -0.265625 0.78125 -0.265625 0.28125 -0.265625 L 0.28125 0 C 0.59375 -0.03125 1.015625 -0.03125 1.15625 -0.03125 C 1.3125 -0.03125 1.734375 -0.03125 2.046875 0 L 2.046875 -0.265625 C 1.53125 -0.265625 1.4375 -0.265625 1.4375 -0.625 L 1.4375 -1.390625 L 1.96875 -1.828125 C 2 -1.828125 2.203125 -1.546875 2.328125 -1.390625 C 2.453125 -1.234375 2.578125 -1.0625 2.703125 -0.90625 C 2.828125 -0.75 2.984375 -0.546875 2.984375 -0.421875 C 2.984375 -0.28125 2.84375 -0.265625 2.734375 -0.265625 L 2.734375 0 C 3.078125 -0.03125 3.4375 -0.03125 3.578125 -0.03125 C 3.875 -0.03125 4.046875 -0.03125 4.3125 0 Z M 4.3125 0 "/>
</g>
<g id="glyph-2-19">
<path d="M 4.421875 -1.71875 C 4.421875 -2.71875 3.59375 -3.515625 2.625 -3.515625 C 1.984375 -3.515625 1.609375 -3.171875 1.46875 -3.03125 L 1.46875 -5.53125 L 0.28125 -5.4375 L 0.28125 -5.171875 C 0.828125 -5.171875 0.890625 -5.125 0.890625 -4.734375 L 0.890625 0 L 1.125 0 L 1.421875 -0.5 C 1.609375 -0.21875 1.984375 0.078125 2.53125 0.078125 C 3.53125 0.078125 4.421875 -0.703125 4.421875 -1.71875 Z M 3.703125 -1.734375 C 3.703125 -1.546875 3.703125 -0.984375 3.421875 -0.609375 C 3.125 -0.25 2.75 -0.140625 2.5 -0.140625 C 2.109375 -0.140625 1.796875 -0.34375 1.578125 -0.65625 C 1.484375 -0.8125 1.484375 -0.8125 1.484375 -0.96875 L 1.484375 -2.515625 C 1.484375 -2.671875 1.484375 -2.6875 1.609375 -2.828125 C 1.84375 -3.125 2.21875 -3.296875 2.578125 -3.296875 C 2.984375 -3.296875 3.296875 -3.046875 3.453125 -2.8125 C 3.59375 -2.59375 3.703125 -2.3125 3.703125 -1.734375 Z M 3.703125 -1.734375 "/>
</g>
<g id="glyph-3-0">
<path d="M 1.625 -4.796875 C 1.625 -5.0625 1.40625 -5.25 1.171875 -5.25 C 0.953125 -5.25 0.734375 -5.0625 0.734375 -4.796875 C 0.734375 -4.5625 0.921875 -4.359375 1.171875 -4.359375 C 1.421875 -4.359375 1.625 -4.5625 1.625 -4.796875 Z M 1.625 -4.796875 "/>
</g>
<g id="glyph-3-1">
<path d="M 6.109375 -2.84375 C 6.109375 -3.015625 5.90625 -3.015625 5.796875 -3.015625 L 0.78125 -3.015625 C 0.65625 -3.015625 0.46875 -3.015625 0.46875 -2.84375 C 0.46875 -2.65625 0.625 -2.65625 0.75 -2.65625 L 5.828125 -2.65625 C 5.9375 -2.65625 6.109375 -2.65625 6.109375 -2.84375 Z M 6.109375 -1.140625 C 6.109375 -1.328125 5.9375 -1.328125 5.828125 -1.328125 L 0.75 -1.328125 C 0.625 -1.328125 0.46875 -1.328125 0.46875 -1.140625 C 0.46875 -0.96875 0.65625 -0.96875 0.78125 -0.96875 L 5.796875 -0.96875 C 5.90625 -0.96875 6.109375 -0.96875 6.109375 -1.140625 Z M 6.109375 -1.140625 "/>
</g>
<g id="glyph-3-2">
<path d="M 2.8125 1.890625 C 2.8125 1.859375 2.8125 1.859375 2.703125 1.75 C 1.609375 0.71875 1.34375 -0.75 1.34375 -1.984375 C 1.34375 -4.28125 2.28125 -5.359375 2.6875 -5.734375 C 2.8125 -5.828125 2.8125 -5.84375 2.8125 -5.875 C 2.8125 -5.921875 2.78125 -5.96875 2.703125 -5.96875 C 2.578125 -5.96875 2.171875 -5.5625 2.109375 -5.5 C 1.046875 -4.375 0.828125 -2.953125 0.828125 -1.984375 C 0.828125 -0.203125 1.5625 1.234375 2.65625 1.984375 C 2.71875 1.984375 2.8125 1.984375 2.8125 1.890625 Z M 2.8125 1.890625 "/>
</g>
<g id="glyph-3-3">
<path d="M 2.46875 -1.984375 C 2.46875 -2.75 2.328125 -3.65625 1.84375 -4.59375 C 1.453125 -5.328125 0.71875 -5.96875 0.578125 -5.96875 C 0.5 -5.96875 0.484375 -5.921875 0.484375 -5.875 C 0.484375 -5.84375 0.484375 -5.828125 0.578125 -5.734375 C 1.6875 -4.671875 1.9375 -3.21875 1.9375 -1.984375 C 1.9375 0.296875 1 1.375 0.59375 1.75 C 0.484375 1.84375 0.484375 1.859375 0.484375 1.890625 C 0.484375 1.9375 0.5 1.984375 0.578125 1.984375 C 0.703125 1.984375 1.109375 1.578125 1.171875 1.515625 C 2.234375 0.390625 2.46875 -1.03125 2.46875 -1.984375 Z M 2.46875 -1.984375 "/>
</g>
<g id="glyph-3-4">
<path d="M 3.796875 -1.421875 L 3.546875 -1.421875 C 3.53125 -1.265625 3.46875 -0.875 3.375 -0.71875 C 3.328125 -0.65625 2.71875 -0.65625 2.59375 -0.65625 L 1.171875 -0.65625 L 2.25 -1.625 C 2.375 -1.75 2.703125 -2.015625 2.84375 -2.125 C 3.328125 -2.578125 3.796875 -3.015625 3.796875 -3.734375 C 3.796875 -4.6875 3 -5.296875 2.015625 -5.296875 C 1.046875 -5.296875 0.421875 -4.578125 0.421875 -3.859375 C 0.421875 -3.46875 0.734375 -3.421875 0.84375 -3.421875 C 1.015625 -3.421875 1.265625 -3.53125 1.265625 -3.84375 C 1.265625 -4.25 0.859375 -4.25 0.765625 -4.25 C 1 -4.84375 1.53125 -5.03125 1.921875 -5.03125 C 2.65625 -5.03125 3.046875 -4.40625 3.046875 -3.734375 C 3.046875 -2.90625 2.46875 -2.296875 1.515625 -1.34375 L 0.515625 -0.296875 C 0.421875 -0.21875 0.421875 -0.203125 0.421875 0 L 3.5625 0 Z M 3.796875 -1.421875 "/>
</g>
<g id="glyph-3-5">
<path d="M 3.5625 0 L 3.5625 -0.265625 L 3.28125 -0.265625 C 2.53125 -0.265625 2.5 -0.359375 2.5 -0.65625 L 2.5 -5.078125 C 2.5 -5.296875 2.484375 -5.296875 2.265625 -5.296875 C 1.9375 -4.984375 1.515625 -4.796875 0.765625 -4.796875 L 0.765625 -4.53125 C 0.984375 -4.53125 1.40625 -4.53125 1.875 -4.734375 L 1.875 -0.65625 C 1.875 -0.359375 1.84375 -0.265625 1.09375 -0.265625 L 0.8125 -0.265625 L 0.8125 0 C 1.140625 -0.03125 1.828125 -0.03125 2.1875 -0.03125 C 2.546875 -0.03125 3.234375 -0.03125 3.5625 0 Z M 3.5625 0 "/>
</g>
<g id="glyph-3-6">
<path d="M 3.984375 -1.3125 L 3.984375 -1.5625 L 3.140625 -1.5625 L 3.140625 -5.15625 C 3.140625 -5.3125 3.140625 -5.375 2.96875 -5.375 C 2.875 -5.375 2.859375 -5.375 2.78125 -5.265625 L 0.234375 -1.5625 L 0.234375 -1.3125 L 2.484375 -1.3125 L 2.484375 -0.640625 C 2.484375 -0.34375 2.46875 -0.265625 1.84375 -0.265625 L 1.671875 -0.265625 L 1.671875 0 L 2.8125 -0.03125 L 3.953125 0 L 3.953125 -0.265625 L 3.78125 -0.265625 C 3.15625 -0.265625 3.140625 -0.34375 3.140625 -0.640625 L 3.140625 -1.3125 Z M 2.546875 -1.5625 L 0.515625 -1.5625 L 2.546875 -4.515625 Z M 2.546875 -1.5625 "/>
</g>
<g id="glyph-3-7">
<path d="M 3.890625 -2.546875 C 3.890625 -3.390625 3.8125 -3.90625 3.546875 -4.421875 C 3.203125 -5.125 2.546875 -5.296875 2.109375 -5.296875 C 1.109375 -5.296875 0.734375 -4.546875 0.625 -4.328125 C 0.34375 -3.75 0.328125 -2.953125 0.328125 -2.546875 C 0.328125 -2.015625 0.34375 -1.21875 0.734375 -0.578125 C 1.09375 0.015625 1.6875 0.171875 2.109375 0.171875 C 2.5 0.171875 3.171875 0.046875 3.578125 -0.734375 C 3.875 -1.3125 3.890625 -2.03125 3.890625 -2.546875 Z M 3.1875 -2.640625 C 3.1875 -2.171875 3.1875 -1.453125 3.09375 -1 C 2.921875 -0.171875 2.375 -0.0625 2.109375 -0.0625 C 1.84375 -0.0625 1.296875 -0.1875 1.125 -1.015625 C 1.03125 -1.46875 1.03125 -2.21875 1.03125 -2.640625 C 1.03125 -3.1875 1.03125 -3.75 1.125 -4.1875 C 1.296875 -5 1.90625 -5.078125 2.109375 -5.078125 C 2.375 -5.078125 2.9375 -4.9375 3.09375 -4.21875 C 3.1875 -3.78125 3.1875 -3.171875 3.1875 -2.640625 Z M 3.1875 -2.640625 "/>
</g>
<g id="glyph-3-8">
<path d="M 3.875 -2.625 C 3.875 -4.6875 2.953125 -5.296875 2.140625 -5.296875 C 1.1875 -5.296875 0.34375 -4.5625 0.34375 -3.515625 C 0.34375 -2.5 1.125 -1.75 2.03125 -1.75 C 2.59375 -1.75 2.9375 -2.109375 3.125 -2.515625 L 3.125 -2.34375 C 3.125 -0.40625 2.203125 -0.078125 1.734375 -0.078125 C 1.5625 -0.078125 1.15625 -0.09375 0.9375 -0.34375 C 1.296875 -0.375 1.3125 -0.640625 1.3125 -0.71875 C 1.3125 -0.953125 1.125 -1.09375 0.9375 -1.09375 C 0.796875 -1.09375 0.5625 -1 0.5625 -0.703125 C 0.5625 -0.15625 1.015625 0.171875 1.75 0.171875 C 2.84375 0.171875 3.875 -0.921875 3.875 -2.625 Z M 3.109375 -3.359375 C 3.109375 -2.71875 2.765625 -1.96875 2.0625 -1.96875 C 1.6875 -1.96875 1.453125 -2.140625 1.28125 -2.4375 C 1.09375 -2.71875 1.09375 -3.109375 1.09375 -3.515625 C 1.09375 -3.984375 1.09375 -4.3125 1.3125 -4.640625 C 1.515625 -4.9375 1.765625 -5.09375 2.140625 -5.09375 C 2.671875 -5.09375 2.90625 -4.5625 2.9375 -4.53125 C 3.09375 -4.140625 3.109375 -3.515625 3.109375 -3.359375 Z M 3.109375 -3.359375 "/>
</g>
<g id="glyph-3-9">
<path d="M 3.875 -1.625 C 3.875 -2.65625 3.078125 -3.390625 2.203125 -3.390625 C 1.625 -3.390625 1.28125 -3.03125 1.09375 -2.640625 C 1.09375 -3.296875 1.15625 -3.875 1.4375 -4.359375 C 1.6875 -4.765625 2.09375 -5.09375 2.59375 -5.09375 C 2.75 -5.09375 3.109375 -5.0625 3.296875 -4.796875 C 2.9375 -4.765625 2.90625 -4.5 2.90625 -4.421875 C 2.90625 -4.171875 3.09375 -4.046875 3.28125 -4.046875 C 3.421875 -4.046875 3.65625 -4.125 3.65625 -4.4375 C 3.65625 -4.90625 3.296875 -5.296875 2.578125 -5.296875 C 1.46875 -5.296875 0.34375 -4.25 0.34375 -2.53125 C 0.34375 -0.359375 1.359375 0.171875 2.125 0.171875 C 2.515625 0.171875 2.921875 0.0625 3.28125 -0.28125 C 3.609375 -0.59375 3.875 -0.921875 3.875 -1.625 Z M 3.125 -1.625 C 3.125 -1.21875 3.125 -0.875 2.96875 -0.578125 C 2.75 -0.21875 2.484375 -0.078125 2.125 -0.078125 C 1.703125 -0.078125 1.4375 -0.359375 1.328125 -0.59375 C 1.140625 -0.953125 1.125 -1.484375 1.125 -1.796875 C 1.125 -2.578125 1.546875 -3.171875 2.171875 -3.171875 C 2.5625 -3.171875 2.8125 -2.96875 2.953125 -2.6875 C 3.125 -2.390625 3.125 -2.03125 3.125 -1.625 Z M 3.125 -1.625 "/>
</g>
<g id="glyph-3-10">
<path d="M 3.875 -1.359375 C 3.875 -2.03125 3.34375 -2.625 2.53125 -2.8125 C 3.15625 -3.03125 3.640625 -3.5625 3.640625 -4.203125 C 3.640625 -4.84375 2.921875 -5.296875 2.09375 -5.296875 C 1.234375 -5.296875 0.59375 -4.84375 0.59375 -4.234375 C 0.59375 -3.9375 0.78125 -3.8125 1 -3.8125 C 1.25 -3.8125 1.40625 -3.984375 1.40625 -4.21875 C 1.40625 -4.515625 1.140625 -4.625 0.96875 -4.625 C 1.3125 -5.0625 1.921875 -5.09375 2.0625 -5.09375 C 2.265625 -5.09375 2.875 -5.03125 2.875 -4.203125 C 2.875 -3.65625 2.640625 -3.3125 2.53125 -3.1875 C 2.296875 -2.9375 2.109375 -2.921875 1.625 -2.890625 C 1.46875 -2.890625 1.40625 -2.875 1.40625 -2.765625 C 1.40625 -2.65625 1.484375 -2.65625 1.625 -2.65625 L 2.015625 -2.65625 C 2.640625 -2.65625 3.046875 -2.203125 3.046875 -1.359375 C 3.046875 -0.359375 2.484375 -0.078125 2.0625 -0.078125 C 1.625 -0.078125 1.015625 -0.234375 0.734375 -0.65625 C 1.03125 -0.65625 1.234375 -0.84375 1.234375 -1.09375 C 1.234375 -1.359375 1.046875 -1.53125 0.78125 -1.53125 C 0.578125 -1.53125 0.34375 -1.40625 0.34375 -1.078125 C 0.34375 -0.328125 1.15625 0.171875 2.078125 0.171875 C 3.125 0.171875 3.875 -0.5625 3.875 -1.359375 Z M 3.875 -1.359375 "/>
</g>
<g id="glyph-3-11">
<path d="M 3.796875 -1.59375 C 3.796875 -2.515625 3.125 -3.34375 2.1875 -3.34375 C 1.796875 -3.34375 1.421875 -3.21875 1.109375 -2.9375 L 1.109375 -4.484375 C 1.21875 -4.453125 1.53125 -4.359375 1.875 -4.359375 C 2.875 -4.359375 3.46875 -5.0625 3.46875 -5.1875 C 3.46875 -5.28125 3.421875 -5.296875 3.375 -5.296875 C 3.375 -5.296875 3.34375 -5.296875 3.28125 -5.265625 C 2.96875 -5.140625 2.59375 -5.046875 2.171875 -5.046875 C 1.703125 -5.046875 1.3125 -5.15625 1.0625 -5.265625 C 0.984375 -5.296875 0.953125 -5.296875 0.953125 -5.296875 C 0.859375 -5.296875 0.859375 -5.21875 0.859375 -5.0625 L 0.859375 -2.734375 C 0.859375 -2.59375 0.859375 -2.5 0.984375 -2.5 C 1.046875 -2.5 1.0625 -2.53125 1.109375 -2.59375 C 1.203125 -2.703125 1.5 -3.109375 2.1875 -3.109375 C 2.625 -3.109375 2.84375 -2.75 2.921875 -2.59375 C 3.046875 -2.3125 3.0625 -1.9375 3.0625 -1.640625 C 3.0625 -1.34375 3.0625 -0.90625 2.84375 -0.5625 C 2.6875 -0.3125 2.359375 -0.078125 1.9375 -0.078125 C 1.421875 -0.078125 0.921875 -0.390625 0.734375 -0.921875 C 0.75 -0.90625 0.8125 -0.90625 0.8125 -0.90625 C 1.03125 -0.90625 1.21875 -1.046875 1.21875 -1.296875 C 1.21875 -1.59375 0.984375 -1.703125 0.828125 -1.703125 C 0.671875 -1.703125 0.421875 -1.625 0.421875 -1.28125 C 0.421875 -0.5625 1.046875 0.171875 1.953125 0.171875 C 2.953125 0.171875 3.796875 -0.609375 3.796875 -1.59375 Z M 3.796875 -1.59375 "/>
</g>
<g id="glyph-3-12">
<path d="M 3.875 -1.34375 C 3.875 -1.84375 3.609375 -2.171875 3.46875 -2.3125 C 3.34375 -2.4375 3.328125 -2.453125 2.640625 -2.875 C 3.09375 -3.09375 3.640625 -3.484375 3.640625 -4.109375 C 3.640625 -4.875 2.859375 -5.296875 2.125 -5.296875 C 1.28125 -5.296875 0.59375 -4.71875 0.59375 -3.96875 C 0.59375 -3.671875 0.6875 -3.40625 0.890625 -3.171875 C 1.03125 -3 1.0625 -2.984375 1.546875 -2.671875 C 0.5625 -2.234375 0.34375 -1.65625 0.34375 -1.21875 C 0.34375 -0.328125 1.234375 0.171875 2.109375 0.171875 C 3.078125 0.171875 3.875 -0.5 3.875 -1.34375 Z M 3.234375 -4.109375 C 3.234375 -3.65625 2.875 -3.265625 2.40625 -3.03125 L 1.40625 -3.625 C 1.171875 -3.765625 0.984375 -4 0.984375 -4.265625 C 0.984375 -4.765625 1.53125 -5.09375 2.109375 -5.09375 C 2.71875 -5.09375 3.234375 -4.671875 3.234375 -4.109375 Z M 3.421875 -1.0625 C 3.421875 -0.453125 2.765625 -0.078125 2.125 -0.078125 C 1.40625 -0.078125 0.8125 -0.5625 0.8125 -1.21875 C 0.8125 -1.8125 1.25 -2.28125 1.796875 -2.53125 L 2.875 -1.875 C 3 -1.796875 3.421875 -1.546875 3.421875 -1.0625 Z M 3.421875 -1.0625 "/>
</g>
<g id="glyph-3-13">
<path d="M 3.640625 -4.65625 L 3.640625 -4.953125 L 0.59375 -4.953125 L 0.59375 -4.65625 Z M 3.640625 -4.65625 "/>
</g>
<g id="glyph-4-0">
<path d="M 3.953125 -2.90625 C 3.953125 -3.515625 3.609375 -3.515625 3.5625 -3.515625 C 3.375 -3.515625 3.15625 -3.3125 3.15625 -3.109375 C 3.15625 -2.984375 3.21875 -2.921875 3.296875 -2.859375 C 3.46875 -2.703125 3.578125 -2.484375 3.578125 -2.21875 C 3.578125 -1.859375 3.0625 -0.140625 2.140625 -0.140625 C 1.796875 -0.140625 1.515625 -0.328125 1.515625 -0.828125 C 1.515625 -1.265625 1.765625 -1.890625 1.953125 -2.375 C 2.046875 -2.625 2.078125 -2.6875 2.078125 -2.84375 C 2.078125 -3.265625 1.71875 -3.515625 1.359375 -3.515625 C 0.5625 -3.515625 0.234375 -2.390625 0.234375 -2.296875 C 0.234375 -2.21875 0.296875 -2.1875 0.359375 -2.1875 C 0.46875 -2.1875 0.46875 -2.234375 0.5 -2.3125 C 0.703125 -3.015625 1.046875 -3.296875 1.328125 -3.296875 C 1.453125 -3.296875 1.515625 -3.21875 1.515625 -3.03125 C 1.515625 -2.84375 1.453125 -2.65625 1.375 -2.46875 C 0.984375 -1.453125 0.953125 -1.1875 0.953125 -0.953125 C 0.953125 -0.078125 1.65625 0.078125 2.109375 0.078125 C 3.4375 0.078125 3.953125 -2.296875 3.953125 -2.90625 Z M 3.953125 -2.90625 "/>
</g>
<g id="glyph-4-1">
<path d="M 4.75 -3.578125 C 4.75 -4.875 3.953125 -5.703125 2.890625 -5.703125 C 1.671875 -5.703125 1.296875 -4.671875 1.296875 -4.4375 C 1.296875 -4.234375 1.4375 -4.140625 1.609375 -4.140625 C 1.859375 -4.140625 2.0625 -4.359375 2.0625 -4.578125 C 2.0625 -4.671875 2.03125 -4.859375 1.71875 -4.875 C 2.03125 -5.390625 2.5625 -5.484375 2.890625 -5.484375 C 3.609375 -5.484375 4.109375 -4.9375 4.109375 -4.015625 C 4.109375 -3.5625 4.015625 -3.140625 3.890625 -2.734375 C 3.78125 -3.171875 3.484375 -3.640625 2.75 -3.640625 C 2 -3.640625 1.515625 -3.296875 1.140625 -2.96875 C 0.328125 -2.265625 0.328125 -1.34375 0.328125 -1.28125 C 0.328125 -0.78125 0.71875 0.171875 1.921875 0.171875 C 2.59375 0.171875 3.296875 -0.15625 3.84375 -0.890625 C 4.359375 -1.609375 4.75 -2.78125 4.75 -3.578125 Z M 3.734375 -2.34375 C 3.734375 -1.734375 3.171875 -0.078125 1.9375 -0.078125 C 1.046875 -0.078125 1 -0.828125 1 -0.984375 C 1 -1.296875 1.234375 -2.140625 1.3125 -2.34375 C 1.515625 -2.8125 2.015625 -3.421875 2.78125 -3.421875 C 3.453125 -3.421875 3.734375 -2.90625 3.734375 -2.34375 Z M 3.734375 -2.34375 "/>
</g>
<g id="glyph-4-2">
<path d="M 3.75 -5.796875 C 3.75 -5.890625 3.671875 -5.96875 3.5625 -5.96875 C 3.4375 -5.96875 3.40625 -5.875 3.375 -5.796875 L 0.515625 1.65625 C 0.46875 1.765625 0.46875 1.78125 0.46875 1.8125 C 0.46875 1.90625 0.546875 1.984375 0.65625 1.984375 C 0.78125 1.984375 0.8125 1.890625 0.84375 1.8125 L 3.703125 -5.640625 C 3.75 -5.75 3.75 -5.765625 3.75 -5.796875 Z M 3.75 -5.796875 "/>
</g>
<g id="glyph-4-3">
<path d="M 4.1875 -1.140625 C 4.1875 -1.21875 4.125 -1.25 4.0625 -1.25 C 3.96875 -1.25 3.953125 -1.1875 3.921875 -1.109375 C 3.765625 -0.578125 3.3125 -0.140625 2.859375 -0.140625 C 2.59375 -0.140625 2.40625 -0.3125 2.40625 -0.65625 C 2.40625 -0.8125 2.453125 -1 2.5625 -1.4375 L 2.828125 -2.53125 C 2.9375 -2.953125 3.21875 -3.296875 3.578125 -3.296875 C 3.625 -3.296875 3.828125 -3.296875 4 -3.171875 C 3.640625 -3.09375 3.625 -2.78125 3.625 -2.75 C 3.625 -2.578125 3.765625 -2.453125 3.9375 -2.453125 C 4.109375 -2.453125 4.375 -2.59375 4.375 -2.9375 C 4.375 -3.390625 3.875 -3.515625 3.578125 -3.515625 C 3.21875 -3.515625 2.90625 -3.25 2.71875 -2.9375 C 2.546875 -3.359375 2.140625 -3.515625 1.8125 -3.515625 C 0.9375 -3.515625 0.453125 -2.515625 0.453125 -2.296875 C 0.453125 -2.21875 0.515625 -2.1875 0.578125 -2.1875 C 0.671875 -2.1875 0.6875 -2.234375 0.703125 -2.328125 C 0.890625 -2.90625 1.375 -3.296875 1.78125 -3.296875 C 2.09375 -3.296875 2.25 -3.0625 2.25 -2.78125 C 2.25 -2.625 2.15625 -2.25 2.09375 -2 L 1.8125 -0.90625 C 1.703125 -0.484375 1.421875 -0.140625 1.0625 -0.140625 C 1.03125 -0.140625 0.828125 -0.140625 0.65625 -0.25 C 1.015625 -0.34375 1.015625 -0.6875 1.015625 -0.6875 C 1.015625 -0.875 0.875 -0.984375 0.703125 -0.984375 C 0.484375 -0.984375 0.25 -0.796875 0.25 -0.5 C 0.25 -0.125 0.640625 0.078125 1.046875 0.078125 C 1.46875 0.078125 1.765625 -0.234375 1.90625 -0.5 C 2.09375 -0.109375 2.453125 0.078125 2.84375 0.078125 C 3.703125 0.078125 4.1875 -0.921875 4.1875 -1.140625 Z M 4.1875 -1.140625 "/>
</g>
<g id="glyph-4-4">
<path d="M 1.71875 -0.03125 C 1.71875 -0.53125 1.515625 -0.890625 1.171875 -0.890625 C 0.890625 -0.890625 0.734375 -0.65625 0.734375 -0.453125 C 0.734375 -0.21875 0.890625 0 1.171875 0 C 1.375 0 1.484375 -0.125 1.484375 -0.125 C 1.484375 0.390625 1.375 0.859375 0.890625 1.34375 C 0.859375 1.375 0.84375 1.390625 0.84375 1.421875 C 0.84375 1.484375 0.90625 1.53125 0.953125 1.53125 C 1.046875 1.53125 1.71875 0.90625 1.71875 -0.03125 Z M 1.71875 -0.03125 "/>
</g>
<g id="glyph-4-5">
<path d="M 1.625 -0.4375 C 1.625 -0.703125 1.390625 -0.890625 1.171875 -0.890625 C 0.921875 -0.890625 0.734375 -0.671875 0.734375 -0.453125 C 0.734375 -0.171875 0.953125 0 1.171875 0 C 1.421875 0 1.625 -0.203125 1.625 -0.4375 Z M 1.625 -0.4375 "/>
</g>
<g id="glyph-4-6">
<path d="M 4.125 -3 C 4.15625 -3.109375 4.15625 -3.125 4.15625 -3.1875 C 4.15625 -3.390625 4 -3.4375 3.90625 -3.4375 C 3.859375 -3.4375 3.6875 -3.421875 3.578125 -3.21875 C 3.5625 -3.171875 3.484375 -2.890625 3.453125 -2.71875 L 2.96875 -0.8125 C 2.96875 -0.78125 2.625 -0.140625 2.046875 -0.140625 C 1.65625 -0.140625 1.515625 -0.4375 1.515625 -0.78125 C 1.515625 -1.25 1.78125 -1.953125 1.96875 -2.421875 C 2.046875 -2.625 2.078125 -2.6875 2.078125 -2.84375 C 2.078125 -3.28125 1.71875 -3.515625 1.359375 -3.515625 C 0.5625 -3.515625 0.234375 -2.390625 0.234375 -2.296875 C 0.234375 -2.21875 0.296875 -2.1875 0.359375 -2.1875 C 0.46875 -2.1875 0.46875 -2.234375 0.5 -2.3125 C 0.703125 -3.015625 1.046875 -3.296875 1.328125 -3.296875 C 1.453125 -3.296875 1.515625 -3.21875 1.515625 -3.03125 C 1.515625 -2.859375 1.453125 -2.671875 1.40625 -2.53125 C 1.078125 -1.6875 0.9375 -1.28125 0.9375 -0.90625 C 0.9375 -0.125 1.53125 0.078125 2 0.078125 C 2.375 0.078125 2.640625 -0.09375 2.84375 -0.265625 C 2.71875 0.171875 2.640625 0.484375 2.34375 0.875 C 2.078125 1.1875 1.765625 1.40625 1.40625 1.40625 C 1.265625 1.40625 0.96875 1.375 0.8125 1.140625 C 1.234375 1.109375 1.265625 0.75 1.265625 0.703125 C 1.265625 0.515625 1.109375 0.40625 0.953125 0.40625 C 0.765625 0.40625 0.5 0.546875 0.5 0.9375 C 0.5 1.3125 0.84375 1.625 1.40625 1.625 C 2.21875 1.625 3.125 0.96875 3.375 0.015625 Z M 4.125 -3 "/>
</g>
<g id="glyph-5-0">
<path d="M 3.015625 0 L 3.015625 -0.234375 L 2.765625 -0.234375 C 2.140625 -0.234375 2.140625 -0.3125 2.140625 -0.515625 L 2.140625 -3.796875 C 2.140625 -3.984375 2.125 -3.984375 1.9375 -3.984375 C 1.546875 -3.59375 0.9375 -3.59375 0.71875 -3.59375 L 0.71875 -3.359375 C 0.875 -3.359375 1.28125 -3.359375 1.640625 -3.53125 L 1.640625 -0.515625 C 1.640625 -0.3125 1.640625 -0.234375 1.015625 -0.234375 L 0.765625 -0.234375 L 0.765625 0 C 1.09375 -0.03125 1.5625 -0.03125 1.890625 -0.03125 C 2.21875 -0.03125 2.6875 -0.03125 3.015625 0 Z M 3.015625 0 "/>
</g>
<g id="glyph-5-1">
<path d="M 3.21875 -1.125 L 3 -1.125 C 2.984375 -1.03125 2.921875 -0.640625 2.84375 -0.578125 C 2.796875 -0.53125 2.3125 -0.53125 2.21875 -0.53125 L 1.109375 -0.53125 L 1.875 -1.15625 C 2.078125 -1.328125 2.609375 -1.703125 2.796875 -1.890625 C 2.96875 -2.0625 3.21875 -2.375 3.21875 -2.796875 C 3.21875 -3.546875 2.546875 -3.984375 1.734375 -3.984375 C 0.96875 -3.984375 0.4375 -3.46875 0.4375 -2.90625 C 0.4375 -2.609375 0.6875 -2.5625 0.75 -2.5625 C 0.90625 -2.5625 1.078125 -2.671875 1.078125 -2.890625 C 1.078125 -3.015625 1 -3.21875 0.734375 -3.21875 C 0.875 -3.515625 1.234375 -3.75 1.65625 -3.75 C 2.28125 -3.75 2.609375 -3.28125 2.609375 -2.796875 C 2.609375 -2.375 2.328125 -1.9375 1.921875 -1.546875 L 0.5 -0.25 C 0.4375 -0.1875 0.4375 -0.1875 0.4375 0 L 3.03125 0 Z M 3.21875 -1.125 "/>
</g>
<g id="glyph-6-0">
<path d="M 5.859375 -1.984375 C 5.859375 -2.171875 5.6875 -2.171875 5.578125 -2.171875 L 1 -2.171875 C 0.890625 -2.171875 0.703125 -2.171875 0.703125 -1.984375 C 0.703125 -1.8125 0.890625 -1.8125 1 -1.8125 L 5.578125 -1.8125 C 5.6875 -1.8125 5.859375 -1.8125 5.859375 -1.984375 Z M 5.859375 -1.984375 "/>
</g>
</g>
<clipPath id="clip-0">
<path clip-rule="nonzero" d="M 325 61 L 438.390625 61 L 438.390625 95 L 325 95 Z M 325 61 "/>
</clipPath>
<clipPath id="clip-1">
<path clip-rule="nonzero" d="M 166 236 L 247 236 L 247 270.25 L 166 270.25 Z M 166 236 "/>
</clipPath>
</defs>
<g fill="rgb(0%, 0%, 50%)" fill-opacity="1">
<use xlink:href="#glyph-0-0" x="25.708" y="15.027"/>
</g>
<g fill="rgb(0%, 0%, 50%)" fill-opacity="1">
<use xlink:href="#glyph-0-1" x="31.488638" y="15.027"/>
<use xlink:href="#glyph-0-2" x="36.794057" y="15.027"/>
<use xlink:href="#glyph-0-3" x="41.170557" y="15.027"/>
</g>
<g fill="rgb(0%, 0%, 50%)" fill-opacity="1">
<use xlink:href="#glyph-0-4" x="48.537351" y="15.027"/>
<use xlink:href="#glyph-0-2" x="53.694824" y="15.027"/>
<use xlink:href="#glyph-0-5" x="58.071324" y="15.027"/>
</g>
<g fill="rgb(0%, 0%, 50%)" fill-opacity="1">
<use xlink:href="#glyph-0-6" x="67.507564" y="15.027"/>
<use xlink:href="#glyph-0-1" x="76.349331" y="15.027"/>
</g>
<g fill="rgb(0%, 0%, 50%)" fill-opacity="1">
<use xlink:href="#glyph-0-5" x="81.950641" y="15.027"/>
<use xlink:href="#glyph-0-7" x="87.845152" y="15.027"/>
</g>
<g fill="rgb(0%, 0%, 50%)" fill-opacity="1">
<use xlink:href="#glyph-0-8" x="96.246669" y="15.027"/>
<use xlink:href="#glyph-0-9" x="100.373006" y="15.027"/>
<use xlink:href="#glyph-0-7" x="103.320262" y="15.027"/>
<use xlink:href="#glyph-0-10" x="108.189017" y="15.027"/>
<use xlink:href="#glyph-0-11" x="111.431267" y="15.027"/>
</g>
<g fill="rgb(0%, 0%, 50%)" fill-opacity="1">
<use xlink:href="#glyph-1-0" x="119.099332" y="15.027"/>
</g>
<g fill="rgb(0%, 0%, 50%)" fill-opacity="1">
<use xlink:href="#glyph-0-2" x="131.84776" y="15.027"/>
<use xlink:href="#glyph-0-12" x="136.22426" y="15.027"/>
<use xlink:href="#glyph-0-13" x="139.171516" y="15.027"/>
<use xlink:href="#glyph-0-14" x="144.476934" y="15.027"/>
</g>
<g fill="rgb(0%, 0%, 50%)" fill-opacity="1">
<use xlink:href="#glyph-0-11" x="150.075555" y="15.027"/>
<use xlink:href="#glyph-0-15" x="154.201892" y="15.027"/>
<use xlink:href="#glyph-0-16" x="158.328229" y="15.027"/>
</g>
<g fill="rgb(0%, 0%, 50%)" fill-opacity="1">
<use xlink:href="#glyph-2-0" x="25.708" y="28.951"/>
<use xlink:href="#glyph-2-1" x="30.41275" y="28.951"/>
<use xlink:href="#glyph-2-2" x="33.713168" y="28.951"/>
<use xlink:href="#glyph-2-0" x="37.947683" y="28.951"/>
<use xlink:href="#glyph-2-3" x="42.652433" y="28.951"/>
<use xlink:href="#glyph-2-4" x="46.886947" y="28.951"/>
<use xlink:href="#glyph-2-3" x="51.121461" y="28.951"/>
<use xlink:href="#glyph-2-5" x="55.355975" y="28.951"/>
<use xlink:href="#glyph-2-6" x="58.64922" y="28.951"/>
</g>
<g fill="rgb(0%, 0%, 50%)" fill-opacity="1">
<use xlink:href="#glyph-2-3" x="65.234117" y="28.951"/>
</g>
<g fill="rgb(0%, 0%, 50%)" fill-opacity="1">
<use xlink:href="#glyph-2-7" x="72.290046" y="28.951"/>
<use xlink:href="#glyph-2-6" x="76.994796" y="28.951"/>
<use xlink:href="#glyph-2-1" x="80.758278" y="28.951"/>
<use xlink:href="#glyph-2-8" x="84.058696" y="28.951"/>
<use xlink:href="#glyph-2-9" x="86.410673" y="28.951"/>
</g>
<g fill="rgb(0%, 0%, 50%)" fill-opacity="1">
<use xlink:href="#glyph-2-3" x="90.409272" y="28.951"/>
<use xlink:href="#glyph-2-5" x="94.643786" y="28.951"/>
<use xlink:href="#glyph-2-8" x="97.937031" y="28.951"/>
<use xlink:href="#glyph-2-9" x="100.289008" y="28.951"/>
</g>
<g fill="rgb(0%, 0%, 50%)" fill-opacity="1">
<use xlink:href="#glyph-2-6" x="104.52671" y="28.951"/>
</g>
<g fill="rgb(0%, 0%, 50%)" fill-opacity="1">
<use xlink:href="#glyph-2-5" x="111.111607" y="28.951"/>
<use xlink:href="#glyph-2-3" x="114.404852" y="28.951"/>
<use xlink:href="#glyph-2-4" x="118.639366" y="28.951"/>
</g>
<g fill="rgb(0%, 0%, 50%)" fill-opacity="1">
<use xlink:href="#glyph-3-0" x="126.962541" y="28.951"/>
</g>
<g fill="rgb(0%, 0%, 50%)" fill-opacity="1">
<use xlink:href="#glyph-4-0" x="125.696093" y="28.951"/>
</g>
<g fill="rgb(0%, 0%, 50%)" fill-opacity="1">
<use xlink:href="#glyph-3-1" x="132.457925" y="28.951"/>
</g>
<g fill="rgb(0%, 0%, 50%)" fill-opacity="1">
<use xlink:href="#glyph-4-1" x="141.395596" y="28.951"/>
</g>
<g fill="rgb(0%, 0%, 50%)" fill-opacity="1">
<use xlink:href="#glyph-4-0" x="146.326696" y="28.951"/>
</g>
<g fill="rgb(0%, 0%, 50%)" fill-opacity="1">
<use xlink:href="#glyph-4-2" x="150.73735" y="28.951"/>
<use xlink:href="#glyph-4-1" x="154.971864" y="28.951"/>
</g>
<g fill="rgb(0%, 0%, 50%)" fill-opacity="1">
<use xlink:href="#glyph-4-3" x="159.902965" y="28.951"/>
</g>
<g fill="rgb(0%, 0%, 50%)" fill-opacity="1">
<use xlink:href="#glyph-2-3" x="167.491297" y="28.951"/>
<use xlink:href="#glyph-2-10" x="171.725811" y="28.951"/>
<use xlink:href="#glyph-2-2" x="174.077788" y="28.951"/>
<use xlink:href="#glyph-2-11" x="178.312302" y="28.951"/>
<use xlink:href="#glyph-2-4" x="183.017052" y="28.951"/>
<use xlink:href="#glyph-2-12" x="187.251566" y="28.951"/>
<use xlink:href="#glyph-2-8" x="190.591835" y="28.951"/>
<use xlink:href="#glyph-2-7" x="192.943811" y="28.951"/>
<use xlink:href="#glyph-2-6" x="197.648561" y="28.951"/>
</g>
<g fill="rgb(0%, 0%, 50%)" fill-opacity="1">
<use xlink:href="#glyph-2-6" x="204.233458" y="28.951"/>
<use xlink:href="#glyph-2-3" x="207.996939" y="28.951"/>
<use xlink:href="#glyph-2-13" x="212.231453" y="28.951"/>
</g>
<g fill="rgb(0%, 0%, 50%)" fill-opacity="1">
<use xlink:href="#glyph-2-14" x="215.763802" y="28.951"/>
</g>
<g fill="rgb(0%, 0%, 50%)" fill-opacity="1">
<use xlink:href="#glyph-2-9" x="223.289967" y="28.951"/>
</g>
<g fill="rgb(0%, 0%, 50%)" fill-opacity="1">
<use xlink:href="#glyph-2-3" x="227.288566" y="28.951"/>
<use xlink:href="#glyph-2-10" x="231.52308" y="28.951"/>
<use xlink:href="#glyph-2-15" x="233.875057" y="28.951"/>
<use xlink:href="#glyph-2-6" x="238.579807" y="28.951"/>
<use xlink:href="#glyph-2-16" x="242.343288" y="28.951"/>
</g>
<path fill-rule="nonzero" fill="rgb(94.999695%, 94.999695%, 94.999695%)" fill-opacity="1" stroke-width="0.3985" stroke-linecap="butt" stroke-linejoin="miter" stroke="rgb(0%, 0%, 0%)" stroke-opacity="1" stroke-miterlimit="10" d="M 47.038562 76.538375 L -13.023937 76.538375 C -15.223156 76.538375 -17.008312 74.753219 -17.008312 72.550094 L -17.008312 57.843063 C -17.008312 55.643844 -15.223156 53.858688 -13.023937 53.858688 L 47.038562 53.858688 C 49.241687 53.858688 51.022937 55.643844 51.022937 57.843063 L 51.022937 72.550094 C 51.022937 74.753219 49.241687 76.538375 47.038562 76.538375 Z M 47.038562 76.538375 " transform="matrix(1, 0, 0, -1, 22.188, 143.179)"/>
<g fill="rgb(0%, 0%, 0%)" fill-opacity="1">
<use xlink:href="#glyph-3-2" x="12.788" y="79.975"/>
</g>
<g fill="rgb(0%, 0%, 0%)" fill-opacity="1">
<use xlink:href="#glyph-4-3" x="16.081245" y="79.975"/>
<use xlink:href="#glyph-4-4" x="20.848162" y="79.975"/>
</g>
<g fill="rgb(0%, 0%, 0%)" fill-opacity="1">
<use xlink:href="#glyph-3-0" x="27.464142" y="79.975"/>
</g>
<g fill="rgb(0%, 0%, 0%)" fill-opacity="1">
<use xlink:href="#glyph-4-3" x="26.022351" y="79.975"/>
</g>
<g fill="rgb(0%, 0%, 0%)" fill-opacity="1">
<use xlink:href="#glyph-3-3" x="30.789268" y="79.975"/>
</g>
<g fill="rgb(0%, 0%, 0%)" fill-opacity="1">
<use xlink:href="#glyph-3-1" x="36.433693" y="79.975"/>
</g>
<g fill="rgb(0%, 0%, 0%)" fill-opacity="1">
<use xlink:href="#glyph-3-2" x="45.371363" y="79.975"/>
<use xlink:href="#glyph-3-4" x="48.664608" y="79.975"/>
</g>
<g fill="rgb(0%, 0%, 0%)" fill-opacity="1">
<use xlink:href="#glyph-4-4" x="52.899122" y="79.975"/>
</g>
<g fill="rgb(0%, 0%, 0%)" fill-opacity="1">
<use xlink:href="#glyph-3-5" x="58.080484" y="79.975"/>
<use xlink:href="#glyph-3-3" x="62.314998" y="79.975"/>
</g>
<path fill-rule="nonzero" fill="rgb(91.999817%, 91.999817%, 100%)" fill-opacity="1" stroke-width="0.3985" stroke-linecap="butt" stroke-linejoin="miter" stroke="rgb(0%, 0%, 0%)" stroke-opacity="1" stroke-miterlimit="10" d="M 222.788563 104.882125 L 145.71825 104.882125 C 143.519031 104.882125 141.733875 103.100875 141.733875 100.89775 L 141.733875 86.190719 C 141.733875 83.9915 143.519031 82.206344 145.71825 82.206344 L 222.788563 82.206344 C 224.991688 82.206344 226.772938 83.9915 226.772938 86.190719 L 226.772938 100.89775 C 226.772938 103.100875 224.991688 104.882125 222.788563 104.882125 Z M 222.788563 104.882125 " transform="matrix(1, 0, 0, -1, 22.188, 143.179)"/>
<g fill="rgb(0%, 0%, 0%)" fill-opacity="1">
<use xlink:href="#glyph-3-2" x="176.524" y="51.628"/>
</g>
<g fill="rgb(0%, 0%, 0%)" fill-opacity="1">
<use xlink:href="#glyph-4-0" x="179.817245" y="51.628"/>
</g>
<g fill="rgb(0%, 0%, 0%)" fill-opacity="1">
<use xlink:href="#glyph-5-0" x="183.941" y="52.735"/>
</g>
<g fill="rgb(0%, 0%, 0%)" fill-opacity="1">
<use xlink:href="#glyph-4-4" x="188.092" y="51.628"/>
</g>
<g fill="rgb(0%, 0%, 0%)" fill-opacity="1">
<use xlink:href="#glyph-3-0" x="194.532638" y="51.628"/>
</g>
<g fill="rgb(0%, 0%, 0%)" fill-opacity="1">
<use xlink:href="#glyph-4-0" x="193.266189" y="51.628"/>
</g>
<g fill="rgb(0%, 0%, 0%)" fill-opacity="1">
<use xlink:href="#glyph-5-0" x="197.391" y="52.735"/>
</g>
<g fill="rgb(0%, 0%, 0%)" fill-opacity="1">
<use xlink:href="#glyph-3-3" x="201.542" y="51.628"/>
</g>
<g fill="rgb(0%, 0%, 0%)" fill-opacity="1">
<use xlink:href="#glyph-3-1" x="207.186425" y="51.628"/>
</g>
<g fill="rgb(0%, 0%, 0%)" fill-opacity="1">
<use xlink:href="#glyph-3-2" x="216.124095" y="51.628"/>
<use xlink:href="#glyph-3-6" x="219.41734" y="51.628"/>
</g>
<g fill="rgb(0%, 0%, 0%)" fill-opacity="1">
<use xlink:href="#glyph-4-4" x="223.651854" y="51.628"/>
</g>
<g fill="rgb(0%, 0%, 0%)" fill-opacity="1">
<use xlink:href="#glyph-3-6" x="228.825246" y="51.628"/>
<use xlink:href="#glyph-3-3" x="233.05976" y="51.628"/>
</g>
<path fill-rule="nonzero" fill="rgb(91.999817%, 91.999817%, 100%)" fill-opacity="1" stroke-width="0.3985" stroke-linecap="butt" stroke-linejoin="miter" stroke="rgb(0%, 0%, 0%)" stroke-opacity="1" stroke-miterlimit="10" d="M 234.128406 48.190719 L 134.382313 48.190719 C 132.179188 48.190719 130.394031 46.405563 130.394031 44.206344 L 130.394031 29.495406 C 130.394031 27.296188 132.179188 25.511031 134.382313 25.511031 L 234.128406 25.511031 C 236.327625 25.511031 238.112781 27.296188 238.112781 29.495406 L 238.112781 44.206344 C 238.112781 46.405563 236.327625 48.190719 234.128406 48.190719 Z M 234.128406 48.190719 " transform="matrix(1, 0, 0, -1, 22.188, 143.179)"/>
<g fill="rgb(0%, 0%, 0%)" fill-opacity="1">
<use xlink:href="#glyph-3-2" x="158.176" y="108.321"/>
</g>
<g fill="rgb(0%, 0%, 0%)" fill-opacity="1">
<use xlink:href="#glyph-4-0" x="161.469245" y="108.321"/>
</g>
<g fill="rgb(0%, 0%, 0%)" fill-opacity="1">
<use xlink:href="#glyph-5-1" x="165.593" y="109.428"/>
</g>
<g fill="rgb(0%, 0%, 0%)" fill-opacity="1">
<use xlink:href="#glyph-4-4" x="169.744" y="108.321"/>
</g>
<g fill="rgb(0%, 0%, 0%)" fill-opacity="1">
<use xlink:href="#glyph-3-0" x="176.184638" y="108.321"/>
</g>
<g fill="rgb(0%, 0%, 0%)" fill-opacity="1">
<use xlink:href="#glyph-4-0" x="174.918189" y="108.321"/>
</g>
<g fill="rgb(0%, 0%, 0%)" fill-opacity="1">
<use xlink:href="#glyph-5-1" x="179.043" y="109.428"/>
</g>
<g fill="rgb(0%, 0%, 0%)" fill-opacity="1">
<use xlink:href="#glyph-3-3" x="183.194" y="108.321"/>
</g>
<g fill="rgb(0%, 0%, 0%)" fill-opacity="1">
<use xlink:href="#glyph-3-1" x="188.838425" y="108.321"/>
</g>
<g fill="rgb(0%, 0%, 0%)" fill-opacity="1">
<use xlink:href="#glyph-3-2" x="197.776095" y="108.321"/>
<use xlink:href="#glyph-3-7" x="201.06934" y="108.321"/>
</g>
<g fill="rgb(0%, 0%, 0%)" fill-opacity="1">
<use xlink:href="#glyph-4-5" x="205.303854" y="108.321"/>
</g>
<g fill="rgb(0%, 0%, 0%)" fill-opacity="1">
<use xlink:href="#glyph-3-8" x="207.655831" y="108.321"/>
<use xlink:href="#glyph-3-7" x="211.890345" y="108.321"/>
<use xlink:href="#glyph-3-8" x="216.124859" y="108.321"/>
</g>
<g fill="rgb(0%, 0%, 0%)" fill-opacity="1">
<use xlink:href="#glyph-4-4" x="220.359373" y="108.321"/>
</g>
<g fill="rgb(0%, 0%, 0%)" fill-opacity="1">
<use xlink:href="#glyph-6-0" x="225.532765" y="108.321"/>
</g>
<g fill="rgb(0%, 0%, 0%)" fill-opacity="1">
<use xlink:href="#glyph-3-7" x="232.119256" y="108.321"/>
</g>
<g fill="rgb(0%, 0%, 0%)" fill-opacity="1">
<use xlink:href="#glyph-4-5" x="236.35377" y="108.321"/>
</g>
<g fill="rgb(0%, 0%, 0%)" fill-opacity="1">
<use xlink:href="#glyph-3-6" x="238.705747" y="108.321"/>
<use xlink:href="#glyph-3-5" x="242.940261" y="108.321"/>
<use xlink:href="#glyph-3-9" x="247.174775" y="108.321"/>
<use xlink:href="#glyph-3-3" x="251.409289" y="108.321"/>
</g>
<path fill-rule="nonzero" fill="rgb(87.998962%, 100%, 87.998962%)" fill-opacity="1" d="M 429.230469 66.640625 L 335.152344 66.640625 C 332.953125 66.640625 331.167969 68.425781 331.167969 70.628906 L 331.167969 85.335938 C 331.167969 87.535156 332.953125 89.320312 335.152344 89.320312 L 429.230469 89.320312 C 431.433594 89.320312 433.214844 87.535156 433.214844 85.335938 L 433.214844 70.628906 C 433.214844 68.425781 431.433594 66.640625 429.230469 66.640625 Z M 429.230469 66.640625 "/>
<g clip-path="url(#clip-0)">
<path fill="none" stroke-width="0.3985" stroke-linecap="butt" stroke-linejoin="miter" stroke="rgb(0%, 0%, 0%)" stroke-opacity="1" stroke-miterlimit="10" d="M 407.042469 76.538375 L 312.964344 76.538375 C 310.765125 76.538375 308.979969 74.753219 308.979969 72.550094 L 308.979969 57.843063 C 308.979969 55.643844 310.765125 53.858688 312.964344 53.858688 L 407.042469 53.858688 C 409.245594 53.858688 411.026844 55.643844 411.026844 57.843063 L 411.026844 72.550094 C 411.026844 74.753219 409.245594 76.538375 407.042469 76.538375 Z M 407.042469 76.538375 " transform="matrix(1, 0, 0, -1, 22.188, 143.179)"/>
</g>
<g fill="rgb(0%, 0%, 0%)" fill-opacity="1">
<use xlink:href="#glyph-3-2" x="341.02" y="79.975"/>
</g>
<g fill="rgb(0%, 0%, 0%)" fill-opacity="1">
<use xlink:href="#glyph-4-6" x="344.313245" y="79.975"/>
</g>
<g fill="rgb(0%, 0%, 0%)" fill-opacity="1">
<use xlink:href="#glyph-4-4" x="348.786065" y="79.975"/>
</g>
<g fill="rgb(0%, 0%, 0%)" fill-opacity="1">
<use xlink:href="#glyph-3-0" x="355.489717" y="79.975"/>
</g>
<g fill="rgb(0%, 0%, 0%)" fill-opacity="1">
<use xlink:href="#glyph-4-6" x="353.960254" y="79.975"/>
</g>
<g fill="rgb(0%, 0%, 0%)" fill-opacity="1">
<use xlink:href="#glyph-3-3" x="358.433074" y="79.975"/>
</g>
<g fill="rgb(0%, 0%, 0%)" fill-opacity="1">
<use xlink:href="#glyph-3-1" x="364.077499" y="79.975"/>
</g>
<g fill="rgb(0%, 0%, 0%)" fill-opacity="1">
<use xlink:href="#glyph-3-2" x="373.015169" y="79.975"/>
<use xlink:href="#glyph-3-6" x="376.308415" y="79.975"/>
</g>
<g fill="rgb(0%, 0%, 0%)" fill-opacity="1">
<use xlink:href="#glyph-4-5" x="380.542929" y="79.975"/>
</g>
<g fill="rgb(0%, 0%, 0%)" fill-opacity="1">
<use xlink:href="#glyph-3-8" x="382.894905" y="79.975"/>
<use xlink:href="#glyph-3-7" x="387.12942" y="79.975"/>
<use xlink:href="#glyph-3-8" x="391.363934" y="79.975"/>
</g>
<g fill="rgb(0%, 0%, 0%)" fill-opacity="1">
<use xlink:href="#glyph-4-4" x="395.598448" y="79.975"/>
</g>
<g fill="rgb(0%, 0%, 0%)" fill-opacity="1">
<use xlink:href="#glyph-3-10" x="400.77184" y="79.975"/>
</g>
<g fill="rgb(0%, 0%, 0%)" fill-opacity="1">
<use xlink:href="#glyph-4-5" x="405.006354" y="79.975"/>
</g>
<g fill="rgb(0%, 0%, 0%)" fill-opacity="1">
<use xlink:href="#glyph-3-11" x="407.35833" y="79.975"/>
<use xlink:href="#glyph-3-12" x="411.592844" y="79.975"/>
<use xlink:href="#glyph-3-6" x="415.827359" y="79.975"/>
<use xlink:href="#glyph-3-3" x="420.061873" y="79.975"/>
</g>
<path fill="none" stroke-width="0.79701" stroke-linecap="butt" stroke-linejoin="miter" stroke="rgb(0%, 0%, 50%)" stroke-opacity="1" stroke-miterlimit="10" d="M 51.222156 65.198531 L 137.831531 92.382125 " transform="matrix(1, 0, 0, -1, 22.188, 143.179)"/>
<path fill-rule="nonzero" fill="rgb(0%, 0%, 50%)" fill-opacity="1" stroke-width="0.79701" stroke-linecap="butt" stroke-linejoin="miter" stroke="rgb(0%, 0%, 50%)" stroke-opacity="1" stroke-miterlimit="10" d="M 5.102431 0.0014052 L 1.288914 1.444011 L 2.554845 -0.00147736 L 1.287879 -1.442177 Z M 5.102431 0.0014052 " transform="matrix(0.95406, -0.29945, -0.29945, -0.95406, 157.77302, 51.50192)"/>
<path fill="none" stroke-width="0.79701" stroke-linecap="butt" stroke-linejoin="miter" stroke="rgb(0%, 0%, 50%)" stroke-opacity="1" stroke-miterlimit="10" d="M 51.222156 65.198531 L 126.542469 38.163375 " transform="matrix(1, 0, 0, -1, 22.188, 143.179)"/>
<path fill-rule="nonzero" fill="rgb(0%, 0%, 50%)" fill-opacity="1" stroke-width="0.79701" stroke-linecap="butt" stroke-linejoin="miter" stroke="rgb(0%, 0%, 50%)" stroke-opacity="1" stroke-miterlimit="10" d="M 5.102113 -0.000409772 L 1.287986 1.444521 L 2.554251 -0.00186467 L 1.28736 -1.444426 Z M 5.102113 -0.000409772 " transform="matrix(0.94116, 0.33783, 0.33783, -0.94116, 146.51464, 104.22128)"/>
<path fill="none" stroke-width="0.79701" stroke-linecap="butt" stroke-linejoin="miter" stroke="rgb(0%, 0%, 50%)" stroke-opacity="1" stroke-miterlimit="10" d="M 226.972156 93.546188 L 305.112781 66.468063 " transform="matrix(1, 0, 0, -1, 22.188, 143.179)"/>
<path fill-rule="nonzero" fill="rgb(0%, 0%, 50%)" fill-opacity="1" stroke-width="0.79701" stroke-linecap="butt" stroke-linejoin="miter" stroke="rgb(0%, 0%, 50%)" stroke-opacity="1" stroke-miterlimit="10" d="M 5.099445 -0.000271824 L 1.287251 1.444581 L 2.55332 -0.00193346 L 1.288028 -1.444993 Z M 5.099445 -0.000271824 " transform="matrix(0.94485, 0.3274, 0.3274, -0.94485, 325.07641, 75.93956)"/>
<path fill="none" stroke-width="0.79701" stroke-linecap="butt" stroke-linejoin="miter" stroke="rgb(0%, 0%, 50%)" stroke-opacity="1" stroke-miterlimit="10" d="M 238.312 36.850875 L 305.179188 63.749313 " transform="matrix(1, 0, 0, -1, 22.188, 143.179)"/>
<path fill-rule="nonzero" fill="rgb(0%, 0%, 50%)" fill-opacity="1" stroke-width="0.79701" stroke-linecap="butt" stroke-linejoin="miter" stroke="rgb(0%, 0%, 50%)" stroke-opacity="1" stroke-miterlimit="10" d="M 5.099167 -0.000676007 L 1.288575 1.443716 L 2.552314 0.000634649 L 1.285154 -1.443343 Z M 5.099167 -0.000676007 " transform="matrix(0.92773, -0.37318, -0.37318, -0.92773, 325.18316, 80.30853)"/>
<path fill="none" stroke-width="0.3985" stroke-linecap="butt" stroke-linejoin="miter" stroke="rgb(79.998779%, 79.998779%, 79.998779%)" stroke-opacity="1" stroke-dasharray="2.98883 2.98883" stroke-miterlimit="10" d="M -8.504406 -2.836625 L 396.854969 -2.836625 " transform="matrix(1, 0, 0, -1, 22.188, 143.179)"/>
<g fill="rgb(50%, 0%, 0%)" fill-opacity="1">
<use xlink:href="#glyph-0-17" x="25.708" y="162.429"/>
<use xlink:href="#glyph-0-7" x="33.658507" y="162.429"/>
<use xlink:href="#glyph-0-18" x="38.527262" y="162.429"/>
</g>
<g fill="rgb(50%, 0%, 0%)" fill-opacity="1">
<use xlink:href="#glyph-0-7" x="43.831784" y="162.429"/>
<use xlink:href="#glyph-0-2" x="48.70054" y="162.429"/>
<use xlink:href="#glyph-0-19" x="53.077039" y="162.429"/>
<use xlink:href="#glyph-0-7" x="57.261658" y="162.429"/>
</g>
<g fill="rgb(50%, 0%, 0%)" fill-opacity="1">
<use xlink:href="#glyph-0-6" x="65.672141" y="162.429"/>
<use xlink:href="#glyph-0-1" x="74.513908" y="162.429"/>
</g>
<g fill="rgb(50%, 0%, 0%)" fill-opacity="1">
<use xlink:href="#glyph-0-5" x="80.106252" y="162.429"/>
<use xlink:href="#glyph-0-7" x="86.000764" y="162.429"/>
</g>
<g fill="rgb(50%, 0%, 0%)" fill-opacity="1">
<use xlink:href="#glyph-0-8" x="94.411247" y="162.429"/>
<use xlink:href="#glyph-0-2" x="98.537584" y="162.429"/>
<use xlink:href="#glyph-0-12" x="102.914084" y="162.429"/>
<use xlink:href="#glyph-0-13" x="105.86134" y="162.429"/>
<use xlink:href="#glyph-0-14" x="111.166758" y="162.429"/>
</g>
<g fill="rgb(50%, 0%, 0%)" fill-opacity="1">
<use xlink:href="#glyph-0-11" x="116.765379" y="162.429"/>
</g>
<g fill="rgb(50%, 0%, 0%)" fill-opacity="1">
<use xlink:href="#glyph-1-0" x="124.424477" y="162.429"/>
</g>
<g fill="rgb(50%, 0%, 0%)" fill-opacity="1">
<use xlink:href="#glyph-0-9" x="137.181871" y="162.429"/>
<use xlink:href="#glyph-0-7" x="140.129127" y="162.429"/>
<use xlink:href="#glyph-0-10" x="144.997882" y="162.429"/>
<use xlink:href="#glyph-0-11" x="148.240132" y="162.429"/>
<use xlink:href="#glyph-0-15" x="152.36647" y="162.429"/>
<use xlink:href="#glyph-0-16" x="156.492807" y="162.429"/>
</g>
<g fill="rgb(50%, 0%, 0%)" fill-opacity="1">
<use xlink:href="#glyph-2-17" x="25.708" y="176.353"/>
</g>
<g fill="rgb(50%, 0%, 0%)" fill-opacity="1">
<use xlink:href="#glyph-2-3" x="31.585152" y="176.353"/>
<use xlink:href="#glyph-2-10" x="35.819666" y="176.353"/>
<use xlink:href="#glyph-2-18" x="38.171642" y="176.353"/>
</g>
<g fill="rgb(50%, 0%, 0%)" fill-opacity="1">
<use xlink:href="#glyph-2-5" x="45.469863" y="176.353"/>
<use xlink:href="#glyph-2-14" x="48.763108" y="176.353"/>
<use xlink:href="#glyph-2-6" x="53.467858" y="176.353"/>
</g>
<g fill="rgb(50%, 0%, 0%)" fill-opacity="1">
<use xlink:href="#glyph-2-12" x="60.052755" y="176.353"/>
<use xlink:href="#glyph-2-5" x="63.393024" y="176.353"/>
<use xlink:href="#glyph-2-2" x="66.686269" y="176.353"/>
<use xlink:href="#glyph-2-1" x="70.920783" y="176.353"/>
<use xlink:href="#glyph-2-6" x="74.221202" y="176.353"/>
<use xlink:href="#glyph-2-7" x="77.984683" y="176.353"/>
</g>
<g fill="rgb(50%, 0%, 0%)" fill-opacity="1">
<use xlink:href="#glyph-2-4" x="85.510848" y="176.353"/>
<use xlink:href="#glyph-2-1" x="89.745362" y="176.353"/>
<use xlink:href="#glyph-2-3" x="93.045781" y="176.353"/>
<use xlink:href="#glyph-2-0" x="97.280295" y="176.353"/>
<use xlink:href="#glyph-2-14" x="101.985045" y="176.353"/>
</g>
<g fill="rgb(50%, 0%, 0%)" fill-opacity="1">
<use xlink:href="#glyph-2-19" x="109.51121" y="176.353"/>
<use xlink:href="#glyph-2-3" x="114.215961" y="176.353"/>
<use xlink:href="#glyph-2-13" x="118.450475" y="176.353"/>
</g>
<g fill="rgb(50%, 0%, 0%)" fill-opacity="1">
<use xlink:href="#glyph-2-18" x="121.982823" y="176.353"/>
<use xlink:href="#glyph-2-17" x="126.451658" y="176.353"/>
</g>
<g fill="rgb(50%, 0%, 0%)" fill-opacity="1">
<use xlink:href="#glyph-2-3" x="132.32881" y="176.353"/>
<use xlink:href="#glyph-2-1" x="136.563324" y="176.353"/>
<use xlink:href="#glyph-2-7" x="139.863742" y="176.353"/>
<use xlink:href="#glyph-2-12" x="144.568492" y="176.353"/>
</g>
<g fill="rgb(50%, 0%, 0%)" fill-opacity="1">
<use xlink:href="#glyph-2-17" x="150.730177" y="176.353"/>
<use xlink:href="#glyph-2-8" x="156.846431" y="176.353"/>
<use xlink:href="#glyph-2-5" x="159.198408" y="176.353"/>
<use xlink:href="#glyph-2-14" x="162.491653" y="176.353"/>
</g>
<g fill="rgb(50%, 0%, 0%)" fill-opacity="1">
<use xlink:href="#glyph-3-13" x="170.344593" y="176.353"/>
</g>
<g fill="rgb(50%, 0%, 0%)" fill-opacity="1">
<use xlink:href="#glyph-4-0" x="170.02021" y="176.353"/>
</g>
<g fill="rgb(50%, 0%, 0%)" fill-opacity="1">
<use xlink:href="#glyph-3-1" x="176.782043" y="176.353"/>
</g>
<g fill="rgb(50%, 0%, 0%)" fill-opacity="1">
<use xlink:href="#glyph-4-1" x="185.719713" y="176.353"/>
</g>
<g fill="rgb(50%, 0%, 0%)" fill-opacity="1">
<use xlink:href="#glyph-4-6" x="190.650814" y="176.353"/>
</g>
<g fill="rgb(50%, 0%, 0%)" fill-opacity="1">
<use xlink:href="#glyph-4-2" x="195.123634" y="176.353"/>
<use xlink:href="#glyph-4-1" x="199.358148" y="176.353"/>
</g>
<g fill="rgb(50%, 0%, 0%)" fill-opacity="1">
<use xlink:href="#glyph-4-0" x="204.289249" y="176.353"/>
</g>
<g fill="rgb(50%, 0%, 0%)" fill-opacity="1">
<use xlink:href="#glyph-2-16" x="208.699902" y="176.353"/>
</g>
<path fill-rule="nonzero" fill="rgb(94.999695%, 94.999695%, 94.999695%)" fill-opacity="1" stroke-width="0.3985" stroke-linecap="butt" stroke-linejoin="miter" stroke="rgb(0%, 0%, 0%)" stroke-opacity="1" stroke-miterlimit="10" d="M 47.038562 -70.867875 L -13.023937 -70.867875 C -15.223156 -70.867875 -17.008312 -72.649125 -17.008312 -74.85225 L -17.008312 -89.559281 C -17.008312 -91.7585 -15.223156 -93.543656 -13.023937 -93.543656 L 47.038562 -93.543656 C 49.241687 -93.543656 51.022937 -91.7585 51.022937 -89.559281 L 51.022937 -74.85225 C 51.022937 -72.649125 49.241687 -70.867875 47.038562 -70.867875 Z M 47.038562 -70.867875 " transform="matrix(1, 0, 0, -1, 22.188, 143.179)"/>
<g fill="rgb(0%, 0%, 0%)" fill-opacity="1">
<use xlink:href="#glyph-3-13" x="22.025" y="227.952"/>
</g>
<g fill="rgb(0%, 0%, 0%)" fill-opacity="1">
<use xlink:href="#glyph-4-3" x="21.525275" y="227.952"/>
</g>
<g fill="rgb(0%, 0%, 0%)" fill-opacity="1">
<use xlink:href="#glyph-3-1" x="28.643371" y="227.952"/>
</g>
<g fill="rgb(0%, 0%, 0%)" fill-opacity="1">
<use xlink:href="#glyph-3-10" x="37.581041" y="227.952"/>
</g>
<g fill="rgb(0%, 0%, 0%)" fill-opacity="1">
<use xlink:href="#glyph-4-5" x="41.815555" y="227.952"/>
</g>
<g fill="rgb(0%, 0%, 0%)" fill-opacity="1">
<use xlink:href="#glyph-3-11" x="44.167532" y="227.952"/>
<use xlink:href="#glyph-3-12" x="48.402046" y="227.952"/>
<use xlink:href="#glyph-3-6" x="52.63656" y="227.952"/>
</g>
<path fill-rule="nonzero" fill="rgb(91.999817%, 91.999817%, 100%)" fill-opacity="1" stroke-width="0.3985" stroke-linecap="butt" stroke-linejoin="miter" stroke="rgb(0%, 0%, 0%)" stroke-opacity="1" stroke-miterlimit="10" d="M 214.284656 -42.520219 L 154.222156 -42.520219 C 152.022938 -42.520219 150.237781 -44.305375 150.237781 -46.504594 L 150.237781 -61.211625 C 150.237781 -63.41475 152.022938 -65.196 154.222156 -65.196 L 214.284656 -65.196 C 216.487781 -65.196 218.269031 -63.41475 218.269031 -61.211625 L 218.269031 -46.504594 C 218.269031 -44.305375 216.487781 -42.520219 214.284656 -42.520219 Z M 214.284656 -42.520219 " transform="matrix(1, 0, 0, -1, 22.188, 143.179)"/>
<g fill="rgb(0%, 0%, 0%)" fill-opacity="1">
<use xlink:href="#glyph-3-13" x="194.863" y="199.052"/>
</g>
<g fill="rgb(0%, 0%, 0%)" fill-opacity="1">
<use xlink:href="#glyph-4-0" x="194.538617" y="199.052"/>
</g>
<g fill="rgb(0%, 0%, 0%)" fill-opacity="1">
<use xlink:href="#glyph-5-0" x="198.664" y="200.159"/>
</g>
<g fill="rgb(0%, 0%, 0%)" fill-opacity="1">
<use xlink:href="#glyph-3-1" x="205.167" y="199.052"/>
</g>
<g fill="rgb(0%, 0%, 0%)" fill-opacity="1">
<use xlink:href="#glyph-3-5" x="214.10467" y="199.052"/>
</g>
<path fill-rule="nonzero" fill="rgb(91.999817%, 91.999817%, 100%)" fill-opacity="1" d="M 236.472656 242.394531 L 176.410156 242.394531 C 174.210938 242.394531 172.425781 244.175781 172.425781 246.378906 L 172.425781 261.085938 C 172.425781 263.285156 174.210938 265.070312 176.410156 265.070312 L 236.472656 265.070312 C 238.675781 265.070312 240.457031 263.285156 240.457031 261.085938 L 240.457031 246.378906 C 240.457031 244.175781 238.675781 242.394531 236.472656 242.394531 Z M 236.472656 242.394531 "/>
<g clip-path="url(#clip-1)">
<path fill="none" stroke-width="0.3985" stroke-linecap="butt" stroke-linejoin="miter" stroke="rgb(0%, 0%, 0%)" stroke-opacity="1" stroke-miterlimit="10" d="M 214.284656 -99.215531 L 154.222156 -99.215531 C 152.022938 -99.215531 150.237781 -100.996781 150.237781 -103.199906 L 150.237781 -117.906937 C 150.237781 -120.106156 152.022938 -121.891312 154.222156 -121.891312 L 214.284656 -121.891312 C 216.487781 -121.891312 218.269031 -120.106156 218.269031 -117.906937 L 218.269031 -103.199906 C 218.269031 -100.996781 216.487781 -99.215531 214.284656 -99.215531 Z M 214.284656 -99.215531 " transform="matrix(1, 0, 0, -1, 22.188, 143.179)"/>
</g>
<g fill="rgb(0%, 0%, 0%)" fill-opacity="1">
<use xlink:href="#glyph-3-13" x="194.863" y="255.745"/>
</g>
<g fill="rgb(0%, 0%, 0%)" fill-opacity="1">
<use xlink:href="#glyph-4-0" x="194.538617" y="255.745"/>
</g>
<g fill="rgb(0%, 0%, 0%)" fill-opacity="1">
<use xlink:href="#glyph-5-1" x="198.664" y="256.852"/>
</g>
<g fill="rgb(0%, 0%, 0%)" fill-opacity="1">
<use xlink:href="#glyph-3-1" x="205.167" y="255.745"/>
</g>
<g fill="rgb(0%, 0%, 0%)" fill-opacity="1">
<use xlink:href="#glyph-3-5" x="214.10467" y="255.745"/>
</g>
<path fill-rule="nonzero" fill="rgb(87.998962%, 100%, 87.998962%)" fill-opacity="1" stroke-width="0.3985" stroke-linecap="butt" stroke-linejoin="miter" stroke="rgb(0%, 0%, 0%)" stroke-opacity="1" stroke-miterlimit="10" d="M 390.034656 -70.867875 L 329.972156 -70.867875 C 327.772938 -70.867875 325.987781 -72.649125 325.987781 -74.85225 L 325.987781 -89.559281 C 325.987781 -91.7585 327.772938 -93.543656 329.972156 -93.543656 L 390.034656 -93.543656 C 392.237781 -93.543656 394.019031 -91.7585 394.019031 -89.559281 L 394.019031 -74.85225 C 394.019031 -72.649125 392.237781 -70.867875 390.034656 -70.867875 Z M 390.034656 -70.867875 " transform="matrix(1, 0, 0, -1, 22.188, 143.179)"/>
<g fill="rgb(0%, 0%, 0%)" fill-opacity="1">
<use xlink:href="#glyph-3-13" x="372.779" y="227.177"/>
</g>
<g fill="rgb(0%, 0%, 0%)" fill-opacity="1">
<use xlink:href="#glyph-4-6" x="372.191604" y="227.177"/>
</g>
<g fill="rgb(0%, 0%, 0%)" fill-opacity="1">
<use xlink:href="#glyph-3-1" x="379.015603" y="227.177"/>
</g>
<g fill="rgb(0%, 0%, 0%)" fill-opacity="1">
<use xlink:href="#glyph-3-5" x="387.953273" y="227.177"/>
</g>
<path fill="none" stroke-width="0.79701" stroke-linecap="butt" stroke-linejoin="miter" stroke="rgb(50%, 0%, 0%)" stroke-opacity="1" stroke-miterlimit="10" d="M 325.788563 -82.203812 L 222.222156 -54.848344 " transform="matrix(1, 0, 0, -1, 22.188, 143.179)"/>
<path fill-rule="nonzero" fill="rgb(50%, 0%, 0%)" fill-opacity="1" stroke-width="0.79701" stroke-linecap="butt" stroke-linejoin="miter" stroke="rgb(50%, 0%, 0%)" stroke-opacity="1" stroke-miterlimit="10" d="M 5.102126 0.000810874 L 1.287264 1.441657 L 2.553328 -0.00169594 L 1.285701 -1.443565 Z M 5.102126 0.000810874 " transform="matrix(-0.96681, -0.25536, -0.25536, 0.96681, 246.6869, 198.63022)"/>
<path fill="none" stroke-width="0.79701" stroke-linecap="butt" stroke-linejoin="miter" stroke="rgb(50%, 0%, 0%)" stroke-opacity="1" stroke-miterlimit="10" d="M 325.788563 -82.203812 L 222.222156 -109.559281 " transform="matrix(1, 0, 0, -1, 22.188, 143.179)"/>
<path fill-rule="nonzero" fill="rgb(50%, 0%, 0%)" fill-opacity="1" stroke-width="0.79701" stroke-linecap="butt" stroke-linejoin="miter" stroke="rgb(50%, 0%, 0%)" stroke-opacity="1" stroke-miterlimit="10" d="M 5.102231 -0.000413245 L 1.285806 1.443963 L 2.553433 0.00209357 L 1.286372 -1.445036 Z M 5.102231 -0.000413245 " transform="matrix(-0.96681, 0.25536, 0.25536, 0.96681, 246.6869, 252.1389)"/>
<path fill="none" stroke-width="0.79701" stroke-linecap="butt" stroke-linejoin="miter" stroke="rgb(50%, 0%, 0%)" stroke-opacity="1" stroke-miterlimit="10" d="M 150.038563 -53.860062 L 54.952625 -81.1335 " transform="matrix(1, 0, 0, -1, 22.188, 143.179)"/>
<path fill-rule="nonzero" fill="rgb(50%, 0%, 0%)" fill-opacity="1" stroke-width="0.79701" stroke-linecap="butt" stroke-linejoin="miter" stroke="rgb(50%, 0%, 0%)" stroke-opacity="1" stroke-miterlimit="10" d="M 5.099637 -0.000875444 L 1.28719 1.442287 L 2.556267 0.00129906 L 1.288407 -1.443423 Z M 5.099637 -0.000875444 " transform="matrix(-0.96121, 0.27574, 0.27574, 0.96121, 79.40597, 223.66498)"/>
<path fill="none" stroke-width="0.79701" stroke-linecap="butt" stroke-linejoin="miter" stroke="rgb(50%, 0%, 0%)" stroke-opacity="1" stroke-miterlimit="10" d="M 150.038563 -110.551469 L 54.952625 -83.274125 " transform="matrix(1, 0, 0, -1, 22.188, 143.179)"/>
<path fill-rule="nonzero" fill="rgb(50%, 0%, 0%)" fill-opacity="1" stroke-width="0.79701" stroke-linecap="butt" stroke-linejoin="miter" stroke="rgb(50%, 0%, 0%)" stroke-opacity="1" stroke-miterlimit="10" d="M 5.099524 0.00127076 L 1.288293 1.443818 L 2.556154 -0.000903749 L 1.287077 -1.441891 Z M 5.099524 0.00127076 " transform="matrix(-0.96121, -0.27574, -0.27574, 0.96121, 79.40597, 227.10414)"/>
</svg>
